<svg version="1.1" xmlns="http://www.w3.org/2000/svg" xmlns:xlink="http://www.w3.org/1999/xlink" aria-hidden="true"
  x="0" y="0"
  width="12" height="15"
  viewBox="0 0 11.103 15" style="enable-background:new 0 0 11.103 15;" xml:space="preserve">
  <path d="M5.552,208A5.554,5.554,0,0,0,0,213.552a2.092,2.092,0,0,0,1.33,1.8,9.854,9.854,0,0,0,4.222.808,9.854,9.854,0,0,0,4.222-.808,2.092,2.092,0,0,0,1.33-1.8A5.554,5.554,0,0,0,5.552,208" transform="translate(0 -201.158)"/>
  <path d="M75.926,0a3.158,3.158,0,1,1-3.158,3.158A3.158,3.158,0,0,1,75.926,0" transform="translate(-70.374)"/>
</svg>