<?xml version="1.0" encoding="UTF-8"?>
<svg id="Calque_1" xmlns="http://www.w3.org/2000/svg" width="77" height="77" version="1.1" viewBox="0 0 77 77">
  <!-- Generator: Adobe Illustrator 29.8.1, SVG Export Plug-In . SVG Version: 2.1.1 Build 2)  -->
  <path d="M15.62,32.07l4.88-9.76c.94-1.86,2.83-3.04,4.92-3.04h26.17c2.08,0,3.98,1.18,4.91,3.04l4.88,9.76c.31.62.47,1.3.47,1.99,0,2.34-1.82,4.27-4.12,4.43v16.49c0,1.52-1.23,2.75-2.75,2.75s-2.75-1.23-2.75-2.75v-16.48h-8.24v15.11c0,2.27-1.85,4.12-4.12,4.12h-16.48c-2.27,0-4.12-1.85-4.12-4.12v-15.12c-2.3-.16-4.12-2.09-4.12-4.43,0-.69.16-1.37.47-1.99ZM24.76,38.5v9.61c0,.76.62,1.37,1.37,1.37h10.99c.76,0,1.37-.62,1.37-1.37v-9.61h-13.74Z"/>
</svg>