<?xml version="1.0" encoding="UTF-8"?>
<svg id="Calque_1" xmlns="http://www.w3.org/2000/svg" width="77" height="77" version="1.1" viewBox="0 0 77 77">
  <!-- Generator: Adobe Illustrator 29.8.1, SVG Export Plug-In . SVG Version: 2.1.1 Build 2)  -->
  <path d="M23.06,23.06c0-2.84,2.31-5.15,5.15-5.15h12.02c1.37,0,2.68.54,3.64,1.5l8.57,8.57c.97.97,1.5,2.28,1.5,3.64v22.31c0,2.84-2.31,5.15-5.15,5.15h-20.59c-2.84,0-5.15-2.31-5.15-5.15v-30.88ZM39.79,22.62v7.52c0,1.07.86,1.93,1.93,1.93h7.52l-9.45-9.45ZM32.71,38.5c-1.07,0-1.93.86-1.93,1.93s.86,1.93,1.93,1.93h11.58c1.07,0,1.93-.86,1.93-1.93s-.86-1.93-1.93-1.93h-11.58ZM32.71,46.22c-1.07,0-1.93.86-1.93,1.93s.86,1.93,1.93,1.93h11.58c1.07,0,1.93-.86,1.93-1.93s-.86-1.93-1.93-1.93h-11.58Z"/>
</svg>