<svg version="1.1" xmlns="http://www.w3.org/2000/svg" xmlns:xlink="http://www.w3.org/1999/xlink" aria-hidden="true"
    x="0" y="0"
    width="15" height="15"
    viewBox="0 0 14.97 14.97" style="enable-background:new 0 0 14.97 14.97;" xml:space="preserve">
    <path d="M7.485,0A7.485,7.485,0,1,0,14.97,7.485,7.485,7.485,0,0,0,7.485,0m2.581,2.065a.258.258,0,1,1-.258.258.258.258,0,0,1,.258-.258M1.431,5.252a.258.258,0,1,1-.484-.179A6.974,6.974,0,0,1,3.38,1.856a.258.258,0,0,1,.308.414l0,0A6.458,6.458,0,0,0,1.431,5.252M3.613,4.9a.258.258,0,1,1-.258-.258.258.258,0,0,1,.258.258m.258,6.711a.258.258,0,1,1,.258-.258.258.258,0,0,1-.258.258M3.355,8.775A1.032,1.032,0,1,1,4.388,7.743,1.032,1.032,0,0,1,3.355,8.775M4.388,1.807a.258.258,0,1,1,.258-.258.258.258,0,0,1-.258.258m2.065,10.84a.774.774,0,1,1,.774-.774.774.774,0,0,1-.774.774m0-3.871a.258.258,0,1,1,.258.258.258.258,0,0,1-.258-.258m.806-4.1c-.4.4-.874.586-1.278.183a1.032,1.032,0,0,1,0-1.46c.4-.4,1.359-.706,1.762-.3s-.082,1.177-.485,1.58m1,2.292a.258.258,0,1,1,.258-.258.258.258,0,0,1-.258.258m1.807,5.42a.258.258,0,1,1,.258-.258.258.258,0,0,1-.258.258m.258-1.807c-.57,0-.774-.72-.774-1.29s.2-1.032.774-1.032a1.032,1.032,0,0,1,1.032,1.032c0,.57-.462,1.29-1.032,1.29m1.032-4.388a.774.774,0,1,1,.774-.774.774.774,0,0,1-.774.774"/>
</svg>
