<?xml version="1.0" encoding="UTF-8"?>
<svg id="PATTERN" xmlns="http://www.w3.org/2000/svg" viewBox="0 0 227 242">
  <defs>
    <style>
      .cls-1 {
        fill: #eb8d50;
      }

      .cls-2 {
        fill: #ffebc8;
      }

      .cls-3 {
        fill: #fda865;
      }

      .cls-4 {
        fill: #fdbf83;
      }

      .cls-5 {
        fill: #7e4438;
      }

      .cls-6 {
        fill: #9e594d;
      }

      .cls-7 {
        fill: #643025;
      }
    </style>
  </defs>
  <g>
    <path class="cls-4" d="m180.83,31.31c-2.66-.36-4.51-3.43-6.52-4.96-2.61-1.99-5.6-2.48-8.62-2.88,2.23,4.03,2.97,8.25.55,12,3.13,6.87,3.24,16.02-4.25,18.07-1.09,6.21-5.86,12.08-11.92,11.59-2.49,3.64-6.51,5.63-10.48,4.71-6.7,10.03-22.83,7.63-28.99-2.34-3.27,1.09-6.76.69-9.33-1.53-.38,1.22-.64,2.47-.77,3.74-1.03,3.03-1.25,6.34-.53,9.51.66,2.92,2.29,5.49,3.06,8.37.7,2.6.72,5.33,1.1,7.99.39,2.7,1.06,5.39,2.62,7.68,1.72,2.52,4.22,4.26,6.35,6.38,3.83,3.8,4.75,9.85,9.7,12.64,2.7,1.52,5.75,1.1,8.66,1.78,3.11.73,5.82,2.7,8.49,4.36,2.75,1.7,5.59,3.16,8.77,3.83,3.06.64,6.26.62,9.36.37,5.62-.46,11.86-.95,16.91-3.67,2.7-1.46,4.51-3.97,7.04-5.65,2.73-1.81,5.32-3.71,7.71-5.97,2.34-2.23,4.48-4.65,6.57-7.11,2.12-2.49,4.39-4.99,5.96-7.88,2.32-4.25,1.96-9.58,3.29-14.31,1.72-6.14,3.47-9.83,3.29-16.53-.19-7.14-1.02-17.11-5.71-22.89-2.08-2.57-4.43-4.94-6.67-7.37-2.23-2.41-4.34-5.1-6.82-7.26-1.22-1.06-2.6-1.93-4.18-2.34-1.55-.4-3.11-.11-4.66-.32Z"/>
    <path class="cls-3" d="m193.29,51.63c-.11,4.77-1.67,9.39-3.45,13.82-2.01,5.01-4.31,9.91-7.25,14.43-1.3,2-2.78,3.98-4.84,5.19-1.57.93-3.39,1.34-5.07,2.06-7.25,3.12-11.43,11.6-19.04,13.7-8.2,2.26-16.08-3.8-24.16-6.44-4.91-1.61-10.17-1.96-15.06-3.63-5.59-1.91-10.53-5.6-14.07-10.32.77,2.42,2.02,4.67,2.69,7.13.7,2.6.72,5.33,1.1,7.99.39,2.7,1.06,5.39,2.62,7.68,1.72,2.52,4.22,4.26,6.35,6.38,3.83,3.8,4.75,9.85,9.7,12.64,2.7,1.52,5.75,1.1,8.66,1.78,3.11.73,5.82,2.7,8.49,4.36,2.75,1.7,5.59,3.16,8.77,3.83,3.06.64,6.26.62,9.36.37,5.62-.46,11.86-.95,16.91-3.67,2.7-1.46,4.51-3.97,7.04-5.65,2.73-1.81,5.32-3.71,7.71-5.97,2.34-2.23,4.48-4.65,6.57-7.11,2.12-2.49,4.39-4.99,5.96-7.88,2.32-4.25,1.96-9.58,3.29-14.31,1.72-6.14,3.47-9.83,3.29-16.53-.19-7.14-1.02-17.11-5.71-22.89-2.08-2.57-4.43-4.94-6.67-7.37-2.23-2.41-4.34-5.1-6.82-7.26-.73-.64-1.53-1.19-2.39-1.63,3.36,6.15,6.17,12.4,6.01,19.3Z"/>
    <path class="cls-1" d="m203.16,48.59c-.86-1.06-1.76-2.08-2.68-3.08,1.9,7.57,1.32,15.55.7,23.35-.78,9.71-1.61,19.63-5.54,28.55-1.57,3.56-3.86,7.14-7.48,8.58-1.25.5-2.62.73-3.77,1.42-1.56.94-2.5,2.6-3.59,4.07-4.02,5.43-10.84,8.67-17.59,8.36-2.21-.1-4.42-.56-6.63-.42-3.11.19-6.05,1.54-9.15,1.89-5.35.62-10.58-1.73-15.25-4.41-10.93-6.26-20.61-14.68-28.4-24.58.1,1.08.2,2.17.35,3.24.39,2.7,1.06,5.39,2.62,7.68,1.72,2.52,4.22,4.26,6.35,6.38,3.83,3.8,4.75,9.85,9.7,12.64,2.7,1.52,5.75,1.1,8.66,1.78,3.11.73,5.82,2.7,8.49,4.36,2.75,1.7,5.59,3.16,8.77,3.83,3.06.64,6.26.62,9.36.37,5.62-.46,11.86-.95,16.91-3.67,2.7-1.46,4.51-3.97,7.04-5.65,2.73-1.81,5.32-3.71,7.71-5.97,2.34-2.23,4.48-4.65,6.57-7.11,2.12-2.49,4.39-4.99,5.96-7.88,2.32-4.25,1.96-9.58,3.29-14.31,1.72-6.14,3.47-9.83,3.29-16.53-.19-7.14-1.02-17.11-5.71-22.89Z"/>
    <path class="cls-3" d="m117.61,76.67c-2.19,0-4.2,1.26-5.19,3.2-.51,1.01-.6,2.09-.45,3.17.16,2.01,1.05,4.13,1.87,5.8,1.07,2.17,2.64,4.21,4.48,5.79,1.55,1.34,3.33,2.32,5.4,2.47,2.08.15,4.23-.62,5.61-2.23,2.72-3.16,1.28-7.29-.72-10.37-1.5-2.3-3.43-4.26-5.69-5.81-1.63-1.12-3.27-2.01-5.32-2.02Z"/>
    <path class="cls-3" d="m153.3,74c1.21.77,1.98,1.49,2.87,2.62.43.55.77,1.16,1.07,1.78.44.9.94,1.84,1.25,2.8.38,1.2.56,2.6.25,3.84-.4,1.6-1.29,2.96-2.64,3.92-1.27.91-3.09,1.24-4.6.84-2.28-.59-4.09-2.21-5.43-4.09-.55-.77-.94-1.65-1.32-2.5-.39-.87-.55-1.81-.65-2.76,0-.05,0-.11-.01-.16-.18-.59-.31-1.2-.32-1.8-.02-1.85.82-3.62,2.41-4.62,1.34-.84,2.82-.99,4.35-.85.51.05.96.21,1.45.38.47.16.91.32,1.32.58Z"/>
    <path class="cls-3" d="m187.03,62.75c-.41,0-.85.09-1.24.21-.64.19-1.25.6-1.71,1.09-.65.68-.97,1.52-1.08,2.41-.2.56-.28.98-.3,1.65,0,.1,0,.19,0,.29.02.64.15,1.29.32,1.91.16.62.46,1.22.77,1.77.31.56.76,1.07,1.2,1.52.31.31.71.55,1.08.79.38.25.84.38,1.27.51.08.02.15.04.23.06.31.05.72.09,1.03.07.69-.05,1.4-.26,1.99-.63,1.73-1.09,2.19-3.18,2.07-5.08-.09-1.39-.49-2.68-1.14-3.9-.09-.18-.2-.34-.33-.5-.29-.36-.58-.75-.96-1.03-.35-.26-.71-.54-1.13-.7-.75-.28-1.26-.41-2.06-.42Z"/>
    <path class="cls-3" d="m162.84,56.07c-.82.3-1.27.62-1.9,1.21-.07.07-.12.15-.18.22-.44.99-.98,1.93-1.6,2.79-.12.49-.13.96-.17,1.6-.03.42-.09.86-.06,1.29.03.35.1.68.17,1.03.06.33.1.69.23,1.01.4,1.01.94,2.03,1.83,2.7.96.73,1.33.94,2.5,1.27.5.14,1.06.19,1.57.14,1.46-.13,2.76-.71,3.76-1.79,1.25-1.34,1.64-3.2,1.63-4.97,0-.17-.04-.34-.07-.51-.09-.51-.17-1.02-.3-1.52-.17-.66-.48-1.3-.82-1.88-.62-1.04-1.66-1.92-2.78-2.38-.83-.34-1.63-.57-2.54-.49-.43.04-.87.11-1.27.26Z"/>
    <path class="cls-3" d="m183.31,39.7c-.85-.43-1.76-.62-2.71-.56-.92.06-1.77.34-2.55.83-.8.52-1.42,1.2-1.85,2.06-.43.85-.62,1.76-.56,2.71,0,.02,0,.04,0,.06.09.45.17.89.25,1.34.02.05.04.1.06.15.2.47.42.97.67,1.42.3.52.77,1.02,1.24,1.43.48.43,1.05.77,1.58,1.12.16.11.33.21.51.3.29.14.58.22.89.33.41.14.58.24.93.27.6.05,1.22.14,1.82.1.08,0,.17-.01.25-.03.49-.07,1-.15,1.47-.28.04-.01.08-.02.12-.03.38-.18.76-.36,1.14-.54.02,0,.03-.02.05-.02.08-.04.16-.09.24-.14.71-.46,1.27-1.08,1.65-1.84.32-.57.47-1.17.46-1.81.09-.61.03-1.21-.18-1.8-.26-.79-.7-1.46-1.31-2.03-.16-.12-.32-.26-.49-.38-.1-.12-.19-.24-.29-.35-.12-.14-.25-.26-.38-.38-.13-.11-.26-.22-.4-.32-.43-.31-.87-.64-1.34-.9-.22-.13-.47-.22-.71-.32-.19-.13-.37-.25-.57-.38Z"/>
    <path class="cls-2" d="m168.58,31.5c1.75-.64,1.48-2.72-.16-3.42"/>
    <path class="cls-5" d="m116.6,74.63c-2.19,0-4.2,1.26-5.19,3.2-.51,1.01-.6,2.09-.45,3.17.16,2.01,1.05,4.13,1.87,5.8,1.07,2.17,2.64,4.21,4.48,5.79,1.55,1.34,3.33,2.32,5.4,2.47,2.08.15,4.23-.62,5.61-2.23,2.72-3.16,1.28-7.29-.72-10.37-1.5-2.3-3.43-4.26-5.69-5.81-1.63-1.12-3.27-2.01-5.32-2.02Z"/>
    <path class="cls-5" d="m138.7,104.84c-.41.02-.81.05-1.22.1-.62.08-1.27.16-1.86.36-1.38.46-2.77,1.56-3.03,3.07-.21,1.19.16,2.42,1.07,3.24.46.42,1.05.71,1.63.94.35.21.69.41,1.05.59,1.09.55,2.23.87,3.45.86,1.34-.01,2.59-.63,3.52-1.57.26-.26.45-.58.65-.88.09-.14.16-.27.22-.42.14-.33.29-.73.34-1.1.08-.67.05-1.11-.1-1.77-.27-1.23-1.3-2.34-2.44-2.84-1.06-.46-2.14-.62-3.29-.58Z"/>
    <path class="cls-5" d="m152.29,71.95c1.21.77,1.98,1.49,2.87,2.62.43.55.77,1.16,1.07,1.78.44.9.94,1.84,1.25,2.8.38,1.2.56,2.6.25,3.84-.4,1.6-1.29,2.96-2.64,3.92-1.27.91-3.09,1.24-4.6.84-2.28-.59-4.09-2.21-5.43-4.09-.55-.77-.94-1.65-1.32-2.5-.39-.87-.55-1.81-.65-2.76,0-.05,0-.11-.01-.16-.18-.59-.31-1.2-.32-1.8-.02-1.85.82-3.62,2.41-4.62,1.34-.84,2.82-.99,4.35-.85.51.05.96.21,1.45.38.47.16.91.32,1.32.58Z"/>
    <path class="cls-5" d="m183.61,90.32c.84.39,1.67.96,2.4,1.52.6.46,1.12,1.07,1.51,1.7.83,1.36,1.11,2.84.9,4.4-.22,1.66-1.33,3.03-2.65,3.98-.52.38-1.17.64-1.74.89-.58.26-1.19.34-1.81.45-.46.08-.9.11-1.37.09-1.94-.1-3.73-.4-5.38-1.52-.9-.61-1.77-1.21-2.58-1.94-.19-.18-.38-.35-.56-.54-.86-.86-1.36-1.77-1.8-2.9-.68-1.77-.11-3.94,1.13-5.3.64-.7,1.41-1.2,2.31-1.49.74-.24,1.49-.28,2.24-.2.73-.22,1.49-.35,2.26-.32,1.82.07,3.45.41,5.12,1.18Z"/>
    <path class="cls-5" d="m186.02,60.7c-.41,0-.85.09-1.24.21-.64.19-1.25.6-1.71,1.09-.65.68-.97,1.52-1.09,2.41-.2.56-.28.98-.3,1.65,0,.1,0,.19,0,.29.02.64.15,1.29.32,1.91.16.62.46,1.22.77,1.77.31.56.76,1.07,1.2,1.52.31.31.71.55,1.08.79.38.25.84.38,1.27.51.08.02.15.04.23.06.31.05.72.09,1.04.07.69-.05,1.4-.26,1.99-.63,1.73-1.09,2.19-3.18,2.07-5.08-.09-1.39-.49-2.68-1.14-3.9-.09-.18-.2-.34-.33-.5-.29-.36-.58-.75-.96-1.03-.35-.26-.71-.54-1.13-.7-.75-.28-1.26-.41-2.06-.42Z"/>
    <path class="cls-5" d="m164.1,105.74c-.4-.33-.87-.54-1.4-.63-.5-.12-.99-.11-1.48.02-.5.05-.95.22-1.37.51-.25.21-.51.43-.76.64-.47.53-.78,1.13-.93,1.83-.02.33-.05.66-.07,1,.04.67.25,1.29.61,1.86.14.25.3.49.47.71.29.37.59.73.91,1.07.1.11.21.22.32.32.05.05.11.09.16.14.03.02.05.05.08.07.01,0,.02.02.03.03.4.39.86.65,1.39.79.32.16.66.23,1.03.21.19.05.37.06.55.03.33-.06.67-.13,1-.19.51-.15.95-.4,1.31-.77-.46.39.29-.23.4-.34.52-.53.56-.76.76-1.34-.04.11.14-.35.18-.52.18-.7.1-.95-.02-1.54-.02-.18-.06-.36-.1-.53-.15-.31-.29-.62-.44-.93-.22-.26-.45-.53-.67-.79-.19-.16-.4-.29-.61-.42-.2-.15-.38-.32-.56-.5-.23-.28-.48-.53-.8-.71Z"/>
    <path class="cls-5" d="m161.89,54.01c-.59,2.87-1.96,5.63-3.87,7.69.03.16.05.31.08.47.06.33.1.69.23,1.01.4,1.01.94,2.03,1.83,2.7.96.73,1.33.94,2.5,1.27.5.14,1.06.19,1.57.14,1.46-.13,2.76-.71,3.76-1.79,1.25-1.34,1.64-3.2,1.63-4.97,0-.17-.04-.34-.07-.51-.09-.51-.17-1.02-.3-1.52-.17-.66-.48-1.3-.82-1.88-.62-1.04-1.66-1.92-2.78-2.38-.83-.34-1.63-.57-2.54-.49-.41.04-.82.11-1.21.24Z"/>
    <path class="cls-5" d="m182.3,37.65c-.85-.43-1.76-.62-2.71-.56-.92.06-1.77.34-2.55.83-.8.52-1.42,1.2-1.85,2.06-.43.85-.62,1.76-.56,2.71,0,.02,0,.04,0,.06.09.45.17.89.25,1.34.02.05.04.1.06.15.2.47.42.97.67,1.42.3.52.77,1.02,1.24,1.43.48.43,1.05.77,1.58,1.12.16.11.33.21.51.3.29.14.58.22.89.33.41.14.58.24.93.27.6.05,1.22.14,1.82.1.08,0,.17-.01.25-.03.49-.07,1-.15,1.47-.28.04-.01.08-.02.12-.03.38-.18.76-.36,1.14-.54.02,0,.03-.02.05-.02.08-.04.16-.09.24-.14.71-.46,1.27-1.08,1.65-1.84.32-.57.47-1.17.46-1.81.09-.61.03-1.21-.18-1.8-.26-.79-.7-1.46-1.31-2.03-.16-.12-.32-.26-.49-.38-.1-.12-.19-.24-.29-.35-.12-.14-.25-.26-.38-.38-.13-.11-.26-.22-.4-.32-.43-.31-.87-.64-1.34-.9-.22-.13-.47-.22-.71-.32-.19-.13-.37-.25-.57-.38Z"/>
    <path class="cls-7" d="m125.67,79.98c.42,1.23.72,2.5.77,3.8.1,2.78-1.23,5.81-3.82,6.83-2.19.86-4.75.08-6.6-1.37-1.85-1.45-3.13-3.49-4.38-5.48l-.03.16c.35,1.03.79,2.02,1.22,2.89,1.07,2.17,2.64,4.21,4.48,5.79,1.55,1.34,3.33,2.32,5.4,2.47,2.08.15,4.23-.62,5.61-2.23,2.72-3.16,1.28-7.29-.72-10.37-.58-.89-1.23-1.7-1.93-2.48Z"/>
    <path class="cls-7" d="m187.05,41.36c-.21,1.28-.68,2.48-1.61,3.36-1.61,1.51-4.17,1.58-6.21.76-1.76-.71-3.22-1.97-4.6-3.28,0,.16-.01.33,0,.49,0,.02,0,.04,0,.06.09.45.17.89.25,1.34.02.05.04.1.06.15.2.47.42.97.67,1.42.3.52.77,1.02,1.24,1.43.48.43,1.05.77,1.58,1.12.16.11.33.21.51.3.29.14.58.22.89.33.41.14.58.24.93.27.6.05,1.22.14,1.82.1.08,0,.17-.01.25-.03.49-.07,1-.15,1.47-.28.04-.01.08-.02.12-.03.38-.18.76-.36,1.14-.54.02,0,.03-.02.05-.02.08-.04.16-.09.24-.14.71-.46,1.27-1.08,1.65-1.84.32-.57.47-1.17.46-1.81.09-.61.03-1.21-.18-1.8-.17-.5-.43-.94-.74-1.36Z"/>
    <path class="cls-7" d="m168.58,58.95c-.76,2.32-2.61,4.37-4.99,4.93-2.06.48-4.43-.4-5.55-2.14.03.14.04.28.07.43.06.33.1.69.23,1.01.4,1.01.94,2.03,1.83,2.7.96.73,1.34.94,2.5,1.27.5.14,1.06.19,1.57.14,1.46-.13,2.76-.71,3.76-1.79,1.25-1.34,1.64-3.2,1.63-4.97,0-.17-.04-.34-.07-.51-.09-.51-.17-1.02-.3-1.52-.08-.32-.2-.65-.34-.96-.08.47-.18.94-.33,1.4Z"/>
    <path class="cls-7" d="m152.91,77.48c.23,2.34-.2,4.93-1.92,6.53-1.45,1.35-3.98,1.53-5.42.32,1.28,1.59,2.93,2.91,4.93,3.43,1.51.39,3.32.06,4.6-.84,1.35-.96,2.24-2.32,2.64-3.92.31-1.24.13-2.64-.25-3.84-.31-.96-.81-1.9-1.25-2.8-.3-.62-.64-1.23-1.07-1.78-.89-1.13-1.66-1.85-2.87-2.62-.42-.27-.86-.42-1.32-.58-.03-.01-.06-.02-.09-.03,1.1,1.87,1.82,3.97,2.03,6.14Z"/>
    <path class="cls-7" d="m190.16,62.85c-.29-.36-.58-.75-.96-1.03-.35-.26-.71-.54-1.13-.7-.05-.02-.1-.03-.15-.05.35,1.15.65,2.31.75,3.51.16,1.89-.2,3.89-1.36,5.39-.74.95-1.86,1.63-3.04,1.85.24.19.5.36.76.52.38.25.84.38,1.27.51.08.02.15.04.23.06.31.05.72.09,1.03.07.69-.05,1.4-.26,1.99-.63,1.73-1.09,2.19-3.18,2.07-5.08-.09-1.39-.49-2.68-1.14-3.9-.09-.18-.2-.34-.33-.5Z"/>
    <path class="cls-7" d="m185.66,96.27c-1.9,2.46-5.33,3.43-8.39,2.87-2.67-.49-5.06-2-6.99-3.93.03.43.11.85.27,1.25.43,1.13.93,2.04,1.8,2.9.18.18.37.36.56.54.8.73,1.67,1.33,2.58,1.94,1.65,1.12,3.44,1.42,5.38,1.52.46.02.91,0,1.37-.09.62-.11,1.23-.19,1.81-.45.56-.26,1.22-.52,1.74-.89,1.32-.95,2.43-2.32,2.65-3.98.21-1.56-.07-3.04-.9-4.4-.17-.27-.37-.53-.58-.78-.09,1.26-.51,2.51-1.29,3.51Z"/>
    <path class="cls-7" d="m164.04,111.06c-1.52.99-3.56.99-5.16.17.1.15.19.31.3.45.29.37.59.73.91,1.07.1.11.21.22.32.32.05.05.11.09.16.14.03.02.05.04.08.07.01,0,.02.02.03.03.4.39.86.65,1.39.79.32.16.66.23,1.03.21.19.05.37.06.55.03.33-.06.67-.13,1-.19.51-.15.95-.4,1.31-.77-.46.39.29-.23.4-.34.52-.53.56-.76.76-1.34-.04.11.14-.35.18-.52.18-.7.1-.95-.02-1.54-.02-.18-.06-.36-.1-.53-.15-.31-.29-.62-.44-.93-.18-.22-.36-.43-.55-.65-.21,1.42-.96,2.76-2.16,3.54Z"/>
    <path class="cls-7" d="m142.96,106.02c-.39,2.19-2,4.16-4.13,4.85-2.16.7-4.67.04-6.27-1.56.07.87.44,1.69,1.11,2.3.46.42,1.05.71,1.63.94.34.21.69.41,1.05.59,1.09.55,2.23.87,3.45.86,1.34,0,2.59-.63,3.52-1.57.26-.26.45-.58.65-.88.09-.14.16-.27.22-.42.14-.33.29-.73.34-1.1.08-.67.05-1.11-.1-1.77-.19-.87-.77-1.66-1.48-2.23Z"/>
    <path class="cls-6" d="m117.64,76.83c.51.28.95.64,1.14,1.21.15.44.11.9-.1,1.32-.18.36-.44.54-.74.79.12-.1.25-.21.37-.31-.35.3-.63.59-1.09.71-.04.01-.08.03-.12.04-.08.05-.16.09-.24.15-.08.08-.16.16-.23.25-.05.08-.1.15-.16.21-.04.04-.08.07-.12.11-.08.07-.13.17-.21.24-.36.36-.78.54-1.29.5-.53-.04-.91-.3-1.23-.71-.25-.33-.33-.82-.4-1.21-.02-.12,0-.19,0-.34.01-.14,0-.22.04-.35.07-.23.15-.46.24-.69.26-.63.74-1.15,1.3-1.53.79-.53,1.94-.89,2.82-.4Z"/>
    <path class="cls-6" d="m147.17,75.15c.22.12.39.29.52.51.16.19.25.44.31.68.09.34.1.6.07.92,0-.06,0-.11.01-.17,0,.06,0,.12-.01.19,0,.05,0,.09,0,.14,0,.05,0,.09-.01.14,0,.13,0,.27-.03.4,0,.04-.01.09-.02.13,0,.08,0,.16,0,.24,0,.17-.02.33-.04.5,0,.17,0,.35-.04.51-.04.16-.11.33-.18.48-.04.08-.07.16-.1.24.01-.04.03-.07.04-.11,0,.03-.02.04-.03.07,0,.02-.02.05-.03.06-.1.24-.3.41-.54.48,0,0,0,0,0,0,0,0,0,0,0,0-.06.02-.13.02-.19.03-.38.04-.88-.05-1.17-.21-.23-.12-.43-.3-.61-.5-.29-.31-.41-.5-.57-.86-.23-.49-.43-.97-.46-1.52-.02-.3-.01-.62.04-.92.1-.59.51-1.16,1.01-1.48.42-.27.9-.34,1.38-.26.26.04.48.14.68.31Z"/>
    <path class="cls-6" d="m163.66,59.45s0,0-.01,0c0,0,0,0,0,0,0,0,0,0,.01,0Z"/>
    <path class="cls-6" d="m161.71,55.19c-.05.03-.09.08-.14.11-.32,1.1-.75,2.17-1.28,3.17.01.03,0,.07.02.1l.17.36c.11.18.26.33.44.43.11.1.23.16.37.19.05.02.11.01.17.03.04.01.07.03.11.05-.01,0-.02,0-.03,0,.01,0,.02,0,.03,0,.46.15.96.1,1.43-.05.04-.01.09-.02.13-.03.17-.03.34-.06.51-.1,0,0,0,0,0,0,.11-.02.22-.05.32-.09.02,0,.05-.02.07-.03.02,0,.04-.01.05-.02.18-.09.36-.17.54-.26.14-.09.37-.3.48-.42.23-.23.34-.48.43-.75l-.07.21s.02-.05.03-.08c.17-.35.25-.71.23-1.1-.02-.37-.14-.72-.34-1.04-.23-.38-.55-.68-.95-.88-.44-.23-.93-.31-1.41-.25-.52.06-.87.17-1.32.43Zm1.44,4.36s.04-.01.06-.02c.14-.03.28-.05.42-.08-.16.03-.33.06-.49.09Z"/>
    <path class="cls-6" d="m180.63,37.53s-.02,0-.03,0c-.06-.01-.12-.02-.18-.03-.2-.03-.43-.06-.62-.05-.2,0-.39.06-.58.1-.11.02-.22.05-.33.09-.06.02-.11.04-.16.06-.02,0-.03.01-.05.02-.15.07-.3.14-.45.21-.13.11-.26.22-.39.33,0,0,0,.01-.01.02-.06.05-.12.1-.18.15-.17.18-.29.38-.35.62-.1.22-.13.45-.11.69.02.15.05.3.08.44.11.44.49.84.89,1.04.04.02.09.03.14.05.02,0,.03.01.05.02.16.09.32.17.55.21.03,0,.07.01.1.02.08.02.16.03.24.06.08.02.16.05.24.07.2.05.41.05.63.05.28.02.35.01.8-.09.03,0,.06-.01.09-.02l.47-.23c.15-.11.29-.23.42-.36.49-.48.66-1.35.43-1.99-.03-.09-.07-.17-.12-.25-.06-.17-.15-.32-.28-.44-.11-.13-.12-.17-.22-.24-.17-.12-.33-.26-.52-.35-.18-.06-.35-.12-.53-.19Z"/>
    <path class="cls-6" d="m184.91,63.26c-.18-.03-.36-.01-.53.05-.11.05-.22.1-.32.15-.21.14-.38.32-.49.55-.02.04-.04.08-.06.12,0,.02-.02.04-.03.06-.05.13-.11.27-.14.41-.08.3-.01.53.05.81,0,.04.02.09.03.13.07.26.19.51.36.72.11.17.25.29.43.39.18.09.37.13.56.12.37-.02.76-.25.92-.6.04-.09.1-.18.14-.27.04-.1.1-.19.16-.27.01-.02.03-.04.04-.07.04-.12.08-.24.13-.36,0,0,0-.02,0-.02,0-.02,0-.04,0-.06.01-.06.02-.13.04-.19.04-.18.04-.36,0-.54-.02-.18-.08-.35-.19-.5-.08-.09-.16-.19-.24-.28-.14-.14-.3-.23-.49-.28-.11-.06-.23-.08-.36-.07Z"/>
    <path class="cls-6" d="m177.66,90.67c-.4-.09-.82,0-1.21.07-.26.05-.51.1-.76.22-.12.05-.23.11-.35.16-.24.11-.5.2-.71.35-.19.13-.44.32-.59.48-.08.09-.15.18-.22.27-.34.43-.49.94-.31,1.47.08.25.22.46.41.64.2.18.44.3.71.36.11.04.23.09.35.11.1.02.21.02.31.02.33.02.5.04.79,0,.12-.02.24-.03.37-.05.87-.12,1.9-.44,2.42-1.19.21-.23.34-.5.41-.8.05-.22.05-.44-.01-.65-.09-.49-.4-1-.89-1.2-.22-.09-.48-.19-.73-.25Z"/>
    <path class="cls-6" d="m181.98,92.98s.04.05.05.08c-.02-.04-.04-.08-.06-.12,0,.02,0,.03,0,.05Z"/>
    <path class="cls-6" d="m183.75,91.75c-.08-.03-.16-.06-.25-.09,0,0-.02,0-.02,0-.02,0-.04,0-.06-.01-.02,0-.03,0-.05-.01-.05-.01-.09,0-.15-.01-.09-.02-.18-.01-.26.02-.05,0-.1.01-.14.03-.07.03-.14.06-.21.09-.07.04-.15.07-.22.11-.11.07-.2.16-.27.27-.06.07-.1.14-.12.23-.05.11-.06.22-.05.34,0-.04,0-.08,0-.12,0,0,0,0,0,.01,0,.04,0,.08,0,.12,0,0,0,.01,0,.02h0s0,.02,0,.02c0,.11.04.21.1.3.05.12.12.24.22.34.13.12.29.2.46.23.07,0,.14.02.21.03,0,0,0,0,.01,0,.09,0,.18.01.27.02.09-.02.17-.03.26-.05.08-.04.16-.08.24-.11.01,0,.03-.02.04-.02.03-.02.07-.03.09-.06.15-.1.26-.22.34-.38.08-.16.11-.32.1-.5-.02-.33-.22-.67-.53-.81,0,0,0,0-.01,0Z"/>
    <path class="cls-6" d="m182.05,93.09s0-.02-.01-.03c0,0,0,0,0,0,0,0,0,.01.01.02Z"/>
    <polygon class="cls-6" points="182.04 93.07 182.04 93.06 182.03 93.06 182.04 93.07"/>
    <path class="cls-6" d="m162.5,105.97c.15.03.28.1.39.2.07.03.13.08.19.13.09.11.19.22.28.33.06.13.12.26.18.39.01.04.08.39.08.43.01.17,0,.34-.04.5,0-.04-.1.34-.17.47-.04.07-.11.16-.14.21,0,0-.09.15-.14.21-.09.12-.2.22-.34.29-.13.06-.26.13-.4.19-.01,0-.02,0-.03,0-.12.03-.32.07-.44.09,0,0-.02,0-.02,0-.04,0-.09,0-.13,0-.16,0-.31-.02-.47-.03-.01,0-.02,0-.03,0-.27-.03-.4-.13-.59-.26-.26-.18-.2-.13-.45-.45,0,0,0-.01-.01-.02.06.07.12.15.18.22-.24-.24-.42-.57-.42-.92,0-.14.02-.28.03-.42,0,0,0-.02,0-.03.04-.14.09-.27.14-.41.09-.17.2-.31.34-.43.03-.03.06-.06.09-.1l-.03.05s0,0,0,0c.04-.05.09-.09.13-.13.03-.04.05-.06.05-.07.05-.06.12-.08.18-.13.02-.01.02-.03.04-.04.02-.01.05-.03.07-.05,0,0-.02.02-.03.03.09-.06.16-.15.26-.19.06-.05.12-.08.19-.09.02,0,.39-.08.41-.08.31-.03.4.02.65.1Z"/>
    <path class="cls-6" d="m137.2,105.7s-.09-.02-.14-.03c-.13-.03-.29-.04-.42-.04-.14,0-.28.04-.42.07-.23.05-.46.09-.67.23-.14.1-.27.22-.41.33-.17.15-.3.3-.4.51-.06.14-.13.29-.16.43-.02.12-.03.26-.02.39.04.29.13.54.35.75.01.01.03.03.04.04.18.16.41.27.64.33.04,0,.08.02.12.03.31.07.53.02.83-.04-.12.02-.24.05-.36.07.08-.02.16-.03.25-.04.32-.05.52-.09.8-.27.04-.02.07-.05.11-.07.04-.02.07-.05.11-.07.21-.14.32-.25.45-.45.04-.05.07-.11.11-.16,0,0,0-.01.01-.02.01-.02.03-.04.04-.05.18-.25.15-.19.23-.41.1-.27.09-.55-.03-.82-.11-.22-.28-.4-.5-.52-.17-.09-.37-.13-.56-.18Z"/>
    <path class="cls-3" d="m174.54,74.94c-.44-.15-.98-.14-1.38.15-.08.06-.15.11-.24.15.14-.06.27-.13.41-.2-.32.15-.61.28-.84.55-.04.04-.08.09-.12.13-.02.02-.05.04-.07.07-.04.03-.08.06-.12.09-.22.15-.41.31-.61.48l.34-.29c-.16.13-.33.24-.5.35-.18.07-.37.13-.56.17-.22.04-.43.07-.65.12.09-.02.19-.04.28-.05-.12.02-.25.04-.37.05-.33.03-.55.13-.79.35-.23.21-.24.55-.18.83.09.39.44.6.75.8.24.15.49.26.77.34.48.14.97.15,1.47.18-.13,0-.25-.02-.38-.03.37.04.76.07,1.13.05.49-.03.88-.19,1.32-.4.31-.15.5-.26.76-.53.17-.18.32-.42.45-.62.31-.48.31-1.22.11-1.75-.18-.48-.51-.82-.99-.99Z"/>
    <path class="cls-3" d="m175.68,70.09c-.23,0-.45.13-.61.29-.04.04-.07.09-.1.13-.05.07-.11.14-.16.21-.08.12-.13.25-.21.37-.05.09-.1.17-.13.26-.04.1-.1.2-.11.3-.02.12-.02.25.03.37.07.18.18.29.34.39.1.06.26.09.37.08.07,0,.15-.03.23-.05.04-.01.09-.03.13-.04.16-.06.29-.14.42-.24.09-.07.18-.15.27-.23.1-.08.17-.18.23-.29.1-.16.17-.32.22-.5,0-.08.01-.15.02-.23,0-.12-.03-.23-.09-.33-.08-.17-.22-.33-.39-.41-.14-.07-.3-.1-.46-.09Z"/>
    <path class="cls-3" d="m138.69,86.45c.09.07.18.14.27.2-.12-.08-.24-.16-.35-.24.25.17.41.26.59.48.09.11.18.22.27.33-.1-.12-.2-.24-.3-.35.31.36.56.74.86,1.1.23.26.48.49.76.69.18.11.36.21.54.3.25.13.53.3.74.49.16.15.29.33.42.51,0,0,.02.02.02.03,0,0,0,0,0,.01.01.01.02.03.04.05,0-.01-.02-.02-.03-.03.15.16.27.35.33.57.04.15.07.31.09.47.02.31-.04.61-.18.88-.39.71-1.19,1.07-1.98,1.15-.63.06-1.29-.2-1.82-.51-.39-.23-.79-.49-1.12-.81-.64-.64-1.21-1.41-1.48-2.28-.04-.14-.08-.28-.11-.42-.1-.47-.1-.73-.05-1.22.06-.5.32-.93.64-1.3.48-.55,1.29-.51,1.82-.09Z"/>
    <path class="cls-3" d="m168.24,43.56c.61-.25,1.09-.83,1.21-1.47.2-1.04-.19-1.97-.65-2.87-.3-.59-.73-1.18-1.21-1.62-.22-.2-.46-.38-.71-.54.78,2.11,1.27,4.36,1.35,6.5Z"/>
    <path class="cls-3" d="m153.75,65.69c-.23-.18-.67-.18-.79.14-.1.28-.2.56-.21.86,0,.11.02.21.04.32.03.18.06.36.11.54.12.42.49.86.88,1.06.31.16.65.28.99.29.25,0,.48-.16.61-.35.15-.22.17-.45.11-.71-.04-.16-.14-.31-.19-.47-.11-.3-.31-.63-.54-.86-.12-.12-.27-.22-.39-.34-.06-.06-.12-.12-.18-.18-.07-.06-.16-.11-.25-.16-.07-.05-.14-.1-.2-.15Z"/>
    <path class="cls-4" d="m120.82,100.6c-.15-.08-.29-.18-.45-.24-.13-.06-.27-.11-.4-.17-.19-.09-.39-.23-.6-.27-.36-.07-.71.08-.91.39-.26.42-.05.88.14,1.28.07.14.13.28.21.42.08.16.18.26.3.4.11.12.22.25.33.36.31.32.66.57,1.04.81.24.15.51.23.78.28.18.03.35.05.53.04.15-.01.32-.06.48-.09.36-.08.64-.42.75-.75.12-.34.1-.74-.11-1.04-.15-.2-.3-.4-.5-.55-.22-.18-.44-.33-.7-.44-.29-.13-.59-.27-.88-.42Z"/>
    <path class="cls-4" d="m125.85,101.44c-.09-.02-.19-.01-.28.02-.09.03-.17.08-.23.15-.01.02-.03.04-.04.06-.06.03-.08.07-.07.14,0,.02-.01.04-.02.06-.02.09-.01.19.02.28.03.09.08.17.15.23.13.15.26.34.44.43.07.03.14.07.21.1.13.05.26.09.4.08.04,0,.08,0,.12-.01.11,0,.2-.04.29-.1.09-.06.16-.14.21-.24.05-.1.07-.2.06-.31,0-.11-.04-.2-.1-.29-.02-.03-.03-.06-.05-.09-.07-.12-.18-.21-.3-.28-.07-.04-.14-.08-.21-.12-.19-.09-.4-.09-.61-.1Z"/>
    <path class="cls-4" d="m152.09,114.46s0-.01,0-.02c0,0,0,0,0,0,0,0,0,0,0,.01Z"/>
    <path class="cls-4" d="m154.58,112.52c-.07-.04-.14-.07-.22-.07-.01,0-.03,0-.04,0-.05,0-.09-.01-.14-.02-.01,0-.02,0-.04,0-.07-.01-.39-.04-.45-.03-.07,0-.15.02-.22.04-.15,0-.28.05-.4.13.05-.03.11-.05.16-.08-.05.03-.11.05-.16.08,0,0,0,0,0,0-.04.02-.08.04-.11.05-.06.03-.13.05-.19.09-.22.15-.23.19-.35.3,0,0,0,0-.01.01-.14.15-.24.31-.29.51-.06.12-.09.24-.08.37-.03.19,0,.37.06.55,0,.03,0,.06.02.09.07.29.28.56.51.75.35.31.83.52,1.31.47.18-.02.37-.06.55-.1.02,0,.05-.01.07-.02.14-.05.27-.11.4-.19.25-.16.44-.37.58-.64.06-.15.12-.31.16-.46,0-.01,0-.02,0-.03.05-.25.04-.5-.04-.75-.07-.2-.18-.37-.31-.52-.06-.08-.11-.13-.15-.17,0,0,0,0,0,0,0,0,0,0,0,0-.05-.04-.1-.08-.2-.15-.11-.1-.24-.17-.39-.2Z"/>
    <path class="cls-4" d="m152.09,114.45s0,0,0,0c-.03-.12-.05-.23-.07-.35.02.12.04.24.07.35Z"/>
    <path class="cls-4" d="m192.45,80.67s0,0,0,0c-.1.02-.19.04-.28.06-.19.06-.37.16-.53.28-.24.18-.54.37-.71.61-.21.28-.41.55-.61.84.09-.13.18-.27.28-.4-.17.24-.36.44-.57.64-.09.09-.18.19-.27.27-.19.18-.32.37-.47.59l.22-.32c-.1.14-.23.26-.28.43-.1.29-.17.54-.11.85.05.25.18.59.4.74.24.16.39.26.68.35.03,0,.06.02.1.03.2.05.41.07.62.04.47-.06.83-.16,1.25-.37.17-.08.34-.18.5-.29.27-.19.56-.4.78-.65.16-.17.29-.4.41-.59.13-.2.22-.43.27-.66.06-.3.09-.64.05-.94-.06-.49-.25-.88-.6-1.21-.08-.08-.16-.15-.24-.23-.23-.21-.61-.25-.87-.07Z"/>
    <path class="cls-4" d="m195.91,74.09c-.08-.02-.16-.01-.24.01-.12.01-.23.05-.33.12-.05.03-.16.12-.2.17,0,.01-.02.02-.03.03-.02.02-.04.04-.06.07-.1.11-.18.24-.25.38-.06.14-.13.26-.16.41-.01.06-.03.12-.05.18.03-.08.06-.16.09-.24-.04.12-.09.23-.11.36,0,.04-.02.08-.04.12,0-.03.02-.05.03-.07-.1.24-.1.5.05.73.14.23.42.37.69.35.16-.01.32-.04.47-.09.22-.07.49-.25.64-.42.17-.19.33-.49.38-.75.03-.15.02-.26,0-.4-.02-.1-.03-.19-.06-.29-.04-.19-.15-.29-.28-.44-.07-.05-.14-.09-.2-.14-.11-.06-.23-.09-.35-.09Z"/>
    <path class="cls-4" d="m197.16,55.9c-.18-.08-.36-.15-.55-.19-.13,0-.26-.02-.39-.03-.2,0-.38.06-.55.15-.13.04-.23.11-.32.21-.16.11-.28.26-.36.44.07-.1.13-.19.2-.29-.02.03-.05.06-.08.09-.22.23-.27.37-.36.63-.04.08-.06.16-.08.24-.01.15-.02.31-.03.46,0,.04,0,.08,0,.12.03.15.06.3.09.45.05.15.12.3.21.43,0,.01.02.02.02.03.02.02.03.05.04.08.03.07.08.13.15.18.13.18.3.33.51.42,0,0,.01,0,.02,0,0,0,.02,0,.02.01-.05-.04-.1-.07-.16-.11.1.09.22.15.35.18.18.08.37.11.57.09.44,0,.92-.23,1.2-.55.35-.4.62-.9.55-1.45-.04-.34-.1-.67-.3-.96-.18-.26-.41-.49-.7-.64-.01,0-.03-.01-.04-.02Z"/>
    <path class="cls-4" d="m118.81,58.98c-.18-.19-.46-.36-.69-.51-.05-.03-.09-.06-.14-.09-.1-.07-.21-.12-.33-.15-.11-.06-.22-.11-.34-.14-.11-.02-.22-.04-.32-.06-.11-.02-.22-.04-.32-.06-.23-.04-.48-.1-.71-.1-.23,0-.46.03-.69.08-.17.04-.34.08-.52.12-.31.09-.58.24-.81.47-.18.17-.31.36-.38.59-.11.22-.17.45-.16.71,0,.33.08.64.25.93.1.14.2.28.29.43.06.09.13.18.2.26.16.24.37.43.63.58.04.03.09.06.14.09.09.06.18.12.27.17.34.21.68.41,1.09.47.2.03.4.06.6.09.31.07.61.05.92-.04.3-.07.56-.21.78-.41.09-.06.17-.12.25-.2.22-.2.37-.44.46-.72.14-.32.19-.47.19-.89,0-.62-.26-1.18-.67-1.63Z"/>
    <path class="cls-4" d="m125.73,65.95c0,.17-.03.33-.11.48-.03.11-.08.2-.16.27-.09.14-.2.24-.35.32-.1.04-.2.08-.3.13-.12.02-.25.05-.37.05,0,0-.02,0-.03,0,0,0,0,0,0,0-.11-.01-.21-.03-.32-.04,0,0,0,0-.01,0-.01,0-.02,0-.03-.01-.09-.04-.2-.08-.28-.12,0,0-.01,0-.02-.01-.01,0-.02-.01-.04-.02,0,0,0,0,0,0-.13-.07-.23-.16-.31-.29-.07-.07-.12-.15-.14-.24-.02-.04-.04-.09-.06-.14-.05-.19-.05-.39,0-.58.04-.09.07-.17.11-.26.03-.05.07-.09.11-.14,0,0,0,0,0-.01.06-.08.13-.17.19-.25.11-.12.25-.21.4-.26.03-.02.07,0,.1-.02.04-.02.07-.03.11-.05,0,0-.01,0-.02,0,.01,0,.02,0,.04,0,.11-.04.21-.06.33-.06.28,0,.58.12.77.33.07.07.13.16.19.24.14.19.2.47.21.7Z"/>
    <path class="cls-4" d="m127.93,57.33c-.04-.1-.09-.2-.13-.3-.11-.19-.26-.34-.45-.45.08.06.16.12.24.18-.01,0-.02-.02-.03-.03,0,0,0,0-.01-.01-.17-.17-.26-.21-.45-.29-.05-.03-.11-.06-.18-.07-.12-.02-.24-.03-.37-.05-.19,0-.37.03-.53.12-.16.05-.3.15-.42.27.07-.06.14-.11.22-.17-.02.02-.04.03-.07.05-.01,0-.02.01-.03.02-.09.05-.18.11-.25.19l-.19.24c-.11.18-.16.38-.16.6-.01.25.09.47.19.68.01.03.03.05.04.07,0,0,0,0,0,0l.22.28c.17.17.37.29.61.35.12.02.24.03.37.05.07,0,.13-.01.19-.03.18,0,.35-.06.51-.16-.06.04.21-.14.29-.23.1-.1.18-.22.26-.33.09-.15.14-.3.15-.47.04-.17.03-.34-.02-.51Z"/>
    <path class="cls-4" d="m162.25,30.48c-.03-.57-.19-1.09-.5-1.58-.22-.29-.44-.57-.66-.86-.01-.01-.03-.03-.04-.04-.02-.02-.04-.04-.06-.06-.29-.26-.59-.54-.93-.72-.46-.29-.96-.45-1.5-.48-.54-.12-1.07-.1-1.61.07-.32.14-.64.27-.96.41-.61.36-1.09.84-1.44,1.44-.24.32-.54,1.13-.57,1.24-.05.38-.1.75-.15,1.13-.02.4.03.78.16,1.15.1.37.25.73.45,1.06.03.05.06.1.09.15.69,1.26,2.14,2.04,3.56,2.04s2.8-.79,3.56-2.04c.03-.05.06-.1.09-.15.09-.17.16-.35.23-.53.11-.17.19-.35.22-.54.18-.57.2-1.13.08-1.7Z"/>
    <path class="cls-4" d="m150.3,24.51c-.11-.52-.58-.94-1.08-1.08-.27-.07-.55-.07-.82,0-.26.07-.49.21-.68.4-.14.17-.27.34-.37.54-.15.28-.23.57-.24.89,0,.05,0,.11,0,.16,0,.05,0,.09,0,.14,0,.01,0,.02,0,.04.02.14.04.27.06.41.06.26.14.37.29.55.08.1.1.14.17.2.19.16.37.32.63.37.12.02.24.03.35.05.12-.02.24-.03.35-.05.01,0,.02,0,.03,0,.02,0,.05,0,.07-.01.12-.05.24-.1.37-.15.11-.08.22-.16.32-.25.07-.08.21-.25.26-.34.02-.04.04-.08.06-.13.02-.05.04-.09.07-.14.06-.13.14-.28.18-.42,0-.01,0-.02,0-.04.02-.14.04-.29.06-.43,0-.23-.03-.47-.07-.69Z"/>
    <path class="cls-4" d="m156.16,43.66c-.07-.26-.21-.49-.4-.68-.04-.04-.08-.08-.13-.12-.12-.1-.24-.19-.36-.28-.21-.15-.54-.24-.8-.23-.2,0-.39.03-.57.13-.18.06-.34.16-.48.31-.08.1-.15.2-.23.3-.13.23-.2.48-.2.75,0,.07,0,.14.03.21,0,.2.07.38.18.56,0,0,.01.02.02.02.01.02.03.04.04.07.02.04.05.08.06.13.07.13.15.24.26.35.19.19.42.32.68.4.14.02.27.04.41.06.28,0,.54-.07.78-.21.18-.1.32-.23.43-.4.14-.15.23-.32.28-.53.07-.27.07-.55,0-.82Z"/>
    <path class="cls-4" d="m145.68,54.57c-.02-.11-.04-.22-.07-.32-.13-.47-.37-.87-.71-1.22-.25-.27-.55-.46-.89-.57-.33-.17-.68-.25-1.06-.24-.5,0-.96.13-1.39.38-.27.21-.54.41-.8.63-.44.37-.81.98-.93,1.54-.08.37-.17.74-.18,1.11,0,.62.18,1.16.49,1.69.15.19.29.38.44.56.25.27.55.46.9.58.22.13.45.19.7.19.37.08.74.07,1.11-.05.04-.01.07-.03.11-.04.25-.1.49-.21.74-.31.45-.26.8-.62,1.07-1.07.06-.11.12-.22.17-.33.28-.57.44-.96.45-1.6,0-.31-.06-.63-.12-.93Z"/>
    <path class="cls-4" d="m141.86,47.35s-.01-.03-.02-.05c0-.05.12.07-.16-.37-.08-.11-.17-.22-.25-.32,0,0-.02-.01-.03-.02-.02-.02-.02-.05-.04-.07-.06-.11-.15-.19-.25-.25-.05-.04-.1-.07-.14-.11-.05-.04-.1-.06-.17-.07-.17-.09-.35-.13-.54-.12-.01,0-.36.05-.38.05-.11.05-.22.09-.34.14-.1.07-.2.15-.29.22-.01.01-.02.02-.03.03-.01.01-.02.02-.03.04-.07.09-.17.21-.24.31,0,0,0,.01-.01.02,0,.01-.02.03-.02.04-.04.07-.13.29-.16.37,0,0,0,.01,0,.02,0,0,0,.02,0,.02,0,0,0,0,0,0-.02.14-.04.27-.06.41,0,.02,0,.03,0,.05,0,.06.04.37.06.43,0,0,0,.01,0,.02.02.06.14.33.08.2.09.22.13.33.34.52.11.08.22.17.32.25l.38.16c.14.02.28.04.43.06.14-.02.28-.04.43-.06,0,0,0,0,.01,0,.03,0,.36-.15.39-.16.07-.04.08-.06.18-.13-.08.06.12-.09.17-.13.08-.1.16-.21.24-.31.05-.12.1-.25.16-.37,0,0,.06-.4.06-.41-.02-.14-.04-.27-.06-.41Z"/>
    <path class="cls-4" d="m129.16,43.09c-.08-.2-.27-.41-.5-.45-.13-.02-.25-.06-.36-.1-.04-.02-.08-.04-.13-.05-.17-.05-.28-.04-.44-.04-.09,0-.19,0-.28-.02-.12-.02-.13-.01-.32.01-.1.01-.17.03-.26.06-.03,0-.06.01-.08.02-.12,0-.23.02-.35,0,.05,0,.11.01.16.02-.13-.02-.25-.04-.38,0-.15.04-.28.13-.37.26-.18.23-.19.54-.06.8.11.21.27.41.43.58.09.09.19.17.29.25.15.12.27.19.46.26.14.05.29.05.43.06.09,0,.19,0,.28-.01.14-.02.29-.03.43-.06.21-.04.41-.18.56-.32.17-.16.32-.36.44-.57.12-.22.14-.46.04-.69Z"/>
    <path class="cls-4" d="m136.56,29.59c-.01-.26-.09-.49-.23-.72-.27-.44-.67-.75-1.1-1.03-.42-.28-.96-.32-1.45-.29-.3.02-.61.06-.91.13-.34.08-.73.2-.97.45-.35.38-.43.93-.18,1.38.12.22.3.34.49.49-.08-.06-.16-.13-.24-.19.17.13.31.29.44.44.02.04.05.07.07.11.01.03.03.05.04.08.17.29.4.5.68.7.15.13.31.28.48.37.15.06.31.13.46.19.26.08.51.09.77.03.17,0,.34-.04.49-.13.24-.08.44-.21.62-.4.23-.25.39-.53.49-.85.08-.26.09-.51.03-.77Z"/>
    <path class="cls-4" d="m115.79,46c-.07-.25-.2-.46-.38-.65-.1-.09-.2-.16-.3-.23-.17-.11-.35-.16-.54-.17-.19-.04-.39-.03-.58.03-.12.05-.23.1-.35.15-.22.13-.39.3-.52.52-.04.05-.07.11-.08.18-.09.17-.13.36-.13.56,0,.05.01.1.02.14,0,.06,0,.11,0,.17.02.13.03.25.05.38.04.19.13.35.26.49.06.11.15.19.26.26.14.13.3.21.49.26,0,0,.38.05.38.05.13-.02.25-.03.38-.05.19-.04.35-.13.49-.26.11-.06.19-.15.26-.26.13-.14.21-.3.26-.49.05-.18.07-.38.08-.57,0-.03,0-.06,0-.1,0-.14-.03-.34-.05-.42Z"/>
  </g>
  <g>
    <path class="cls-4" d="m115.9,186.55c-.35-1.56-1.31-2.82-1.82-4.3-.88-2.53,1.02-5.58,1.48-8.06,1.16-6.28-3.41-11.29-3.23-17.42.09-3.32-.52-6.02-2.6-8.66-1.96-2.48-4.42-4.6-6.68-6.81-4.4-4.31-9.56-10.75-16.58-8.71-.68.2-1.37.47-2.07.38-2.6-.36-6.49-5.71-9.58-6.88-5.43-2.06-10.86-1.19-15.91,1.34-1.59.8-2.43.5-4.1,0-1.4-.41-2.85-.65-4.31-.71-2.39-.09-4.76.39-6.98,1.23-3.17.46-6.22,1.75-8.72,3.82-2.3,1.91-3.86,4.52-6.08,6.52-2,1.8-4.43,3.05-6.63,4.59-2.23,1.57-4.33,3.38-5.66,5.81-1.47,2.67-1.89,5.69-2.82,8.55-1.66,5.13-6.64,8.69-6.89,14.37-.14,3.1,1.62,5.63,2.32,8.53.75,3.1.22,6.41-.05,9.55-.27,3.22-.3,6.42.56,9.56.82,3.02,2.27,5.86,3.9,8.52,2.95,4.81,6.21,10.15,10.92,13.42,2.52,1.75,5.58,2.22,8.23,3.72,2.85,1.62,5.71,3.07,8.81,4.17,3.04,1.08,6.17,1.89,9.31,2.65,3.18.77,6.43,1.66,9.72,1.76,4.84.14,9.43-2.58,14.25-3.54,6.25-1.24,10.34-1.35,16.23-4.54,6.28-3.4,14.8-8.65,17.83-15.44,1.36-3.02,2.4-6.18,3.56-9.28,1.14-3.08,2.58-6.18,3.39-9.36.4-1.57.55-3.19.2-4.78Z"/>
    <path class="cls-3" d="m101.58,202.55c-4.31,2.06-9.13,2.75-13.89,3.17-5.37.47-10.79.64-16.15.06-2.37-.25-4.81-.68-6.82-1.97-1.54-.99-2.73-2.42-4.13-3.59-6.06-5.05-15.52-4.95-20.82-10.79-5.72-6.29-3.88-16.06-5.18-24.46-.79-5.11-2.85-9.96-3.57-15.08-.83-5.85.23-11.92,2.85-17.22-1.81,1.78-3.25,3.92-5.15,5.62-2,1.8-4.43,3.05-6.63,4.59-2.23,1.57-4.33,3.38-5.67,5.81-1.47,2.67-1.89,5.69-2.82,8.55-1.66,5.13-6.64,8.69-6.89,14.37-.14,3.1,1.62,5.63,2.32,8.53.75,3.1.22,6.41-.05,9.55-.27,3.22-.3,6.42.56,9.56.82,3.02,2.27,5.86,3.9,8.52,2.95,4.81,6.22,10.15,10.92,13.42,2.52,1.75,5.58,2.22,8.23,3.72,2.85,1.62,5.71,3.07,8.81,4.17,3.04,1.08,6.17,1.89,9.31,2.65,3.18.77,6.43,1.66,9.72,1.76,4.84.14,9.43-2.58,14.25-3.54,6.25-1.24,10.34-1.35,16.23-4.54,6.28-3.4,14.8-8.65,17.83-15.44,1.35-3.02,2.4-6.18,3.56-9.28,1.14-3.08,2.58-6.18,3.39-9.36.24-.94.37-1.91.38-2.87-3.96,5.78-8.27,11.11-14.5,14.09Z"/>
    <path class="cls-1" d="m108.75,209.98c.56-1.24,1.06-2.51,1.54-3.79-5.9,5.12-13.27,8.21-20.51,11.18-9.01,3.7-18.24,7.44-27.97,7.97-3.89.21-8.11-.22-11.04-2.79-1.01-.89-1.83-2.01-2.98-2.72-1.55-.96-3.45-1.06-5.25-1.36-6.66-1.13-12.63-5.74-15.41-11.9-.91-2.02-1.5-4.19-2.62-6.1-1.58-2.69-4.11-4.71-5.83-7.31-2.97-4.49-3.24-10.22-2.96-15.59.64-12.58,3.77-25.02,9.08-36.45-.92.58-1.84,1.16-2.73,1.78-2.23,1.57-4.33,3.38-5.67,5.81-1.47,2.67-1.89,5.69-2.82,8.55-1.66,5.13-6.64,8.69-6.89,14.37-.14,3.1,1.62,5.63,2.32,8.53.75,3.1.22,6.41-.05,9.55-.27,3.22-.3,6.42.56,9.56.82,3.02,2.27,5.86,3.9,8.52,2.95,4.81,6.22,10.15,10.92,13.42,2.52,1.75,5.58,2.22,8.23,3.72,2.85,1.62,5.71,3.07,8.81,4.17,3.04,1.08,6.17,1.89,9.31,2.65,3.18.77,6.43,1.66,9.72,1.76,4.84.14,9.43-2.58,14.25-3.54,6.25-1.24,10.34-1.35,16.23-4.54,6.28-3.4,14.8-8.65,17.83-15.44Z"/>
    <path class="cls-3" d="m45.02,146.38c-.98-1.96-3.02-3.18-5.2-3.18-1.13,0-2.14.41-3.03,1.03-1.72,1.05-3.21,2.8-4.33,4.29-1.45,1.94-2.56,4.26-3.14,6.61-.49,1.99-.57,4.02.24,5.93.81,1.92,2.47,3.49,4.53,4,4.04,1,7.08-2.15,8.92-5.33,1.38-2.38,2.25-4.99,2.61-7.7.26-1.96.31-3.83-.6-5.66Z"/>
    <path class="cls-3" d="m63.55,177c-.14,1.43-.43,2.44-1.04,3.75-.3.63-.69,1.21-1.11,1.76-.61.8-1.21,1.67-1.93,2.38-.9.89-2.07,1.68-3.31,1.97-1.61.37-3.22.19-4.69-.58-1.38-.73-2.5-2.2-2.83-3.72-.5-2.3.12-4.65,1.19-6.69.44-.83,1.04-1.58,1.63-2.31.6-.74,1.37-1.31,2.17-1.83.04-.03.09-.05.14-.08.45-.42.93-.82,1.46-1.1,1.64-.86,3.6-.91,5.21.06,1.36.82,2.16,2.06,2.73,3.5.19.48.25.95.32,1.46.07.49.13.95.08,1.44Z"/>
    <path class="cls-3" d="m72.02,144.99c0-.18,0-.36-.02-.55-.19-1.42-.98-2.56-2.18-3.33-1.53-.99-3.49-.95-5.23-.71-.79.11-1.56.23-2.31.48-.78.26-1.62.54-2.3,1.01-1.06.72-1.98,1.67-2.31,2.95-.32,1.23-.16,2.58.51,3.67,1.92,3.12,6.53,3.56,9.66,2.27,1.01-.42,1.82-.83,2.65-1.56.85-.74,1.4-1.81,1.55-2.92.06-.45.03-.88-.03-1.3Z"/>
    <path class="cls-3" d="m88.83,201.99c-.18-.37-.46-.72-.74-1.01-.46-.49-1.1-.84-1.74-1.03-.9-.27-1.79-.18-2.64.12-.59.07-1,.19-1.61.48-.09.04-.17.08-.26.13-.56.3-1.09.72-1.56,1.14-.48.42-.88.96-1.23,1.49-.36.53-.62,1.16-.82,1.76-.14.42-.17.88-.21,1.32-.05.45.04.92.12,1.36.01.08.03.15.06.23.1.3.25.69.41.95.36.6.86,1.13,1.46,1.49,1.75,1.05,3.82.52,5.47-.45,1.2-.71,2.16-1.65,2.96-2.78.12-.16.22-.34.3-.52.19-.42.41-.86.49-1.32.07-.43.16-.88.11-1.32-.09-.8-.2-1.31-.56-2.03Z"/>
    <path class="cls-3" d="m84.66,178.42c-.23-.36-.49-.72-.81-1.02-.64-.6-1.13-.85-1.94-1.15-.15-.06-.31-.06-.47-.1-.09-.03-.19-.04-.28-.06-.17-.03-.34-.06-.51-.07-.14-.01-.26-.05-.4-.05-.19-.02-.38-.02-.57-.03-.09,0-.19-.01-.28-.01-1.06-.02-1.55.28-2.49.68-.39.17-.81.31-1.17.53-.3.18-.56.4-.84.62-.26.2-.57.41-.8.66-.73.81-1.38,1.76-1.58,2.86-.22,1.19-.23,1.61,0,2.8.1.51.31,1.03.58,1.46.77,1.24,1.88,2.14,3.3,2.55,1.76.51,3.59.01,5.17-.79.15-.08.28-.19.42-.29.41-.31.83-.62,1.22-.96.51-.45.95-1.02,1.3-1.58.65-1.02.96-2.35.86-3.55-.07-.89-.23-1.72-.71-2.49Z"/>
    <path class="cls-3" d="m95.41,156.53c-.41-.53-.83-.92-1.41-1.28-.34-.21-.75-.35-1.12-.49-.14-.05-.27-.1-.42-.13-1.21-.26-2.14-.18-3.35,0-1.44.22-2.8.77-4.13,1.36-.69.31-1.36.74-1.87,1.3-1.14,1.25-1.64,2.89-1.24,4.56.31,1.26,1.26,2.38,2.37,3.02.98.56,1.88.72,2.98.84,1.64.18,3.25-.26,4.74-.91.57-.24,1.11-.57,1.6-.94.02,0,.04,0,.06-.01.82-.23,1.52-.73,2.03-1.39.6-.77.88-1.71.89-2.69,0-1.19-.42-2.29-1.13-3.22Z"/>
    <path class="cls-3" d="m107.71,188.26c0-.96-.24-1.85-.72-2.67-.47-.8-1.1-1.43-1.9-1.9-.83-.48-1.72-.72-2.67-.72-.96,0-1.85.24-2.67.72-.02.01-.03.02-.05.03-.36.28-.72.55-1.08.83-.04.04-.07.08-.1.12-.33.39-.68.81-.96,1.24-.33.5-.56,1.15-.72,1.75-.16.62-.21,1.28-.29,1.92-.02.2-.04.39-.03.59,0,.32.06.62.11.94.06.43.04.63.18.95.22.56.43,1.15.74,1.67.04.07.09.14.14.21.28.4.58.83.91,1.19.03.03.06.06.08.09.33.26.66.51,1,.77.01.01.03.02.04.03.08.05.16.1.24.15.74.43,1.53.64,2.38.65.65.02,1.26-.11,1.82-.41.59-.19,1.09-.52,1.52-.98.59-.59.99-1.28,1.22-2.08.04-.2.08-.4.12-.61.06-.14.12-.28.18-.42.07-.17.12-.34.17-.51.04-.16.08-.33.1-.5.08-.53.17-1.07.2-1.6.01-.26-.01-.52-.04-.78.03-.22.06-.45.08-.68Z"/>
    <path class="cls-2" d="m77.23,132.95c-.23-1.47-1.87-2.09-3.01-2.7-.86-.46-1.6-1.05-2.4-1.61-.96-.67-2.12-1.21-3.31-1.09-.59.06-1.14.15-1.68.37-.76.31-1.26.75-1.68,1.45-.48.82-.07,2.1.93,2.29.16.03.32.08.48.13.21.07.43.11.66.11.08,0,.16,0,.23,0,.08.02.16.03.23.06.04.01.08.03.12.04,0,0,0,0,0,0,.19.1.39.17.58.24.14.08.28.15.42.24.09.06.18.12.27.18.21.16.18.13-.1-.09.18.09.35.28.51.41.79.65,1.6,1.26,2.49,1.77,1.23.7,2.91,1.47,4.26.58.87-.57,1.13-1.41.97-2.39Z"/>
    <path class="cls-2" d="m82.54,136.91c-.01-.05-.02-.11-.04-.16-.06-.14-.12-.28-.18-.42l-.02-.04c-.16-.27-.39-.47-.65-.65-.23-.16-.47-.33-.76-.4-.39-.09-.8-.06-1.19-.06-.49,0-.95.26-1.19.68-.25.43-.25.97,0,1.4.19.32.37.73.64.98.15.14.32.26.51.35.06.03.12.06.19.09.08.04.17.08.25.11.14.08.29.12.45.12.29.04.42.06.74-.03.05-.01.1-.03.15-.05.37-.13.75-.36.94-.72.05-.13.11-.25.16-.38.08-.28.08-.56,0-.84Z"/>
    <path class="cls-2" d="m101.53,142.62c-.54-.49-1.13-.94-1.72-1.36-.22-.15-.46-.25-.71-.35-.39-.17-.78-.33-1.18-.47-.24-.08-.48-.18-.72-.23-.47-.11-1.03-.08-1.5.07-.77.24-1.29,1.05-1.05,1.85.04.13.1.26.15.39.16.41.28.63.59.96.06.07.13.14.2.21.27.29.53.6.78.92-.12-.16-.24-.31-.36-.47.33.43.65.85,1.01,1.24.17.18.32.37.47.56.22.32.44.66.73.9.25.21.5.45.78.62.44.26.98.39,1.49.39,1.06,0,2.02-.74,2.31-1.76.37-1.32-.28-2.6-1.25-3.46Z"/>
    <path class="cls-2" d="m106.1,150.65c-.02-.18-.03-.35-.07-.52-.06-.13-.11-.27-.17-.4-.07-.14-.16-.26-.28-.36-.13-.13-.3-.24-.46-.35-.05-.03-.1-.06-.15-.09-.02-.01-.04-.02-.07-.03-.31-.15-.41-.19-.76-.21-.09,0-.19,0-.28.01-.15,0-.29.03-.43.1-.14.04-.26.12-.36.23-.2.21-.33.48-.32.78,0,.08,0,.15-.01.23.02-.12.03-.24.05-.36-.03.19-.07.37-.05.55,0,.08,0,.17,0,.25-.03.37.09.73.29,1.04.05.08.09.16.13.24-.04-.1-.08-.19-.12-.29.05.2.14.37.27.52.11.17.26.31.44.41.13.05.25.11.38.16.14.02.28.04.42.06l.41-.06c.13-.05.25-.1.38-.16.24-.14.43-.33.57-.57.14-.25.21-.51.22-.8.01-.13.01-.26,0-.39Z"/>
    <path class="cls-2" d="m111.22,169.3c-.1-.23-.1-.22-.25-.42-.05-.07-.11-.15-.17-.22-.03-.04-.07-.08-.11-.11-.11-.09-.22-.18-.34-.26,0,0-.02-.01-.03-.02-.06-.04-.29-.13-.35-.15l-.36-.05c-.19,0-.37.03-.53.12-.12.03-.22.09-.3.18-.15.1-.27.23-.35.39-.02.03-.04.08-.06.12-.04.07-.08.14-.13.21-.2.29-.23.64-.23.98,0,.05,0,.1,0,.15-.02.19,0,.38.04.56.05.14.1.27.17.41.13.22.19.24.29.36,0,0,0,.01.01.02.1.07.19.15.29.22.11.05.23.1.34.14.13.02.25.03.38.05,0,0,.02,0,.02,0,.01,0,.03,0,.04,0,0,0,.01,0,.02,0,.05,0,.39-.04.44-.06.09-.03.32-.12.4-.17.11-.09.22-.17.33-.25.08-.11.17-.22.26-.33.08-.15.13-.31.2-.46.03-.06.05-.13.07-.2,0-.03.01-.06.02-.09.02-.09.03-.18.04-.26.04-.15.04-.3,0-.45,0-.15-.04-.29-.12-.43Z"/>
    <path class="cls-5" d="m46.38,144.55c-.98-1.96-3.02-3.18-5.2-3.18-1.13,0-2.14.41-3.03,1.03-1.72,1.05-3.21,2.8-4.33,4.29-1.45,1.94-2.56,4.26-3.14,6.61-.49,1.99-.57,4.02.24,5.93.81,1.92,2.47,3.49,4.53,4,4.04,1,7.08-2.15,8.92-5.33,1.38-2.38,2.25-4.99,2.61-7.7.26-1.96.31-3.83-.6-5.66Z"/>
    <path class="cls-5" d="m29.44,177.93c-.2-.36-.41-.7-.64-1.04-.35-.52-.72-1.06-1.16-1.5-1.03-1.02-2.64-1.76-4.11-1.31-1.15.36-2.08,1.23-2.41,2.42-.16.6-.15,1.26-.1,1.88-.03.4-.05.81-.05,1.21,0,1.22.23,2.39.79,3.47.61,1.19,1.74,2.02,2.99,2.43.35.11.72.14,1.08.18.16.02.31.02.48,0,.36-.03.78-.07,1.14-.2.63-.23,1.01-.46,1.53-.89.97-.8,1.5-2.22,1.42-3.46-.07-1.15-.41-2.19-.97-3.2Z"/>
    <path class="cls-5" d="m64.91,175.18c-.14,1.43-.43,2.44-1.04,3.75-.3.63-.69,1.21-1.11,1.76-.61.8-1.21,1.67-1.93,2.38-.9.89-2.07,1.68-3.31,1.97-1.61.37-3.22.19-4.69-.58-1.38-.73-2.5-2.2-2.83-3.72-.5-2.3.12-4.65,1.19-6.69.44-.83,1.04-1.58,1.63-2.31.6-.74,1.37-1.31,2.17-1.83.04-.03.09-.05.14-.08.45-.42.93-.82,1.46-1.1,1.64-.86,3.6-.91,5.21.06,1.36.82,2.16,2.06,2.73,3.5.19.48.25.95.32,1.46.07.49.13.95.08,1.44Z"/>
    <path class="cls-5" d="m73.39,143.17c0-.18,0-.36-.02-.55-.19-1.42-.98-2.56-2.18-3.33-1.53-.99-3.49-.95-5.23-.71-.79.11-1.56.23-2.31.48-.78.26-1.62.54-2.3,1.01-1.06.72-1.98,1.67-2.31,2.95-.32,1.23-.16,2.58.51,3.67,1.92,3.12,6.54,3.56,9.66,2.27,1.01-.42,1.82-.83,2.65-1.56.85-.74,1.4-1.81,1.55-2.92.06-.45.03-.88-.03-1.3Z"/>
    <path class="cls-5" d="m62.69,211.41c.03.93-.1,1.93-.27,2.83-.14.74-.44,1.48-.84,2.12-.84,1.36-2.03,2.27-3.52,2.79-1.58.56-3.3.18-4.75-.56-.57-.3-1.1-.76-1.58-1.15-.49-.4-.84-.91-1.22-1.41-.28-.37-.51-.75-.69-1.18-.79-1.77-1.33-3.5-1.08-5.48.14-1.08.27-2.13.57-3.17.07-.25.14-.5.22-.75.38-1.16.96-2.02,1.77-2.92,1.27-1.4,3.46-1.88,5.24-1.39.91.26,1.71.72,2.38,1.39.55.55.92,1.2,1.19,1.91.53.56.99,1.17,1.31,1.87.76,1.66,1.2,3.26,1.26,5.1Z"/>
    <path class="cls-5" d="m90.2,200.17c-.18-.37-.46-.72-.74-1.01-.46-.49-1.1-.84-1.74-1.03-.9-.27-1.79-.18-2.64.12-.59.07-1,.19-1.61.48-.09.04-.17.08-.26.13-.56.3-1.09.72-1.56,1.14-.48.42-.88.96-1.23,1.49-.36.53-.62,1.16-.82,1.76-.14.42-.17.88-.21,1.32-.05.45.04.92.12,1.36.01.08.03.15.06.23.1.3.25.69.41.95.36.6.86,1.13,1.46,1.49,1.75,1.05,3.82.52,5.47-.45,1.2-.71,2.16-1.65,2.96-2.78.12-.16.22-.34.3-.52.19-.42.41-.86.49-1.32.07-.43.16-.88.11-1.32-.09-.8-.2-1.31-.56-2.03Z"/>
    <path class="cls-5" d="m40.12,200.99c.11-.51.09-1.02-.07-1.53-.12-.5-.35-.94-.69-1.31-.27-.42-.63-.75-1.08-.99-.31-.13-.61-.26-.92-.39-.68-.18-1.36-.18-2.05,0-.31.13-.61.26-.92.39-.58.34-1.04.8-1.38,1.38-.16.24-.3.48-.42.74-.19.42-.38.86-.54,1.29-.05.14-.1.28-.14.43-.02.07-.04.14-.05.21,0,.03-.02.07-.02.1,0,.01,0,.03,0,.04-.17.53-.19,1.06-.07,1.6,0,.36.09.7.27,1.01.04.19.11.36.22.51.21.27.41.54.62.81.36.39.79.66,1.28.82-.56-.24.34.16.49.21.71.23.93.15,1.54.07-.11.01.38-.04.54-.07.71-.16.89-.34,1.37-.71.15-.1.29-.21.43-.33.21-.27.42-.54.63-.81.13-.32.27-.64.4-.96.05-.24.07-.49.1-.73.05-.25.11-.49.19-.72.15-.33.25-.67.27-1.03Z"/>
    <path class="cls-5" d="m86.02,176.6c-.23-.36-.49-.72-.81-1.02-.64-.6-1.13-.85-1.94-1.15-.15-.06-.31-.06-.47-.1-.09-.03-.19-.04-.28-.06-.17-.03-.34-.06-.51-.07-.13-.01-.26-.05-.4-.05-.19-.02-.38-.02-.57-.03-.09,0-.19-.01-.28-.01-1.06-.02-1.55.28-2.49.68-.39.17-.81.31-1.17.53-.3.18-.56.4-.84.62-.26.2-.57.41-.8.66-.72.81-1.38,1.76-1.58,2.86-.22,1.19-.23,1.61,0,2.8.1.51.31,1.03.58,1.46.77,1.24,1.88,2.14,3.3,2.55,1.76.51,3.59.01,5.17-.79.15-.08.28-.19.42-.29.41-.31.83-.62,1.22-.96.51-.45.95-1.02,1.3-1.58.65-1.02.96-2.35.86-3.55-.07-.89-.23-1.72-.71-2.49Z"/>
    <path class="cls-5" d="m96.78,154.71c-.41-.53-.83-.92-1.41-1.28-.34-.21-.75-.35-1.12-.49-.14-.05-.27-.1-.42-.13-1.21-.26-2.14-.18-3.35,0-1.44.22-2.8.77-4.13,1.36-.69.31-1.36.74-1.87,1.3-1.14,1.25-1.64,2.89-1.24,4.56.31,1.26,1.26,2.38,2.37,3.02.98.56,1.88.72,2.98.84,1.64.18,3.25-.26,4.74-.91.57-.24,1.11-.57,1.6-.94.02,0,.04,0,.06-.01.82-.23,1.52-.73,2.03-1.39.6-.77.88-1.71.89-2.69,0-1.19-.42-2.29-1.13-3.22Z"/>
    <path class="cls-5" d="m109.07,186.44c0-.96-.24-1.85-.72-2.67-.47-.8-1.1-1.43-1.9-1.9-.83-.48-1.72-.72-2.67-.72-.96,0-1.85.24-2.67.72-.02.01-.03.02-.05.03-.36.28-.72.55-1.08.83-.04.04-.07.08-.1.12-.33.39-.68.81-.96,1.24-.33.5-.56,1.15-.72,1.75-.16.62-.21,1.28-.29,1.92-.02.2-.04.39-.03.59,0,.32.06.62.11.94.06.43.05.63.18.95.22.56.43,1.15.74,1.67.04.07.09.14.14.21.28.4.58.83.91,1.19.03.03.06.06.08.09.33.26.67.51,1,.77.01.01.03.02.04.03.08.05.16.1.24.15.74.43,1.53.64,2.38.65.65.02,1.26-.11,1.82-.41.59-.19,1.09-.52,1.52-.98.59-.59.99-1.28,1.21-2.08.04-.2.08-.4.12-.61.06-.14.12-.28.18-.42.07-.17.12-.34.17-.51.04-.16.08-.33.1-.5.08-.53.17-1.07.2-1.6.01-.26-.01-.52-.04-.78.03-.22.06-.45.08-.68Z"/>
    <path class="cls-7" d="m45.72,155.06c-.91.93-1.9,1.77-3.04,2.4-2.44,1.34-5.74,1.53-7.82-.32-1.76-1.56-2.22-4.2-1.76-6.5.46-2.31,1.7-4.37,2.91-6.38l-.15.04c-.76.78-1.45,1.62-2.03,2.39-1.45,1.94-2.56,4.26-3.14,6.61-.49,1.99-.57,4.02.24,5.93.81,1.92,2.47,3.49,4.53,4,4.04,1,7.08-2.15,8.92-5.33.53-.91.96-1.87,1.34-2.85Z"/>
    <path class="cls-7" d="m69.21,148.95c1.01-.42,1.82-.83,2.65-1.56.85-.74,1.4-1.81,1.55-2.92,0-.04,0-.08,0-.12-.46.39-.99.71-1.55.93-1.28.51-2.69.62-4.07.62-1.86,0-3.84-.26-5.27-1.45-1.29-1.08-1.84-3.14-.96-4.51-.07.04-.15.07-.22.12-1.05.72-1.98,1.67-2.31,2.95-.32,1.23-.16,2.58.51,3.67,1.92,3.12,6.53,3.56,9.66,2.27Z"/>
    <path class="cls-7" d="m97.03,160.62c.39-.5.63-1.07.76-1.67-.87.58-1.84,1.01-2.84,1.28-2.15.57-4.44.44-6.6-.06-1.42-.33-2.89-.88-3.76-2.05-.43-.57-.63-1.32-.59-2.03-.78,1.15-1.09,2.53-.75,3.93.31,1.26,1.26,2.38,2.37,3.02.98.56,1.88.72,2.98.84,1.64.18,3.25-.26,4.74-.91.57-.24,1.11-.57,1.6-.94.02,0,.04,0,.06-.01.82-.23,1.52-.73,2.03-1.39Z"/>
    <path class="cls-7" d="m107.92,192.34c-1.24.39-2.52.52-3.72.08-2.07-.75-3.29-3-3.48-5.19-.16-1.89.3-3.76.84-5.58-.15.07-.3.14-.44.22-.02.01-.03.02-.05.03-.36.28-.72.55-1.08.83-.04.04-.07.08-.1.12-.33.39-.68.81-.96,1.24-.33.5-.56,1.15-.72,1.75-.16.62-.21,1.28-.29,1.92-.02.2-.04.39-.03.59,0,.32.06.62.11.94.06.43.05.63.18.95.22.56.43,1.15.74,1.67.04.07.09.14.14.21.28.4.58.83.91,1.19.03.03.06.06.08.09.33.26.67.51,1,.77.01.01.03.02.04.03.08.05.16.1.24.15.74.43,1.53.64,2.38.65.65.02,1.26-.11,1.82-.41.59-.19,1.09-.52,1.52-.98.37-.38.65-.81.87-1.27Z"/>
    <path class="cls-7" d="m83.87,183.82c-2.42.38-5.08-.35-6.65-2.23-1.36-1.62-1.65-4.13-.61-5.92-.11.09-.23.17-.35.26-.26.2-.57.41-.8.66-.73.81-1.38,1.76-1.58,2.86-.22,1.19-.23,1.62,0,2.8.1.51.31,1.03.58,1.46.77,1.24,1.88,2.14,3.3,2.55,1.76.51,3.59.01,5.17-.79.15-.08.28-.19.42-.29.41-.31.83-.62,1.22-.96.25-.22.49-.47.7-.74-.46.15-.92.27-1.4.34Z"/>
    <path class="cls-7" d="m60.26,178.23c-1.99,1.26-4.49,2.05-6.7,1.24-1.86-.68-3.17-2.86-2.74-4.69-.84,1.86-1.27,3.93-.83,5.95.33,1.52,1.45,2.99,2.83,3.72,1.47.77,3.08.95,4.69.58,1.25-.29,2.42-1.08,3.31-1.97.72-.71,1.32-1.58,1.93-2.38.42-.55.81-1.13,1.11-1.76.61-1.3.9-2.31,1.04-3.75.05-.49-.01-.95-.08-1.44,0-.03-.01-.06-.01-.1-1.17,1.83-2.72,3.42-4.56,4.59Z"/>
    <path class="cls-7" d="m90.16,204.84c.19-.42.41-.86.49-1.32.07-.43.16-.88.11-1.32,0-.06-.01-.1-.02-.16-.87.84-1.77,1.63-2.79,2.26-1.61,1-3.56,1.59-5.42,1.22-1.19-.23-2.3-.92-3.02-1.88-.06.3-.1.61-.13.91-.05.45.04.92.12,1.36.01.08.03.15.06.23.1.3.25.69.41.95.36.6.86,1.13,1.46,1.49,1.75,1.05,3.82.52,5.47-.45,1.2-.71,2.16-1.65,2.96-2.78.12-.16.22-.34.3-.52Z"/>
    <path class="cls-7" d="m58.31,215.93c-3.05-.58-5.47-3.2-6.35-6.19-.77-2.61-.5-5.42.35-8.02-.37.22-.71.49-1,.81-.81.9-1.4,1.75-1.77,2.92-.08.25-.15.5-.22.75-.29,1.05-.43,2.09-.57,3.17-.25,1.98.29,3.71,1.08,5.48.19.42.41.81.69,1.18.38.5.73,1.01,1.22,1.41.48.39,1.01.85,1.58,1.15,1.44.74,3.16,1.12,4.75.56,1.49-.52,2.68-1.44,3.52-2.79.17-.27.31-.57.44-.87-1.17.49-2.47.68-3.71.44Z"/>
    <path class="cls-7" d="m35.35,203.33c-1.57-.9-2.49-2.72-2.49-4.52-.09.15-.19.3-.26.47-.19.42-.38.86-.54,1.29-.05.14-.1.28-.14.43-.02.07-.04.14-.05.21,0,.03-.02.07-.02.1,0,.01,0,.03,0,.04-.17.53-.19,1.07-.07,1.6,0,.36.09.7.27,1.01.04.19.11.36.22.51.21.27.41.54.62.81.36.39.79.66,1.28.82-.56-.24.34.16.49.21.71.23.93.15,1.54.07-.11.01.38-.04.54-.07.71-.16.89-.34,1.37-.71.15-.1.29-.21.43-.33.21-.27.42-.54.63-.81.11-.26.22-.52.33-.78-1.36.45-2.89.39-4.14-.32Z"/>
    <path class="cls-7" d="m30.31,182.26c-2.13.64-4.61.09-6.19-1.49-1.6-1.61-2.15-4.15-1.45-6.3-.74.45-1.31,1.16-1.55,2.03-.16.6-.15,1.26-.1,1.88-.03.4-.05.81-.05,1.21,0,1.22.23,2.39.79,3.47.61,1.19,1.74,2.02,2.99,2.43.35.11.72.14,1.08.18.16.02.31.02.48,0,.36-.03.78-.07,1.14-.2.63-.23,1.01-.46,1.53-.89.69-.56,1.13-1.43,1.32-2.33Z"/>
    <path class="cls-6" d="m44.89,146.48c-.02.58-.14,1.14-.57,1.56-.33.33-.76.51-1.22.51-.41,0-.68-.15-1.04-.3.15.06.3.13.45.19-.42-.17-.81-.29-1.13-.66-.03-.03-.06-.06-.09-.09-.08-.05-.16-.1-.24-.14-.11-.04-.22-.07-.33-.09-.09,0-.18-.02-.26-.05-.05-.02-.1-.04-.15-.06-.1-.03-.21-.04-.31-.08-.48-.16-.83-.45-1.03-.92-.21-.49-.15-.95.08-1.42.18-.37.58-.66.9-.9.1-.07.17-.09.31-.15.13-.06.2-.09.33-.12.24-.04.48-.08.72-.1.68-.05,1.36.14,1.95.47.83.47,1.67,1.33,1.63,2.34Z"/>
    <path class="cls-6" d="m67.96,140.66c-.24-.15-.43-.31-.71-.4-.23-.07-.49-.08-.74-.11-.16-.03-.32-.06-.47-.06-.24,0-.45.06-.68.11-.1.02-.2.03-.29.06-.29.07-.52.25-.73.45-.38.37-.42.96-.18,1.41.13.24.31.45.54.6.08.05.17.09.26.13.19.08.39.17.59.25.23.08.46.08.7.07.37-.02.79-.04,1.12-.18.24-.1.3-.14.53-.33.03-.03.06-.05.09-.08.07-.06.13-.12.19-.18.26-.24.35-.6.31-.94-.05-.36-.23-.62-.53-.82Z"/>
    <path class="cls-6" d="m59.74,172.05c-.01.25-.08.48-.22.69-.1.22-.28.42-.46.58-.27.24-.5.36-.79.48.05-.02.1-.04.15-.07-.06.02-.11.05-.17.07-.04.02-.08.04-.13.06-.04.02-.09.03-.13.05-.12.05-.24.11-.37.16-.04.01-.08.03-.13.05-.07.04-.15.07-.22.11-.15.08-.31.13-.46.19-.16.07-.31.15-.48.19-.16.04-.34.05-.51.05-.09,0-.17,0-.26.02.04,0,.08-.01.12-.02-.03,0-.05,0-.07,0-.02,0-.05,0-.07,0-.26.02-.5-.08-.67-.26,0,0,0,0,0,0,0,0,0,0,0,0-.04-.05-.08-.1-.11-.16-.21-.32-.35-.81-.34-1.14,0-.26.08-.52.17-.77.14-.39.27-.59.5-.9.33-.43.67-.82,1.15-1.1.26-.15.55-.29.83-.38.57-.17,1.27-.07,1.78.23.43.25.71.65.86,1.11.08.25.09.49.03.74Z"/>
    <path class="cls-6" d="m81.2,179.66s0,0,0-.01c0,0,0,0,0,0,0,0,0,0,0,.01Z"/>
    <path class="cls-6" d="m85.1,176.98c-.29-.44-.54-.7-.98-.98-.23-.15-.49-.25-.75-.34-.09-.03-.18-.06-.28-.08-.26-.06-.53-.08-.79-.11-.59-.07-1.3.19-1.67.66.13-.1.26-.2.39-.3-.2.12-.39.27-.55.44l-.25.32c-.12.18-.18.38-.19.59-.04.14-.04.28,0,.42,0,.06.04.11.05.16,0,.04,0,.08,0,.12,0,0,0-.02-.01-.03,0,0,0,.02.01.03.08.48.34.9.69,1.25.03.03.06.07.09.1.1.14.21.28.32.41-.1-.13-.2-.26-.31-.4.01.02.03.03.04.05.09.12.17.23.26.35.07.09.14.17.22.25.02.02.04.03.06.05.01.01.03.03.04.04.16.12.32.24.47.37.14.08.43.2.59.24.31.1.58.08.86.05l-.22.03s.05,0,.08,0c.39,0,.75-.1,1.09-.29.32-.19.58-.45.77-.77.23-.38.36-.8.36-1.24,0-.49-.15-.96-.41-1.38Z"/>
    <path class="cls-6" d="m95.13,154.79c-.04-.31-.04-.39-.24-.71-.17-.3-.42-.53-.71-.71-.09-.06-.41-.18-.58-.24-.26-.09-.54-.1-.81-.08-.11,0-.23.02-.34.04-.27.01-.53.09-.77.25-.05.02-.1.04-.14.07-.32.15-.6.35-.85.59-.33.32-.52.75-.57,1.2-.02.18,0,.36.07.53.29.74,1.03,1.22,1.8,1.35.06.01.12.02.19.03l.55.07c.2-.01.39-.04.58-.08.27-.05.54-.14.77-.29.46-.3.84-.7,1-1.24.08-.27.08-.51.05-.78Z"/>
    <path class="cls-6" d="m90.09,155.3s.02-.07.03-.11c0-.06,0-.13.01-.19l-.04.3Z"/>
    <path class="cls-6" d="m90.25,155.88s-.01-.03-.02-.05c0,0,0,.02,0,.03,0,0,0,.02.01.02Z"/>
    <path class="cls-6" d="m90.23,155.83s-.02-.07-.03-.11c-.02-.04-.05-.07-.06-.12.03.07.06.15.09.22Z"/>
    <path class="cls-6" d="m108.43,184.88s0-.02,0-.03c-.01-.06-.03-.12-.05-.17-.06-.2-.14-.41-.24-.57-.1-.17-.23-.32-.36-.47-.07-.09-.15-.17-.22-.25-.04-.04-.08-.08-.12-.12-.01-.01-.03-.02-.04-.04-.13-.1-.26-.2-.4-.31-.16-.07-.31-.13-.47-.2,0,0-.01,0-.02,0-.07-.03-.14-.06-.22-.09-.24-.07-.47-.08-.71-.03-.24.01-.46.08-.66.21-.12.09-.24.18-.36.28-.35.3-.53.82-.53,1.26,0,.05.01.1.02.15,0,.02,0,.03,0,.05-.01.18,0,.36.06.58,0,.03.02.07.03.1.02.08.04.16.06.24.02.08.03.16.04.24.04.2.15.39.24.58.11.26.15.32.44.67.02.02.04.05.06.07l.41.32c.16.08.33.16.51.21.65.22,1.5-.02,1.96-.52.06-.07.12-.14.17-.22.13-.13.21-.28.26-.45.07-.16.09-.19.11-.31.03-.2.08-.41.08-.62-.03-.19-.05-.37-.08-.56Z"/>
    <path class="cls-6" d="m87.42,200.33c-.06-.17-.15-.32-.29-.45-.09-.07-.19-.15-.28-.22-.22-.13-.46-.19-.71-.19-.05,0-.09,0-.14,0-.02,0-.05,0-.07,0-.14,0-.29.03-.43.06-.3.06-.48.23-.7.41-.04.03-.07.06-.1.09-.2.18-.37.4-.48.65-.1.17-.15.36-.15.56,0,.2.05.38.15.56.19.32.57.56.95.54.1,0,.2,0,.3,0,.1,0,.21,0,.31.02.03,0,.06.01.08.01.13-.02.25-.03.38-.05,0,0,.01,0,.02,0,.02,0,.04-.01.05-.02.06-.02.12-.04.19-.05.18-.04.34-.13.48-.25.15-.1.27-.23.36-.39.05-.11.09-.22.14-.34.06-.19.07-.37.03-.56,0-.13-.03-.24-.1-.35Z"/>
    <path class="cls-6" d="m59.69,206.27c-.1-.4-.36-.73-.61-1.04-.17-.21-.32-.41-.54-.58-.1-.08-.2-.16-.3-.24-.21-.16-.4-.35-.63-.48-.2-.11-.49-.25-.69-.31-.11-.03-.23-.05-.34-.08-.53-.11-1.06-.01-1.45.38-.19.19-.31.41-.38.66-.07.27-.07.53,0,.79.02.12.02.24.06.36.03.1.08.19.12.29.13.31.19.46.36.7.07.1.14.2.21.3.5.72,1.25,1.49,2.16,1.62.3.08.6.08.9,0,.22-.05.41-.15.58-.3.39-.3.71-.81.67-1.33-.02-.24-.05-.52-.11-.76Z"/>
    <path class="cls-6" d="m59.58,211.17s-.03.05-.05.08c.03-.04.06-.07.08-.11-.01.01-.03.02-.04.03Z"/>
    <path class="cls-6" d="m61.48,212.19c-.01-.09-.02-.17-.03-.26,0,0,0-.02,0-.02,0-.02,0-.04-.01-.06,0-.02,0-.03-.01-.05-.01-.05-.03-.09-.06-.14-.02-.09-.07-.16-.13-.23-.02-.05-.05-.08-.09-.11-.06-.05-.12-.1-.17-.15-.07-.05-.13-.1-.2-.15-.11-.07-.23-.11-.36-.12-.09-.02-.17-.02-.26,0-.12,0-.22.05-.32.1.04-.02.07-.03.11-.05,0,0,0,0-.01,0-.04.02-.08.03-.11.05,0,0-.01,0-.02,0h0s0,0-.01.01c-.09.06-.17.13-.23.23-.09.1-.16.21-.2.35-.05.17-.05.35,0,.52.02.07.05.14.07.21,0,0,0,0,0,.01.03.08.07.17.1.25.05.07.11.14.16.21.07.05.14.11.21.16.01,0,.03.02.04.03.03.02.06.04.09.06.15.09.31.13.49.13.18,0,.34-.04.49-.13.29-.17.49-.5.48-.84,0,0,0,0,0-.01Z"/>
    <path class="cls-6" d="m59.51,211.28s.01-.02.02-.02c0,0,0,0,0,0,0,0,0,.01-.01.02Z"/>
    <polygon class="cls-6" points="59.53 211.26 59.54 211.25 59.54 211.25 59.53 211.26"/>
    <path class="cls-6" d="m39.19,199.66c.04.15.04.3,0,.44,0,.08,0,.15-.03.23-.06.13-.11.27-.17.4-.09.11-.17.23-.26.34-.03.03-.31.25-.35.27-.14.09-.3.16-.46.19.04,0-.35.07-.5.06-.08,0-.19-.02-.25-.03,0,0-.17-.02-.25-.03-.15-.03-.29-.08-.42-.17-.12-.09-.23-.18-.35-.27,0,0-.01-.02-.02-.02-.08-.1-.2-.25-.28-.36,0,0,0-.01-.01-.02-.02-.04-.04-.08-.06-.12-.06-.14-.12-.29-.18-.43,0-.01,0-.02-.01-.03-.1-.25-.06-.41-.03-.65.04-.31.03-.23.19-.61,0,0,0-.01,0-.02-.04.09-.07.18-.11.26.11-.32.32-.64.63-.79.12-.06.26-.11.39-.16,0,0,.02,0,.03,0,.14-.02.29-.04.43-.06.19,0,.37.04.54.11.04.02.08.03.13.04h-.06s0,0,0,0c.06.01.12.04.18.05.04,0,.08.01.09.01.07.02.13.07.19.1.02.01.03,0,.05.02.02.02.05.03.07.04-.01,0-.02,0-.04-.02.1.05.21.08.29.15.07.03.13.08.17.13.01.01.24.31.25.33.17.26.17.37.2.62Z"/>
    <path class="cls-6" d="m27.99,176.97s-.02-.09-.03-.14c-.03-.13-.1-.27-.16-.39-.06-.13-.16-.23-.25-.34-.15-.19-.29-.38-.51-.49-.16-.08-.32-.14-.48-.21-.21-.09-.41-.13-.64-.13-.15,0-.31.01-.46.05-.12.03-.25.09-.35.16-.24.16-.43.36-.51.65,0,.02-.01.04-.02.06-.06.24-.05.48,0,.72,0,.04.02.08.03.12.08.31.22.48.41.72-.08-.1-.15-.19-.22-.29.05.07.1.13.15.2.19.26.31.43.6.59.04.02.08.04.11.06.04.02.08.04.11.07.23.13.37.17.6.2.06,0,.13.02.19.02,0,0,.02,0,.03,0,.02,0,.04,0,.07.01.31.05.24.05.47.02.29-.04.53-.17.72-.4.15-.2.23-.43.24-.68,0-.19-.05-.39-.09-.58Z"/>
    <path class="cls-3" d="m72.31,196.37c-.06-.46-.32-.94-.76-1.16-.09-.04-.17-.09-.24-.15.12.09.24.19.36.28-.28-.22-.53-.41-.87-.5-.06-.02-.12-.03-.17-.04-.03,0-.06-.02-.09-.03-.05-.02-.09-.04-.14-.07-.23-.13-.46-.22-.7-.33l.41.17c-.19-.08-.36-.19-.54-.29-.14-.13-.28-.27-.4-.42-.13-.17-.26-.35-.4-.52.06.08.12.15.18.23-.08-.1-.15-.2-.21-.31-.18-.28-.37-.43-.67-.54-.29-.11-.6.04-.82.22-.31.25-.34.66-.37,1.03-.02.29,0,.56.05.84.09.49.31.93.5,1.39-.05-.12-.1-.23-.15-.35.13.35.28.71.47,1.03.25.42.57.7.95.99.27.21.45.33.81.44.24.07.52.1.75.12.57.06,1.23-.28,1.62-.69.35-.38.51-.83.44-1.33Z"/>
    <path class="cls-3" d="m77.15,195.2c-.11-.2-.32-.34-.53-.41-.05-.02-.11-.02-.16-.03-.09-.02-.17-.03-.26-.04-.14-.02-.28,0-.42-.01-.1,0-.19,0-.29,0-.1,0-.22,0-.32.03-.12.04-.23.1-.32.19-.13.14-.18.29-.2.48-.01.11.04.27.09.37.04.06.09.12.15.18.03.03.06.07.1.1.12.12.25.2.41.27.11.05.22.09.32.14.12.05.23.07.36.08.18.02.36.01.54-.03.07-.03.14-.06.21-.09.1-.06.19-.13.25-.23.12-.15.2-.34.19-.54,0-.16-.05-.31-.12-.45Z"/>
    <path class="cls-3" d="m67.04,160.47c-.08.07-.15.15-.22.23-.01.01-.01.02-.03.04-.37.52-.7.8-1.31,1.04-.7.27-1.51.2-2.25.22-1.24.03-2.49.01-3.7-.28-1.14-.28-2.2-.81-3.08-1.57-1.03-.89-2.14-2.77-.86-3.96.85-.79,1.95-.47,2.69.29.11.11.2.25.3.37.02.02.04.03.07.07.08.08.16.15.23.23.06.06.07.08.06.08.14.09.33.17.42.22.08.04.16.08.23.12.39.12.78.23,1.18.32.11,0,.22.02.32.02.29.02.58.02.86.01.61,0,1.22-.05,1.83-.09.85-.05,1.71,0,2.41.54.44.34.66.83.92,1.31.14.25.11.59-.1.79Z"/>
    <path class="cls-3" d="m51.07,142.31s0,0,.03-.02c0,0,0,0,0,0,0,0-.02.01-.03.02Z"/>
    <path class="cls-3" d="m52.97,137.7c-.09-.34-.26-.63-.51-.88-.18-.19-.39-.33-.64-.41-.56-.24-1.24-.24-1.77.1-.63.41-1.1,1.08-1.21,1.83-.07.47-.1.9-.1,1.36,0,.42.04.84.13,1.25.03.13.05.26.08.39.02.09.05.17.09.25.05.17.15.31.28.43-.08-.1-.11-.13-.06-.03.31.68,1.32.74,1.83.28,0,0,0,0,.01-.01,0,0,0,0,0,0,.02-.01.04-.02.06-.03.02-.02.01-.02.02-.02.07-.05.15-.09.21-.16.08-.1.15-.19.23-.29.08-.11.15-.23.23-.35.17-.25.31-.49.45-.76.13-.25.27-.5.39-.76.12-.28.26-.54.31-.84.09-.44.16-.95-.01-1.38Z"/>
    <path class="cls-3" d="m45.83,169.6c-.02.11-.04.22-.06.33.02-.14.04-.28.06-.43-.04.3-.05.49-.16.75-.06.13-.12.26-.17.39.06-.14.12-.28.18-.43-.18.43-.4.84-.59,1.27-.13.32-.22.65-.27.99-.02.21-.02.41-.02.62,0,.29-.02.61-.1.88-.06.21-.17.41-.26.6,0,.01,0,.02-.01.03,0,0,0,0,0,.01,0,.02-.02.03-.02.05,0-.01.01-.03.02-.04-.07.21-.19.4-.36.55-.12.11-.25.2-.38.29-.27.16-.56.23-.87.24-.81-.03-1.5-.58-1.92-1.24-.34-.53-.41-1.24-.37-1.86.03-.46.07-.93.22-1.36.28-.86.71-1.72,1.36-2.35.1-.1.22-.2.33-.29.37-.3.61-.42,1.06-.59.47-.18.97-.13,1.45-.01.71.18,1.04.92.9,1.58Z"/>
    <path class="cls-3" d="m73.82,160.08l-.16-.38c-.14-.24-.33-.43-.58-.58-.27-.12-.53-.24-.83-.23-.14.02-.29.04-.43.06-.07.03-.15.06-.22.09-.12.05-.2.09-.3.15-.24.14-.43.33-.57.57-.02.03-.03.07-.04.1,0,0,0,0,0,0-.02.02-.06.02-.08.05-.08.08-.14.17-.18.28-.01.03,0,.06-.02.1,0,0,0,0,0,.01h0c-.04.11-.05.23-.03.36.01.09.04.18.07.27.03.07.03.09.06.14.04.06.09.12.14.18.08.15.18.28.29.37-.01-.02-.03-.05-.04-.07.07.09.13.19.23.25.1.1.21.17.35.2.19.1.39.14.61.14.12,0,.2,0,.34-.02.25-.03.38-.04.63-.2.24-.16.44-.35.59-.6.12-.18.18-.38.19-.6.05-.21.04-.43-.03-.64Z"/>
    <path class="cls-3" d="m84.74,147.46s-.04-.05-.05-.07c0,0,0,0,0,0,.02.02.03.04.05.06Z"/>
    <path class="cls-3" d="m89.53,146.19c-.2-.5-.41-1-.94-1.25-.46-.22-.74-.32-1.25-.37-.4-.04-.81.04-1.19.14-.46.13-.96.31-1.27.69-.11.13-.22.25-.31.4-.14.24-.19.46-.21.73-.03.32.1.58.3.83.12.15.24.28.42.39.06.03.12.07.18.1.17.1.36.18.55.21.09.02.17.03.26.06.17.04.33.11.49.16.31.1.64.12.96.16.03,0,.06,0,.09.01.29.02.52-.05.78-.15.13-.06.23-.1.35-.17.32-.18.56-.49.7-.82.14-.32.22-.77.09-1.11Z"/>
    <path class="cls-3" d="m84.68,147.39s-.01-.02-.02-.03c-.04-.05-.08-.1-.12-.15.05.06.1.13.15.19Z"/>
    <path class="cls-3" d="m102.59,170.91c-.07-.35-.2-.68-.36-1-.26-.48-.6-.76-1.11-.94-.39-.14-.83.04-1.12.3-.26.23-.4.52-.52.84,0,0,0-.01,0-.01,0,0,0,0,0,.02-.02.06-.05.11-.07.17-.02.05-.02.06-.02.06-.03.08-.07.17-.1.25-.05.13-.09.26-.14.39.06-.14.12-.29.18-.43-.12.27-.22.55-.32.82-.17.37-.37.73-.6,1.07-.22.26-.45.51-.71.72l.08-.06c-.28.22-.53.45-.74.79-.52.85-.38,1.84.28,2.56.49.53,1.32.72,2.01.53,1.02-.29,1.67-1.06,2.26-1.87.39-.53.72-1.18.9-1.81.21-.78.28-1.59.12-2.39Z"/>
    <path class="cls-3" d="m95.74,178.22s0-.09-.01-.13c-.02-.14-.02-.31-.06-.44-.03-.11-.11-.27-.16-.38-.03-.06-.05-.11-.08-.17-.06-.08-.13-.17-.19-.25-.11-.12-.24-.2-.39-.25-.1-.06-.2-.08-.31-.08-.16-.04-.33-.03-.49.02-.06.01-.13.03-.19.04-.02,0-.03,0-.05.01-.12.05-.24.1-.36.15,0,0-.02.01-.03.02-.04.02-.08.05-.12.07-.03.02-.07.04-.1.06-.02.01-.04.02-.05.03-.1.07-.29.21-.38.29-.06.06-.11.12-.15.19-.11.11-.19.24-.23.39-.05.11-.08.17-.1.26,0,.02-.01.05-.02.07-.02.08-.04.16-.04.25-.03.09-.04.18-.03.26,0,.31.08.6.23.87.15.26.36.46.62.62.27.16.56.23.87.24.31,0,.6-.08.87-.24,0,0,.02-.01.03-.02.12-.09.23-.18.35-.27.11-.11.2-.26.29-.38.02-.02.04-.05.05-.07.05-.07.08-.14.1-.23.08-.14.12-.29.12-.45.02-.15.04-.22.03-.35,0-.05-.01-.1-.02-.15Z"/>
    <path class="cls-3" d="m71.16,173.65c.06-.28-.14-.68-.49-.64-.29.03-.59.07-.86.21-.1.05-.18.12-.27.18-.15.11-.29.22-.43.35-.32.29-.54.82-.55,1.27,0,.34.04.71.19,1.02.11.22.36.35.59.39.27.04.48-.05.68-.22.13-.11.22-.27.33-.39.22-.23.42-.56.52-.87.05-.16.08-.34.13-.5.02-.08.05-.16.07-.24.02-.09.03-.19.03-.29.01-.08.03-.17.04-.25Z"/>
    <path class="cls-4" d="m25.13,160.06c0-.17.02-.34.01-.51-.01-.15-.02-.29-.03-.44,0-.21.03-.45-.03-.66-.1-.36-.39-.6-.76-.63-.5-.05-.81.36-1.08.7-.1.12-.19.25-.29.38-.11.15-.15.27-.22.45-.06.15-.12.3-.18.46-.14.42-.21.84-.25,1.29-.03.28.03.55.11.82.05.17.11.34.21.49.08.13.2.26.3.38.23.29.66.38,1.01.33.35-.05.7-.24.88-.57.12-.22.22-.45.27-.69.06-.28.09-.54.08-.83-.01-.32-.03-.65-.03-.97Z"/>
    <path class="cls-4" d="m26.65,164.93c-.03-.09-.07-.17-.14-.24-.07-.07-.15-.11-.24-.14-.02,0-.04,0-.07,0-.05-.04-.1-.04-.16,0-.02,0-.04,0-.07,0-.09.03-.17.07-.24.14-.07.07-.11.15-.14.24-.08.19-.18.38-.18.59,0,.08,0,.15,0,.23.01.14.04.28.11.4.02.03.04.07.06.1.05.09.13.16.22.22.09.06.2.08.31.08.11,0,.21-.03.31-.08.09-.05.16-.13.22-.22.02-.03.04-.06.06-.09.08-.12.1-.25.12-.39,0-.08.01-.16.01-.24,0-.21-.11-.4-.18-.59Z"/>
    <path class="cls-4" d="m26.91,194.22s0,0,.01-.01c0,0,0,0,0,0,0,0,0,0,0,0Z"/>
    <path class="cls-4" d="m29.76,195.56c0-.08,0-.16-.03-.23,0-.01-.01-.03-.01-.04-.02-.04-.03-.09-.04-.13,0-.01,0-.02,0-.04-.02-.07-.14-.36-.18-.42-.04-.07-.08-.13-.14-.18-.07-.13-.17-.22-.3-.3.05.04.09.07.14.11-.05-.04-.1-.07-.14-.11,0,0,0,0,0,0-.03-.03-.07-.05-.1-.08-.06-.04-.11-.09-.17-.13-.23-.13-.28-.12-.42-.17,0,0,0,0-.01,0-.19-.06-.39-.07-.58-.03-.13,0-.25.03-.37.1-.18.06-.33.16-.47.3-.02.02-.05.04-.07.06-.23.2-.37.5-.44.79-.12.45-.09.98.17,1.38.1.15.22.3.34.44.02.02.03.04.05.05.11.1.22.19.35.27.26.15.53.22.83.22.16-.02.33-.03.49-.07.01,0,.02,0,.03,0,.25-.07.46-.2.65-.38.15-.15.25-.32.32-.51.04-.09.07-.16.08-.21,0,0,0,0,0,0,0,0,0,0,0,0,.02-.06.03-.12.04-.25.04-.15.04-.29,0-.44Z"/>
    <path class="cls-4" d="m26.92,194.21s0,0,0,0c.09-.08.19-.15.29-.22-.1.07-.19.15-.29.22Z"/>
    <path class="cls-4" d="m75.3,214.94s0,0,0,0c-.06-.08-.12-.16-.18-.22-.14-.14-.31-.26-.49-.35-.27-.13-.57-.31-.87-.36-.34-.06-.68-.12-1.02-.16.16.02.32.04.48.06-.29-.04-.56-.12-.83-.22-.12-.04-.25-.08-.37-.12-.25-.09-.47-.12-.74-.15l.38.05c-.17-.03-.34-.08-.51-.06-.31.04-.55.09-.81.29-.2.16-.44.42-.48.69-.04.28-.06.47,0,.76,0,.03.01.06.02.1.05.2.13.4.24.57.26.39.52.67.89.95.15.12.31.22.48.32.29.16.61.32.93.41.23.06.48.08.72.1.23.02.48,0,.71-.06.3-.08.61-.21.86-.38.41-.27.67-.62.8-1.09.03-.11.06-.21.1-.32.09-.3-.06-.66-.33-.81Z"/>
    <path class="cls-4" d="m82.73,215.05c-.02-.08-.06-.15-.12-.2-.07-.1-.15-.18-.26-.24-.05-.04-.18-.09-.24-.11-.01,0-.03,0-.04,0-.03,0-.06-.01-.08-.02-.15-.04-.3-.06-.45-.05-.15,0-.29,0-.44.04-.06.02-.12.03-.18.04.09-.01.17-.02.26-.03-.12.02-.25.03-.37.06-.04.01-.08.02-.13.02.03,0,.05,0,.08-.01-.26.02-.49.14-.63.37-.14.23-.14.54,0,.77.08.14.18.27.3.38.16.17.44.32.66.39.25.07.59.07.84,0,.15-.04.25-.1.36-.18.08-.06.16-.12.23-.18.15-.13.19-.27.26-.44.01-.08.02-.16.03-.25,0-.13-.02-.25-.08-.36Z"/>
    <path class="cls-4" d="m99.51,207.93c0-.19-.03-.39-.08-.58-.05-.12-.1-.24-.15-.36-.09-.18-.22-.32-.39-.42-.09-.09-.2-.16-.33-.19-.17-.09-.36-.13-.56-.12.12.02.23.03.34.05-.04,0-.08-.02-.12-.03-.31-.09-.45-.07-.73-.04-.09,0-.17.01-.25.04-.14.06-.28.12-.43.18-.04.02-.07.03-.11.05-.12.09-.24.19-.36.28-.11.11-.21.24-.29.38,0,.01-.01.02-.02.04-.01.02-.03.05-.05.07-.05.06-.08.13-.09.21-.11.2-.15.42-.14.65,0,0,0,.01,0,.02,0,0,0,.02,0,.03,0-.06.02-.12.03-.19-.03.13-.03.26,0,.39,0,.2.07.38.18.55.2.39.62.72,1.04.82.51.13,1.09.14,1.55-.16.28-.19.55-.39.72-.7.15-.28.25-.59.25-.91,0-.02,0-.03,0-.05Z"/>
  </g>
  <g>
    <path class="cls-4" d="m145.74,204.86c4.4.66,8.91.23,13.34.84,5.26.72,10.32,2.36,15.47,3.6,5.04-8.15,11.42-15.83,15.39-24.49,3.32-7.25,4.4-15.29,6.38-23-2.19-.62-4.47-.94-6.72-1.12-5.26-.41-11.11-.87-16.18.89-2.72.95-4.76,3.01-7.35,4.18-2.8,1.27-5.47,2.64-8.01,4.38-2.49,1.71-4.83,3.64-7.13,5.6-2.33,1.99-4.8,3.96-6.68,6.4-2.77,3.59-3.23,8.57-5.16,12.75-1.36,2.95-2.62,5.24-3.62,7.71,3.31.65,6.63,1.72,10.26,2.26Z"/>
    <path class="cls-3" d="m145.74,204.86c4.4.66,8.91.23,13.34.84.05,0,.1.02.15.02,1.48-1.63,3.12-3.2,5.17-4,1.59-.62,3.33-.74,4.99-1.16,6.32-1.59,11.05-7.4,17.12-9.3,1.26-2.1,2.43-4.24,3.44-6.45,3.32-7.25,4.4-15.29,6.38-23-2.19-.62-4.47-.94-6.72-1.12-5.26-.41-11.11-.87-16.18.89-2.72.95-4.76,3.01-7.35,4.19-2.8,1.27-5.47,2.64-8.01,4.38-2.49,1.71-4.83,3.64-7.13,5.6-2.33,1.99-4.8,3.96-6.68,6.4-2.77,3.59-3.23,8.57-5.16,12.75-1.36,2.95-2.62,5.24-3.62,7.71,3.31.65,6.63,1.72,10.26,2.26Z"/>
    <path class="cls-1" d="m142.65,204.28c1.66-5.84,3.74-11.53,7.02-16.61,1.98-3.06,4.63-6.03,8.18-6.83,1.23-.28,2.53-.28,3.7-.76,1.58-.64,2.7-2.04,3.92-3.23,4.52-4.43,11.3-6.41,17.5-5.13,2.03.42,4,1.17,6.07,1.37,1.57.15,3.15-.01,4.72-.17.87-3.7,1.62-7.45,2.56-11.12-2.19-.62-4.47-.94-6.72-1.12-5.26-.41-11.11-.87-16.18.89-2.72.95-4.76,3.01-7.35,4.19-2.8,1.27-5.47,2.64-8.01,4.38-2.49,1.71-4.83,3.64-7.13,5.6-2.33,1.99-4.8,3.96-6.68,6.4-2.77,3.59-3.23,8.57-5.16,12.75-1.36,2.95-2.62,5.24-3.62,7.71,2.34.46,4.7,1.13,7.17,1.67Z"/>
    <path class="cls-5" d="m159.75,196.01c-.72-.49-1.41-1.14-2-1.76-.49-.51-.88-1.15-1.14-1.8-.57-1.38-.6-2.79-.18-4.2.45-1.5,1.68-2.6,3.04-3.29.54-.27,1.18-.42,1.74-.57.57-.16,1.15-.14,1.74-.15.44,0,.85.03,1.28.12,1.78.38,3.39.92,4.75,2.2.74.7,1.46,1.38,2.09,2.18.15.19.3.38.44.58.67.93,1,1.84,1.23,2.95.37,1.74-.48,3.66-1.83,4.74-.7.55-1.48.9-2.36,1.04-.72.11-1.42.04-2.1-.15-.71.09-1.43.11-2.13-.03-1.68-.34-3.13-.89-4.56-1.85Z"/>
    <path class="cls-5" d="m180.07,184.63c.32.37.73.63,1.2.79.45.19.9.25,1.37.2.47.02.92-.07,1.35-.27.27-.16.53-.32.8-.48.51-.42.89-.93,1.13-1.55.07-.3.14-.61.21-.91.06-.63-.04-1.23-.29-1.81-.09-.25-.2-.49-.33-.72-.21-.38-.44-.76-.68-1.12-.08-.12-.16-.23-.25-.34-.04-.05-.08-.1-.13-.15-.02-.02-.04-.05-.07-.07,0,0-.02-.02-.03-.03-.31-.42-.7-.73-1.17-.93-.27-.2-.58-.31-.92-.35-.16-.07-.33-.11-.51-.11-.32,0-.63.02-.95.03-.49.06-.93.23-1.33.52.49-.29-.3.17-.42.26-.56.41-.63.62-.9,1.13.05-.09-.18.31-.24.45-.27.62-.23.86-.21,1.43,0,.17,0,.34.02.51.09.31.18.61.27.92.17.28.34.56.5.83.15.17.33.32.5.48.16.17.31.35.44.54.17.29.37.56.63.77Z"/>
    <path class="cls-7" d="m158.74,190.2c2.12-2,5.44-2.38,8.18-1.41,2.4.85,4.38,2.6,5.88,4.67.03-.4.02-.8-.06-1.2-.23-1.11-.56-2.02-1.23-2.95-.14-.2-.29-.39-.44-.58-.63-.8-1.35-1.48-2.09-2.17-1.36-1.28-2.97-1.82-4.75-2.2-.43-.09-.84-.13-1.28-.12-.59.01-1.17,0-1.74.15-.56.15-1.2.3-1.74.57-1.36.69-2.59,1.78-3.04,3.29-.42,1.41-.39,2.82.18,4.2.11.28.26.55.42.81.27-1.15.85-2.25,1.71-3.06Z"/>
    <path class="cls-7" d="m180.92,179.73c1.55-.69,3.43-.39,4.8.6-.07-.15-.13-.31-.21-.46-.21-.38-.44-.76-.68-1.12-.08-.12-.16-.23-.25-.34-.04-.05-.08-.1-.13-.15-.02-.02-.04-.05-.07-.07,0,0-.02-.02-.03-.03-.31-.42-.7-.73-1.17-.93-.27-.2-.58-.31-.92-.35-.16-.07-.33-.11-.51-.11-.32,0-.63.02-.95.03-.49.06-.93.23-1.33.52.49-.29-.3.17-.42.26-.56.41-.63.62-.9,1.13.05-.09-.18.31-.24.45-.27.62-.23.86-.21,1.43,0,.17,0,.34.02.51.09.31.18.61.27.92.14.23.27.45.41.68.41-1.28,1.3-2.41,2.52-2.96Z"/>
    <path class="cls-6" d="m165.3,196.56c.35.15.76.13,1.13.11.25-.01.49-.02.73-.09.11-.03.23-.07.34-.1.24-.07.49-.11.71-.22.2-.09.46-.23.61-.35.09-.07.16-.14.24-.22.38-.34.59-.79.51-1.31-.04-.24-.14-.46-.29-.65-.16-.2-.36-.35-.6-.44-.1-.05-.2-.12-.3-.15-.09-.03-.19-.05-.28-.07-.3-.07-.46-.11-.73-.11-.12,0-.23,0-.35,0-.82-.02-1.82.12-2.42.75-.23.18-.39.41-.5.68-.08.2-.11.4-.09.6.01.47.22.98.64,1.24.19.12.42.25.63.33Z"/>
    <path class="cls-6" d="m161.65,193.79s-.03-.05-.03-.08c.01.04.02.08.04.12,0-.02,0-.03,0-.05Z"/>
    <path class="cls-6" d="m159.83,194.66c.07.04.14.08.22.12,0,0,.01,0,.02,0,.02,0,.03.01.05.02.01,0,.03.01.04.02.05.02.08.02.14.04.08.03.16.04.25.02.05,0,.09,0,.14,0,.07-.02.14-.03.21-.05.07-.02.15-.04.22-.07.12-.05.21-.12.29-.21.06-.05.11-.12.14-.2.06-.09.09-.19.1-.3,0,.04-.02.07-.03.11,0,0,0,0,0-.01,0-.04.02-.08.03-.11,0,0,0-.01,0-.02h0s0-.02,0-.02c0-.1,0-.2-.05-.29-.03-.12-.07-.24-.15-.34-.11-.13-.24-.22-.39-.28-.06-.02-.13-.04-.19-.06,0,0,0,0-.01,0-.08-.02-.16-.04-.25-.06-.08,0-.17,0-.25,0-.08.02-.16.05-.24.07-.01,0-.03.01-.04.02-.03.01-.07.02-.1.04-.15.07-.27.17-.37.3-.1.13-.15.28-.17.44-.03.31.11.65.37.82,0,0,0,0,0,0Z"/>
    <path class="cls-6" d="m161.6,193.67s0,.02,0,.03c0,0,0,0,0,0,0,0,0-.01,0-.02Z"/>
    <path class="cls-6" d="m161.61,193.7s0,0,0,0c0,0,0,0,0,0,0,0,0,0,0-.01Z"/>
    <path class="cls-6" d="m181.59,184.66c-.13-.05-.25-.13-.34-.24-.06-.04-.11-.09-.15-.15-.07-.12-.14-.23-.21-.35-.04-.13-.08-.26-.11-.38,0-.04-.02-.37-.01-.41.01-.16.05-.31.11-.46-.01.03.14-.3.23-.41.05-.06.12-.13.16-.17,0,0,.11-.12.16-.17.1-.1.22-.17.36-.22.13-.04.26-.08.39-.12.01,0,.02,0,.03,0,.12-.01.3-.01.42-.01,0,0,.02,0,.02,0,.04,0,.08,0,.12.02.14.03.29.06.43.1,0,0,.02,0,.03,0,.24.07.35.18.51.33.21.2.16.15.35.48,0,0,0,.01,0,.02-.05-.08-.09-.15-.14-.23.19.26.31.59.25.91-.02.13-.06.26-.09.38,0,0,0,.02,0,.02-.06.12-.13.24-.19.36-.1.14-.23.25-.38.35-.03.02-.07.05-.1.08l.04-.04s0,0,0,0c-.04.04-.09.07-.14.11-.03.03-.05.05-.06.06-.05.05-.13.06-.18.09-.02,0-.03.02-.04.03-.02,0-.05.02-.07.03.01,0,.02-.01.03-.02-.09.05-.17.11-.27.13-.06.04-.13.05-.19.06-.02,0-.37.01-.39.01-.29-.01-.37-.08-.58-.19Z"/>
    <path class="cls-4" d="m150.15,203.62s0,0,0,0c.09,0,.19,0,.26-.02.18-.02.37-.09.53-.18.25-.13.55-.26.75-.46.23-.23.46-.45.69-.69-.11.11-.21.22-.31.33.19-.19.4-.36.62-.51.1-.07.19-.14.29-.21.2-.14.35-.29.52-.47l-.25.26c.11-.11.25-.21.32-.35.14-.25.24-.47.23-.77,0-.24-.08-.57-.26-.74-.19-.18-.32-.3-.57-.42-.03-.01-.06-.03-.08-.04-.18-.08-.37-.12-.57-.13-.44-.01-.79.03-1.21.15-.17.05-.34.11-.5.19-.28.13-.58.29-.82.48-.17.14-.32.32-.47.49-.15.16-.27.36-.35.57-.1.27-.18.57-.19.86-.02.46.1.85.38,1.21.07.08.13.17.19.25.18.23.53.32.8.2Z"/>
    <path class="cls-4" d="m199.58,185.44c.26.1.52.12.8.08.27.03.53-.02.79-.12.27-.04.52-.15.73-.32.38-.19.69-.46.93-.82.07-.09.14-.18.2-.27.02-.02.03-.05.04-.07.35-.48.56-1.02.62-1.62.01-.06.02-.12.03-.18.07-.49.1-1.01.02-1.49-.05-.31-.21-.75-.33-1.09-.03-.09-.07-.19-.11-.28-.23-.55-.57-1.13-1.1-1.44-.27-.16-.55-.31-.84-.45-.45-.16-.9-.21-1.37-.14-.47.08-.89.26-1.26.56-.05.04-.09.09-.14.13-.34.25-.58.56-.75.94-.1.12-.17.25-.2.39-.02.05-.03.11-.04.16-.06.2-.13.39-.21.59-.19.5-.19.95-.26,1.45,0,.06-.02.12-.03.18,0,.28.02.56.03.85,0,.03,0,.06.02.09.02.11.04.22.06.34.08.26.15.51.23.77.14.23.28.46.42.7.2.19.41.39.61.58.34.27.72.43,1.14.49Z"/>
    <path class="cls-4" d="m194.77,190.54s0,0,0,0c0,0,0,0,0,0,0,0-.01-.01-.01-.02Z"/>
    <path class="cls-4" d="m193.72,191.86s0,0,0,0c-.05-.05-.1-.09-.15-.14,0,0-.01-.01-.02-.02,0-.01-.02-.02-.03-.03,0,0,0,0,0,0-.04-.06-.07-.12-.11-.18,0,0,0-.01-.01-.02,0,0,0-.01,0-.02,0,0,0,0,0,0,0,0,0,0,0,0-.01-.03-.03-.1-.03-.1-.01-.04-.02-.07-.03-.1-.02-.14,0-.28.04-.42.04-.07.07-.13.11-.2.06-.09.15-.17.25-.22.09-.06.19-.1.3-.12,0,0,.01,0,.02,0,0,0,0,0,0,0,.01,0,.19,0,.2,0h0s0,0,0,0c0,0,0,0,0,0,0,0,0,0,0,0,0,0,.19.04.19.04,0,0,0,0,0,0,.07.03.13.06.19.1.02.02.03.04.05.06-.02-.02-.04-.03-.05-.05.11.08.19.19.25.3,0,0,0,0,0,0,0-.02-.02-.03-.03-.05,0,.01.02.02.03.03,0,0,0,0,0,.01,0,0,0,0,0,0,0,0,0,0,0,0,0,0,0,0,0,0,0,.01.02.02.02.03.02.07.04.14.06.2.02.11.02.21-.02.32,0,.06-.04.1-.07.15,0,0,0,.01,0,.02,0,0,0,.01,0,.02,0,.05-.02.11-.04.16,0,0,0,0,0,0,0,0-.08.15-.08.15,0,0-.11.12-.12.12,0,0,0,0,0,0,0,0-.13.08-.14.08h0s0,0,0,0c0,0,0,0,0,0-.02,0-.14.04-.16.05,0,0,0,0-.01,0-.02,0-.15,0-.17,0h0s0,0,0,0c0,0,0,0,0,0-.06,0-.12-.02-.18-.04,0,0-.01,0-.02,0-.03-.01-.06-.03-.09-.05-.03-.01-.06-.03-.09-.05-.01,0-.02-.01-.03-.02Z"/>
    <path class="cls-4" d="m194.78,190.55s-.06-.06-.1-.09c.06.06.12.12.16.2-.02-.04-.04-.07-.07-.11Z"/>
    <path class="cls-4" d="m195.58,205.88c.3.1.6.11.92.05.2-.06.39-.12.59-.17.4-.18.72-.44.98-.79.1-.19.2-.38.31-.57.15-.4.19-.8.12-1.22,0-.08,0-.16,0-.24,0-.04,0-.08,0-.12-.06-.2-.12-.4-.17-.6,0,0,0-.02-.01-.03-.11-.18-.22-.36-.32-.54-.2-.27-.45-.47-.76-.6-.19-.1-.23-.14-.39-.18-.02,0-.04,0-.05-.01-.09-.02-.19-.04-.28-.07-.17-.06-.34-.08-.52-.05-.27-.01-.52.04-.77.16-.02,0-.04.02-.07.03-.01,0-.02.01-.03.02-.19.09-.38.2-.55.33-.27.2-.47.45-.6.76-.18.27-.28.57-.3.9-.04.21-.03.43.01.65,0,.04.01.08.02.12.01.08.03.16.04.24.04.32.15.6.33.86.14.29.35.53.63.71.26.2.55.33.87.38Z"/>
    <path class="cls-4" d="m200.95,172.43c.2.09.41.12.63.09.21.01.42-.03.62-.13.55-.24.91-.76.98-1.35.02-.18.04-.37,0-.55-.05-.28-.16-.53-.33-.76-.19-.23-.42-.4-.7-.51-.52-.2-1.15-.11-1.58.25-.17.14-.28.25-.37.42-.18.24-.28.51-.31.81-.03.29.02.56.13.83l.22.37c.19.24.43.41.71.52Z"/>
    <path class="cls-4" d="m183.27,212.87s.02,0,.03.01c.02,0,.04.02.06.03.3.14.71.17,1.03.11.08-.01.14-.03.21-.05.07-.02.14-.03.22-.03.03,0,.06,0,.09,0,.26-.04.48-.14.69-.25.06-.03.13-.07.2-.09.3-.13.55-.33.74-.6.19-.27.3-.56.34-.89.03-.32-.02-.62-.14-.91-.13-.3-.33-.55-.6-.74-.06-.05-.12-.09-.19-.13-.18-.1-.36-.21-.55-.29-.02,0-.03-.01-.05-.02-.17-.06-.35-.11-.53-.13l-.52.02c-.22.02-.51.12-.73.24-.21.12-.44.24-.63.4-.29.24-.55.53-.67.9l-.11.49c0,.17,0,.34.02.5,0,0,0,.02,0,.03,0,.02,0,.04.01.06,0,.01,0,.02,0,.03.01.15.06.29.13.42.08.21.21.39.39.53.2.19.27.26.57.37Z"/>
    <path class="cls-4" d="m170.88,224.24c.05.02.11.03.16.05.47.17,1.12.13,1.5-.24.15-.14.3-.29.43-.46.12-.16.23-.35.3-.53.14-.38.12-.7.1-1.08-.01-.23-.05-.46-.11-.68-.13-.5-.23-.91-.55-1.33-.18-.23-.43-.44-.65-.63-.24-.22-.48-.38-.79-.5-.26-.1-.57-.15-.85-.19-1.53-.22-2.81,1.55-2.13,2.93.02.05.05.1.07.15.01.03.03.07.04.1.06.13.23.43.33.54.09.1.18.2.26.32.19.25.42.47.68.66.05.04.1.08.15.12.1.11.19.21.3.31.22.21.47.38.76.46Z"/>
    <path class="cls-4" d="m160.27,214.86c.14.05.29.05.45.03-.07,0-.14,0-.22,0,.12,0,.23,0,.35.02.08,0,.32,0,.4-.01.07,0,.13-.03.19-.05.13-.02.24-.07.34-.15.09-.05.16-.1.23-.15,0,0,0,0,0,0,.02,0,.03-.02.05-.03.02,0,.03-.02.05-.02.1-.06.19-.12.29-.17.08-.08.16-.17.24-.25.08-.1.14-.22.18-.35,0-.03.02-.05.03-.08.1-.23.09-.46,0-.7-.02-.05-.04-.1-.07-.15-.06-.09-.11-.19-.17-.28-.04-.04-.09-.09-.13-.13-.07-.09-.17-.16-.28-.2-.09-.07-.2-.11-.32-.12-.09-.02-.17-.04-.27-.05-.07,0-.14-.02-.21-.02-.07,0-.13,0-.2,0-.12,0-.27,0-.41.01-.13,0-.25.04-.37.11-.11.07-.22.13-.33.2-.09.07-.21.21-.29.3-.01.01-.02.03-.03.04-.09.11-.16.22-.23.34-.05.1-.1.19-.15.29-.02.1-.05.21-.07.31,0,.1,0,.21,0,.31.02.16.08.31.17.43.04.1.11.18.2.25.07.09.16.15.26.19.09.06.19.1.3.11Z"/>
    <path class="cls-4" d="m146.04,212.51c.25.09.5.12.76.08.12-.04.24-.07.37-.11.25-.11.45-.27.61-.49.13-.16.21-.34.23-.54.06-.19.07-.38.03-.57-.02-.2-.09-.38-.21-.53-.09-.18-.22-.33-.39-.44-.12-.06-.24-.13-.35-.19-.25-.09-.5-.12-.76-.08-.12.04-.24.07-.37.11-.25.11-.45.27-.61.49-.13.16-.21.34-.23.54-.06.19-.07.38-.03.57.02.2.09.38.21.53.09.18.22.33.39.44.12.06.24.13.35.19Z"/>
  </g>
  <g>
    <path class="cls-5" d="m62.43,91.56c.87,0,1.79.14,2.62.32.69.15,1.37.45,1.95.83,1.24.81,2.06,1.94,2.51,3.34.48,1.48.09,3.07-.64,4.4-.29.53-.73,1-1.11,1.44-.38.45-.86.76-1.34,1.1-.35.25-.71.45-1.11.62-1.67.69-3.29,1.15-5.12.87-1-.16-1.97-.31-2.94-.61-.23-.07-.46-.15-.69-.23-1.07-.38-1.85-.94-2.67-1.72-1.27-1.22-1.66-3.26-1.16-4.91.26-.84.71-1.57,1.35-2.18.52-.49,1.14-.82,1.81-1.06.53-.48,1.11-.89,1.77-1.17,1.56-.67,3.06-1.03,4.78-1.05Z"/>
    <path class="cls-7" d="m66.52,95.74c-.62,2.83-3.12,5.01-5.91,5.75-2.44.65-5.05.33-7.44-.52.2.35.43.67.72.95.81.78,1.6,1.34,2.67,1.72.23.08.46.15.69.23.97.3,1.93.45,2.94.61,1.83.28,3.45-.18,5.12-.87.4-.16.76-.36,1.11-.62.48-.34.96-.65,1.34-1.1.37-.44.82-.92,1.11-1.44.73-1.32,1.12-2.91.64-4.4-.45-1.39-1.27-2.53-2.51-3.34-.25-.16-.52-.3-.8-.43.43,1.1.57,2.31.32,3.46Z"/>
    <path class="cls-6" d="m57.57,94.22c-.37.08-.69.32-.98.54-.2.15-.39.29-.55.48-.08.09-.15.18-.23.27-.16.19-.34.37-.46.58-.11.19-.24.45-.3.63-.03.1-.05.21-.08.32-.11.49-.04.98.32,1.36.17.18.37.3.6.37.24.07.49.08.74.02.11-.01.23-.02.33-.05.09-.03.18-.07.27-.1.29-.11.43-.17.66-.32.1-.06.19-.13.29-.19.68-.45,1.42-1.12,1.56-1.97.08-.28.09-.56.02-.84-.04-.21-.13-.39-.27-.54-.27-.37-.73-.68-1.22-.65-.22.01-.48.03-.71.08Z"/>
    <path class="cls-6" d="m63.12,92.71c-.08,0-.16.02-.24.03,0,0-.02,0-.02,0-.02,0-.03,0-.05,0-.02,0-.03,0-.05,0-.05,0-.08.03-.13.05-.08.02-.15.06-.22.12-.04.02-.08.05-.11.08-.05.05-.09.1-.14.16-.05.06-.1.12-.15.18-.07.1-.11.21-.12.33-.02.08-.03.16,0,.24,0,.11.04.21.09.3-.01-.03-.03-.07-.04-.1,0,0,0,0,0,.01.01.04.03.07.04.11,0,0,0,.01,0,.02h0s0,.02,0,.02c.05.09.12.16.2.22.1.08.19.16.32.2.16.05.32.05.48.01.06-.02.13-.04.19-.06,0,0,0,0,.01,0,.08-.03.16-.06.23-.09.07-.05.13-.1.2-.15.05-.06.1-.13.16-.19,0-.01.02-.02.03-.04.02-.03.04-.06.06-.09.09-.14.13-.29.14-.45,0-.16-.03-.32-.11-.46-.15-.27-.45-.47-.77-.47,0,0,0,0-.01,0Z"/>
  </g>
  <g>
    <path class="cls-5" d="m198.26,139.05c.4.44.74.98,1.03,1.49.24.42.39.9.46,1.37.15,1-.06,1.94-.57,2.8-.54.92-1.54,1.44-2.54,1.67-.4.09-.85.08-1.24.09-.4,0-.78-.1-1.17-.19-.29-.07-.56-.16-.82-.29-1.11-.54-2.08-1.16-2.77-2.23-.38-.58-.74-1.15-1.02-1.78-.07-.15-.13-.3-.2-.46-.29-.72-.36-1.38-.33-2.15.04-1.2.92-2.33,1.99-2.82.55-.25,1.13-.35,1.73-.3.49.04.94.21,1.36.45.48.06.96.17,1.4.37,1.05.5,1.92,1.1,2.7,1.97Z"/>
    <path class="cls-7" d="m197.97,143.05c-1.73.97-3.98.67-5.63-.42-1.44-.96-2.46-2.44-3.11-4.05-.09.26-.15.53-.16.8-.03.77.04,1.43.33,2.15.06.15.13.3.2.46.29.63.65,1.19,1.02,1.78.69,1.07,1.66,1.69,2.77,2.23.27.13.53.23.82.29.39.09.77.2,1.17.19.39,0,.84,0,1.24-.09,1.01-.23,2-.75,2.54-1.67.51-.86.72-1.79.57-2.8-.03-.2-.08-.4-.14-.6-.37.72-.93,1.34-1.63,1.73Z"/>
    <path class="cls-6" d="m194.69,137.77c-.21-.15-.48-.21-.72-.26-.17-.03-.33-.07-.5-.06-.08,0-.16,0-.24,0-.17,0-.34,0-.5.03-.14.03-.34.08-.46.13-.07.03-.13.07-.2.1-.3.17-.52.43-.55.78-.01.17.01.33.08.48.07.16.18.29.32.39.06.05.11.11.18.15.05.04.12.06.18.09.19.1.28.15.46.19.08.02.15.04.23.06.54.15,1.22.22,1.72-.09.18-.08.33-.21.44-.37.09-.12.14-.24.16-.38.07-.31.01-.68-.22-.92-.11-.11-.24-.23-.36-.33Z"/>
    <path class="cls-6" d="m197.98,139.93s-.08-.08-.12-.11c0,0,0,0-.01-.01,0,0-.02-.01-.03-.02,0,0-.02-.01-.03-.02-.03-.02-.05-.03-.09-.05-.05-.03-.1-.05-.16-.06-.03-.01-.06-.02-.09-.02-.05,0-.1,0-.14,0-.05,0-.11,0-.16,0-.08.01-.16.04-.22.09-.05.02-.09.06-.13.11-.05.05-.09.11-.12.18.01-.02.02-.04.03-.07,0,0,0,0,0,0-.01.02-.02.05-.04.07,0,0,0,0,0,.01h0s0,.01,0,.01c-.02.07-.03.13-.02.2,0,.09,0,.17.04.25.05.1.12.19.21.25.04.02.08.05.12.07,0,0,0,0,0,0,.05.03.1.05.15.08.06.01.11.02.17.04.06,0,.11,0,.17,0,.01,0,.02,0,.03,0,.02,0,.05,0,.07,0,.11-.02.21-.06.29-.14.09-.07.15-.16.18-.26.07-.2.04-.45-.11-.6,0,0,0,0,0,0Z"/>
  </g>
  <g>
    <path class="cls-5" d="m84.1,29.12c-.14.58-.39,1.16-.65,1.69-.21.43-.53.83-.88,1.15-.75.69-1.63,1.04-2.63,1.11-1.06.07-2.05-.45-2.81-1.16-.3-.28-.54-.65-.77-.97-.23-.33-.36-.7-.51-1.07-.11-.28-.18-.55-.22-.84-.18-1.22-.22-2.37.28-3.54.27-.64.53-1.26.89-1.85.09-.14.17-.28.26-.42.43-.65.94-1.07,1.59-1.48,1.02-.64,2.44-.56,3.45.05.52.31.92.73,1.22,1.26.24.43.36.89.4,1.37.23.43.41.89.48,1.37.18,1.15.18,2.2-.1,3.34Z"/>
    <path class="cls-7" d="m80.64,31.14c-1.77-.88-2.8-2.9-2.83-4.88-.03-1.73.62-3.41,1.59-4.85-.26.07-.52.18-.75.32-.65.41-1.16.84-1.59,1.48-.09.14-.18.28-.26.42-.36.59-.62,1.21-.89,1.85-.49,1.17-.46,2.32-.28,3.54.04.29.11.57.22.84.15.37.27.75.51,1.07.23.32.47.7.77.97.76.7,1.75,1.23,2.81,1.16,1-.06,1.89-.42,2.63-1.11.15-.14.29-.3.42-.46-.8.1-1.63,0-2.35-.37Z"/>
    <path class="cls-6" d="m83.15,25.46c0-.26-.1-.51-.2-.74-.07-.16-.13-.31-.23-.45-.05-.07-.1-.13-.14-.2-.1-.13-.19-.29-.31-.4-.11-.1-.26-.24-.37-.31-.06-.04-.13-.07-.2-.1-.31-.16-.65-.19-.96-.01-.15.08-.26.2-.35.34-.09.15-.13.31-.14.49,0,.07-.03.15-.02.23,0,.07.02.13.02.2.03.21.04.32.1.49.03.07.05.15.08.22.18.53.51,1.13,1.05,1.36.17.1.35.15.55.15.14,0,.28-.02.41-.09.29-.12.57-.37.64-.7.03-.15.06-.32.06-.48Z"/>
    <path class="cls-6" d="m83.23,29.39c0-.06.02-.11.02-.17,0,0,0-.01,0-.02,0-.01,0-.02,0-.04,0-.01,0-.02,0-.03,0-.03,0-.06-.01-.1,0-.06-.01-.11-.04-.16,0-.03-.02-.06-.04-.09-.03-.04-.05-.08-.08-.12-.03-.04-.06-.08-.09-.13-.06-.06-.12-.11-.2-.13-.05-.03-.1-.04-.16-.04-.07-.02-.14,0-.22,0,.02,0,.05,0,.07,0,0,0,0,0,0,0-.03,0-.05,0-.08.01,0,0,0,0-.01,0h0s0,0,0,0c-.07.02-.13.05-.18.1-.07.05-.14.1-.18.18-.06.1-.09.2-.09.32,0,.05,0,.09,0,.14,0,0,0,0,0,0,0,.06.01.11.02.17.02.05.04.1.06.16.03.05.07.09.1.14,0,0,.01.02.02.02.02.02.03.04.05.05.08.08.17.13.28.16.11.03.21.03.32,0,.2-.05.39-.22.44-.43,0,0,0,0,0,0Z"/>
  </g>
</svg>