<svg version="1.1" xmlns="http://www.w3.org/2000/svg" xmlns:xlink="http://www.w3.org/1999/xlink" aria-hidden="true"
  x="0" y="0"   width="40" height="24"
  viewBox="0 0 40 23.99" style="enable-background:new 0 0 40 23.99;" xml:space="preserve">
  <path id="Tracé_467" d="M20,0C12.76,0,5.52,4,0,12c11.04,16,28.96,16,40,0C34.48,4,27.25,0,20,0m0,20c-4.42,0-8.01-3.58-8.02-8.01S15.57,3.98,19.99,3.98c4.42,0,8.01,3.58,8.02,8.01,0,0,0,0,0,.01,0,4.42-3.59,8-8,8"/>
  <path id="Tracé_468" d="M20,7.99c2.21,0,4,1.79,4,4s-1.79,4-4,4-4-1.79-4-4h0c0-2.21,1.79-4,4-4"/>
</svg>
