<svg version="1.1" xmlns="http://www.w3.org/2000/svg" xmlns:xlink="http://www.w3.org/1999/xlink" aria-hidden="true"
    x="0" y="0"
    width="26" height="26"
    viewBox="0 0 25.73 25.74" style="enable-background:new 0 0 25.73 25.74;" xml:space="preserve">
    <path d="M24.31,0H1.42A1.43,1.43,0,0,0,0,1.42H0V24.31a1.42,1.42,0,0,0,1.42,1.42H13.75v-10H10.4v-3.9h3.35V9c0-3.32,2-5.13,5-5.13a24.85,24.85,0,0,1,3,.15V7.51h-2c-1.61,0-1.93.76-1.93,1.89v2.48h3.86l-.5,3.9H17.75v10h6.56a1.42,1.42,0,0,0,1.42-1.42h0V1.42A1.42,1.42,0,0,0,24.31,0Z"/>
</svg>
