<?xml version="1.0" encoding="utf-8"?>
<svg version="1.1" xmlns="http://www.w3.org/2000/svg" xmlns:xlink="http://www.w3.org/1999/xlink" x="0px" y="0px"
	 viewBox="0 0 77 77" style="enable-background:new 0 0 77 77;" xml:space="preserve">
<style type="text/css">
	.st0{fill:#224F5A;}
	.st1{fill:#3EE98D;}
</style>
<path class="st0" d="M13,0h51c7.2,0,13,5.8,13,13v51c0,7.2-5.8,13-13,13H13C5.8,77,0,71.2,0,64V13
	C0,5.8,5.8,0,13,0z"/>
<path class="st1" d="M55.9,41.6h-4.4c-0.4,1.5-0.9,2.8-1.7,3.9l3.1,3.1l-4.3,4.3l-3.1-3.1c-1.2,0.7-2.5,1.3-3.9,1.6v4.4h-6.1v-4.4
	c-1.4-0.3-2.7-0.9-3.9-1.6l-3.1,3.1l-4.3-4.3l3.1-3.1c-0.7-1.2-1.3-2.5-1.6-3.9h-4.4v-6.1h4.4c0.3-1.4,0.9-2.7,1.6-4l-3.1-3.1
	l4.3-4.3l3.1,3.1c1.2-0.7,2.5-1.3,3.9-1.7v-4.4h6.1v4.4c1.4,0.3,2.7,0.9,3.9,1.6l3.1-3.1l4.3,4.3l-3.1,3.1c0.8,1.3,1.3,2.6,1.6,4
	h4.4V41.6z M38.5,44.6c1.7,0,3.1-0.6,4.3-1.8s1.8-2.6,1.8-4.3s-0.6-3.1-1.8-4.3s-2.6-1.8-4.3-1.8c-1.7,0-3.1,0.6-4.3,1.8
	s-1.8,2.6-1.8,4.3s0.6,3.1,1.8,4.3S36.8,44.6,38.5,44.6z"/>
</svg>
