<svg version="1.1" xmlns="http://www.w3.org/2000/svg" xmlns:xlink="http://www.w3.org/1999/xlink" aria-hidden="true"
    x="0" y="0"
    width="26" height="26"
    viewBox="0 0 26 26" style="enable-background:new 0 0 26 26;" xml:space="preserve">
    <path d="M7.64,25.92a9.47,9.47,0,0,1-3.16-.6,6.5,6.5,0,0,1-2.3-1.5,6.41,6.41,0,0,1-1.5-2.3,9.73,9.73,0,0,1-.6-3.16C0,17,0,16.52,0,13S0,9,.08,7.64a9.73,9.73,0,0,1,.6-3.16A6.66,6.66,0,0,1,4.48.68,9.73,9.73,0,0,1,7.64.08C9,0,9.48,0,13,0s4,0,5.36.08a9.78,9.78,0,0,1,3.16.6,6.66,6.66,0,0,1,3.8,3.8,10,10,0,0,1,.6,3.16C26,9,26,9.46,26,13s0,4-.08,5.36a9.52,9.52,0,0,1-.6,3.16,6.65,6.65,0,0,1-3.8,3.8,10,10,0,0,1-3.15.6C17,26,16.54,26,13,26S9,26,7.64,25.92Zm.11-23.5a7.15,7.15,0,0,0-2.42.45,4.09,4.09,0,0,0-1.49,1,4.07,4.07,0,0,0-1,1.5,7.34,7.34,0,0,0-.44,2.41C2.36,9.12,2.34,9.53,2.34,13s0,3.88.08,5.25a7.15,7.15,0,0,0,.45,2.42,4,4,0,0,0,1,1.49,4,4,0,0,0,1.49,1,7.15,7.15,0,0,0,2.42.45c1.36.07,1.77.08,5.25.08s3.89,0,5.25-.08a7.11,7.11,0,0,0,2.42-.45,4.26,4.26,0,0,0,2.46-2.46,7.15,7.15,0,0,0,.45-2.42c.07-1.36.08-1.77.08-5.25s0-3.89-.08-5.25a7.15,7.15,0,0,0-.45-2.42,4,4,0,0,0-1-1.49,4.11,4.11,0,0,0-1.49-1,7.4,7.4,0,0,0-2.42-.44c-1.37-.06-1.79-.08-5.25-.08s-3.88,0-5.25.08ZM6.32,13A6.68,6.68,0,1,1,13,19.67,6.68,6.68,0,0,1,6.32,13Zm2.35,0A4.33,4.33,0,1,0,13,8.67h0A4.33,4.33,0,0,0,8.67,13Zm9.71-6.94a1.56,1.56,0,1,1,1.56,1.56h0A1.56,1.56,0,0,1,18.38,6.06Z"/>
</svg>
