<svg xmlns="http://www.w3.org/2000/svg" width="77" height="77" version="1.1" viewBox="0 0 77 77"><path d="M33.6,27c0-2.8,2.2-5.1,4.9-5.1,2.8,0,5,2.3,4.9,5.1v3.8h-9.9v-3.8ZM29.9,30.8h-4.9c-2.1,0-3.7,1.8-3.7,3.8v16.7c0,4.2,3.2,7.6,7.4,7.7h19.7c4.2,0,7.5-3.5,7.4-7.7v-16.7c0-2.1-1.6-3.8-3.7-3.8h-4.9v-3.8c0-4.9-3.8-8.9-8.6-9,0,0,0,0,0,0-4.9,0-8.7,4.1-8.6,9,0,0,0,0,0,0v3.8ZM31.7,38.5c-1.1,0-2-.8-2-1.8,0-1.1.8-2,1.8-2,1.1,0,2,.8,2,1.8,0,0,0,0,0,0,0,1-.8,1.9-1.8,1.9,0,0,0,0,0,0M47.1,36.6c0,1-.9,1.8-1.9,1.8-1,0-1.8-.9-1.8-1.9,0-1,.9-1.8,1.8-1.8,1,0,1.9.9,1.8,1.9,0,0,0,0,0,0"/></svg>