<?xml version="1.0" encoding="utf-8"?>
<svg version="1.1"xmlns="http://www.w3.org/2000/svg" xmlns:xlink="http://www.w3.org/1999/xlink" x="0px" y="0px"
	 width="21.9px" height="34.9px" viewBox="0 0 21.9 34.9" style="enable-background:new 0 0 21.9 34.9;" xml:space="preserve">
<style type="text/css">
	.st0{fill:#FFFFFF;}
</style>
<path class="st0" d="M11,0L11,0C4.9,0,0,4.9,0,10.9c0,3.9,1.8,9.2,5.3,15.5c2.6,4.7,5.3,8.3,5.3,8.3c0.1,0.1,0.2,0.2,0.3,0.2
	c0,0,0,0,0,0c0.1,0,0.2-0.1,0.3-0.2c0,0,2.7-4,5.3-8.9c3.5-6.6,5.3-11.6,5.3-14.9C21.9,4.9,17,0,11,0z"/>
</svg>
