<svg version="1.1" xmlns="http://www.w3.org/2000/svg" xmlns:xlink="http://www.w3.org/1999/xlink" aria-hidden="true"
    x="0" y="0"
    width="100" height="100"
    viewBox="0 0 136.835 136.835" style="enable-background:new 0 0 136.835 136.835;" xml:space="preserve">
    <path d="M68.418,0a68.418,68.418,0,1,0,68.418,68.418A68.3,68.3,0,0,0,68.418,0M98.788,71.588l-45.556,26.7a3.671,3.671,0,0,1-5.507-3.171V41.885h-.167a3.718,3.718,0,0,1,1.836-3.171,3.925,3.925,0,0,1,3.838,0L98.788,65.247a3.779,3.779,0,0,1,1.836,3.171,3.718,3.718,0,0,1-1.836,3.171" />
</svg>
