<svg version="1.1" xmlns="http://www.w3.org/2000/svg" xmlns:xlink="http://www.w3.org/1999/xlink" aria-hidden="true"
  x="0" y="0"
  width="18" height="19"
  viewBox="0 0 17.801 18.57" style="enable-background:new 0 0 17.801 18.57;" xml:space="preserve">
  <path d="M43.142,21.695l-1.684-1.219-.644-1.981a1.436,1.436,0,0,0-1.368-1h-2.08l-1.69-1.219a1.411,1.411,0,0,0-1.684,0L32.3,17.5h-2.08a1.436,1.436,0,0,0-1.368,1l-.644,1.981-1.684,1.219a1.427,1.427,0,0,0-.52,1.609l.644,1.981-.644,1.981a1.427,1.427,0,0,0,.52,1.609l1.684,1.219.644,1.981a1.436,1.436,0,0,0,1.368,1H32.3l1.684,1.219a1.434,1.434,0,0,0,.848.279,1.4,1.4,0,0,0,.842-.279l1.69-1.219h2.08a1.436,1.436,0,0,0,1.368-1l.644-1.981,1.684-1.219a1.427,1.427,0,0,0,.52-1.609l-.644-1.981.644-1.981a1.427,1.427,0,0,0-.52-1.609Zm-10.777-.421a1.541,1.541,0,1,1-1.541,1.541A1.545,1.545,0,0,1,32.366,21.274Zm.2,8.635a.9.9,0,0,1-1.448-1.065l5.992-8.183a.9.9,0,0,1,1.448,1.065Zm4.741-.613a1.541,1.541,0,1,1,1.541-1.541A1.545,1.545,0,0,1,37.305,29.3Z" transform="translate(-25.935 -16)" fill="#fff"/>
</svg>
