<svg xmlns="http://www.w3.org/2000/svg" width="26" height="26" viewBox="0 0 26 26"><path d="M18.9,11.9c.1,0,.2.1.3.2,1.6.8,2.7,1.9,3.3,3.3.9,2,.9,5.2-1.6,7.8-2,2-4.3,2.8-7.7,2.9h0c-3.8,0-6.7-1.3-8.7-3.8-1.7-2.2-2.6-5.3-2.7-9.2h0c0-3.9.9-7,2.7-9.2C6.5,1.3,9.4,0,13.2,0h0c3.8,0,6.8,1.3,8.8,3.8,1,1.2,1.7,2.7,2.2,4.4l-2.2.6c-.4-1.4-1-2.6-1.7-3.5-1.6-1.9-4-2.9-7.1-3-3.1,0-5.4,1-6.9,2.9-1.4,1.8-2.2,4.4-2.2,7.8,0,3.3.8,6,2.2,7.8,1.5,1.9,3.9,2.9,6.9,2.9,2.8,0,4.6-.7,6.2-2.2,1.7-1.7,1.7-3.9,1.2-5.2-.3-.8-.9-1.4-1.7-1.9-.2,1.5-.6,2.6-1.3,3.5-.9,1.2-2.2,1.8-3.9,1.9-1.3,0-2.5-.2-3.5-.9-1.1-.7-1.8-1.9-1.9-3.2-.1-2.6,1.9-4.5,5.2-4.7,1.1,0,2.2,0,3.2.2-.1-.8-.4-1.4-.8-1.9-.5-.6-1.4-1-2.5-1h0c-.9,0-2.1.2-2.9,1.4l-1.9-1.3c1-1.6,2.7-2.4,4.8-2.4h0c3.4,0,5.4,2.1,5.6,5.8h0s0,0,0,0ZM10.4,15.6c0,1.4,1.5,2,3,1.9,1.4,0,3-.6,3.2-4-.7-.2-1.5-.2-2.4-.2s-.5,0-.8,0c-2.3.1-3.1,1.3-3,2.3h0s0,0,0,0Z"/></svg>