<svg xmlns="http://www.w3.org/2000/svg" xmlns:xlink="http://www.w3.org/1999/xlink" width="25.152" height="29.022" viewBox="0 0 25.152 29.022">
  <path d="M22.02,6.207a6.609,6.609,0,0,1-.571-.333,8.033,8.033,0,0,1-1.467-1.247,6.921,6.921,0,0,1-1.653-3.412h.006A4.2,4.2,0,0,1,18.268,0H13.284V19.273c0,.259,0,.515-.011.767,0,.031,0,.06,0,.094a.206.206,0,0,1,0,.043v.011a4.232,4.232,0,0,1-2.129,3.359,4.159,4.159,0,0,1-2.062.544,4.232,4.232,0,0,1,0-8.464,4.164,4.164,0,0,1,1.294.2l.006-5.075A9.258,9.258,0,0,0,3.24,12.845a9.782,9.782,0,0,0-2.134,2.632,9.121,9.121,0,0,0-1.1,4.186,9.88,9.88,0,0,0,.535,3.309v.012a9.74,9.74,0,0,0,1.353,2.468,10.129,10.129,0,0,0,2.159,2.037v-.012l.012.012a9.326,9.326,0,0,0,5.088,1.532,9.007,9.007,0,0,0,3.776-.835A9.477,9.477,0,0,0,16,25.881,9.58,9.58,0,0,0,17.667,23.1a10.4,10.4,0,0,0,.6-3.176V9.7c.06.036.866.569.866.569A11.527,11.527,0,0,0,22.1,11.5a17.1,17.1,0,0,0,3.048.417V6.969a6.463,6.463,0,0,1-3.132-.762"fill="#fff"/>
</svg>