<svg xmlns="http://www.w3.org/2000/svg" width="77" height="77" version="1.1" viewBox="0 0 77 77"><path d="M38.5,59c11.3,0,20.5-9.2,20.5-20.5s-9.2-20.5-20.5-20.5-20.5,9.2-20.5,20.5,9.2,20.5,20.5,20.5ZM31.6,31.2c.6-1.8,2.3-3,4.2-3h4.7c2.8,0,5.1,2.3,5.1,5.1s-1,3.5-2.5,4.4l-2.6,1.5c0,1-.9,1.9-1.9,1.9s-1.9-.9-1.9-1.9v-1.1c0-.7.4-1.3,1-1.7l3.5-2c.4-.2.6-.6.6-1,0-.7-.5-1.2-1.2-1.2h-4.7c-.3,0-.5.2-.6.4h0c-.4,1.1-1.5,1.6-2.5,1.3s-1.5-1.5-1.2-2.5h0c0,0,0-.1,0-.1ZM35.9,46.2c0-1.4,1.1-2.6,2.6-2.6s2.6,1.1,2.6,2.6-1.1,2.6-2.6,2.6-2.6-1.1-2.6-2.6Z"/></svg>