<svg version="1.1" xmlns="http://www.w3.org/2000/svg" xmlns:xlink="http://www.w3.org/1999/xlink" aria-hidden="true"
    x="0" y="0"
    width="19" height="16"
    viewBox="0 0 19.929 16.943" style="enable-background:new 0 0 19.929 16.943;" xml:space="preserve">
    <path fill="#ff1717" d="M19.754,15.091,11.01.591a1.221,1.221,0,0,0-2.091,0L.175,15.091a1.221,1.221,0,0,0,1.046,1.852H18.708a1.221,1.221,0,0,0,1.046-1.852M9.971,5.016A.827.827,0,0,1,10.9,5.8c0,1.532-.18,3.734-.18,5.266,0,.4-.438.567-.747.567-.412,0-.76-.167-.76-.567,0-1.532-.18-3.734-.18-5.266,0-.5.412-.785.94-.785m.013,9.489a.991.991,0,1,1,.979-.991,1.006,1.006,0,0,1-.979.991"/>
</svg>
