<svg viewBox="0 0 640 640" version="1.1" xmlns="http://www.w3.org/2000/svg"><path d="M5.417,320c0,-173.758 140.825,-314.583 314.583,-314.583c173.758,0 314.583,140.825 314.583,314.583c0,173.758 -140.825,314.583 -314.583,314.583c-173.758,0 -314.583,-140.825 -314.583,-314.583Zm198.458,-105.803c-14.992,-6.39 -32.319,0.492 -38.708,15.483c-6.39,14.992 0.492,32.319 15.483,38.708l14.623,6.267c21.259,9.093 43.255,15.852 65.866,20.03l0,61.565c0,5.284 -0.86,10.568 -2.581,15.483l-35.268,105.803c-5.161,15.483 3.195,32.196 18.678,37.357c15.483,5.161 32.196,-3.195 37.357,-18.678l29.984,-89.951c1.597,-4.67 5.898,-7.865 10.814,-7.865c4.915,0 9.339,3.195 10.814,7.865l29.984,89.951c5.161,15.483 21.873,23.84 37.357,18.678c15.483,-5.161 23.717,-21.628 18.556,-37.111l-35.268,-105.803c-1.72,-5.038 -2.581,-10.199 -2.581,-15.483l0,-61.565c22.611,-4.301 44.607,-10.937 65.866,-20.03l14.623,-6.267c14.992,-6.39 21.873,-23.717 15.483,-38.708c-6.39,-14.992 -23.717,-21.873 -38.708,-15.483l-14.623,6.021c-32.073,13.763 -66.603,20.89 -101.625,20.89c-35.022,0 -69.43,-7.127 -101.625,-20.89l-14.623,-6.267l0.123,0Zm116.125,-12.166c27.157,0 49.154,-21.996 49.154,-49.154c0,-27.157 -21.996,-49.154 -49.154,-49.154c-27.157,0 -49.154,21.996 -49.154,49.154c0,27.157 21.996,49.154 49.154,49.154Z"/></svg>