<?xml version="1.0" encoding="UTF-8"?>
<svg id="Calque_1" xmlns="http://www.w3.org/2000/svg" width="77" height="77" version="1.1" viewBox="0 0 77 77">
  <!-- Generator: Adobe Illustrator 29.8.1, SVG Export Plug-In . SVG Version: 2.1.1 Build 2)  -->
  <path d="M38.45,17.75c-1.43,0-2.59,1.16-2.59,2.59v.26c-5.92,1.2-10.37,6.43-10.37,12.71v1.76c0,3.9-1.33,7.68-3.76,10.73l-.79.99c-.41.51-.63,1.14-.63,1.8,0,1.59,1.29,2.88,2.88,2.88h30.55c1.59,0,2.88-1.29,2.88-2.88,0-.66-.22-1.29-.63-1.8l-.79-.99c-2.42-3.05-3.75-6.83-3.75-10.73v-1.76c0-6.27-4.46-11.51-10.37-12.71v-.26c0-1.43-1.16-2.59-2.59-2.59ZM33.43,55.36c.58,2.24,2.61,3.89,5.02,3.89s4.45-1.65,5.02-3.89h-10.05Z"/>
</svg>