<svg version="1.1" xmlns="http://www.w3.org/2000/svg" xmlns:xlink="http://www.w3.org/1999/xlink" aria-hidden="true"
  x="0" y="0"
  width="334" height="401"
  viewBox="0 0 334.77 401.71" style="enable-background:new 0 0 334.77 401.71;" xml:space="preserve">
  <path id="Tracé_1030" d="M324.37,283.09c-25.27-21.32-39.85-52.72-39.82-85.79v-46.67c0-58.9-43.75-107.66-100.43-115.83V16.73C184.12,7.49,176.62,0,167.38,0c-9.24,0-16.73,7.49-16.73,16.73v18.08c-56.69,8.17-100.43,56.93-100.43,115.83v46.67c.01,33.14-14.62,64.58-39.97,85.92-12.29,10.52-13.72,29.01-3.2,41.3,5.56,6.5,13.69,10.24,22.25,10.24H305.47c16.18,0,29.29-13.11,29.3-29.28,0-8.63-3.8-16.82-10.4-22.39h0Z"/>
  <path id="Tracé_1031" d="M167.38,401.71c29.81-.04,55.5-21.01,61.5-50.21H105.88c6,29.2,31.69,50.17,61.5,50.21Z"/>
</svg>