<svg version="1.1" xmlns="http://www.w3.org/2000/svg" xmlns:xlink="http://www.w3.org/1999/xlink" aria-hidden="true"
    x="0" y="0"
    width="16" height="15"
    viewBox="0 0 15.862 15" style="enable-background:new 0 0 15.862 15;" xml:space="preserve">
    <path id="Tracé_972" data-name="Tracé 972" d="M35.944,250.435l1.063,6.377a1.034,1.034,0,0,0,1.02.864h9.631a1.034,1.034,0,0,0,1.024-.888l.907-6.353Zm4.231,4.655a.517.517,0,1,1-1.035,0v-3.1a.517.517,0,0,1,1.035,0Zm3.1,0a.517.517,0,1,1-1.035,0v-3.1a.517.517,0,0,1,1.035,0Zm3.1,0a.517.517,0,1,1-1.035,0v-3.1a.517.517,0,0,1,1.035,0Z" transform="translate(-34.83 -242.676)"/>
    <path id="Tracé_973" data-name="Tracé 973" d="M15.345,4.655h-1.51l-4.5-4.5A.517.517,0,0,0,8.6.883l3.772,3.772H3.49L7.262.883A.517.517,0,0,0,6.531.152l-4.5,4.5H.517A.517.517,0,0,0,0,5.173V6.207a.517.517,0,0,0,.517.517H15.345a.517.517,0,0,0,.517-.517V5.173a.517.517,0,0,0-.517-.517" transform="translate(0 0)"/>
</svg>
