<svg xmlns="http://www.w3.org/2000/svg" xmlns:xlink="http://www.w3.org/1999/xlink" width="224.521" height="228.551" viewBox="0 0 224.521 228.551">
    <defs>
        <clipPath id="clip-path">
            <rect id="Rectangle_290" data-name="Rectangle 290" width="224.521" height="228.551" fill="none"/>
        </clipPath>
        <clipPath id="clip-path-2">
            <rect id="Rectangle_215" data-name="Rectangle 215" width="19.55" height="22.576" fill="none"/>
        </clipPath>
        <clipPath id="clip-path-3">
            <rect id="Rectangle_216" data-name="Rectangle 216" width="186.543" height="188.209" fill="none"/>
        </clipPath>
        <clipPath id="clip-path-4">
            <rect id="Rectangle_217" data-name="Rectangle 217" width="24.873" height="16.628" fill="none"/>
        </clipPath>
        <clipPath id="clip-path-5">
            <rect id="Rectangle_219" data-name="Rectangle 219" width="186.547" height="188.277" fill="none"/>
        </clipPath>
        <clipPath id="clip-path-6">
            <rect id="Rectangle_218" data-name="Rectangle 218" width="186.536" height="188.22" fill="none"/>
        </clipPath>
        <clipPath id="clip-path-7">
            <rect id="Rectangle_221" data-name="Rectangle 221" width="39.227" height="28.198" fill="none"/>
        </clipPath>
        <clipPath id="clip-path-8">
            <rect id="Rectangle_220" data-name="Rectangle 220" width="39.21" height="28.196" fill="none"/>
        </clipPath>
        <clipPath id="clip-path-9">
            <rect id="Rectangle_223" data-name="Rectangle 223" width="17.599" height="18.757" fill="none"/>
        </clipPath>
        <clipPath id="clip-path-10">
            <rect id="Rectangle_222" data-name="Rectangle 222" width="17.481" height="18.706" fill="none"/>
        </clipPath>
        <clipPath id="clip-path-11">
            <rect id="Rectangle_225" data-name="Rectangle 225" width="174.266" height="166.778" fill="none"/>
        </clipPath>
        <clipPath id="clip-path-12">
            <rect id="Rectangle_224" data-name="Rectangle 224" width="174.255" height="166.777" fill="none"/>
        </clipPath>
        <clipPath id="clip-path-13">
            <rect id="Rectangle_227" data-name="Rectangle 227" width="178.713" height="158.309" fill="none"/>
        </clipPath>
        <clipPath id="clip-path-14">
            <rect id="Rectangle_226" data-name="Rectangle 226" width="178.712" height="158.305" fill="none"/>
        </clipPath>
        <clipPath id="clip-path-15">
            <rect id="Rectangle_229" data-name="Rectangle 229" width="24.946" height="12.943" fill="none"/>
        </clipPath>
        <clipPath id="clip-path-16">
            <rect id="Rectangle_228" data-name="Rectangle 228" width="24.946" height="12.925" fill="none"/>
        </clipPath>
        <clipPath id="clip-path-17">
            <rect id="Rectangle_231" data-name="Rectangle 231" width="15.411" height="17.474" fill="none"/>
        </clipPath>
        <clipPath id="clip-path-18">
            <rect id="Rectangle_230" data-name="Rectangle 230" width="15.403" height="17.435" fill="none"/>
        </clipPath>
        <clipPath id="clip-path-19">
            <rect id="Rectangle_233" data-name="Rectangle 233" width="26.811" height="15.948" fill="none"/>
        </clipPath>
        <clipPath id="clip-path-20">
            <rect id="Rectangle_232" data-name="Rectangle 232" width="26.729" height="15.865" fill="none"/>
        </clipPath>
        <clipPath id="clip-path-21">
            <rect id="Rectangle_235" data-name="Rectangle 235" width="20.079" height="14.858" fill="none"/>
        </clipPath>
        <clipPath id="clip-path-22">
            <rect id="Rectangle_234" data-name="Rectangle 234" width="20.059" height="14.726" fill="none"/>
        </clipPath>
        <clipPath id="clip-path-23">
            <rect id="Rectangle_237" data-name="Rectangle 237" width="17.345" height="13.636" fill="none"/>
        </clipPath>
        <clipPath id="clip-path-24">
            <rect id="Rectangle_236" data-name="Rectangle 236" width="17.318" height="13.637" fill="none"/>
        </clipPath>
        <clipPath id="clip-path-25">
            <rect id="Rectangle_239" data-name="Rectangle 239" width="24.848" height="18.837" fill="none"/>
        </clipPath>
        <clipPath id="clip-path-26">
            <rect id="Rectangle_238" data-name="Rectangle 238" width="24.829" height="18.838" fill="none"/>
        </clipPath>
        <clipPath id="clip-path-27">
            <rect id="Rectangle_241" data-name="Rectangle 241" width="20.005" height="12.597" fill="none"/>
        </clipPath>
        <clipPath id="clip-path-28">
            <rect id="Rectangle_240" data-name="Rectangle 240" width="19.991" height="12.598" fill="none"/>
        </clipPath>
        <clipPath id="clip-path-29">
            <rect id="Rectangle_243" data-name="Rectangle 243" width="14.563" height="16.724" fill="none"/>
        </clipPath>
        <clipPath id="clip-path-30">
            <rect id="Rectangle_242" data-name="Rectangle 242" width="14.363" height="16.641" fill="none"/>
        </clipPath>
        <clipPath id="clip-path-31">
            <rect id="Rectangle_245" data-name="Rectangle 245" width="7.117" height="6.161" fill="none"/>
        </clipPath>
        <clipPath id="clip-path-32">
            <rect id="Rectangle_244" data-name="Rectangle 244" width="7.084" height="6.14" fill="none"/>
        </clipPath>
        <clipPath id="clip-path-33">
            <rect id="Rectangle_247" data-name="Rectangle 247" width="5.162" height="6.414" fill="none"/>
        </clipPath>
        <clipPath id="clip-path-34">
            <rect id="Rectangle_246" data-name="Rectangle 246" width="5.101" height="6.372" fill="none"/>
        </clipPath>
        <clipPath id="clip-path-35">
            <rect id="Rectangle_249" data-name="Rectangle 249" width="8.233" height="5.068" fill="none"/>
        </clipPath>
        <clipPath id="clip-path-36">
            <rect id="Rectangle_248" data-name="Rectangle 248" width="8.123" height="5.037" fill="none"/>
        </clipPath>
        <clipPath id="clip-path-37">
            <rect id="Rectangle_251" data-name="Rectangle 251" width="7.793" height="5.508" fill="none"/>
        </clipPath>
        <clipPath id="clip-path-38">
            <rect id="Rectangle_250" data-name="Rectangle 250" width="7.774" height="5.496" fill="none"/>
        </clipPath>
        <clipPath id="clip-path-39">
            <rect id="Rectangle_253" data-name="Rectangle 253" width="8.122" height="5.06" fill="none"/>
        </clipPath>
        <clipPath id="clip-path-41">
            <rect id="Rectangle_255" data-name="Rectangle 255" width="8.832" height="4.542" fill="none"/>
        </clipPath>
        <clipPath id="clip-path-42">
            <rect id="Rectangle_254" data-name="Rectangle 254" width="8.799" height="4.524" fill="none"/>
        </clipPath>
        <clipPath id="clip-path-43">
            <rect id="Rectangle_257" data-name="Rectangle 257" width="3.925" height="8.981" fill="none"/>
        </clipPath>
        <clipPath id="clip-path-44">
            <rect id="Rectangle_256" data-name="Rectangle 256" width="3.862" height="8.963" fill="none"/>
        </clipPath>
        <clipPath id="clip-path-45">
            <rect id="Rectangle_259" data-name="Rectangle 259" width="5.713" height="7.595" fill="none"/>
        </clipPath>
        <clipPath id="clip-path-46">
            <rect id="Rectangle_258" data-name="Rectangle 258" width="5.713" height="7.561" fill="none"/>
        </clipPath>
        <clipPath id="clip-path-47">
            <rect id="Rectangle_261" data-name="Rectangle 261" width="4.826" height="5.828" fill="none"/>
        </clipPath>
        <clipPath id="clip-path-48">
            <rect id="Rectangle_260" data-name="Rectangle 260" width="4.756" height="5.813" fill="none"/>
        </clipPath>
        <clipPath id="clip-path-49">
            <rect id="Rectangle_263" data-name="Rectangle 263" width="13.488" height="13.025" fill="none"/>
        </clipPath>
        <clipPath id="clip-path-50">
            <rect id="Rectangle_262" data-name="Rectangle 262" width="13.423" height="12.975" fill="none"/>
        </clipPath>
        <clipPath id="clip-path-51">
            <rect id="Rectangle_265" data-name="Rectangle 265" width="31.087" height="20.653" fill="none"/>
        </clipPath>
        <clipPath id="clip-path-52">
            <rect id="Rectangle_264" data-name="Rectangle 264" width="31.086" height="20.653" fill="none"/>
        </clipPath>
        <clipPath id="clip-path-53">
            <rect id="Rectangle_267" data-name="Rectangle 267" width="12.828" height="11.408" fill="none"/>
        </clipPath>
        <clipPath id="clip-path-54">
            <rect id="Rectangle_266" data-name="Rectangle 266" width="12.811" height="11.409" fill="none"/>
        </clipPath>
        <clipPath id="clip-path-55">
            <rect id="Rectangle_269" data-name="Rectangle 269" width="24.797" height="18.556" fill="none"/>
        </clipPath>
        <clipPath id="clip-path-56">
            <rect id="Rectangle_268" data-name="Rectangle 268" width="24.797" height="18.489" fill="none"/>
        </clipPath>
        <clipPath id="clip-path-57">
            <rect id="Rectangle_271" data-name="Rectangle 271" width="19.283" height="15.04" fill="none"/>
        </clipPath>
        <clipPath id="clip-path-58">
            <rect id="Rectangle_270" data-name="Rectangle 270" width="19.283" height="15.007" fill="none"/>
        </clipPath>
        <clipPath id="clip-path-59">
            <rect id="Rectangle_273" data-name="Rectangle 273" width="22.238" height="23.509" fill="none"/>
        </clipPath>
        <clipPath id="clip-path-60">
            <rect id="Rectangle_272" data-name="Rectangle 272" width="22.237" height="23.508" fill="none"/>
        </clipPath>
        <clipPath id="clip-path-61">
            <rect id="Rectangle_275" data-name="Rectangle 275" width="24.004" height="16.922" fill="none"/>
        </clipPath>
        <clipPath id="clip-path-62">
            <rect id="Rectangle_274" data-name="Rectangle 274" width="24.003" height="16.923" fill="none"/>
        </clipPath>
        <clipPath id="clip-path-63">
            <rect id="Rectangle_277" data-name="Rectangle 277" width="27.702" height="19.283" fill="none"/>
        </clipPath>
        <clipPath id="clip-path-64">
            <rect id="Rectangle_276" data-name="Rectangle 276" width="27.669" height="19.283" fill="none"/>
        </clipPath>
        <clipPath id="clip-path-65">
            <rect id="Rectangle_279" data-name="Rectangle 279" width="30.228" height="15.32" fill="none"/>
        </clipPath>
        <clipPath id="clip-path-66">
            <rect id="Rectangle_278" data-name="Rectangle 278" width="30.229" height="15.321" fill="none"/>
        </clipPath>
        <clipPath id="clip-path-67">
            <rect id="Rectangle_281" data-name="Rectangle 281" width="21.33" height="12.514" fill="none"/>
        </clipPath>
        <clipPath id="clip-path-68">
            <rect id="Rectangle_280" data-name="Rectangle 280" width="21.248" height="12.416" fill="none"/>
        </clipPath>
        <clipPath id="clip-path-69">
            <rect id="Rectangle_283" data-name="Rectangle 283" width="27.587" height="9.161" fill="none"/>
        </clipPath>
        <clipPath id="clip-path-70">
            <rect id="Rectangle_282" data-name="Rectangle 282" width="27.587" height="9.13" fill="none"/>
        </clipPath>
        <clipPath id="clip-path-71">
            <rect id="Rectangle_285" data-name="Rectangle 285" width="12.996" height="5.182" fill="none"/>
        </clipPath>
        <clipPath id="clip-path-72">
            <rect id="Rectangle_284" data-name="Rectangle 284" width="12.975" height="5.101" fill="none"/>
        </clipPath>
        <clipPath id="clip-path-73">
            <rect id="Rectangle_287" data-name="Rectangle 287" width="31.087" height="12.2" fill="none"/>
        </clipPath>
        <clipPath id="clip-path-74">
            <rect id="Rectangle_286" data-name="Rectangle 286" width="31.086" height="12.199" fill="none"/>
        </clipPath>
        <clipPath id="clip-path-75">
            <rect id="Rectangle_289" data-name="Rectangle 289" width="19.283" height="7.479" fill="none"/>
        </clipPath>
    </defs>
    <g id="Groupe_2908" data-name="Groupe 2908" clip-path="url(#clip-path)">
        <g id="Groupe_2721" data-name="Groupe 2721" transform="translate(22.05 2.76)" opacity="0.2">
            <g id="Groupe_2720" data-name="Groupe 2720">
                <g id="Groupe_2719" data-name="Groupe 2719" clip-path="url(#clip-path-2)">
                    <path id="Tracé_756" data-name="Tracé 756" d="M19.134,23.27h-.758l-5.927-.662a7.045,7.045,0,0,1-6.208-7.8,6.69,6.69,0,0,1,.114-.7l2-9.276A5.137,5.137,0,0,1,14.414.883l4.175.562a7.563,7.563,0,0,1,6.489,6.849l.644,7.91a6.607,6.607,0,0,1-6.037,7.126c-.189.014-.377.021-.57.021" transform="translate(-6.193 -0.776)" fill="#6d4c41"/>
                </g>
            </g>
        </g>
        <g id="Groupe_2724" data-name="Groupe 2724" transform="translate(37.808 40.33)" opacity="0.2">
            <g id="Groupe_2723" data-name="Groupe 2723">
                <g id="Groupe_2722" data-name="Groupe 2722" clip-path="url(#clip-path-3)">
                    <path id="Tracé_757" data-name="Tracé 757" d="M178.16,37.248A102.755,102.755,0,0,0,151.477,11.33h-.032A102.786,102.786,0,0,1,10.622,156.314,102.792,102.792,0,0,0,134.6,191.352l.559.349a14.162,14.162,0,0,0,7.447,1.983,17.5,17.5,0,0,0,2.954-.263l13.206-2.346a12.132,12.132,0,0,0,8.009-4.72,6.6,6.6,0,0,0-1.125-8.7l-2.111-1.851a15.464,15.464,0,0,0-1.915-1.314A102.77,102.77,0,0,0,178.16,37.248" transform="translate(-10.62 -11.331)" fill="#6d4c41"/>
                </g>
            </g>
        </g>
        <g id="Groupe_2727" data-name="Groupe 2727" transform="translate(199.648 205.709)" opacity="0.2">
            <g id="Groupe_2726" data-name="Groupe 2726">
                <g id="Groupe_2725" data-name="Groupe 2725" clip-path="url(#clip-path-4)">
                    <path id="Tracé_758" data-name="Tracé 758" d="M71.652,57.791a11.224,11.224,0,0,0-2.26.231l-6.607,1.353a8.83,8.83,0,0,0-5.71,3.684,5.99,5.99,0,0,0,1.239,7.956l1.089.89a10.567,10.567,0,0,0,6.272,2.246l5.945.263h.363a7.619,7.619,0,0,0,6.29-3.086l1.452-2.065a6.607,6.607,0,0,0,1.089-5.215,6.738,6.738,0,0,0-3.3-4.407l-.99-.58a9.655,9.655,0,0,0-4.951-1.271" transform="translate(-56.087 -57.79)" fill="#6d4c41"/>
                </g>
            </g>
        </g>
        <path id="Tracé_759" data-name="Tracé 759" d="M119.343,17.084l-2.1,11.409a4.954,4.954,0,0,1-3.731,3.962l-22.881,5.6a12,12,0,0,0-6.984,4.77l-4.343,6.208a7.594,7.594,0,0,1-7.792,3.09L41.668,45.86a16.047,16.047,0,0,0-11.441,1.865l-15.007,8.8a13.416,13.416,0,0,0-5.5,6.076A102.744,102.744,0,1,0,130.4,5.33a4.8,4.8,0,0,0-5.215,1.929l-4.325,6.276a9.393,9.393,0,0,0-1.488,3.617" transform="translate(1.969 13.218)" fill="#eb984e"/>
        <g id="Groupe_2732" data-name="Groupe 2732" transform="translate(21.714 32.134)" opacity="0.3">
            <g id="Groupe_2731" data-name="Groupe 2731">
                <g id="Groupe_2730" data-name="Groupe 2730" clip-path="url(#clip-path-5)">
                    <g id="Groupe_2729" data-name="Groupe 2729" transform="translate(0 0.049)">
                        <g id="Groupe_2728" data-name="Groupe 2728" clip-path="url(#clip-path-6)">
                            <path id="Tracé_760" data-name="Tracé 760" d="M146.891,9.028A102.787,102.787,0,0,1,6.1,154.062,102.771,102.771,0,1,0,146.891,9.028" transform="translate(-6.1 -9.076)" fill="#6d4c41"/>
                        </g>
                    </g>
                </g>
            </g>
        </g>
        <g id="Groupe_2737" data-name="Groupe 2737" transform="translate(50.799 18.001)" opacity="0.2">
            <g id="Groupe_2736" data-name="Groupe 2736">
                <g id="Groupe_2735" data-name="Groupe 2735" clip-path="url(#clip-path-7)">
                    <g id="Groupe_2734" data-name="Groupe 2734" transform="translate(0.005 0)">
                        <g id="Groupe_2733" data-name="Groupe 2733" clip-path="url(#clip-path-8)">
                            <path id="Tracé_761" data-name="Tracé 761" d="M15.034,18.348l2.346,4.143a14.27,14.27,0,0,0,8.582,6.77l12.8,3.631a8.963,8.963,0,0,0,2.46.345,8.8,8.8,0,0,0,7.742-4.62l3.417-6.276a9.277,9.277,0,0,0-.826-10.1l-2.2-2.823A11.255,11.255,0,0,0,39.036,5.156L22.644,7.288a10.092,10.092,0,0,0-7.742,5.5,5.949,5.949,0,0,0,.132,5.582" transform="translate(-14.275 -5.04)" fill="#6d4c41"/>
                        </g>
                    </g>
                </g>
            </g>
        </g>
        <g id="Groupe_2742" data-name="Groupe 2742" transform="translate(103.203 11.462)" opacity="0.2">
            <g id="Groupe_2741" data-name="Groupe 2741">
                <g id="Groupe_2740" data-name="Groupe 2740" clip-path="url(#clip-path-9)">
                    <g id="Groupe_2739" data-name="Groupe 2739" transform="translate(0.116 0.05)">
                        <g id="Groupe_2738" data-name="Groupe 2738" clip-path="url(#clip-path-10)">
                            <path id="Tracé_762" data-name="Tracé 762" d="M32.89,19.914a7.224,7.224,0,0,0,6.852,1.734l1.965-.527a6.607,6.607,0,0,0,4.535-8.166c-.018-.068-.039-.139-.064-.206L44.53,7.928A6.791,6.791,0,0,0,38.29,3.3l-3.04-.082A6.094,6.094,0,0,0,29,9.146l0,.167v3.3A8.714,8.714,0,0,0,31.7,18.924Z" transform="translate(-29.109 -3.271)" fill="#6d4c41"/>
                        </g>
                    </g>
                </g>
            </g>
        </g>
        <path id="Tracé_763" data-name="Tracé 763" d="M105.515,212.01h-.167A105.526,105.526,0,0,1,9.184,63.427a16.065,16.065,0,0,1,6.6-7.329l15.007-8.8a18.745,18.745,0,0,1,13.388-2.182l29.9,6.308a4.817,4.817,0,0,0,4.951-1.965l4.329-6.208a14.731,14.731,0,0,1,8.582-5.877l22.881-5.6a2.262,2.262,0,0,0,1.652-1.783l2.1-11.409a12.018,12.018,0,0,1,1.933-4.67l4.325-6.272a7.574,7.574,0,0,1,8.255-3.022A105.493,105.493,0,0,1,105.5,211.943M40.3,50.153a13.206,13.206,0,0,0-6.721,1.833l-15,8.8a10.577,10.577,0,0,0-4.375,4.82,100.009,100.009,0,0,0,91.145,140.756h.149A99.995,99.995,0,0,0,131.647,9.9a2.06,2.06,0,0,0-2.228.826L125.093,17a6.583,6.583,0,0,0-1.057,2.559l-2.1,11.409a7.757,7.757,0,0,1-5.8,6.14l-22.881,5.6a9.24,9.24,0,0,0-5.382,3.684l-4.325,6.2a10.345,10.345,0,0,1-10.615,4.193L43.061,50.6a13.563,13.563,0,0,0-2.759-.281" transform="translate(0 11.135)" fill="#6d4c41"/>
        <g id="Groupe_2747" data-name="Groupe 2747" transform="translate(5.523 21.07)" opacity="0.5">
            <g id="Groupe_2746" data-name="Groupe 2746">
                <g id="Groupe_2745" data-name="Groupe 2745" clip-path="url(#clip-path-11)">
                    <g id="Groupe_2744" data-name="Groupe 2744" transform="translate(0.013 0.004)">
                        <g id="Groupe_2743" data-name="Groupe 2743" clip-path="url(#clip-path-12)">
                            <path id="Tracé_764" data-name="Tracé 764" d="M4.717,105.851a99.2,99.2,0,0,1,8.668-40.779,10.6,10.6,0,0,1,4.375-4.82l15.022-8.8a13.3,13.3,0,0,1,9.476-1.534l29.9,6.308a10.342,10.342,0,0,0,10.615-4.211L87.1,45.807a9.224,9.224,0,0,1,5.382-3.681l22.881-5.6a7.777,7.777,0,0,0,5.8-6.144l2.1-11.405a6.583,6.583,0,0,1,1.057-2.559l4.325-6.276a2.064,2.064,0,0,1,2.228-.822,99.4,99.4,0,0,1,44.919,26.3A99.542,99.542,0,0,0,127.66,5.989a2.06,2.06,0,0,0-2.228.826l-4.325,6.272a6.583,6.583,0,0,0-1.057,2.559l-2.1,11.409a7.777,7.777,0,0,1-5.8,6.14l-22.881,5.6a9.243,9.243,0,0,0-5.364,3.681L79.569,48.68a10.33,10.33,0,0,1-10.615,4.193l-29.9-6.308A13.2,13.2,0,0,0,29.581,48.1L14.574,56.9a10.577,10.577,0,0,0-4.375,4.82A99.9,99.9,0,0,0,30.5,172.7,99.586,99.586,0,0,1,4.785,105.833" transform="translate(-1.563 -5.923)" fill="#fff"/>
                        </g>
                    </g>
                </g>
            </g>
        </g>
        <g id="Groupe_2752" data-name="Groupe 2752" transform="translate(18.065 47.352)" opacity="0.2">
            <g id="Groupe_2751" data-name="Groupe 2751">
                <g id="Groupe_2750" data-name="Groupe 2750" clip-path="url(#clip-path-13)">
                    <g id="Groupe_2749" data-name="Groupe 2749" transform="translate(0 0.002)">
                        <g id="Groupe_2748" data-name="Groupe 2748" clip-path="url(#clip-path-14)">
                            <path id="Tracé_765" data-name="Tracé 765" d="M30.319,59.541,36,50.034a8.1,8.1,0,0,0-.146-8.6l-3.022-4.67a8.474,8.474,0,0,0-7.991-3.848l-5.4.545a9.528,9.528,0,0,0-8.486,8.422l-.612,5.628a10.7,10.7,0,0,0,3.766,9.362l5.382,4.521a7.177,7.177,0,0,0,4.62,1.652,6.846,6.846,0,0,0,1.207-.1,7.191,7.191,0,0,0,4.951-3.417" transform="translate(8.246 36.774)" fill="#6d4c41"/>
                            <path id="Tracé_766" data-name="Tracé 766" d="M52.574,49.369a15.363,15.363,0,0,0-12.085-5.845H37.417A9.908,9.908,0,0,0,28.6,48.892l-3.435,6.6A9.739,9.739,0,0,0,27.215,67.05l7.561,6.966a8.946,8.946,0,0,0,11.558.495l9.131-7.066a8.9,8.9,0,0,0,1.595-12.48c-.025-.032-.05-.068-.078-.1Z" transform="translate(43.639 64.05)" fill="#6d4c41"/>
                            <path id="Tracé_767" data-name="Tracé 767" d="M29.928,52.729l7.692,6.091a7.3,7.3,0,0,0,11.014-2.374L53.485,47a10.173,10.173,0,0,0-2.392-12.366L47.181,31.25a10.043,10.043,0,0,0-6.607-2.442h-3.6a9.9,9.9,0,0,0-6.753,2.641A10.985,10.985,0,0,0,26.692,39.5v6.6a8.5,8.5,0,0,0,3.3,6.7" transform="translate(50.257 26.382)" fill="#6d4c41"/>
                            <path id="Tracé_768" data-name="Tracé 768" d="M66.049,48.8a10.853,10.853,0,0,0-4.211-7.148l-.327-.249A7.056,7.056,0,0,0,52,42.277l-8.255,9.049a7.683,7.683,0,0,0,0,10.351l5.8,6.222a7.086,7.086,0,0,0,10.5-.1l3.98-4.425a11,11,0,0,0,2.705-8.913Z" transform="translate(88.774 54.914)" fill="#6d4c41"/>
                            <path id="Tracé_769" data-name="Tracé 769" d="M54.343,59.688h.495a6.112,6.112,0,0,0,4.225-2.211L70.771,42.616a6.6,6.6,0,0,0-.812-9.3,6.333,6.333,0,0,0-.84-.6h-.1l-12.861-6.87a7.354,7.354,0,0,0-10.483,3.3L40.461,40.6a9.74,9.74,0,0,0,2.474,11.341l7.4,6.372a6.071,6.071,0,0,0,3.98,1.484" transform="translate(83.294 16.138)" fill="#6d4c41"/>
                            <path id="Tracé_770" data-name="Tracé 770" d="M22.526,43.964a7.161,7.161,0,0,0,5.315,2.378,7.241,7.241,0,0,0,2.577-.481l9.526-3.631a7.269,7.269,0,0,0,4.474-8.454L41.694,22.4a1.973,1.973,0,0,0-1.506-1.47L26.651,18.078a1.942,1.942,0,0,0-1.2.132l-3.666,1.652a8.865,8.865,0,0,0-4.489,4.457L15.31,28.693A8.26,8.26,0,0,0,16.7,37.56Z" transform="translate(19.293 -1.189)" fill="#6d4c41"/>
                            <path id="Tracé_771" data-name="Tracé 771" d="M35.33,39.207a8.386,8.386,0,0,0,10.782,1.766l2.641-1.652a7.208,7.208,0,0,0,3.3-7.938L48.141,15.944A3.511,3.511,0,0,0,43.9,13.406L33.646,15.912a4.09,4.09,0,0,0-3.136,3.8l-.445,8.678a10.539,10.539,0,0,0,2.442,7.315Z" transform="translate(58.855 -13.305)" fill="#6d4c41"/>
                            <path id="Tracé_772" data-name="Tracé 772" d="M22.887,44.189A10.421,10.421,0,0,0,15.572,51.5a4.946,4.946,0,0,0,1.093,4.652,4.481,4.481,0,0,0,3.3,1.257,6.585,6.585,0,0,0,1.42-.164A10.434,10.434,0,0,0,28.7,49.934a4.541,4.541,0,0,0-5.745-5.745" transform="translate(21.323 65.151)" fill="#6d4c41"/>
                            <path id="Tracé_773" data-name="Tracé 773" d="M27.709,54.761A4.541,4.541,0,0,0,19.966,57.2a10.421,10.421,0,0,0,3.118,9.906A5.342,5.342,0,0,0,26.5,68.48a3.956,3.956,0,0,0,1.225-.182c2.9-.925,4.158-4.87,2.873-8.981a9.823,9.823,0,0,0-2.873-4.524" transform="translate(32.417 89.282)" fill="#6d4c41"/>
                            <path id="Tracé_774" data-name="Tracé 774" d="M45.583,49.724c1.52-2.641-.214-6.4-3.944-8.55a9.793,9.793,0,0,0-5.169-1.406,4.956,4.956,0,0,0-4.225,2.264c-1.52,2.641.214,6.4,3.944,8.55a9.9,9.9,0,0,0,4.855,1.4,4.947,4.947,0,0,0,4.521-2.26" transform="translate(63.064 54.433)" fill="#6d4c41"/>
                            <path id="Tracé_775" data-name="Tracé 775" d="M45.253,56.159h0a9.788,9.788,0,0,0-4.951-1.9,4.538,4.538,0,0,0-4.738,6.6,9.769,9.769,0,0,0,3.4,4.126,9.515,9.515,0,0,0,5.414,1.9,4.78,4.78,0,0,0,4.012-1.851c1.766-2.478.413-6.39-3.086-8.9" transform="translate(71.614 91.383)" fill="#6d4c41"/>
                            <path id="Tracé_776" data-name="Tracé 776" d="M36.6,32.058a4.949,4.949,0,0,0,4.225,2.26h.331a9.877,9.877,0,0,0,4.951-1.4c3.734-2.161,5.468-5.909,3.948-8.55A4.96,4.96,0,0,0,45.834,22.1a9.891,9.891,0,0,0-5.169,1.406c-3.73,2.161-5.464,5.909-3.948,8.55" transform="translate(74.518 9.215)" fill="#6d4c41"/>
                            <path id="Tracé_777" data-name="Tracé 777" d="M30.679,28.455a10.421,10.421,0,0,0-9.988,2.691,4.948,4.948,0,0,0-1.385,4.588,5.8,5.8,0,0,0,6.041,3.634,10.83,10.83,0,0,0,2.805-.381,9.843,9.843,0,0,0,4.642-2.673,4.523,4.523,0,0,0-2.114-7.842" transform="translate(31.066 24.607)" fill="#6d4c41"/>
                            <path id="Tracé_778" data-name="Tracé 778" d="M11.223,29.289a4.946,4.946,0,0,0-4.275,2.164A9.7,9.7,0,0,0,5.132,36.4c-.384,4.307,1.648,7.874,4.749,8.137h.349a4.933,4.933,0,0,0,3.912-2.179,9.892,9.892,0,0,0,1.819-4.951c.377-4.311-1.655-7.87-4.756-8.141" transform="translate(-5.047 27.568)" fill="#6d4c41"/>
                            <path id="Tracé_779" data-name="Tracé 779" d="M57.947,23.927c-2.709-3.3-6.685-4.492-9.063-2.574s-2.114,6.041.594,9.408A9.793,9.793,0,0,0,53.8,33.933a6.254,6.254,0,0,0,1.979.345,4.354,4.354,0,0,0,2.777-.926,4.947,4.947,0,0,0,1.648-4.524,9.768,9.768,0,0,0-2.179-4.951" transform="translate(102.903 4.947)" fill="#6d4c41"/>
                            <path id="Tracé_780" data-name="Tracé 780" d="M59.074,40.4a4.95,4.95,0,0,0-4.457,1.766,10.406,10.406,0,0,0-1.851,10.17,4.962,4.962,0,0,0,3.549,3.221,4.166,4.166,0,0,0,.73,0,5.161,5.161,0,0,0,3.731-1.833,9.793,9.793,0,0,0,2.278-4.838c.776-4.243-.975-8.009-3.98-8.554" transform="translate(115.477 55.882)" fill="#6d4c41"/>
                        </g>
                    </g>
                </g>
            </g>
        </g>
        <path id="Tracé_781" data-name="Tracé 781" d="M7.409,17.151l5.927.676a3.862,3.862,0,0,0,4.279-3.4,4.036,4.036,0,0,0,.014-.748l-.644-7.956a4.769,4.769,0,0,0-4.111-4.343L8.58.809A2.377,2.377,0,0,0,5.707,2.553l-.014.071-2,9.276A4.312,4.312,0,0,0,7,17.019a4,4,0,0,0,.406.064" transform="translate(9.204 1.891)" fill="#eb984e"/>
        <path id="Tracé_782" data-name="Tracé 782" d="M15.759,22.494H15l-5.927-.662a7.05,7.05,0,0,1-6.208-7.8c.028-.235.068-.47.117-.7l2-9.276A5.135,5.135,0,0,1,11.036.107l4.179.562A7.556,7.556,0,0,1,21.7,7.518l.644,7.91a6.6,6.6,0,0,1-6.037,7.126q-.283.021-.566.021m-6.059-6.19,5.909.676a1.043,1.043,0,0,0,.908-.3,1.092,1.092,0,0,0,.331-.893l-.644-7.906a2.032,2.032,0,0,0-1.734-1.833L10.26,5.571,8.33,14.52a1.549,1.549,0,0,0,1.192,1.84c.046.011.1.018.142.025" transform="translate(7.211 -0.002)" fill="#6d4c41"/>
        <path id="Tracé_783" data-name="Tracé 783" d="M13.265,13.929l2.346,4.143a11.547,11.547,0,0,0,6.948,5.464l12.793,3.634a6.1,6.1,0,0,0,7.02-2.958l3.417-6.272a6.606,6.606,0,0,0-.58-7.1L43.013,8a8.471,8.471,0,0,0-7.792-3.2L18.829,6.931A7.345,7.345,0,0,0,13.2,10.943a3.19,3.19,0,0,0,0,2.987" transform="translate(32.832 12.097)" fill="#eb984e"/>
        <path id="Tracé_784" data-name="Tracé 784" d="M38.993,32.152a9,9,0,0,1-2.46-.345L23.757,28.172a14.294,14.294,0,0,1-8.586-6.767l-2.346-4.143a5.949,5.949,0,0,1-.132-5.582,10.115,10.115,0,0,1,7.742-5.514l16.4-2.129A11.274,11.274,0,0,1,47.148,8.3l2.2,2.841a9.262,9.262,0,0,1,.812,10.1l-3.417,6.276a8.789,8.789,0,0,1-7.746,4.62M17.631,14.553,19.977,18.7a8.809,8.809,0,0,0,5.3,4.175l12.779,3.634A3.308,3.308,0,0,0,41.9,24.855l3.417-6.272a3.771,3.771,0,0,0-.331-4.1l-2.2-2.837a5.735,5.735,0,0,0-5.25-2.164L21.148,11.613a4.593,4.593,0,0,0-3.517,2.51.426.426,0,0,0,0,.413" transform="translate(30.876 10.103)" fill="#6d4c41"/>
        <g id="Groupe_2757" data-name="Groupe 2757" transform="translate(48.442 19.57)" opacity="0.5">
            <g id="Groupe_2756" data-name="Groupe 2756">
                <g id="Groupe_2755" data-name="Groupe 2755" clip-path="url(#clip-path-15)">
                    <g id="Groupe_2754" data-name="Groupe 2754" transform="translate(0.001 0.001)">
                        <g id="Groupe_2753" data-name="Groupe 2753" clip-path="url(#clip-path-16)">
                            <path id="Tracé_785" data-name="Tracé 785" d="M18.339,16.306l-2.346-4.143a.446.446,0,0,1,0-.413A4.607,4.607,0,0,1,19.51,9.24l16.4-2.129a5.717,5.717,0,0,1,2.623.3,5.728,5.728,0,0,0-4.951-1.865L17.182,7.67a4.587,4.587,0,0,0-3.513,2.51.446.446,0,0,0,0,.413l2.342,4.143a8.785,8.785,0,0,0,4.03,3.7,8.787,8.787,0,0,1-1.652-2.111" transform="translate(-13.587 -5.494)" fill="#fff"/>
                        </g>
                    </g>
                </g>
            </g>
        </g>
        <path id="Tracé_786" data-name="Tracé 786" d="M29.471,13.836l1.071,1.025a4.515,4.515,0,0,0,4.293,1.071l1.965-.545a3.783,3.783,0,0,0,2.652-4.642c-.018-.068-.039-.132-.061-.2l-1.648-4.82a4.014,4.014,0,0,0-3.7-2.741l-3.04-.082a3.3,3.3,0,0,0-3.431,3.165V9.511A5.919,5.919,0,0,0,29.421,13.8" transform="translate(70.58 7.435)" fill="#eb984e"/>
        <path id="Tracé_787" data-name="Tracé 787" d="M35.566,20.781A7.327,7.327,0,0,1,30.611,18.8L29.54,17.776a8.73,8.73,0,0,1-2.709-6.311v-3.3a6.044,6.044,0,0,1,1.851-4.357,5.831,5.831,0,0,1,4.407-1.652l3.036.082a6.787,6.787,0,0,1,6.244,4.624l1.648,4.82a6.6,6.6,0,0,1-4.272,8.3c-.071.025-.146.046-.217.068l-1.965.545a7.118,7.118,0,0,1-1.9.246M32.957,7.635a.6.6,0,0,0-.594.58v3.3a3.183,3.183,0,0,0,.99,2.3l1.075,1.025a1.761,1.761,0,0,0,1.652.409l1.961-.523a1.027,1.027,0,0,0,.733-1.249l-.021-.071L37.1,8.578a1.246,1.246,0,0,0-1.157-.858l-3.036-.085Z" transform="translate(68.678 5.495)" fill="#6d4c41"/>
        <path id="Tracé_788" data-name="Tracé 788" d="M12.655,52.821l5.382,4.524a5.253,5.253,0,0,0,7.874-1.338L31.593,46.5a6.18,6.18,0,0,0-.117-6.521L28.453,35.3a6.6,6.6,0,0,0-6.158-2.955l-5.4.545a7.513,7.513,0,0,0-6.721,6.6l-.609,5.631a8.745,8.745,0,0,0,3.068,7.643" transform="translate(24.361 82.725)" fill="#9e6c4b"/>
        <path id="Tracé_789" data-name="Tracé 789" d="M22.782,61.945a7.2,7.2,0,0,1-4.62-1.652l-5.382-4.524a10.7,10.7,0,0,1-3.763-9.362l.609-5.628a9.525,9.525,0,0,1,8.486-8.419l5.4-.548a8.489,8.489,0,0,1,8.006,3.848l3.022,4.674a8.258,8.258,0,0,1,.146,8.6l-5.678,9.508a7.115,7.115,0,0,1-6.158,3.517M24.4,35.71h-.463l-5.4.545a5.582,5.582,0,0,0-4.955,4.951l-.609,5.631a6.772,6.772,0,0,0,2.374,5.927l5.382,4.524a3.3,3.3,0,0,0,4.652-.406,3.489,3.489,0,0,0,.3-.42l5.678-9.511a4.224,4.224,0,0,0,0-4.439l-3.022-4.674a4.571,4.571,0,0,0-3.844-2.1" transform="translate(22.917 81.312)" fill="#6d4c41"/>
        <g id="Groupe_2762" data-name="Groupe 2762" transform="translate(35.788 116.966)" opacity="0.4">
            <g id="Groupe_2761" data-name="Groupe 2761">
                <g id="Groupe_2760" data-name="Groupe 2760" clip-path="url(#clip-path-17)">
                    <g id="Groupe_2759" data-name="Groupe 2759" transform="translate(0.008 0.04)">
                        <g id="Groupe_2758" data-name="Groupe 2758" clip-path="url(#clip-path-18)">
                            <path id="Tracé_790" data-name="Tracé 790" d="M11.68,45.58l.612-5.631A5.562,5.562,0,0,1,17.243,35l5.4-.545a4.569,4.569,0,0,1,2.823.644l-.1-.15a4.584,4.584,0,0,0-4.311-2.065l-5.4.548A5.566,5.566,0,0,0,10.7,38.383L10.1,44.011a6.762,6.762,0,0,0,2.378,5.927l.459.4A6.772,6.772,0,0,1,11.648,45.6" transform="translate(-10.06 -32.899)" fill="#fff"/>
                        </g>
                    </g>
                </g>
            </g>
        </g>
        <path id="Tracé_791" data-name="Tracé 791" d="M25.832,63.155l7.561,6.952a7,7,0,0,0,9.013.377l9.131-7.048a6.936,6.936,0,0,0,1.239-9.729l-.05-.061L48.3,48.083a13.439,13.439,0,0,0-10.547-5.1H34.682a7.948,7.948,0,0,0-7.066,4.289l-3.435,6.607a7.742,7.742,0,0,0,1.652,9.259" transform="translate(59.688 110.017)" fill="#9e6c4b"/>
        <path id="Tracé_792" data-name="Tracé 792" d="M39.528,75.3a8.938,8.938,0,0,1-6.076-2.378L25.891,65.96A9.74,9.74,0,0,1,23.844,54.4l3.432-6.6a9.906,9.906,0,0,1,8.817-5.364h3.072a15.334,15.334,0,0,1,12.081,5.845l4.425,5.564a8.9,8.9,0,0,1-1.435,12.5c-.032.025-.068.05-.1.078l-9.13,7.048a8.957,8.957,0,0,1-5.478,1.883M28.564,63.119l7.561,6.966a4.953,4.953,0,0,0,6.489.281l9.13-7.066a4.958,4.958,0,0,0,.915-6.945l-.057-.071-4.425-5.564a11.45,11.45,0,0,0-9-4.343H36.111a5.979,5.979,0,0,0-5.318,3.3l-3.435,6.6A5.793,5.793,0,0,0,28.582,63.2" transform="translate(58.312 108.614)" fill="#6d4c41"/>
        <g id="Groupe_2767" data-name="Groupe 2767" transform="translate(84.927 154.846)" opacity="0.4">
            <g id="Groupe_2766" data-name="Groupe 2766">
                <g id="Groupe_2765" data-name="Groupe 2765" clip-path="url(#clip-path-19)">
                    <g id="Groupe_2764" data-name="Groupe 2764" transform="translate(0.08 0.084)">
                        <g id="Groupe_2763" data-name="Groupe 2763" clip-path="url(#clip-path-20)">
                            <path id="Tracé_793" data-name="Tracé 793" d="M25.36,54.974l3.435-6.6a5.974,5.974,0,0,1,5.315-3.3h3.072a11.442,11.442,0,0,1,9,4.343L50.6,54.974v.082a5,5,0,0,0-.84-1.652L45.336,47.84A11.442,11.442,0,0,0,36.323,43.5H33.251a5.98,5.98,0,0,0-5.318,3.3L24.5,53.4a5.78,5.78,0,0,0,.445,6.026,5.774,5.774,0,0,1,.331-4.507" transform="translate(-23.939 -43.585)" fill="#fff"/>
                        </g>
                    </g>
                </g>
            </g>
        </g>
        <path id="Tracé_794" data-name="Tracé 794" d="M25.917,36.884v6.6a6.6,6.6,0,0,0,2.492,5.151l7.7,6.094a5.318,5.318,0,0,0,7.468-.851,5.491,5.491,0,0,0,.57-.883L49,43.555a8.257,8.257,0,0,0-1.933-9.907l-3.912-3.385A8.044,8.044,0,0,0,37.885,28.3H34.236a8.013,8.013,0,0,0-5.414,2.114,8.988,8.988,0,0,0-2.9,6.6" transform="translate(66.338 72.431)" fill="#9e6c4b"/>
        <path id="Tracé_795" data-name="Tracé 795" d="M40.867,59.411a7.27,7.27,0,0,1-4.524-1.652L28.65,51.668a8.5,8.5,0,0,1-3.3-6.7v-6.6a10.976,10.976,0,0,1,3.535-8.055,9.9,9.9,0,0,1,6.753-2.645h3.649a10.019,10.019,0,0,1,6.6,2.445l3.93,3.385a10.168,10.168,0,0,1,2.392,12.363L47.356,55.3a7.3,7.3,0,0,1-6.507,3.962m-5.133-27.52a6,6,0,0,0-4.094,1.652,7.046,7.046,0,0,0-2.264,5.165v6.607a4.6,4.6,0,0,0,1.751,3.613L38.8,54.872a3.3,3.3,0,0,0,4.649-.441,3.366,3.366,0,0,0,.42-.648l4.855-9.444a6.247,6.247,0,0,0-1.47-7.6l-3.93-3.382a6.056,6.056,0,0,0-3.98-1.488Z" transform="translate(64.879 70.803)" fill="#6d4c41"/>
        <g id="Groupe_2772" data-name="Groupe 2772" transform="translate(94.222 102.512)" opacity="0.4">
            <g id="Groupe_2771" data-name="Groupe 2771">
                <g id="Groupe_2770" data-name="Groupe 2770" clip-path="url(#clip-path-21)">
                    <g id="Groupe_2769" data-name="Groupe 2769" transform="translate(-0.001 0.035)">
                        <g id="Groupe_2768" data-name="Groupe 2768" clip-path="url(#clip-path-22)">
                            <path id="Tracé_796" data-name="Tracé 796" d="M26.688,37.566a7.07,7.07,0,0,1,2.26-5.169,6.026,6.026,0,0,1,4.1-1.648h3.649a6.069,6.069,0,0,1,3.976,1.484l3.93,3.385a6.256,6.256,0,0,1,1.933,3.019,6.247,6.247,0,0,0-2.164-4.951l-3.912-3.4a6.075,6.075,0,0,0-3.98-1.488H32.828a6.011,6.011,0,0,0-4.094,1.652,7.051,7.051,0,0,0-2.26,5.169v6.6a4.568,4.568,0,0,0,.231,1.435Z" transform="translate(-26.456 -28.833)" fill="#fff"/>
                        </g>
                    </g>
                </g>
            </g>
        </g>
        <path id="Tracé_797" data-name="Tracé 797" d="M42.518,57.748l5.8,6.222a5.2,5.2,0,0,0,7.347.313,4.332,4.332,0,0,0,.313-.313l3.98-4.421a9.053,9.053,0,0,0,2.228-7.315L61.37,46.57a8.913,8.913,0,0,0-3.449-5.859l-.331-.249a5.119,5.119,0,0,0-6.867.626l-8.255,9.049a5.662,5.662,0,0,0,0,7.678" transform="translate(104.862 100.911)" fill="#9e6c4b"/>
        <path id="Tracé_798" data-name="Tracé 798" d="M53.482,69.067a7.174,7.174,0,0,1-5.233-2.278l-5.813-6.222a7.683,7.683,0,0,1,0-10.351l8.255-9.045a7.048,7.048,0,0,1,9.511-.876l.327.246a10.825,10.825,0,0,1,4.211,7.148l.808,5.663a10.988,10.988,0,0,1-2.705,8.917l-3.98,4.425A7.166,7.166,0,0,1,53.6,69.067ZM55.86,42.787a3.137,3.137,0,0,0-2.328,1.039l-8.255,9.049a3.715,3.715,0,0,0,0,4.951l5.8,6.226A3.2,3.2,0,0,0,55.81,64l3.98-4.425a7.072,7.072,0,0,0,1.748-5.731l-.808-5.66a6.927,6.927,0,0,0-2.691-4.574l-.331-.249a3.167,3.167,0,0,0-1.915-.644" transform="translate(103.491 99.43)" fill="#6d4c41"/>
        <g id="Groupe_2777" data-name="Groupe 2777" transform="translate(147.8 142.216)" opacity="0.4">
            <g id="Groupe_2776" data-name="Groupe 2776">
                <g id="Groupe_2775" data-name="Groupe 2775" clip-path="url(#clip-path-23)">
                    <g id="Groupe_2774" data-name="Groupe 2774" transform="translate(0.029 -0.001)">
                        <g id="Groupe_2773" data-name="Groupe 2773" clip-path="url(#clip-path-24)">
                            <path id="Tracé_799" data-name="Tracé 799" d="M42.489,52.143l8.255-9.049a3.138,3.138,0,0,1,4.225-.377l.331.246a6.949,6.949,0,0,1,2.691,4.574l.794,5.582a7.2,7.2,0,0,0,0-2.033l-.812-5.663a6.914,6.914,0,0,0-2.691-4.571l-.327-.249a3.138,3.138,0,0,0-4.229.381l-8.255,9.045a3.7,3.7,0,0,0-.79,3.549,3.623,3.623,0,0,1,.79-1.435" transform="translate(-41.549 -39.942)" fill="#fff"/>
                        </g>
                    </g>
                </g>
            </g>
        </g>
        <path id="Tracé_800" data-name="Tracé 800" d="M41.492,47.852l7.4,6.372a4.143,4.143,0,0,0,5.845-.42l.046-.057L66.52,38.889a4.656,4.656,0,0,0-.566-6.56,4.352,4.352,0,0,0-.591-.424L52.456,25.02a5.4,5.4,0,0,0-7.415,1.819,4.938,4.938,0,0,0-.3.559L39.527,38.853a7.707,7.707,0,0,0,1.983,9.031" transform="translate(99.403 62.04)" fill="#9e6c4b"/>
        <path id="Tracé_801" data-name="Tracé 801" d="M53,58.717a6.043,6.043,0,0,1-3.98-1.488l-7.4-6.372a9.75,9.75,0,0,1-2.474-11.341L44.3,28.008a7.378,7.378,0,0,1,10.533-3.3l12.808,6.835a6.607,6.607,0,0,1,2.342,9.042,6.96,6.96,0,0,1-.609.861L57.662,56.307a6.111,6.111,0,0,1-4.222,2.211h-.5m-8.8-10.846,7.4,6.372a2.17,2.17,0,0,0,3.068-.231l.018-.014,11.7-14.858a2.725,2.725,0,0,0,.634-2.214,2.655,2.655,0,0,0-1.257-1.865L52.892,28.025A3.456,3.456,0,0,0,50,27.63a3.387,3.387,0,0,0-2.114,1.847l-5.247,11.74a5.772,5.772,0,0,0,1.467,6.735" transform="translate(97.987 60.519)" fill="#6d4c41"/>
        <g id="Groupe_2782" data-name="Groupe 2782" transform="translate(140.2 88.198)" opacity="0.4">
            <g id="Groupe_2781" data-name="Groupe 2781">
                <g id="Groupe_2780" data-name="Groupe 2780" clip-path="url(#clip-path-25)">
                    <g id="Groupe_2779" data-name="Groupe 2779" transform="translate(0.001 -0.001)">
                        <g id="Groupe_2778" data-name="Groupe 2778" clip-path="url(#clip-path-26)">
                            <path id="Tracé_802" data-name="Tracé 802" d="M40.688,40.608l5.218-11.455a3.406,3.406,0,0,1,2.111-1.869,3.554,3.554,0,0,1,1.025-.15,3.44,3.44,0,0,1,1.766.5h.1L63.769,34.5a2.765,2.765,0,0,1,.427.335,2.691,2.691,0,0,0,0-.861,2.619,2.619,0,0,0-1.221-1.83l-12.861-6.87h-.1a3.39,3.39,0,0,0-1.766-.495,3.672,3.672,0,0,0-1.022.146,3.417,3.417,0,0,0-2.114,1.865L39.894,38.251a5.769,5.769,0,0,0,.331,5.361,5.7,5.7,0,0,1,.463-3" transform="translate(-39.385 -24.776)" fill="#fff"/>
                        </g>
                    </g>
                </g>
            </g>
        </g>
        <path id="Tracé_803" data-name="Tracé 803" d="M16.351,22.566l-1.983,4.375a6.211,6.211,0,0,0,1.057,6.735l5.845,6.439A5.252,5.252,0,0,0,27.015,41.5l9.526-3.634a5.285,5.285,0,0,0,3.3-6.158L37.118,20.338,23.58,17.483l-3.663,1.648a6.935,6.935,0,0,0-3.5,3.467" transform="translate(35.36 44.749)" fill="#9e6c4b"/>
        <path id="Tracé_804" data-name="Tracé 804" d="M26.5,45.26a7.178,7.178,0,0,1-5.315-2.381l-5.831-6.436a8.26,8.26,0,0,1-1.388-8.867L15.952,23.2a8.885,8.885,0,0,1,4.489-4.453l3.666-1.655a2.026,2.026,0,0,1,1.2-.128l13.537,2.851a1.973,1.973,0,0,1,1.5,1.474l2.727,11.373A7.269,7.269,0,0,1,38.6,41.117l-9.526,3.631a7.177,7.177,0,0,1-2.574.513M19.536,24.835,17.554,29.21a4.242,4.242,0,0,0,.708,4.61l5.845,6.436a3.309,3.309,0,0,0,3.6.861L37.231,37.5a3.3,3.3,0,0,0,2.029-3.866L36.833,23.468l-11.7-2.46-3.083,1.37a4.95,4.95,0,0,0-2.51,2.492" transform="translate(33.926 43.32)" fill="#6d4c41"/>
        <g id="Groupe_2787" data-name="Groupe 2787" transform="translate(51.12 64.293)" opacity="0.4">
            <g id="Groupe_2786" data-name="Groupe 2786">
                <g id="Groupe_2785" data-name="Groupe 2785" clip-path="url(#clip-path-27)">
                    <g id="Groupe_2784" data-name="Groupe 2784" transform="translate(0.014 0.001)">
                        <g id="Groupe_2783" data-name="Groupe 2783" clip-path="url(#clip-path-28)">
                            <path id="Tracé_805" data-name="Tracé 805" d="M15.529,27.851l1.983-4.375A4.943,4.943,0,0,1,20.018,21l3.09-1.37,11.259,2.378-.349-1.484-11.7-2.46-3.086,1.37a4.956,4.956,0,0,0-2.51,2.474l-1.983,4.375a4.235,4.235,0,0,0,.545,4.375,4.229,4.229,0,0,1,.231-2.805" transform="translate(-14.376 -18.064)" fill="#fff"/>
                        </g>
                    </g>
                </g>
            </g>
        </g>
        <path id="Tracé_806" data-name="Tracé 806" d="M31.293,31.952l2.9,3.5a6.372,6.372,0,0,0,8.255,1.356l2.641-1.652a5.265,5.265,0,0,0,2.346-5.777l-3.98-15.47A1.536,1.536,0,0,0,41.6,12.783h-.007l-10.252,2.51a2.169,2.169,0,0,0-1.652,1.983l-.445,8.682A8.616,8.616,0,0,0,31.225,31.9" transform="translate(74.831 32.604)" fill="#9e6c4b"/>
        <path id="Tracé_807" data-name="Tracé 807" d="M40.487,41.123a8.356,8.356,0,0,1-6.422-2.99l-2.9-3.5a10.538,10.538,0,0,1-2.445-7.3l.445-8.686a4.1,4.1,0,0,1,3.14-3.795L42.551,12.28a3.515,3.515,0,0,1,4.225,2.542l3.912,15.438a7.215,7.215,0,0,1-3.3,7.942l-2.641,1.648A8.25,8.25,0,0,1,40.4,41.073M43,16.209l-9.906,2.41L32.5,27.486a6.609,6.609,0,0,0,1.538,4.588l2.9,3.5a4.423,4.423,0,0,0,5.678.926l2.659-1.652a3.3,3.3,0,0,0,1.47-3.631Z" transform="translate(73.465 31.178)" fill="#6d4c41"/>
        <g id="Groupe_2792" data-name="Groupe 2792" transform="translate(105.892 47.355)" opacity="0.4">
            <g id="Groupe_2791" data-name="Groupe 2791">
                <g id="Groupe_2790" data-name="Groupe 2790" clip-path="url(#clip-path-29)">
                    <g id="Groupe_2789" data-name="Groupe 2789" transform="translate(0.2 0.081)">
                        <g id="Groupe_2788" data-name="Groupe 2788" clip-path="url(#clip-path-30)">
                            <path id="Tracé_808" data-name="Tracé 808" d="M30.327,17.547a.2.2,0,0,1,.15-.182l8.255-2.029a1.645,1.645,0,0,1,1.929,1.153l3.417,13.488a3.233,3.233,0,0,0,0-1.648L40.265,13.3l-9.906,2.41a.2.2,0,0,0-.146.182l-.449,8.686a7.648,7.648,0,0,0,0,.99Z" transform="translate(-29.946 -13.384)" fill="#fff"/>
                        </g>
                    </g>
                </g>
            </g>
        </g>
        <path id="Tracé_809" data-name="Tracé 809" d="M16.923,45.705c2.392-2.392,5.546-3.1,7.066-1.652s.794,4.674-1.652,7.066-5.546,3.1-7.066,1.652-.79-4.67,1.652-7.066" transform="translate(37.066 110.839)" fill="#9e6c4b"/>
        <path id="Tracé_810" data-name="Tracé 810" d="M18.6,56.269a4.481,4.481,0,0,1-3.3-1.257c-2.164-2.161-1.452-6.24,1.648-9.276a9.757,9.757,0,0,1,4.624-2.691,4.951,4.951,0,0,1,4.656,1.089c2.161,2.164,1.452,6.24-1.652,9.294a9.763,9.763,0,0,1-4.62,2.691,6.585,6.585,0,0,1-1.42.164m4.407-10.234a3.315,3.315,0,0,0-.726.082,6.727,6.727,0,0,0-3.1,1.851c-1.847,1.847-2.36,4.076-1.652,4.834a1.9,1.9,0,0,0,1.751.249,7.277,7.277,0,0,0,4.951-4.951,1.908,1.908,0,0,0-.246-1.751,1.405,1.405,0,0,0-1.007-.331" transform="translate(35.966 109.705)" fill="#6d4c41"/>
        <path id="Tracé_811" data-name="Tracé 811" d="M19.268,59.836c-1.025-3.3-.2-6.358,1.833-7s4.507,1.452,5.528,4.67.2,6.358-1.83,7-4.507-1.452-5.532-4.67" transform="translate(48.191 134.946)" fill="#9e6c4b"/>
        <path id="Tracé_812" data-name="Tracé 812" d="M25.167,67.32A7.5,7.5,0,0,1,18.9,61.426c-1.306-4.108,0-8.055,2.873-8.981a4.962,4.962,0,0,1,4.638,1.189,10.426,10.426,0,0,1,3.118,9.907,4.942,4.942,0,0,1-3.1,3.631,3.936,3.936,0,0,1-1.235.2m-3.3-6.835c.776,2.442,2.559,3.93,3.549,3.649a1.9,1.9,0,0,0,1.025-1.438,7.3,7.3,0,0,0-2.114-6.6,1.947,1.947,0,0,0-1.652-.594c-1.022.331-1.652,2.545-.808,4.955" transform="translate(47.065 133.833)" fill="#6d4c41"/>
        <path id="Tracé_813" data-name="Tracé 813" d="M38.411,40.279c2.922,1.652,4.442,4.556,3.3,6.4s-4.311,1.983-7.233.281-4.439-4.556-3.3-6.4,4.307-1.983,7.23-.281" transform="translate(78.84 100.037)" fill="#9e6c4b"/>
        <path id="Tracé_814" data-name="Tracé 814" d="M39.847,50.869a10.471,10.471,0,0,1-8.75-5.183,4.526,4.526,0,0,1,4.062-7.034,9.93,9.93,0,0,1,5.169,1.4,9.8,9.8,0,0,1,3.795,3.78,4.948,4.948,0,0,1,.167,4.788,4.474,4.474,0,0,1-2.809,2.05,6.78,6.78,0,0,1-1.652.214m-4.307-9.081h-.164a1.454,1.454,0,0,0-1.406,2.428,6.738,6.738,0,0,0,2.577,2.51,5.845,5.845,0,0,0,4.193.876,1.372,1.372,0,0,0,.89-.58,1.876,1.876,0,0,0-.214-1.748,6.728,6.728,0,0,0-2.574-2.51,6.861,6.861,0,0,0-3.3-.975" transform="translate(77.636 98.908)" fill="#6d4c41"/>
        <path id="Tracé_815" data-name="Tracé 815" d="M41.874,55.167c2.759,1.965,3.98,4.951,2.723,6.7s-4.474,1.552-7.23-.413-3.98-4.951-2.723-6.7,4.471-1.552,7.23.413" transform="translate(87.412 137.087)" fill="#9e6c4b"/>
        <path id="Tracé_816" data-name="Tracé 816" d="M42.99,65.762h-.413a10.407,10.407,0,0,1-8.4-6.026,4.94,4.94,0,0,1,.313-4.77c1.766-2.478,5.909-2.46,9.426,0s4.87,6.422,3.086,8.9a4.767,4.767,0,0,1-4.012,1.847M38.484,56.2a1.647,1.647,0,0,0-1.435.527,1.881,1.881,0,0,0,0,1.751,7.291,7.291,0,0,0,5.678,4.062,1.941,1.941,0,0,0,1.652-.527c.626-.876-.249-2.99-2.364-4.51a6.613,6.613,0,0,0-3.6-1.3" transform="translate(86.278 135.951)" fill="#6d4c41"/>
        <path id="Tracé_817" data-name="Tracé 817" d="M38.92,22.616c2.922-1.648,6.176-1.566,7.23.285s-.445,4.72-3.3,6.4-6.176,1.566-7.233-.281.449-4.72,3.3-6.407" transform="translate(90.302 54.883)" fill="#9e6c4b"/>
        <path id="Tracé_818" data-name="Tracé 818" d="M39.886,33.229h-.3a4.949,4.949,0,0,1-4.225-2.26c-1.52-2.641.214-6.407,3.948-8.568s7.856-1.783,9.376.858-.214,6.4-3.948,8.55a9.907,9.907,0,0,1-4.951,1.406m1.007-8.091c-2.26,1.3-3.3,3.3-2.791,4.261a1.913,1.913,0,0,0,1.652.676,6.585,6.585,0,0,0,3.467-.975c2.26-1.3,3.3-3.3,2.791-4.257s-2.823-1.007-5.087.3" transform="translate(89.105 53.745)" fill="#6d4c41"/>
        <path id="Tracé_819" data-name="Tracé 819" d="M23.327,27.779c3.3-.876,6.372,0,6.916,2.146s-1.652,4.439-4.951,5.332-6.372,0-6.916-2.146,1.648-4.442,4.951-5.315" transform="translate(46.823 70.241)" fill="#9e6c4b"/>
        <path id="Tracé_820" data-name="Tracé 820" d="M24.041,38.256A5.791,5.791,0,0,1,18,34.625c-.794-2.94,1.847-6.126,6.026-7.247a9.814,9.814,0,0,1,5.347,0,4.522,4.522,0,0,1,2.114,7.842,9.757,9.757,0,0,1-4.638,2.673,10.836,10.836,0,0,1-2.809.381m.794-7.842c-2.478.662-4.079,2.378-3.8,3.4s2.478,1.652,4.955,1.025a6.729,6.729,0,0,0,3.136-1.766,1.453,1.453,0,0,0-.726-2.709,6.714,6.714,0,0,0-3.6,0" transform="translate(45.714 69.126)" fill="#6d4c41"/>
        <path id="Tracé_821" data-name="Tracé 821" d="M11.915,35.079c-.3,3.3-2.26,5.959-4.375,5.763S3.923,37.77,4.237,34.4,6.5,28.444,8.612,28.639s3.617,3.072,3.3,6.439" transform="translate(10.739 73.279)" fill="#9e6c4b"/>
        <path id="Tracé_822" data-name="Tracé 822" d="M8.891,43.558H8.546a4.953,4.953,0,0,1-3.83-2.873,10.393,10.393,0,0,1,.893-10.3,4.522,4.522,0,0,1,8.105.712,10.418,10.418,0,0,1-.893,10.3,4.954,4.954,0,0,1-3.912,2.179m.644-12.217a2,2,0,0,0-1.42.94,7.277,7.277,0,0,0-.609,6.952c.363.708.84,1.139,1.3,1.171a1.927,1.927,0,0,0,1.484-.94,7.318,7.318,0,0,0,.63-6.9c-.363-.708-.844-1.139-1.306-1.171" transform="translate(9.601 72.143)" fill="#6d4c41"/>
        <path id="Tracé_823" data-name="Tracé 823" d="M54.26,22.695c2.129,2.641,2.492,5.859.844,7.2s-4.724.3-6.852-2.342-2.492-5.863-.844-7.2,4.738-.3,6.852,2.346" transform="translate(118.71 50.597)" fill="#9e6c4b"/>
        <path id="Tracé_824" data-name="Tracé 824" d="M54.476,33.213a8.58,8.58,0,0,1-6.3-3.5,9.915,9.915,0,0,1-2.179-4.955,4.94,4.94,0,0,1,1.648-4.521c2.378-1.915,6.358-.776,9.066,2.574a9.828,9.828,0,0,1,2.179,4.951,4.958,4.958,0,0,1-1.652,4.524,4.3,4.3,0,0,1-2.759.926M50.351,22.5a1.24,1.24,0,0,0-.808.249,1.878,1.878,0,0,0-.431,1.648,6.732,6.732,0,0,0,1.5,3.3c1.652,2.029,3.8,2.791,4.638,2.114a1.9,1.9,0,0,0,.431-1.652,6.732,6.732,0,0,0-1.5-3.3,5.659,5.659,0,0,0-3.83-2.342" transform="translate(117.569 49.423)" fill="#6d4c41"/>
        <path id="Tracé_825" data-name="Tracé 825" d="M59.087,46.442c-.612,3.3-2.791,5.713-4.951,5.332s-3.3-3.385-2.709-6.721,2.791-5.71,4.951-5.332,3.3,3.385,2.709,6.721" transform="translate(131.233 101.57)" fill="#9e6c4b"/>
        <path id="Tracé_826" data-name="Tracé 826" d="M55.748,54.447a4.162,4.162,0,0,1-.73,0A4.474,4.474,0,0,1,52.146,52.5a9.056,9.056,0,0,1-1.107-6.6,9.754,9.754,0,0,1,2.282-4.838,4.946,4.946,0,0,1,4.457-1.769c3,.545,4.738,4.293,3.98,8.554a9.869,9.869,0,0,1-2.278,4.838A5.174,5.174,0,0,1,55.748,54.5m1.3-12.135a2.086,2.086,0,0,0-1.4.808,6.769,6.769,0,0,0-1.506,3.3,5.877,5.877,0,0,0,.594,4.243,1.4,1.4,0,0,0,.84.644,1.855,1.855,0,0,0,1.655-.794,6.8,6.8,0,0,0,1.5-3.3c.459-2.559-.384-4.692-1.435-4.955h-.167" transform="translate(130.119 100.464)" fill="#6d4c41"/>
        <g id="Groupe_2797" data-name="Groupe 2797" transform="translate(53.23 155.717)" opacity="0.3">
            <g id="Groupe_2796" data-name="Groupe 2796">
                <g id="Groupe_2795" data-name="Groupe 2795" clip-path="url(#clip-path-31)">
                    <g id="Groupe_2794" data-name="Groupe 2794" transform="translate(0.001 0.021)">
                        <g id="Groupe_2793" data-name="Groupe 2793" clip-path="url(#clip-path-32)">
                            <path id="Tracé_827" data-name="Tracé 827" d="M15.017,49.576a7.29,7.29,0,0,1,4.951-4.951,3.345,3.345,0,0,1,.726-.085,1.4,1.4,0,0,1,1.007.331,1.2,1.2,0,0,1,.3.626,1.648,1.648,0,0,0-.3-1.417,1.4,1.4,0,0,0-1.007-.331,3.339,3.339,0,0,0-.726.082,7.3,7.3,0,0,0-4.951,4.951,2.76,2.76,0,0,0,0,1.107,2.567,2.567,0,0,1,0-.331" transform="translate(-14.935 -43.765)" fill="#fff"/>
                        </g>
                    </g>
                </g>
            </g>
        </g>
        <g id="Groupe_2802" data-name="Groupe 2802" transform="translate(68.6 189.193)" opacity="0.3">
            <g id="Groupe_2801" data-name="Groupe 2801">
                <g id="Groupe_2800" data-name="Groupe 2800" clip-path="url(#clip-path-33)">
                    <g id="Groupe_2799" data-name="Groupe 2799" transform="translate(-0.002 0.042)">
                        <g id="Groupe_2798" data-name="Groupe 2798" clip-path="url(#clip-path-34)">
                            <path id="Tracé_828" data-name="Tracé 828" d="M19.445,55.453a1.453,1.453,0,0,1,2.673-.844,6.738,6.738,0,0,1,1.9,3.054,7.736,7.736,0,0,1,.345,1.883,7.4,7.4,0,0,0-.345-2.673,6.72,6.72,0,0,0-1.9-3.054,1.452,1.452,0,0,0-2.673.84,5.67,5.67,0,0,0-.132,1.783,4.866,4.866,0,0,1,.132-.99" transform="translate(-19.214 -53.191)" fill="#fff"/>
                        </g>
                    </g>
                </g>
            </g>
        </g>
        <g id="Groupe_2807" data-name="Groupe 2807" transform="translate(111.165 140.698)" opacity="0.3">
            <g id="Groupe_2806" data-name="Groupe 2806">
                <g id="Groupe_2805" data-name="Groupe 2805" clip-path="url(#clip-path-35)">
                    <g id="Groupe_2804" data-name="Groupe 2804" transform="translate(0.078 0.001)">
                        <g id="Groupe_2803" data-name="Groupe 2803" clip-path="url(#clip-path-36)">
                            <path id="Tracé_829" data-name="Tracé 829" d="M31.439,40.979a1.882,1.882,0,0,1,1.652-.676h.164a6.884,6.884,0,0,1,3.3.972,5.917,5.917,0,0,1,2.855,3.3c.3-.99-.776-2.855-2.855-4.062a6.849,6.849,0,0,0-3.3-.975h-.281a1.9,1.9,0,0,0-1.648.68,1.368,1.368,0,0,0,0,1.007.74.74,0,0,1,0-.217" transform="translate(-31.307 -39.511)" fill="#fff"/>
                        </g>
                    </g>
                </g>
            </g>
        </g>
        <g id="Groupe_2812" data-name="Groupe 2812" transform="translate(123.129 192.196)" opacity="0.3">
            <g id="Groupe_2811" data-name="Groupe 2811">
                <g id="Groupe_2810" data-name="Groupe 2810" clip-path="url(#clip-path-37)">
                    <g id="Groupe_2809" data-name="Groupe 2809" transform="translate(0.017 0.011)">
                        <g id="Groupe_2808" data-name="Groupe 2808" clip-path="url(#clip-path-38)">
                            <path id="Tracé_830" data-name="Tracé 830" d="M34.789,55.308a1.72,1.72,0,0,1,1.452-.527h.231a6.7,6.7,0,0,1,3.3,1.3,6.009,6.009,0,0,1,2.51,3.4c.278-1-.63-2.823-2.51-4.175a6.742,6.742,0,0,0-3.3-1.3h-.231a1.745,1.745,0,0,0-1.452.527,1.452,1.452,0,0,0-.15,1.107.979.979,0,0,1,.15-.313" transform="translate(-34.607 -54.003)" fill="#fff"/>
                        </g>
                    </g>
                </g>
            </g>
        </g>
        <g id="Groupe_2817" data-name="Groupe 2817" transform="translate(127.092 77.872)" opacity="0.3">
            <g id="Groupe_2816" data-name="Groupe 2816">
                <g id="Groupe_2815" data-name="Groupe 2815" clip-path="url(#clip-path-39)">
                    <g id="Groupe_2814" data-name="Groupe 2814" transform="translate(-0.001 0.024)">
                        <g id="Groupe_2813" data-name="Groupe 2813" clip-path="url(#clip-path-36)">
                            <path id="Tracé_831" data-name="Tracé 831" d="M38.608,23.668a6.888,6.888,0,0,1,3.3-.975h.164a1.906,1.906,0,0,1,1.652.68,1.07,1.07,0,0,1,0,.214,1.368,1.368,0,0,0,0-1.007,1.914,1.914,0,0,0-1.652-.694h-.164a6.849,6.849,0,0,0-3.3.975c-2.079,1.2-3.154,3.068-2.855,4.062a5.906,5.906,0,0,1,2.855-3.3" transform="translate(-35.7 -21.901)" fill="#fff"/>
                        </g>
                    </g>
                </g>
            </g>
        </g>
        <g id="Groupe_2822" data-name="Groupe 2822" transform="translate(66.734 99.258)" opacity="0.3">
            <g id="Groupe_2821" data-name="Groupe 2821">
                <g id="Groupe_2820" data-name="Groupe 2820" clip-path="url(#clip-path-41)">
                    <g id="Groupe_2819" data-name="Groupe 2819" transform="translate(-0.001 0.017)">
                        <g id="Groupe_2818" data-name="Groupe 2818" clip-path="url(#clip-path-42)">
                            <path id="Tracé_832" data-name="Tracé 832" d="M19.541,32.361a1.9,1.9,0,0,1,.662-1.652,6.743,6.743,0,0,1,3.136-1.766,7.709,7.709,0,0,1,2-.263,5.513,5.513,0,0,1,1.652.214,3.364,3.364,0,0,1,.577.231A1.95,1.95,0,0,0,26.212,28.1a5.513,5.513,0,0,0-1.652-.214,7.709,7.709,0,0,0-2,.263,6.688,6.688,0,0,0-3.136,1.769,1.894,1.894,0,0,0-.662,1.648,1.482,1.482,0,0,0,.808.861" transform="translate(-18.729 -27.902)" fill="#fff"/>
                        </g>
                    </g>
                </g>
            </g>
        </g>
        <g id="Groupe_2827" data-name="Groupe 2827" transform="translate(16.435 103.469)" opacity="0.3">
            <g id="Groupe_2826" data-name="Groupe 2826">
                <g id="Groupe_2825" data-name="Groupe 2825" clip-path="url(#clip-path-43)">
                    <g id="Groupe_2824" data-name="Groupe 2824" transform="translate(0.061 -0.001)">
                        <g id="Groupe_2823" data-name="Groupe 2823" clip-path="url(#clip-path-44)">
                            <path id="Tracé_833" data-name="Tracé 833" d="M5.5,34.191a6.71,6.71,0,0,1,1.189-3.4,1.991,1.991,0,0,1,1.42-.943,1.113,1.113,0,0,1,.363.117,1.66,1.66,0,0,0-1.157-.893,1.991,1.991,0,0,0-1.42.943,6.743,6.743,0,0,0-1.189,3.4,4.962,4.962,0,0,0,1.52,4.624,6.423,6.423,0,0,1-.726-3.83" transform="translate(-4.678 -29.056)" fill="#fff"/>
                        </g>
                    </g>
                </g>
            </g>
        </g>
        <g id="Groupe_2832" data-name="Groupe 2832" transform="translate(166.646 71.921)" opacity="0.3">
            <g id="Groupe_2831" data-name="Groupe 2831">
                <g id="Groupe_2830" data-name="Groupe 2830" clip-path="url(#clip-path-45)">
                    <g id="Groupe_2829" data-name="Groupe 2829" transform="translate(0.002 -0.001)">
                        <g id="Groupe_2828" data-name="Groupe 2828" clip-path="url(#clip-path-46)">
                            <path id="Tracé_834" data-name="Tracé 834" d="M52.018,27.539a6.723,6.723,0,0,1-2.89-2.164c-1.648-2-1.9-4.307-1.071-4.951a1.146,1.146,0,0,1,.463-.2h-.445a1.3,1.3,0,0,0-.812.249c-.826.662-.527,2.987,1.075,4.951a6.713,6.713,0,0,0,2.887,2.164,2.513,2.513,0,0,0,1.306.132l-.513-.132" transform="translate(-46.817 -20.158)" fill="#fff"/>
                        </g>
                    </g>
                </g>
            </g>
        </g>
        <g id="Groupe_2837" data-name="Groupe 2837" transform="translate(184.059 142.761)" opacity="0.3">
            <g id="Groupe_2836" data-name="Groupe 2836">
                <g id="Groupe_2835" data-name="Groupe 2835" clip-path="url(#clip-path-47)">
                    <g id="Groupe_2834" data-name="Groupe 2834" transform="translate(0.071 0.016)">
                        <g id="Groupe_2833" data-name="Groupe 2833" clip-path="url(#clip-path-48)">
                            <path id="Tracé_835" data-name="Tracé 835" d="M51.827,44.993a6.732,6.732,0,0,1,1.5-3.3,2.109,2.109,0,0,1,1.4-.808H54.9c.79.15,1.467,1.37,1.552,3.054.1-2.065-.644-3.663-1.552-3.83h-.167a2.124,2.124,0,0,0-1.4.808,6.732,6.732,0,0,0-1.5,3.3,7.769,7.769,0,0,0-.114,1.652,7.664,7.664,0,0,1,.114-.943" transform="translate(-51.777 -40.122)" fill="#fff"/>
                        </g>
                    </g>
                </g>
            </g>
        </g>
        <g id="Groupe_2842" data-name="Groupe 2842" transform="translate(13.327 5.372)" opacity="0.2">
            <g id="Groupe_2841" data-name="Groupe 2841">
                <g id="Groupe_2840" data-name="Groupe 2840" clip-path="url(#clip-path-49)">
                    <g id="Groupe_2839" data-name="Groupe 2839" transform="translate(0.064 -0.001)">
                        <g id="Groupe_2838" data-name="Groupe 2838" clip-path="url(#clip-path-50)">
                            <path id="Tracé_836" data-name="Tracé 836" d="M13.978,1.519S12.326,12.529,3.744,11.753l1.961,1.965,10.238.794L17.164,10.2Z" transform="translate(-3.808 -1.485)" fill="#6d4c41"/>
                        </g>
                    </g>
                </g>
            </g>
        </g>
        <g id="Groupe_2847" data-name="Groupe 2847" transform="translate(48.805 18.15)" opacity="0.2">
            <g id="Groupe_2846" data-name="Groupe 2846">
                <g id="Groupe_2845" data-name="Groupe 2845" clip-path="url(#clip-path-51)">
                    <g id="Groupe_2844" data-name="Groupe 2844" transform="translate(0.001 0)">
                        <g id="Groupe_2843" data-name="Groupe 2843" clip-path="url(#clip-path-52)">
                            <path id="Tracé_837" data-name="Tracé 837" d="M38.065,5.1S39.713,20.651,13.71,19.067l12.206,2.755,6.286,3.93,6.29-1.652,5.514-7.08.79-7.877Z" transform="translate(-13.714 -5.101)" fill="#6d4c41"/>
                        </g>
                    </g>
                </g>
            </g>
        </g>
        <g id="Groupe_2852" data-name="Groupe 2852" transform="translate(99.339 11.662)" opacity="0.2">
            <g id="Groupe_2851" data-name="Groupe 2851">
                <g id="Groupe_2850" data-name="Groupe 2850" clip-path="url(#clip-path-53)">
                    <g id="Groupe_2849" data-name="Groupe 2849" transform="translate(0 -0.001)">
                        <g id="Groupe_2848" data-name="Groupe 2848" clip-path="url(#clip-path-54)">
                            <path id="Tracé_838" data-name="Tracé 838" d="M34.823,3.277c0,.794-1.239,7.892-6.916,8.255l4.951,3.136,5.233-1.883,2.641-3.631-1.648-3.93Z" transform="translate(-27.907 -3.275)" fill="#6d4c41"/>
                        </g>
                    </g>
                </g>
            </g>
        </g>
        <g id="Groupe_2857" data-name="Groupe 2857" transform="translate(50.374 67.529)" opacity="0.3">
            <g id="Groupe_2856" data-name="Groupe 2856">
                <g id="Groupe_2855" data-name="Groupe 2855" clip-path="url(#clip-path-55)">
                    <g id="Groupe_2854" data-name="Groupe 2854" transform="translate(-0.001 0.001)">
                        <g id="Groupe_2853" data-name="Groupe 2853" clip-path="url(#clip-path-56)">
                            <path id="Tracé_839" data-name="Tracé 839" d="M35.4,18.994s-2.36,14.958-21.248,8.65c0,0,2.759,3.535,3.535,4.325s4.275,5.368,4.275,5.368l4.375.132L36.57,32.745l2.378-3.6-.808-7.411Z" transform="translate(-14.151 -18.914)" fill="#6d4c41"/>
                        </g>
                    </g>
                </g>
            </g>
        </g>
        <g id="Groupe_2862" data-name="Groupe 2862" transform="translate(103.5 55.461)" opacity="0.3">
            <g id="Groupe_2861" data-name="Groupe 2861">
                <g id="Groupe_2860" data-name="Groupe 2860" clip-path="url(#clip-path-57)">
                    <g id="Groupe_2859" data-name="Groupe 2859" transform="translate(0 0.034)">
                        <g id="Groupe_2858" data-name="Groupe 2858" clip-path="url(#clip-path-58)">
                            <path id="Tracé_840" data-name="Tracé 840" d="M30.881,15.581s8.023,9.675,17.467,5.745l-.4,4.325L44.2,29.136l-4.674,1.435-4.161-.99-3.926-4.724a17.067,17.067,0,0,1-2.364-3.926,41.7,41.7,0,0,1,1.819-5.35" transform="translate(-29.066 -15.615)" fill="#6d4c41"/>
                        </g>
                    </g>
                </g>
            </g>
        </g>
        <g id="Groupe_2867" data-name="Groupe 2867" transform="translate(34.525 117.898)" opacity="0.3">
            <g id="Groupe_2866" data-name="Groupe 2866">
                <g id="Groupe_2865" data-name="Groupe 2865" clip-path="url(#clip-path-59)">
                    <g id="Groupe_2864" data-name="Groupe 2864" transform="translate(0 0.001)">
                        <g id="Groupe_2863" data-name="Groupe 2863" clip-path="url(#clip-path-60)">
                            <path id="Tracé_841" data-name="Tracé 841" d="M26.34,33.121S24.525,50.207,9.7,47.566c0,0,5.233,4.838,6.026,5.614s4.094,3.7,4.8,3.417,3.848-1.847,3.848-1.847l3.93-6.29,3.631-7.71-.477-4.955Z" transform="translate(-9.699 -33.123)" fill="#6d4c41"/>
                        </g>
                    </g>
                </g>
            </g>
        </g>
        <g id="Groupe_2872" data-name="Groupe 2872" transform="translate(90.903 110.816)" opacity="0.3">
            <g id="Groupe_2871" data-name="Groupe 2871">
                <g id="Groupe_2870" data-name="Groupe 2870" clip-path="url(#clip-path-61)">
                    <g id="Groupe_2869" data-name="Groupe 2869" transform="translate(-0.001 -0.001)">
                        <g id="Groupe_2868" data-name="Groupe 2868" clip-path="url(#clip-path-62)">
                            <path id="Tracé_842" data-name="Tracé 842" d="M28.3,31.132A14.861,14.861,0,0,0,49.137,33.82c.135-.107.271-.217.406-.327l-2.954,9.063-4.524,5.5L34.949,46.09l-5.628-4.325-3.784-3.948Z" transform="translate(-25.537 -31.13)" fill="#6d4c41"/>
                        </g>
                    </g>
                </g>
            </g>
        </g>
        <g id="Groupe_2877" data-name="Groupe 2877" transform="translate(138.78 97.427)" opacity="0.3">
            <g id="Groupe_2876" data-name="Groupe 2876">
                <g id="Groupe_2875" data-name="Groupe 2875" clip-path="url(#clip-path-63)">
                    <g id="Groupe_2874" data-name="Groupe 2874" transform="translate(0 0)">
                        <g id="Groupe_2873" data-name="Groupe 2873" clip-path="url(#clip-path-64)">
                            <path id="Tracé_843" data-name="Tracé 843" d="M66.261,27.37a29.822,29.822,0,0,1-27.274,8.568s3.3,3.617,3.3,4.407,4.161,3.731,5.233,4.624a13.839,13.839,0,0,0,3.417,1.652l5.514-2.364L66.692,30.093Z" transform="translate(-38.987 -27.372)" fill="#6d4c41"/>
                        </g>
                    </g>
                </g>
            </g>
        </g>
        <g id="Groupe_2882" data-name="Groupe 2882" transform="translate(83.507 165.907)" opacity="0.3">
            <g id="Groupe_2881" data-name="Groupe 2881">
                <g id="Groupe_2880" data-name="Groupe 2880" clip-path="url(#clip-path-65)">
                    <g id="Groupe_2879" data-name="Groupe 2879" transform="translate(-0.001 0.001)">
                        <g id="Groupe_2878" data-name="Groupe 2878" clip-path="url(#clip-path-66)">
                            <path id="Tracé_844" data-name="Tracé 844" d="M23.459,50.125a39.4,39.4,0,0,0,29.965-3.517l.263,5.877-3.78,2.972L38.73,61.929l-5.514-.794-6.29-3.926-2.36-3.93Z" transform="translate(-23.459 -46.61)" fill="#6d4c41"/>
                        </g>
                    </g>
                </g>
            </g>
        </g>
        <g id="Groupe_2887" data-name="Groupe 2887" transform="translate(146.308 154.086)" opacity="0.3">
            <g id="Groupe_2886" data-name="Groupe 2886">
                <g id="Groupe_2885" data-name="Groupe 2885" clip-path="url(#clip-path-67)">
                    <g id="Groupe_2884" data-name="Groupe 2884" transform="translate(0.083)">
                        <g id="Groupe_2883" data-name="Groupe 2883" clip-path="url(#clip-path-68)">
                            <path id="Tracé_845" data-name="Tracé 845" d="M41.978,43.311s14.164,7.084,20.454.794l-3.154,7.08L50.3,55.741,47.228,53.4l-4.474-4.574A33.1,33.1,0,0,1,41.1,44.1a.778.778,0,0,1,.758-.794H41.9" transform="translate(-41.184 -43.227)" fill="#6d4c41"/>
                        </g>
                    </g>
                </g>
            </g>
        </g>
        <path id="Tracé_846" data-name="Tracé 846" d="M51.714,74.091a11.333,11.333,0,0,1-5.977-1.552l-1.933-1.2a5.356,5.356,0,0,1-2.524-3.5,4.938,4.938,0,0,1,.975-3.894l3.019-4.062a7.057,7.057,0,0,1,5.663-2.492h.594l11.836.84a12.9,12.9,0,0,1,7.546,2.8l2.114,1.851a3.78,3.78,0,0,1,.659,5.083,9.4,9.4,0,0,1-6.208,3.567L54.273,73.878a14.333,14.333,0,0,1-2.559.214" transform="translate(105.473 146.872)" fill="#eb984e"/>
        <path id="Tracé_847" data-name="Tracé 847" d="M52.9,62.1h.4l11.836.84a10.242,10.242,0,0,1,5.93,2.129l2.111,1.851a1.035,1.035,0,0,1,.2,1.452,6.751,6.751,0,0,1-4.41,2.41l-13.2,2.346a11.48,11.48,0,0,1-2.029.214A8.659,8.659,0,0,1,49.2,72.223l-1.936-1.207a2.223,2.223,0,0,1-1.1-2.951,1.936,1.936,0,0,1,.3-.481l3.019-4.062a4.454,4.454,0,0,1,3.453-1.388m0-5.514a9.721,9.721,0,0,0-7.878,3.6l-3.019,4.062a7.716,7.716,0,0,0-1.474,6.059,8.075,8.075,0,0,0,3.77,5.332l1.929,1.207A14.138,14.138,0,0,0,53.7,78.858a17.137,17.137,0,0,0,2.955-.263l13.21-2.346a12.149,12.149,0,0,0,8.009-4.72,6.606,6.606,0,0,0-1.128-8.7l-2.107-1.851a15.622,15.622,0,0,0-9.166-3.467l-11.839-.858h-.79" transform="translate(103.515 144.914)" fill="#6d4c41"/>
        <g id="Groupe_2892" data-name="Groupe 2892" transform="translate(149.445 206.983)" opacity="0.5">
            <g id="Groupe_2891" data-name="Groupe 2891">
                <g id="Groupe_2890" data-name="Groupe 2890" clip-path="url(#clip-path-69)">
                    <g id="Groupe_2889" data-name="Groupe 2889" transform="translate(0 0.014)">
                        <g id="Groupe_2888" data-name="Groupe 2888" clip-path="url(#clip-path-70)">
                            <path id="Tracé_848" data-name="Tracé 848" d="M44.006,65.179l3.022-4.062a4.6,4.6,0,0,1,3.844-1.37l11.839.844a10.207,10.207,0,0,1,5.927,2.129l.876.758a1.227,1.227,0,0,0-.331-.495l-2.114-1.847A10.26,10.26,0,0,0,61.142,59L49.37,58.18a4.6,4.6,0,0,0-3.844,1.367L42.5,63.609a2.228,2.228,0,0,0,.327,3.136,2.169,2.169,0,0,0,.481.3l.413.263a2.131,2.131,0,0,1,.363-2.111" transform="translate(-41.927 -58.161)" fill="#fff"/>
                        </g>
                    </g>
                </g>
            </g>
        </g>
        <path id="Tracé_849" data-name="Tracé 849" d="M61.543,69.462A7.786,7.786,0,0,1,56.9,67.81l-1.075-.89a3.306,3.306,0,0,1-.676-4.343A6.065,6.065,0,0,1,59.1,60.1l6.6-1.353a8.566,8.566,0,0,1,1.652-.182,6.93,6.93,0,0,1,3.531.89l.99.58a4.032,4.032,0,0,1,1.965,2.623,3.853,3.853,0,0,1-.659,3.04l-1.452,2.061a4.947,4.947,0,0,1-4.03,1.915l-6.19-.281" transform="translate(139.823 149.903)" fill="#eb984e"/>
        <path id="Tracé_850" data-name="Tracé 850" d="M69.413,63.36a4.222,4.222,0,0,1,2.129.513l.975.577a1.111,1.111,0,0,1,.555,1.463,1.244,1.244,0,0,1-.11.189l-1.452,2.079a2.258,2.258,0,0,1-1.783.744h-.114l-5.945-.263a5.125,5.125,0,0,1-3-.993l-1.075-.89a.513.513,0,0,1-.125-.712l.011-.014a3.4,3.4,0,0,1,2.178-1.271l6.6-1.353a5.747,5.747,0,0,1,1.157-.117m0-5.514a11.225,11.225,0,0,0-2.26.231L60.546,59.38a8.83,8.83,0,0,0-5.71,3.684,5.99,5.99,0,0,0,1.239,7.956l1.089.89a10.567,10.567,0,0,0,6.272,2.246l5.945.263h.363a7.619,7.619,0,0,0,6.29-3.086l1.452-2.065a6.607,6.607,0,0,0,1.089-5.215,6.738,6.738,0,0,0-3.3-4.407l-.99-.58A9.655,9.655,0,0,0,69.331,57.8" transform="translate(137.83 147.932)" fill="#6d4c41"/>
        <g id="Groupe_2897" data-name="Groupe 2897" transform="translate(197.169 211.193)" opacity="0.5">
            <g id="Groupe_2896" data-name="Groupe 2896">
                <g id="Groupe_2895" data-name="Groupe 2895" clip-path="url(#clip-path-71)">
                    <g id="Groupe_2894" data-name="Groupe 2894" transform="translate(0.021 0.079)">
                        <g id="Groupe_2893" data-name="Groupe 2893" clip-path="url(#clip-path-72)">
                            <path id="Tracé_851" data-name="Tracé 851" d="M57.209,63.67a.51.51,0,0,1-.125-.712l.011-.014a3.386,3.386,0,0,1,2.179-1.271l6.6-1.353a5.266,5.266,0,0,1,2.492,0l-.79-.463a4.828,4.828,0,0,0-3.3-.4l-6.6,1.356a3.4,3.4,0,0,0-2.179,1.271.511.511,0,0,0,.1.715l.014.011,1.075.89a4.163,4.163,0,0,0,1.516.744Z" transform="translate(-55.411 -59.411)" fill="#fff"/>
                        </g>
                    </g>
                </g>
            </g>
        </g>
        <g id="Groupe_2902" data-name="Groupe 2902" transform="translate(148.735 208.385)" opacity="0.3">
            <g id="Groupe_2901" data-name="Groupe 2901">
                <g id="Groupe_2900" data-name="Groupe 2900" clip-path="url(#clip-path-73)">
                    <g id="Groupe_2899" data-name="Groupe 2899" transform="translate(0.001 0)">
                        <g id="Groupe_2898" data-name="Groupe 2898" clip-path="url(#clip-path-74)">
                            <path id="Tracé_852" data-name="Tracé 852" d="M68.545,58.541a29.067,29.067,0,0,1-26.761,4.72l.4,5.119,7.084,2.36s3.154-.79,7.874-1.648,8.65-1.652,8.65-1.652l6.29-3.93.794-3.93Z" transform="translate(-41.784 -58.543)" fill="#6d4c41"/>
                        </g>
                    </g>
                </g>
            </g>
        </g>
        <g id="Groupe_2907" data-name="Groupe 2907" transform="translate(195.951 210.746)" opacity="0.3">
            <g id="Groupe_2906" data-name="Groupe 2906">
                <g id="Groupe_2905" data-name="Groupe 2905" clip-path="url(#clip-path-75)">
                    <g id="Groupe_2904" data-name="Groupe 2904" transform="translate(0 0)">
                        <g id="Groupe_2903" data-name="Groupe 2903" clip-path="url(#clip-path-75)">
                            <path id="Tracé_853" data-name="Tracé 853" d="M70.006,59.205s-2.36,7.874-14.958,4.72l6.685,2.759h7.084L73.54,63.53l.79-3.154Z" transform="translate(-55.048 -59.203)" fill="#6d4c41"/>
                        </g>
                    </g>
                </g>
            </g>
        </g>
    </g>
</svg>
