<?xml version="1.0" encoding="UTF-8"?>
<svg id="PATTERN" xmlns="http://www.w3.org/2000/svg" viewBox="0 0 227 242">
  <defs>
    <style>
      .cls-1 {
        fill: #ffebc8;
      }

      .cls-2 {
        fill: #fda865;
      }

      .cls-3 {
        fill: #fdbf83;
      }

      .cls-4 {
        fill: #7e4438;
      }

      .cls-5 {
        fill: #9e594d;
      }

      .cls-6 {
        fill: #643025;
      }

      .cls-7 {
        fill: #491d15;
      }
    </style>
  </defs>
  <g>
    <path class="cls-4" d="m209.62,186.17c-.33-1.49-1.26-2.7-1.75-4.13-.84-2.43.98-5.35,1.42-7.73,1.11-6.03-3.27-10.83-3.1-16.72.09-3.18-.5-5.78-2.49-8.31-1.88-2.38-4.24-4.42-6.4-6.53-4.23-4.14-9.18-10.32-15.9-8.35-.65.19-1.31.45-1.99.36-2.5-.35-6.23-5.48-9.19-6.6-5.21-1.97-10.42-1.15-15.27,1.28-1.53.77-2.33.48-3.93,0-1.34-.39-2.74-.62-4.13-.68-2.3-.09-4.56.37-6.7,1.18-3.04.44-5.97,1.68-8.37,3.67-2.21,1.83-3.71,4.34-5.84,6.25-1.92,1.73-4.25,2.93-6.36,4.41-2.14,1.5-4.16,3.25-5.44,5.57-1.41,2.56-1.81,5.45-2.7,8.2-1.6,4.92-6.37,8.33-6.61,13.79-.13,2.97,1.55,5.4,2.23,8.18.72,2.98.21,6.15-.05,9.16-.26,3.09-.28,6.16.53,9.17.78,2.9,2.18,5.63,3.74,8.18,2.83,4.61,5.96,9.74,10.48,12.88,2.42,1.68,5.36,2.13,7.89,3.57,2.74,1.55,5.48,2.95,8.46,4,2.92,1.04,5.92,1.82,8.93,2.54,3.05.73,6.17,1.59,9.33,1.69,4.64.14,9.05-2.48,13.68-3.39,6-1.19,9.92-1.3,15.58-4.35,6.03-3.26,14.2-8.3,17.11-14.81,1.3-2.9,2.31-5.93,3.41-8.91,1.1-2.95,2.48-5.93,3.25-8.98.38-1.5.53-3.06.19-4.59Z"/>
    <path class="cls-6" d="m195.88,201.52c-4.13,1.98-8.76,2.64-13.32,3.04-5.15.46-10.35.61-15.5.06-2.28-.24-4.61-.65-6.54-1.89-1.48-.95-2.62-2.32-3.97-3.44-5.81-4.85-14.89-4.75-19.98-10.35-5.49-6.03-3.73-15.41-4.97-23.47-.76-4.9-2.73-9.55-3.43-14.46-.8-5.61.22-11.44,2.73-16.52-1.74,1.71-3.12,3.76-4.94,5.39-1.92,1.73-4.25,2.93-6.36,4.41-2.14,1.5-4.16,3.25-5.44,5.57-1.41,2.56-1.81,5.45-2.7,8.2-1.59,4.92-6.37,8.33-6.61,13.79-.13,2.97,1.55,5.4,2.23,8.18.72,2.98.21,6.15-.05,9.16-.26,3.09-.28,6.16.53,9.17.78,2.9,2.18,5.63,3.74,8.18,2.83,4.61,5.96,9.74,10.48,12.88,2.42,1.68,5.36,2.13,7.89,3.57,2.74,1.55,5.48,2.95,8.46,4,2.92,1.04,5.92,1.82,8.93,2.54,3.05.73,6.17,1.59,9.33,1.69,4.64.14,9.05-2.48,13.68-3.39,6-1.19,9.92-1.3,15.58-4.35,6.03-3.26,14.2-8.3,17.11-14.81,1.3-2.9,2.31-5.93,3.41-8.91,1.1-2.95,2.48-5.93,3.25-8.98.23-.91.36-1.83.36-2.76-3.8,5.55-7.93,10.65-13.91,13.52Z"/>
    <path class="cls-7" d="m202.77,208.65c.53-1.19,1.01-2.41,1.48-3.63-5.66,4.91-12.74,7.88-19.68,10.73-8.65,3.55-17.5,7.14-26.83,7.65-3.73.2-7.78-.21-10.59-2.67-.97-.85-1.76-1.93-2.86-2.61-1.48-.93-3.31-1.01-5.04-1.31-6.39-1.09-12.12-5.51-14.78-11.42-.87-1.94-1.44-4.02-2.51-5.86-1.51-2.58-3.94-4.51-5.59-7.01-2.85-4.31-3.1-9.8-2.84-14.96.62-12.07,3.62-24.01,8.71-34.97-.88.56-1.77,1.11-2.62,1.71-2.14,1.5-4.16,3.25-5.44,5.57-1.41,2.56-1.81,5.45-2.7,8.2-1.59,4.92-6.37,8.33-6.61,13.79-.13,2.97,1.55,5.4,2.23,8.18.72,2.98.21,6.15-.05,9.16-.26,3.09-.28,6.16.53,9.17.78,2.9,2.18,5.63,3.74,8.18,2.83,4.61,5.96,9.74,10.48,12.88,2.42,1.68,5.36,2.13,7.89,3.57,2.74,1.55,5.48,2.95,8.46,4,2.92,1.04,5.92,1.82,8.93,2.54,3.05.73,6.17,1.59,9.33,1.69,4.64.14,9.05-2.48,13.68-3.39,6-1.19,9.92-1.3,15.58-4.35,6.03-3.26,14.2-8.3,17.11-14.81Z"/>
    <path class="cls-6" d="m167.6,145.52c-.03-.22-.04-.41-.11-.61-.2-.58-.48-1.15-.95-1.56-.47-.41-.99-.77-1.62-.89-.68-.13-1.2-.14-1.88,0-.06.01-.12.03-.17.05-.29.1-.6.22-.86.38-.12.08-.28.22-.36.28-.12.09-.25.19-.37.29-.14.13-.25.3-.37.44-.17.22-.34.43-.46.68-.16.35-.33.71-.45,1.08-.07.19-.09.41-.13.61-.13.63-.33,1.3-.27,1.93.02.25.05.54.11.78.09.39.26.67.49.97.11.14.21.26.33.37.05.11.1.22.15.33.28.47.65.84,1.12,1.12.36.23.74.35,1.16.37.41.09.83.07,1.24-.06.53-.15.99-.41,1.37-.8.37-.44.74-.9,1.03-1.4.28-.5.5-1.04.69-1.57.11-.32.19-.64.24-.98.06-.38.14-.82.15-1.22,0-.2-.04-.4-.06-.6Z"/>
    <path class="cls-6" d="m139.16,157.52c-.1-.94-.33-1.81-.63-2.47-.03-.07-.07-.15-.11-.22-.03-.04-.05-.08-.08-.12-.15-.22-.34-.48-.52-.67-.47-.52-1.03-.8-1.68-1.03-.06-.02-.12-.04-.18-.05-.31-.06-.65-.12-.96-.11-2.42.08-4.92,1.54-5.2,4.13-.17,1.56.47,3.15,1.55,4.29,1.47,1.55,3.44,2.4,5.47,1.74,2.1-.68,2.59-3.24,2.34-5.48Z"/>
    <path class="cls-6" d="m152.69,181.89c.02.15.04.3.06.46-.02-.48-.16-.92-.43-1.34-.19-.24-.38-.49-.56-.73-.01-.01-.03-.02-.04-.03-.12-.1-.28-.22-.37-.28.02.02-.13-.11-.26-.21-.04-.04-.08-.08-.12-.12-.11-.09-.24-.2-.38-.3-.06-.04-.11-.1-.17-.14-.27-.27-.59-.46-.97-.56-.52-.27-1.08-.4-1.69-.38-.39.05-.78.1-1.16.16-.35.15-.7.29-1.04.44-.51.27-.92.65-1.23,1.13-.39.42-.65.92-.78,1.49,0,0,0,.01,0,.02-.05.39-.1.78-.16,1.16,0,.02,0,.04,0,.06,0,.21.07.56.08.67.03.21.04.46.1.67.15.35.3.7.45,1.06,0,0,0,.01.01.02.28.52.66.93,1.14,1.24.15.12.3.24.46.35.02.02.05.03.08.05.01,0,.02.01.04.02h.02c.35.15.69.3,1.04.45.38.14,1.2.18,1.3.19.06,0,.11,0,.17,0,.19-.02.48-.06.59-.08.14-.02.41-.05.6-.08.03,0,.05-.01.08-.02.03,0,.06-.02.09-.03.23-.09.78-.32,1-.42.02,0,.03-.01.05-.02.02-.01.05-.03.07-.04.1-.07.19-.14.28-.22l-.21.16c.15-.1.29-.21.43-.33,0,0,0,0,.01-.01.12-.09.26-.19.38-.29l-.37.28c.43-.28.77-.65,1.02-1.11.14-.32.27-.64.41-.96,0-.02,0-.03,0-.05.17-.7.24-1.63-.02-2.32Z"/>
    <path class="cls-6" d="m155.54,166.18c.05-.25.09-.52.13-.89,0-.08.01-.15,0-.23-.02-.33-.08-.69-.13-1.01,0-.04-.01-.08-.02-.12-.1-.43-.28-.86-.52-1.23-.1-.15-.23-.3-.33-.43-.1-.13-.21-.29-.33-.42-.25-.27-.58-.49-.87-.69-.55-.32-1.14-.48-1.78-.48-.64,0-1.23.16-1.78.48-3.28,1.92-1.79,7.29,1.54,8.04.48.11.96.09,1.44-.06.29-.12.58-.24.86-.36.54-.32.98-.75,1.3-1.3.17-.35.28-.61.37-.87.03-.1.07-.22.09-.32,0-.03.01-.06.02-.09Z"/>
    <path class="cls-6" d="m185.95,156.92c.03.64-.13,1.07-.36,1.62-.1.24-.19.49-.34.71-.22.33-.46.65-.73.94-.08.09-.16.17-.25.25-.26.22-.53.43-.8.62-.05.03-.1.07-.15.1-.1.06-.21.11-.31.16-.35.15-.74.35-1.12.45-.4.11-.83.14-1.23.18-.6,0-1.16-.15-1.68-.45-.39-.21-.7-.5-.93-.86-.29-.32-.49-.7-.6-1.13-.16-.59-.16-1.18,0-1.77.04-.1.08-.21.12-.31.03-.21.07-.42.13-.61.13-.36.28-.74.47-1.08.19-.34.42-.67.71-.93.29-.26.61-.49.91-.72.1-.07.2-.14.3-.2.05-.02.09-.05.14-.07.29-.13.58-.27.88-.37.06-.02.11-.03.17-.04.26-.05.61-.09.88-.12.03,0,.06,0,.08,0,.36-.01.74.03,1.08.15.74.25.91.38,1.51.87.23.19.46.56.58.72.02.02.03.04.05.07.07.14.13.28.18.42.05.13.11.26.16.39.11.33.14.68.15,1.03Z"/>
    <path class="cls-6" d="m180.1,171.46c-.91-3.23-7.44-2.68-8.62.12-.13.3-.25.59-.38.89-.16.49-.18.99-.07,1.48,0,.34.09.65.25.94.15.46.41.86.77,1.2.25.19.5.39.75.58.58.34,1.21.51,1.88.51.44.03.91-.08,1.33-.16.13-.02.25-.06.37-.1.52-.2,1.05-.39,1.49-.72.29-.22.66-.47.94-.75.27-.28.51-.61.73-.93.07-.1.14-.21.2-.33.31-.6.48-1.06.48-1.74,0-.33-.07-.65-.13-.98Z"/>
    <path class="cls-6" d="m196.55,183.25c-.08-.33-.23-.62-.46-.87-.02-.02-.04-.04-.05-.06-.12-.28-.23-.55-.35-.83-.18-.24-.37-.48-.55-.72-.1-.1-.61-.49-.73-.56-.57-.36-.8-.35-1.36-.43-.22-.03-.4-.07-.61-.07-.05,0-.09,0-.14,0-.18.01-.87.1-1.05.14-.16.06-.32.13-.47.2-.32.09-.6.25-.84.49-.22.17-.45.33-.65.53-.08.08-.16.17-.23.26-.27.33-.55.66-.78,1.02-.03.05-.06.1-.09.15-.1.17-.16.35-.24.54-.09.21-.16.34-.21.52-.03.12-.06.24-.08.36-.18.67-.18,1.34,0,2.01.12.49.34.92.68,1.29.27.41.62.74,1.06.97.59.34,1.23.51,1.91.52.14,0,.28,0,.43,0,.38-.04.76-.09,1.14-.15.07-.01.15-.03.22-.04.29-.07.55-.19.82-.3.64-.27.5-.18,1.2-.76.02-.02.04-.03.06-.05.05-.04.1-.09.15-.14.28-.28.51-.61.74-.93.04-.05.08-.11.11-.16.01-.02.03-.05.04-.07.08-.13.14-.27.18-.41.09-.12.14-.25.16-.39.21-.67.11-1.38,0-2.05Z"/>
    <path class="cls-6" d="m151.18,143.92c-.01-.06-.02-.11-.03-.17,0-.02,0-.03,0-.05-.17-.59-.46-1.1-.9-1.54-.22-.21-.46-.39-.71-.55-.39-.25-.82-.39-1.28-.41-.46-.1-.91-.08-1.37.06-.3.06-.59.18-.86.36-.59.35-.93.77-1.31,1.33-.54.81-.73,1.98-.43,2.92.12.37.29.75.45,1.09.05.1.1.19.15.28.18.29.47.7.67.89.48.48,1.13.77,1.77.98.23.03.46.06.7.09.36.01.7-.06,1.01-.23.22-.06.41-.17.58-.34.28-.18.51-.43.67-.73.07-.15.15-.28.23-.42.22-.35.29-.71.4-1.07.02-.04.04-.09.06-.13.07-.16.14-.31.2-.47.17-.63.17-1.27,0-1.9Z"/>
    <path class="cls-6" d="m168.76,194.16c0,.05-.02.11-.03.16-.16.66-.46.97-.87,1.49-.14.17-.27.37-.43.53-.4.39-.86.67-1.4.82-.42.13-.84.15-1.27.06-.42-.02-.82-.14-1.18-.38-.37-.2-.67-.47-.89-.82-.28-.31-.47-.67-.57-1.08-.15-.56-.15-1.13,0-1.69.11-.25.21-.51.32-.76,0-.02.02-.03.03-.05,0,0,0-.02,0-.02.02-.09.05-.18.09-.27.12-.3.24-.6.38-.89.25-.42.58-.75,1-1,.43-.25.9-.38,1.4-.38.5,0,.97.13,1.4.38.07.04.13.11.2.16.26.1.51.23.72.43.33.21.59.5.78.85.17.22.27.47.32.75.17.63.11,1.09-.02,1.72Z"/>
    <path class="cls-6" d="m186.31,200.86c-.05-.15-.13-.29-.2-.42,0,0,.01,0,.02,0-.05-.1-.09-.19-.14-.29-.02-.05-.05-.1-.07-.15-.2-.26-.41-.53-.61-.79l-.03-.03s-.05-.04-.08-.07c-.09-.08-.18-.15-.27-.23-.04-.04-.09-.07-.13-.11-.03-.02-.05-.04-.08-.07-.14-.12-.28-.23-.43-.33-.13-.15-.28-.26-.45-.33-.46-.3-.97-.46-1.5-.48-.54-.12-1.08-.1-1.61.07-.53.13-.99.37-1.38.72-.44.29-.79.66-1.04,1.14l-.41.97c-.19.72-.19,1.43,0,2.15.14.32.27.64.41.97.36.61.84,1.09,1.45,1.45.01,0,.02.02.04.02.32.14.65.27.97.41.03.01.07.02.1.03.05.02.11.04.16.05.12.04.24.08.36.12.23.08.35.08.66.12.35.05.42.08.67.05.11-.01.23-.03.34-.04.64,0,1.24-.16,1.8-.49.54-.32.96-.74,1.28-1.28.32-.56.49-1.16.49-1.8.02-.49-.08-.95-.31-1.37Z"/>
    <path class="cls-3" d="m169.24,143.72c-.03-.22-.04-.41-.11-.61-.2-.58-.48-1.15-.95-1.56-.47-.41-.99-.77-1.62-.89-.68-.13-1.2-.14-1.88,0-.06.01-.12.03-.17.05-.29.1-.6.22-.86.38-.12.08-.28.22-.36.28-.12.09-.25.19-.37.29-.14.13-.25.3-.37.44-.17.22-.34.43-.46.68-.16.35-.33.71-.45,1.08-.07.19-.09.41-.13.61-.13.63-.33,1.3-.27,1.93.02.25.05.54.11.78.09.39.26.67.49.97.11.14.21.26.33.37.05.11.1.22.15.33.28.47.65.84,1.12,1.12.36.23.74.35,1.16.37.41.09.83.07,1.24-.06.53-.15.99-.41,1.37-.8.37-.44.74-.9,1.03-1.4.28-.5.5-1.04.69-1.57.11-.32.19-.64.24-.98.06-.38.14-.82.15-1.22,0-.2-.04-.4-.06-.6Z"/>
    <path class="cls-3" d="m140.8,155.71c-.1-.94-.33-1.82-.63-2.47-.03-.07-.07-.15-.11-.22-.03-.04-.05-.08-.08-.12-.15-.22-.34-.48-.52-.67-.47-.52-1.03-.8-1.68-1.03-.06-.02-.12-.04-.18-.05-.31-.06-.65-.12-.96-.11-2.42.08-4.92,1.54-5.2,4.13-.17,1.56.47,3.15,1.55,4.29,1.47,1.55,3.44,2.4,5.47,1.74,2.1-.68,2.59-3.24,2.34-5.48Z"/>
    <path class="cls-3" d="m133.62,186.45c-.02.53-.18,1.02-.47,1.47-.35.59-.82,1.07-1.42,1.42-.04.03-.08.05-.13.07-.34.17-.71.31-1.06.45-.08.03-.17.06-.25.08-.22.05-.47.07-.68.1-.23.03-.4.07-.6.08-.11,0-1.04-.13-1.14-.16-.21-.06-.83-.35-1.02-.43-.03-.01-.05-.02-.08-.03,0,0,0,0,0,0-.12-.01-.25-.02-.37-.06-.12-.04-.78-.31-.89-.37-.01,0-.02-.01-.03-.02-.11-.07-.67-.5-.76-.59,0,0-.01-.02-.02-.02-.51-.47-.56-.68-.78-1.21-.17-.29-.25-.61-.26-.94-.02-.17-.04-.33-.07-.5.01-.18.04-.36.07-.53.02-.17.04-.33.07-.5,0-.02,0-.04.02-.07,0-.01,0-.02.01-.03.13-.3.25-.6.38-.9.01-.02.02-.04.03-.06.18-.3.41-.57.64-.83.05-.06.1-.1.16-.15.23-.19.6-.52.93-.7.03-.02.06-.03.09-.04.3-.14.66-.29.97-.41.07-.02.13-.05.2-.06.04,0,.07-.01.11-.02.36-.06.72-.11,1.08-.14.07,0,.14,0,.22,0,.03,0,.07,0,.1,0,.35.04.74.09,1.09.15.08.01.15.03.23.05.03,0,.06.02.1.03.33.12.67.27.99.42.42.18.81.55,1.13.81.06.05.11.1.16.16.26.29.48.62.72.93l-.61-.79s.04.04.06.06c.49.49.83,1.07,1.02,1.74.16.53.19,1.05.07,1.58Z"/>
    <path class="cls-3" d="m154.33,180.09c.02.15.04.3.06.46-.02-.48-.16-.92-.43-1.34-.19-.24-.38-.49-.56-.73-.01-.01-.03-.02-.04-.03-.12-.1-.28-.22-.37-.28.02.02-.13-.11-.26-.21-.04-.04-.08-.08-.12-.12-.11-.09-.24-.2-.38-.3-.06-.04-.11-.1-.17-.14-.27-.27-.59-.46-.97-.56-.52-.27-1.08-.4-1.69-.38-.39.05-.78.1-1.16.16-.35.15-.7.29-1.05.44-.51.27-.92.65-1.23,1.13-.39.42-.65.92-.78,1.49,0,0,0,.01,0,.02-.05.39-.1.78-.16,1.16,0,.02,0,.04,0,.06,0,.21.07.56.08.67.03.21.04.46.1.67.15.35.3.7.45,1.06,0,0,0,.01.01.02.28.52.66.93,1.14,1.24.15.12.3.24.46.35.02.02.05.03.08.05.01,0,.02.01.04.02h.02c.35.15.69.3,1.04.45.38.14,1.2.18,1.3.19.06,0,.11,0,.17,0,.19-.02.48-.06.59-.08.14-.02.41-.05.6-.08.03,0,.05-.01.08-.02.03,0,.06-.02.09-.03.23-.09.78-.32,1-.42.02,0,.03-.01.05-.02.02-.01.05-.03.07-.04.1-.07.19-.14.28-.22l-.21.16c.15-.1.29-.21.43-.33,0,0,0,0,.01-.01.12-.09.26-.19.38-.29l-.37.28c.43-.28.77-.65,1.02-1.11.14-.32.27-.64.41-.96,0-.02,0-.03,0-.05.17-.7.24-1.63-.02-2.32Z"/>
    <path class="cls-3" d="m157.18,164.38c.05-.25.09-.52.13-.89,0-.08.01-.15,0-.23-.02-.33-.08-.69-.13-1.01,0-.04-.01-.08-.02-.12-.1-.43-.28-.86-.52-1.23-.1-.15-.23-.3-.33-.43-.1-.13-.21-.29-.33-.42-.25-.27-.58-.49-.87-.69-.55-.32-1.14-.48-1.78-.48-.64,0-1.23.16-1.78.48-3.28,1.92-1.78,7.29,1.54,8.04.48.11.96.09,1.44-.06.29-.12.58-.24.86-.36.54-.32.98-.75,1.3-1.3.17-.35.28-.61.37-.87.03-.1.07-.22.09-.32,0-.03.01-.06.02-.09Z"/>
    <path class="cls-3" d="m187.59,155.11c.03.64-.13,1.07-.36,1.62-.1.24-.19.49-.34.71-.22.33-.46.65-.73.94-.08.09-.16.17-.25.25-.26.22-.53.43-.8.62-.05.03-.1.07-.15.1-.1.06-.21.12-.31.16-.35.15-.74.35-1.12.45-.4.11-.83.14-1.23.18-.6,0-1.16-.15-1.68-.45-.39-.21-.7-.5-.93-.86-.29-.32-.49-.7-.6-1.13-.16-.59-.16-1.18,0-1.77.04-.11.08-.21.12-.31.03-.21.07-.42.13-.61.13-.36.28-.74.47-1.08.19-.34.42-.67.71-.93.29-.26.61-.49.91-.72.1-.07.2-.14.3-.2.05-.02.09-.05.14-.07.29-.13.58-.27.88-.37.06-.02.11-.03.17-.04.26-.05.61-.09.88-.12.03,0,.06,0,.08,0,.36-.01.74.03,1.08.15.74.25.91.38,1.51.87.23.19.46.56.58.72.02.02.03.04.05.07.07.14.13.28.18.42.05.13.11.26.16.39.11.33.14.68.15,1.03Z"/>
    <path class="cls-3" d="m181.74,169.66c-.91-3.23-7.44-2.68-8.62.12-.13.3-.25.59-.38.89-.16.49-.18.99-.07,1.48,0,.34.09.65.25.94.15.46.41.86.77,1.2.25.19.5.39.75.58.58.34,1.21.51,1.88.51.44.03.91-.08,1.33-.16.13-.02.25-.06.37-.1.52-.2,1.05-.39,1.49-.72.29-.22.66-.47.94-.75.27-.28.51-.61.73-.93.07-.1.14-.21.2-.33.31-.6.48-1.06.48-1.74,0-.33-.07-.65-.13-.98Z"/>
    <path class="cls-3" d="m198.19,181.45c-.08-.33-.23-.62-.46-.87-.02-.02-.04-.04-.05-.06-.12-.28-.23-.55-.35-.83-.18-.24-.37-.48-.55-.72-.1-.1-.61-.49-.73-.56-.57-.36-.8-.35-1.36-.43-.22-.03-.4-.07-.61-.07-.05,0-.09,0-.14,0-.18.01-.87.1-1.05.14-.16.06-.32.13-.47.2-.32.09-.6.25-.84.49-.22.17-.45.33-.65.53-.08.08-.16.17-.23.26-.27.33-.55.66-.78,1.02-.03.05-.06.1-.09.15-.1.17-.16.35-.24.54-.09.21-.16.34-.21.52-.03.12-.06.24-.08.36-.18.67-.18,1.34,0,2.01.12.49.34.92.68,1.29.27.41.62.74,1.06.97.59.34,1.23.51,1.91.52.14,0,.28,0,.43,0,.38-.04.76-.09,1.14-.15.07-.01.15-.03.22-.04.29-.07.55-.19.82-.3.64-.27.5-.18,1.2-.76.02-.02.04-.03.06-.05.05-.04.1-.09.15-.14.28-.28.51-.61.74-.93.04-.05.08-.11.11-.16.01-.02.03-.05.04-.07.08-.13.14-.27.18-.41.09-.12.14-.25.16-.39.21-.67.11-1.38,0-2.05Z"/>
    <path class="cls-3" d="m127.12,169.33c-.05-.09-.11-.17-.16-.26-.01-.02-.03-.04-.04-.06,0-.01-.02-.03-.03-.04-.13-.17-.26-.34-.4-.51-.18-.2-.43-.34-.65-.5-.11-.08-.22-.15-.33-.23-.02-.01-.04-.03-.06-.04-.22-.09-.43-.18-.65-.28-.34-.11-.52-.11-.79-.09-.25.03-.5.06-.75.1l-.64.27c-.2.13-.38.27-.56.43-.26.24-.44.53-.55.86-.17.32-.24.66-.23,1.02.01.24.04.48.1.72.12.43.37.9.71,1.21.19.17.38.34.6.47.45.27.88.37,1.41.38.13,0,.26,0,.39,0,.18,0,.32-.02.52-.04.22-.03.32-.03.49-.1l.34-.14c.37-.1.68-.29.95-.55.21-.2.36-.43.45-.69.14-.26.2-.53.19-.83,0-.39-.1-.75-.29-1.09Z"/>
    <path class="cls-3" d="m152.82,142.12c-.01-.06-.02-.11-.03-.17,0-.02,0-.03,0-.05-.17-.59-.46-1.1-.9-1.54-.22-.21-.46-.39-.71-.55-.39-.25-.82-.39-1.28-.41-.46-.1-.91-.08-1.37.06-.3.06-.59.18-.86.36-.59.35-.93.77-1.31,1.33-.54.81-.73,1.98-.43,2.92.12.37.29.75.45,1.09.05.1.1.19.15.28.18.29.47.7.67.89.48.48,1.13.77,1.77.98.23.03.46.06.7.09.36.01.7-.06,1.01-.22.22-.06.41-.17.58-.34.28-.18.51-.43.67-.73.06-.15.15-.28.23-.42.22-.35.29-.71.4-1.07.02-.04.04-.09.06-.13.07-.16.14-.31.2-.47.17-.63.17-1.27,0-1.9Z"/>
    <path class="cls-3" d="m148.09,201.13c-.43-.72-1.1-1.21-1.89-1.46-.55-.17-1.25-.17-1.8-.01-.57.16-1.12.49-1.53.92-.26.28-.49.59-.69.92-.19.3-.28.59-.34.9-.11.14-.23.26-.32.42-.31.53-.46,1.11-.47,1.72.04.3.08.6.12.91.16.58.45,1.08.88,1.51.31.33.67.57,1.1.71.41.21.84.31,1.31.29.62,0,1.19-.16,1.72-.47.51-.3.92-.71,1.22-1.22.12-.18.22-.4.29-.63.08-.19.15-.38.2-.58.03-.08.07-.15.09-.23.05-.15.09-.3.14-.45.1-.22.2-.45.27-.68.26-.83.15-1.81-.3-2.56Z"/>
    <path class="cls-3" d="m170.4,192.36c0,.05-.02.11-.03.16-.16.66-.46.97-.87,1.49-.14.17-.27.37-.43.53-.4.39-.86.67-1.4.82-.42.13-.84.15-1.27.06-.42-.02-.82-.14-1.18-.38-.37-.2-.67-.47-.89-.82-.28-.31-.47-.67-.57-1.08-.15-.56-.15-1.13,0-1.69.11-.25.21-.51.32-.76,0-.02.02-.03.03-.05,0,0,0-.02,0-.02.02-.09.05-.18.09-.27.12-.3.24-.6.38-.89.25-.42.58-.75,1-1,.43-.25.9-.38,1.4-.38.5,0,.97.13,1.4.38.07.04.13.11.2.16.26.1.51.23.72.43.33.21.59.5.78.85.17.22.27.47.32.75.17.63.11,1.09-.02,1.72Z"/>
    <path class="cls-3" d="m168.24,207.33s-.01-.08-.02-.12c0-.15-.01-.3-.1-.61-.1-.35-.22-.61-.39-.85,0,0,0,0,0-.01-.03-.05-.04-.11-.07-.16-.25-.42-.58-.75-1-1-.43-.25-.9-.38-1.41-.38-.5,0-.97.13-1.41.38-.02.01-.05.02-.07.04,0,0-.02.01-.03.02-.18.13-.43.32-.6.46-.02.02-.04.04-.06.06,0,0-.02.02-.02.03-.12.14-.37.47-.48.62,0,.01-.02.02-.02.03-.07.11-.13.24-.16.37-.14.24-.21.49-.21.77-.07.53-.07.3,0,.83.02.17.02.3.07.44,0,.02.01.03.02.05.09.22.22.54.32.75.02.03.03.06.05.1,0,.01.02.03.03.04,0,0,0,.01.01.02.16.2.31.41.47.61,0,0,0,.01.01.02.2.16.4.31.61.47,0,0,.01,0,.02.01l.06.03s.03.04.04.05c.22.23.47.4.77.49.19.11.39.16.6.16.32.07.63.06.95-.04.19-.08.38-.16.57-.24.36-.21.64-.5.85-.85.12-.27.24-.54.33-.82.2-.36.22-.56.27-.97.07-.26.07-.53,0-.79Z"/>
    <path class="cls-3" d="m187.95,199.05c-.05-.15-.13-.29-.2-.42,0,0,.01,0,.02,0-.05-.1-.09-.19-.14-.29-.02-.05-.05-.1-.07-.15-.2-.26-.41-.53-.61-.79l-.03-.03s-.05-.04-.08-.07c-.09-.08-.18-.15-.27-.23-.04-.04-.09-.07-.13-.11-.03-.02-.05-.04-.08-.07-.14-.12-.28-.23-.43-.33-.13-.15-.28-.26-.45-.33-.46-.3-.97-.46-1.5-.48-.54-.12-1.08-.1-1.61.07-.53.13-.99.37-1.38.72-.44.29-.79.66-1.04,1.14l-.41.97c-.19.72-.19,1.43,0,2.15.14.32.27.64.41.97.36.61.84,1.09,1.45,1.45.01,0,.02.02.04.02.32.14.65.27.97.41.03.01.07.02.1.03.05.02.11.04.16.05.12.04.24.08.36.12.23.08.35.08.66.12.35.05.42.08.67.05.11-.01.23-.03.34-.04.64,0,1.24-.16,1.8-.49.54-.32.96-.74,1.28-1.28.32-.56.49-1.16.49-1.8.02-.49-.08-.95-.31-1.37Z"/>
    <path class="cls-2" d="m128.33,187.54c-1.82-.75-3.26-2.34-3.91-4.19-.09.11-.18.22-.26.34-.01.02-.02.04-.03.06-.13.3-.25.6-.38.9,0,.01,0,.02-.01.03,0,.02-.01.04-.02.07-.02.17-.04.33-.07.5-.03.18-.06.35-.07.53.02.17.04.33.07.5,0,.34.09.65.26.94.22.53.27.74.78,1.21,0,0,.01.01.02.02.09.09.65.52.76.59.01,0,.02.01.03.02.11.06.76.34.89.37.12.03.25.04.37.06,0,0,0,0,0,0,.02.01.05.02.08.03.2.09.82.37,1.02.43.1.03,1.03.16,1.14.16.2,0,.37-.04.6-.08.2-.03.46-.05.68-.1.09-.02.17-.05.25-.08.35-.14.73-.28,1.06-.45.04-.02.09-.05.13-.07.59-.35,1.07-.82,1.42-1.42.06-.1.09-.2.14-.3-1.6.56-3.39.56-4.96-.08Z"/>
    <path class="cls-2" d="m147.39,206.26c.12-.18.22-.4.29-.63.02-.04.03-.09.04-.13-.76.28-1.54.43-2.32.25-1.33-.3-2.32-1.49-2.72-2.79-.18-.59-.25-1.19-.26-1.81-.09.12-.19.23-.27.35-.19.3-.28.59-.34.9-.11.14-.23.26-.32.42-.31.53-.46,1.11-.47,1.72.04.3.08.6.12.91.16.58.45,1.08.88,1.51.31.33.67.57,1.1.71.41.21.84.31,1.31.29.62,0,1.19-.16,1.72-.47.51-.3.92-.71,1.22-1.22Z"/>
    <path class="cls-2" d="m165.36,209.05c-1.18-.68-1.93-1.92-2.42-3.19-.05-.12-.08-.24-.12-.37-.09.12-.18.24-.24.31,0,.01-.02.02-.02.03-.07.11-.13.24-.16.37-.14.24-.21.49-.21.77-.07.53-.07.3,0,.83.02.17.02.3.07.44,0,.02.01.03.02.05.09.22.22.54.32.75.02.03.03.06.05.1,0,.01.02.03.03.04,0,0,0,.01.01.02.16.2.31.41.47.61,0,0,0,.01.01.02.2.16.4.31.61.47,0,0,.01,0,.02.01l.06.03s.03.04.04.05c.22.23.47.4.77.49.19.11.39.16.6.16.32.07.63.06.95-.04.19-.08.38-.16.57-.24.36-.21.64-.5.85-.85.07-.16.13-.32.19-.47-.81.19-1.73.04-2.47-.38Z"/>
    <path class="cls-2" d="m188.13,201.37c-.65.14-1.3.25-1.96.29-1.64.08-3.36-.29-4.62-1.35-.81-.68-1.38-1.68-1.53-2.71-.02.03-.05.06-.07.09l-.41.97c-.19.72-.19,1.43,0,2.15.14.32.27.64.41.97.36.61.84,1.09,1.45,1.45.01,0,.02.02.04.02.32.14.65.27.97.41.03.01.07.02.1.03.05.02.11.04.16.05.12.04.24.08.36.12.23.08.35.08.66.12.35.05.42.08.67.05.11-.01.23-.03.34-.04.64,0,1.24-.16,1.8-.49.54-.32.96-.74,1.28-1.28.16-.28.28-.56.36-.86Z"/>
    <path class="cls-2" d="m197.81,184.37s.03-.05.04-.07c.08-.13.14-.27.18-.41.09-.12.14-.25.16-.39.11-.35.13-.7.12-1.06-1.3,1.25-3.2,1.9-4.94,1.43-1.65-.44-2.92-1.92-3.27-3.55-.06.08-.13.16-.19.24-.03.05-.06.1-.09.15-.1.17-.16.35-.24.54-.09.21-.16.34-.21.52-.03.12-.06.24-.08.36-.18.67-.18,1.34,0,2.01.12.49.34.92.68,1.29.27.41.62.74,1.06.97.59.34,1.23.51,1.91.52.14,0,.28,0,.43,0,.38-.04.76-.09,1.14-.15.07-.01.15-.03.22-.04.29-.07.55-.19.82-.3.64-.27.5-.18,1.2-.76.02-.02.04-.03.06-.05.05-.04.1-.09.15-.14.28-.28.51-.61.74-.93.04-.05.08-.11.11-.16Z"/>
    <path class="cls-2" d="m183.27,158.54c-1.76-.09-3.51-1.28-4.11-2.86-.03.08-.06.16-.09.24-.16.59-.16,1.18,0,1.77.1.43.3.81.6,1.13.24.36.55.65.93.86.52.3,1.08.45,1.68.45.4-.05.83-.08,1.23-.18.39-.1.78-.3,1.12-.45.11-.05.21-.1.31-.16.05-.03.1-.06.15-.1.27-.2.55-.41.8-.62.09-.08.18-.16.25-.25.15-.17.28-.36.42-.54-1.05.48-2.16.76-3.31.7Z"/>
    <path class="cls-2" d="m180.39,173.69c-.12.03-.24.08-.36.11-1.71.38-3.62.17-5.04-.86-1.04-.76-1.74-2.01-1.81-3.27-.02.03-.04.06-.06.1-.13.3-.25.59-.38.89-.15.49-.18.99-.07,1.48,0,.34.09.65.25.94.15.46.41.86.77,1.2.25.19.5.39.75.58.58.34,1.21.51,1.88.51.44.03.91-.08,1.33-.16.13-.02.25-.06.37-.1.52-.2,1.05-.39,1.49-.72.27-.2.6-.43.86-.69Z"/>
    <path class="cls-2" d="m167.83,194.25c-1.68-.37-3.21-1.68-3.54-3.37-.04-.2-.05-.41-.05-.62,0,.02-.02.04-.03.06-.03.09-.06.18-.09.27,0,0,0,.02,0,.02,0,.02-.02.03-.03.05-.11.25-.21.51-.32.76-.15.56-.15,1.13,0,1.69.1.41.29.77.57,1.08.22.35.52.62.89.82.36.23.76.36,1.18.38.42.09.84.08,1.27-.06.54-.15,1.01-.42,1.4-.82.05-.05.08-.1.13-.15-.46,0-.92-.02-1.37-.12Z"/>
    <path class="cls-2" d="m153.81,183.58c-1.26.34-2.58.37-3.83-.02-2.28-.72-3.99-3.02-4.04-5.34-.36.41-.62.89-.75,1.44,0,0,0,.01,0,.02-.05.39-.1.78-.16,1.16,0,.02,0,.04,0,.06,0,.21.07.56.08.67.03.21.04.46.1.67.15.35.3.7.45,1.06,0,0,0,.01.01.02.28.52.66.93,1.14,1.24.15.12.3.24.46.35.02.02.05.03.08.05.01,0,.02.01.04.02h.02c.35.15.69.3,1.04.45.38.14,1.2.18,1.3.19.06,0,.11,0,.17,0,.19-.02.48-.06.59-.08.14-.02.41-.05.6-.08.03,0,.05-.01.08-.02.03,0,.06-.02.09-.03.23-.09.78-.32,1-.42.02,0,.03-.01.05-.02.02-.01.05-.03.07-.04.1-.07.19-.14.28-.22l-.21.16c.15-.1.29-.21.43-.33,0,0,0,0,.01-.01.12-.09.26-.19.38-.29l-.37.28c.37-.24.66-.57.9-.94Z"/>
    <path class="cls-2" d="m127.11,171.5c-.36.14-.72.26-1.1.33-.89.17-1.87.07-2.59-.48-.36-.27-.63-.63-.87-1.01-.35-.57-.62-1.19-.81-1.83-.09.14-.17.3-.22.47-.17.32-.24.66-.23,1.02.01.24.04.48.1.72.12.43.37.9.71,1.21.19.17.38.34.6.47.45.27.88.37,1.41.38.13,0,.26,0,.39,0,.18,0,.32-.02.52-.04.22-.03.32-.03.49-.1l.34-.14c.37-.1.68-.29.95-.55.14-.13.24-.28.33-.44Z"/>
    <path class="cls-2" d="m152.76,164.54c-1.22-1.16-1.85-2.8-2.04-4.49-2.09,2.28-.6,6.67,2.39,7.34.48.11.96.09,1.44-.06.29-.12.58-.24.86-.36.43-.26.78-.6,1.07-1-1.34.05-2.74-.48-3.72-1.42Z"/>
    <path class="cls-2" d="m140.64,158.52c-1.82.82-4.14.55-5.74-.71-1.49-1.16-2.33-3-2.48-4.88-.52.61-.89,1.35-.99,2.24-.17,1.56.47,3.15,1.55,4.29,1.47,1.55,3.44,2.4,5.47,1.74,1.22-.4,1.89-1.44,2.19-2.68Z"/>
    <path class="cls-2" d="m164.09,147.59c-1.22-.62-2.12-1.74-2.61-3.03-.13.6-.3,1.23-.25,1.84.02.25.05.54.11.78.09.39.26.67.49.97.11.14.21.26.33.37.05.11.1.22.15.33.28.47.65.84,1.12,1.12.36.23.74.35,1.16.37.41.09.83.07,1.24-.06.53-.15.99-.42,1.37-.8.37-.44.74-.9,1.03-1.4.12-.22.23-.45.34-.68-1.31.81-3.08.89-4.47.19Z"/>
    <path class="cls-2" d="m147.94,144.98c-.91-.54-1.64-1.36-2.12-2.3-.06.47-.03.96.11,1.39.12.37.29.75.45,1.09.05.1.1.19.15.28.18.29.47.7.67.89.48.48,1.13.77,1.77.98.23.03.46.06.7.09.36.01.7-.06,1.01-.22.22-.06.41-.17.58-.34.28-.18.51-.43.67-.73.06-.15.15-.28.23-.42.03-.05.04-.1.06-.14-1.43.37-3.01.18-4.28-.57Z"/>
    <path class="cls-1" d="m127.22,183.09s0,.02,0,.03c0-.01,0-.02,0-.04,0,0,0,0,0,0Z"/>
    <path class="cls-1" d="m130.24,183.76c-.07.27-.29.49-.54.59-.17.07-.32.08-.5.06-.07,0-.15-.02-.22-.03-.14-.02-.28-.05-.42-.07-.14-.02-.29-.04-.42-.08-.19-.06-.37-.14-.55-.21-.15-.07-.27-.24-.33-.39-.07-.16-.08-.33-.04-.5,0-.02,0-.04,0-.05.02-.09.08-.15.13-.22l-.06.06s0,0,0-.01c.01-.02.04-.04.06-.06.04-.04.07-.08.12-.12.15-.13.33-.23.53-.23.14,0,.27,0,.41,0,.21,0,.43.06.64.09.14.02.28.04.42.07.26.04.53.19.66.43.11.21.17.45.11.69Z"/>
    <path class="cls-1" d="m127.19,183.27s.01-.1.02-.15c0,0,0,0,0,0,0,.05-.01.11-.02.16Z"/>
    <path class="cls-1" d="m125.45,168.79c0,.09-.02.17-.07.24-.03.06-.08.11-.12.16-.08.09-.19.16-.3.19-.02,0-.03,0-.05,0-.06,0-.13.02-.19.02-.08,0-.17-.01-.25-.03,0,0-.01,0-.02,0-.09-.02-.16-.06-.23-.11-.08-.06-.1-.08-.17-.18,0,0,0-.01,0-.02-.04-.06-.07-.14-.09-.21-.02-.07-.03-.15-.04-.21,0-.03,0-.05,0-.08,0-.09.02-.17.07-.24.04-.07.1-.13.17-.17.07-.04.15-.06.24-.07.08,0,.16.02.23.06.04,0,.12.01.14.02.03,0,.05.02.08.03.03.01.05.04.08.05.01,0,.02,0,.03.01,0,0-.02-.01-.03-.02.02.01.03.02.05.03.04.01.07.03.1.04,0,0,0,0,0,0,.01,0,.02.02.04.02,0,0,.02,0,.03.01,0,0,0,0,0,0,.06.02.11.05.16.09.05.04.08.1.1.15.03.06.04.12.04.19Z"/>
    <path class="cls-1" d="m137.94,153.38c-.12-.23-.35-.35-.56-.48-.17-.1-.34-.16-.53-.21-.11-.03-.21-.06-.32-.09-.12-.04-.24-.07-.37-.06-.11,0-.25.03-.36.05-.13.04-.25.1-.35.2-.08.07-.13.16-.16.25-.05.09-.07.19-.07.3,0,.14.04.27.11.4.05.07.1.13.15.2.1.12.21.22.35.29.1.06.2.11.31.17.16.09.32.18.51.22.26.07.5.15.77.06.15-.04.28-.12.39-.23.09-.08.15-.18.18-.29.06-.11.08-.22.08-.34,0-.16-.04-.31-.12-.45Z"/>
    <path class="cls-1" d="m139.31,155.58c-.03-.06-.02-.07-.05-.1-.04-.05-.08-.1-.12-.15,0-.01-.02-.02-.03-.03-.17-.18-.44-.24-.67-.18-.23.06-.4.24-.47.46.01-.03.03-.06.04-.09-.01.03-.03.06-.04.09,0,0-.01.01-.01.02,0,.02-.01.04-.02.05,0,0,0,0,0,.01-.03.1-.02.21,0,.31,0,0,0,0,0-.01,0,.04,0,.08,0,.12,0,.06.02.12.02.18.02.05.05.11.07.16.04.05.07.09.11.14.06.07.13.11.22.14.05.03.11.05.17.05.06.02.12.02.18,0,.06,0,.12-.02.17-.05.08-.03.16-.07.22-.14.03-.03.09-.11.11-.15,0,0,0-.01.01-.02,0-.01.01-.02.02-.04.04-.08.08-.16.1-.24,0-.01,0-.03,0-.04,0,0,0-.01,0-.02,0-.06.02-.13.03-.19,0-.1-.02-.19-.06-.28Z"/>
    <path class="cls-1" d="m151.71,141.08s-.05-.09-.08-.13c-.06-.09-.13-.21-.2-.28-.18-.16-.4-.25-.63-.33-.17-.06-.34-.12-.52-.11-.18,0-.35.03-.53.06-.06.03-.12.05-.19.08-.09.05-.16.12-.22.2-.1.13-.17.3-.17.47,0,.14.04.27.11.39.09.18.28.29.46.36.01,0,.03.01.04.02.12.06.23.12.35.14.09.02.18.04.27.07.04.01.08.03.12.04.11.04.23.06.34.05.08,0,.16,0,.24,0,.24.02.48-.14.6-.34.13-.22.12-.48,0-.7Z"/>
    <path class="cls-1" d="m155.46,160.83c-.05-.09-.14-.18-.21-.25-.13-.12-.26-.23-.43-.27-.2-.06-.41-.03-.61,0-.1.03-.19.08-.27.16-.08.08-.13.16-.16.27-.03.11-.03.21,0,.32.03.1.08.18.15.25-.02-.02-.04-.05-.06-.07.02.03.05.06.07.1.01.02.02.04.03.06l.12.15s.04.03.06.05c0,0-.01-.01-.02-.02.04.03.08.07.11.1.02.02.03.03.05.05,0,0,0,.01.02.02l.15.12s.02.01.03.02c.04.02.08.04.11.07.02.01.03.02.05.03.02.01.04.02.06.03.04.02.08.04.12.06.03.01.07.03.1.04.05.02.11.02.16,0,.08-.01.18-.05.24-.11.1-.12.19-.25.23-.4.03-.09.03-.19.02-.29-.02-.18-.03-.33-.12-.48Z"/>
    <path class="cls-1" d="m151.55,178.59c-.08-.2-.23-.35-.41-.45-.08-.05-.16-.09-.25-.12-.15-.07-.29-.13-.45-.16-.16-.03-.31-.05-.47-.07-.09,0-.17-.01-.26-.01-.05,0-.09,0-.14,0-.18.01-.32.04-.48.12-.09.05-.18.11-.26.17-.24.18-.37.55-.2.82.09.15.2.25.36.32.04.02.08.04.12.06.1.05.2.08.31.1.2.03.4.09.58.17-.07-.03-.14-.06-.21-.09.13.05.25.1.38.16.1.05.21.11.31.14.27.07.5.03.74-.1.25-.12.4-.42.4-.69,0-.16-.03-.25-.08-.38Z"/>
    <path class="cls-1" d="m146.55,201.56s-.04-.13-.08-.19c-.06-.08-.12-.17-.2-.25,0,0-.01-.01-.02-.02,0,0,0,0-.01-.01-.03-.02-.05-.04-.08-.06-.05-.05-.1-.08-.17-.1-.06-.02-.09-.04-.15-.05-.08-.01-.17-.03-.25-.03-.02,0-.04,0-.06,0-.06,0-.12.02-.19.03-.06.02-.11.05-.17.07-.05.04-.09.07-.14.11-.07.06-.12.14-.14.23-.03.05-.05.11-.05.18-.02.06-.02.12,0,.19,0,.06.02.12.05.18.03.09.08.16.14.23.04.03.08.07.11.11,0,0,0,.01.01.02.05.05.1.09.16.12.01,0,.02.01.04.02.01,0,.03.02.04.03.02.02.05.04.07.06.09.05.18.08.28.09.03.01.07.02.1.01.02,0,.04,0,.05,0,.06,0,.12-.02.18-.02.09-.02.16-.06.22-.12.05-.03.09-.07.12-.12.06-.06.1-.14.12-.22,0-.01,0-.02.01-.04,0,0,0-.01,0-.02,0-.07.02-.13.03-.2,0-.07-.02-.13-.03-.2Z"/>
    <path class="cls-1" d="m166.35,205.51c-.05-.09-.12-.16-.21-.21-.08-.04-.15-.08-.23-.11-.07-.04-.15-.05-.23-.05-.05,0-.11,0-.16.02,0,0,0,0-.01,0-.01,0-.02,0-.03,0-.02,0-.05,0-.07.01-.08.02-.16.07-.22.13-.05.05-.08.1-.1.16-.03.06-.05.12-.04.19,0,.09.02.17.07.25.01.02.02.05.04.07,0,0,.01.02.02.03,0,0,0,.01,0,.02.03.04.06.08.09.12.03.04.08.07.12.1.05.03.11.05.16.08.07.04.14.07.22.07.08.02.16.01.24-.01.08-.02.14-.05.2-.11.06-.04.12-.1.15-.17.02-.05.04-.09.06-.14.03-.11.03-.21,0-.32-.02-.05-.04-.09-.06-.14Z"/>
    <path class="cls-1" d="m169.5,190.5c0-.14-.04-.27-.1-.39-.02-.04-.04-.08-.06-.12-.01-.02-.02-.04-.03-.06-.03-.06-.1-.14-.14-.18,0,0-.02-.02-.03-.02-.12-.11-.25-.21-.39-.3-.2-.13-.44-.15-.67-.18-.22-.02-.43.04-.61.17-.08.05-.15.11-.2.19-.06.07-.11.15-.13.25-.04.18-.04.4.07.56.06.08.1.18.18.25.09.08.19.14.29.2.04.03.09.06.13.09.07.05.17.07.25.1.1.05.2.11.31.14.04,0,.07.02.11.03.14.05.29.04.43,0,.11-.01.22-.04.32-.12.15-.11.26-.29.24-.49,0,0,0-.02,0-.02,0-.04.03-.07.03-.1Z"/>
    <path class="cls-1" d="m184.96,197.12s-.05-.06-.08-.09c0,0-.02-.02-.03-.03-.06-.05-.12-.09-.18-.14-.08-.04-.17-.07-.25-.11-.08-.03-.16-.06-.25-.08-.22-.05-.46-.1-.68-.03-.14.04-.28.1-.41.16-.05.04-.11.08-.16.12-.04.05-.08.11-.12.16-.03.06-.05.13-.08.19-.03.11-.04.21-.01.32,0,.07.02.14.05.2.02.07.05.13.1.18.1.13.23.21.38.26h-.02s.01,0,.02,0c.01,0,.02.02.03.02.05.02.1.03.15.06-.04-.02-.08-.03-.11-.05.1.06.2.09.31.1,0,0,.01,0,.02,0,.08.01.16.03.23.05.04.01.08.03.12.04.1.03.22.03.32.04.02,0,.04,0,.06,0,.11,0,.22-.02.32-.07.16-.07.31-.18.39-.34.07-.13.11-.27.11-.41,0-.22-.1-.42-.24-.58Z"/>
    <path class="cls-1" d="m186.96,198.77c-.03-.12-.1-.23-.18-.32,0,0-.01-.01-.02-.02-.09-.09-.2-.16-.33-.19-.13-.04-.26-.04-.39,0-.03.01-.06.02-.09.04-.09.03-.17.08-.24.15-.07.07-.12.15-.15.24-.02.03-.03.06-.04.09,0,0,0,0,0,0,0,0,0,0,0,0-.03.1-.04.25,0,.35,0,0,0,.01,0,.02,0,0,0,0,0,0,.02.06.05.12.07.18.04.05.08.1.12.15.05.04.1.08.15.12.06.03.12.06.18.08.13.04.26.04.39,0,.13-.04.23-.1.33-.19,0,0,.01-.01.02-.02.07-.06.12-.14.15-.23.04-.09.07-.18.06-.28,0-.06-.02-.13-.03-.19Z"/>
    <path class="cls-1" d="m196.09,180.07h0c0,.06,0,.12-.03.22-.02.07-.05.14-.08.2-.04.07-.09.12-.14.18-.1.11-.25.19-.39.23-.08.02-.16.03-.24.03-.16,0-.31-.04-.45-.12-.08-.05-.15-.11-.22-.17-.03-.03-.07-.07-.1-.1,0,0-.01-.02-.02-.03-.08-.09-.12-.15-.16-.22-.02-.02-.04-.03-.05-.05-.05-.05-.08-.11-.1-.17-.04-.06-.05-.13-.05-.2-.02-.1-.02-.21.01-.31.03-.06.05-.12.08-.19.04-.05.08-.1.12-.16.05-.04.1-.08.16-.12.07-.06.17-.09.26-.11.17-.04.35-.04.51.01.02,0,.04.01.05.02,0,0,.01,0,.02,0,.15.04.28.12.39.23,0,0,.02.02.03.03.02.02.04.04.06.05,0,0,0,0,0,0,0,0,0,0,0,0,.01.01.02.02.04.03,0,0-.02-.01-.02-.02.09.06.16.14.21.23.03.07.06.15.09.22.03.1.03.17.03.25,0,0,0,.01,0,.02Z"/>
    <path class="cls-1" d="m177.96,169.17c.01.23-.11.43-.25.59-.14.16-.31.27-.51.33-.14.04-.31.04-.46.05-.08,0-.16.01-.24,0-.08,0-.16-.02-.24-.02-.08,0-.16-.01-.24-.02-.17-.02-.26-.04-.41-.09-.23-.09-.39-.17-.54-.39-.05-.07-.09-.16-.11-.25-.05-.18-.02-.37.07-.53.07-.13.22-.24.36-.29-.03.01-.05.02-.08.03.03-.02.06-.03.09-.04,0,0,.02-.01.03-.01h-.03c.16-.06.31-.14.48-.17.12-.02.24-.05.36-.07.2-.03.39-.04.6-.05.17,0,.34.01.5.08.14.06.26.15.37.26.16.16.24.37.25.59Z"/>
    <path class="cls-1" d="m180.37,169.28s0-.07-.01-.1c-.04-.13-.1-.23-.19-.33-.05-.04-.1-.08-.15-.12-.05-.03-.1-.04-.15-.06,0,0,0,0-.01,0-.04-.02-.05-.03-.11-.05-.03-.01-.06-.03-.09-.04-.12-.03-.24-.03-.36,0,.03,0,.06,0,.1-.01,0,0-.01,0-.02,0-.03,0-.06,0-.08.01,0,0-.02,0-.03,0,0,0-.01,0-.02,0,0,0-.02,0-.02,0,0,0-.01,0-.02,0-.08.02-.16.06-.22.11-.05.03-.09.07-.11.11-.06.06-.09.13-.11.22-.02.08-.03.15-.03.23,0,0,0,0,0,.01,0,.13.03.25.1.37.02.03.04.05.06.08.04.05.04.06.07.09.05.04.11.08.16.12.03.02.05.04.08.05.07.03.15.06.21.09,0,0,.01,0,.02,0,.13.04.26.04.39,0,.1-.02.18-.07.25-.13.08-.06.14-.1.19-.21,0,0,0,0,0,0,.03-.05.06-.11.07-.17,0-.03,0-.02.01-.09,0-.06,0-.06.01-.09,0,0,0,0,0,0,0-.04,0,.02-.01-.1Z"/>
    <path class="cls-1" d="m185.63,153.86c-.04.14-.11.26-.21.36-.1.1-.22.17-.36.21-.01,0-.02,0-.03,0-.16.04-.31.04-.47,0-.07-.03-.14-.06-.22-.09-.04-.02-.06-.05-.09-.07-.02-.01-.04-.02-.06-.03-.01,0-.02,0-.04,0-.08,0-.15-.02-.23-.03,0,0,0,0,0,0,.04,0,.07,0,.11.01-.07,0-.14-.01-.21,0,.03,0,.05,0,.08-.01-.17.03-.37.02-.52-.08-.11-.07-.19-.16-.26-.26-.09-.14-.11-.31-.09-.47,0-.1.03-.19.09-.27.04-.05.08-.1.11-.15.04-.04.08-.08.12-.11.09-.07.18-.15.28-.2.08-.04.17-.09.26-.11.09-.02.2-.03.3-.04.05,0,.11,0,.16,0,.12.01.26.03.38.06.12.04.24.09.35.15.02.01.05.03.07.04.08.05.17.11.23.18.24.23.34.59.24.91Z"/>
    <path class="cls-1" d="m167.02,142.5c-.21-.19-.45-.3-.74-.31-.34-.01-.69,0-1.03.08-.12.03-.24.06-.37.09-.06.01-.12.03-.18.05-.15.05-.22.1-.33.18-.12.07-.21.16-.28.28-.07.12-.1.25-.11.39,0,.29.15.51.38.67.11.08.19.13.33.18.05.02.11.03.17.04.13.03.25.06.38.08.21.04.41.07.62.07.14,0,.27,0,.41,0,.28-.02.54-.11.74-.31.18-.18.32-.48.31-.74-.01-.27-.1-.55-.31-.74Z"/>
    <path class="cls-5" d="m193.73,144.24c-.11-.61-.44-1.2-.79-1.7-.73-1.05-1.65-1.91-2.73-2.61-.44-.29-.91-.54-1.39-.75-.61-.27-1.24-.55-1.9-.69-1-.2-2.01-.13-2.84.51-.84.65-1.34,1.73-1.05,2.8.26.97,1.02,1.58,1.79,2.16.04.03.08.05.12.08.04.06.08.13.12.19.77,1.01,1.72,1.89,2.88,2.43.58.27,1.17.51,1.8.63.74.14,1.61.24,2.34-.03,1.3-.48,1.89-1.68,1.65-3.02Z"/>
    <path class="cls-5" d="m198.3,150.29c-.04-.17-.12-.32-.21-.46,0,0,0,0,0,0-.01-.02-.02-.04-.04-.06-.02-.03-.05-.07-.07-.1-.02-.02-.03-.04-.04-.06,0,0,0,0-.01-.01-.01-.02-.02-.03-.04-.05-.09-.15-.21-.27-.36-.36-.06-.06-.13-.12-.21-.16-.06-.04-.14-.05-.2-.08-.03-.02-.06-.05-.1-.08-.02-.01-.04-.03-.07-.04-.14-.07-.3-.13-.45-.19-.05-.02-.1-.03-.15-.04-.14-.02-.28-.04-.41-.06-.21,0-.42.04-.6.13-.13.04-.25.1-.34.2-.17.11-.3.26-.4.44-.05.12-.1.25-.16.37-.02.14-.04.28-.06.41,0,.08,0,.15.02.23-.03.13-.05.27-.05.41,0,0,0,0,0,.01.02.18.05.35.07.53.07.16.13.32.2.47,0,0,0,.01,0,.02,0,.02.02.04.03.06.1.13.21.27.31.4.13.1.27.21.4.31.16.07.32.13.48.2.26.08.53.09.79.04.18,0,.35-.05.5-.14.17-.05.32-.13.44-.26.15-.09.27-.21.36-.36.18-.19.3-.42.36-.68h0c.1-.36.1-.72,0-1.07Z"/>
    <path class="cls-5" d="m163.04,131.67c-.03-.11-.07-.18-.11-.29-.11-.26-.1-.24-.27-.46-.21-.27-.22-.28-.56-.52-.03-.02-.05-.03-.08-.05-.1-.05-.34-.15-.44-.19-.01,0-.03-.01-.04-.02-.1-.03-.22-.04-.32-.05-.11-.01-.23-.04-.34-.04-.03,0-.07,0-.1,0-.17.02-.36.04-.53.07-.08.02-.16.04-.23.07-.27.11-.56.21-.8.39-.14.1-.28.21-.41.32-.14.12-.24.27-.34.43-.04.07-.08.14-.11.21-.08.19-.18.39-.23.59-.02.07-.01.14-.02.21-.11.25-.18.52-.19.8,0,.36.09.7.27,1.01.18.3.42.54.72.71.31.18.65.27,1.01.27.25-.02.49-.05.73-.1.08-.02.15-.04.23-.07.22-.09.45-.17.65-.29.2-.11.38-.27.56-.42.24-.19.43-.45.61-.7.04-.06.08-.12.11-.19.2-.4.3-.69.32-1.13.01-.19-.02-.41-.07-.58Z"/>
    <path class="cls-5" d="m205.17,173.19c-.03.25-.07.49-.17.73-.12.29-.23.58-.41.84-.11.2-.25.35-.43.47-.16.15-.35.25-.57.3-.3.07-.6.07-.89,0-.22-.05-.41-.15-.57-.3-.13-.07-.23-.17-.3-.3-.15-.16-.25-.35-.3-.57-.02-.15-.04-.3-.06-.45.03-.25.05-.52.14-.76,0-.02,0-.04,0-.06-.02-.07-.03-.13-.02-.2,0-.05,0-.1.02-.14.03-.22.05-.44.11-.65.06-.22.16-.42.25-.63.04-.1.1-.2.15-.29.3-.47.79-.78,1.36-.78s1.07.3,1.36.78c.08.14.14.28.2.43.04.1.09.19.11.3.03.18.05.36.07.54.03.25,0,.49-.04.74Z"/>
    <path class="cls-5" d="m205.54,188.54c0,.3-.08.57-.22.83-.12.24-.41.51-.64.64-.28.16-.57.22-.9.23-.29,0-.57-.07-.82-.22-.11-.08-.22-.17-.33-.25-.16-.15-.27-.32-.34-.52-.1-.19-.15-.4-.14-.63,0-.15.06-.45.06-.46.07-.27.21-.52.41-.72.16-.16.24-.21.36-.27.01,0,.02-.02.04-.03.13-.07.37-.17.42-.18.87-.12,1.49.13,1.86.75,0,0,0,0,0,0,.15.26.22.53.22.83Z"/>
    <path class="cls-6" d="m143.78,168.46c-.26-.5-.95-.76-1.49-.6-.47.14-.77.4-1.02.81-.09.14-.17.29-.26.44-.23.4-.45.8-.59,1.24-.1.33-.2.66-.28.99-.04.17-.09.33-.12.5-.06.33-.09.64,0,.97.06.2.15.37.25.55.24.42.66.67,1.13.74.52.07.9-.1,1.29-.42.31-.26.52-.61.62-1,.04-.17.07-.34.11-.5.07-.31.15-.62.24-.93.09-.31.12-.63.18-.94.03-.17.07-.34.1-.5.04-.17.08-.34.08-.52,0-.3-.1-.54-.24-.8Z"/>
    <path class="cls-6" d="m193.34,192.41c-.2-.32-.5-.59-.88-.68-.21-.05-.41-.06-.62-.05-.28.02-.55.08-.8.22,0,0,0,0,0,0-.01,0-.03,0-.04.01-.22.07-.36.15-.5.26-.09.07-.18.13-.28.17-.18.11-.33.25-.44.44-.09.14-.14.29-.14.45-.04.16-.03.32.02.49.06.21.16.39.31.54.15.14.32.27.49.39.05.03.09.06.14.08.18.11.37.17.57.18.08.01.15.02.23.03.03,0,.07,0,.1,0,.24-.03.51-.05.75-.13.26-.08.55-.22.73-.43.1-.11.21-.26.28-.36.11-.14.19-.3.23-.48.08-.37.07-.8-.15-1.13Z"/>
    <path class="cls-6" d="m160.33,190.93c-.03-.28-.04-.57-.13-.84-.06-.2-.1-.4-.13-.6-.01-.15-.02-.31-.06-.46-.03-.13-.09-.25-.13-.37-.04-.15-.07-.29-.13-.43-.21-.49-.69-.72-1.2-.61-.54.11-.99.9-1.15,1.41-.08.24-.08.58-.09.84,0,.19,0,.38,0,.57.02.19.03.4.07.58.05.19.15.38.24.55.08.16.17.31.27.46.05.07.1.14.15.21.24.32.46.5.82.64.13.05.26.08.4.12.41.1.96-.13,1.04-.59.04-.24.14-.48.14-.73,0-.26-.07-.51-.11-.76Z"/>
    <path class="cls-6" d="m197.1,166.89c-.06-.47-.34-1.05-.82-1.25-.05-.02-.08-.04-.12-.07.12.09.25.19.37.28-.16-.14-.33-.28-.52-.39-.2-.12-.48-.19-.7-.28-.38-.15-.75-.23-1.16-.28-.64-.07-1.27,0-1.9.09-.59.09-1.18.24-1.69.56-.33.21-.72.45-.93.78-.26.41-.3,1.08.08,1.44.29.28.61.44,1.01.46.21,0,.41,0,.61.02.34.03.68.03,1.02.05.5.09.97.25,1.46.4.25.07.48.18.72.25.51.15,1.12.05,1.57-.21.18-.1.38-.25.51-.41.35-.44.55-.86.47-1.44Z"/>
    <path class="cls-6" d="m140.3,142.41c-.06.08-.13.17-.19.25.02-.03.05-.05.07-.08.04-.06.08-.12.12-.18Z"/>
    <path class="cls-6" d="m140.1,142.66s0,0,0,0c0,0,0,.01-.01.02,0,0,0-.01.01-.02Z"/>
    <path class="cls-6" d="m140.73,139.84c0-.14,0-.28.02-.42-.01.1-.03.19-.04.29.04-.28.06-.51-.05-.77-.03-.08-.06-.12-.1-.19-.06-.1-.11-.19-.22-.26-.09-.06-.2-.1-.3-.13-.36-.11-.71-.02-1.03.17-.21.12-.39.27-.58.42-.21.17-.35.41-.47.65-.3.61-.56,1.28-.36,1.97.08.26.18.52.3.76.15.29.45.51.73.66.52.27,1.11.13,1.46-.32.16-.21.31-.39.38-.65.02-.07.03-.13.04-.2.07-.26.15-.46.16-.76,0-.26-.02-.51.01-.77.02-.15.03-.29.03-.44Z"/>
    <path class="cls-4" d="m121.35,179.02c.01.09.02.18.04.27-.04-.28-.05-.56-.04-.84,0-.27-.26-.44-.5-.38-.3.07-.59.16-.87.28-.1.04-.21.08-.31.14-.22.14-.36.33-.51.54-.11.14-.21.29-.3.45-.09.14-.17.29-.24.44-.11.22-.21.44-.25.69-.02.15-.03.28-.03.42,0,.31.02.62.14.91.1.24.28.46.49.62.31.25.73.37,1.09.14.08-.05.16-.1.23-.15.31-.2.46-.44.59-.76,0,.01-.01.03-.02.04,0-.02.01-.03.02-.05,0-.02.02-.03.03-.05.01-.03.02-.06.03-.09.1-.21.19-.43.23-.66.02-.12.03-.24.04-.36.03-.18.06-.35.1-.52.02-.1.05-.19.08-.29.07-.28.02-.52-.02-.79Z"/>
    <path class="cls-4" d="m137.3,207.04c-.09-.25-.17-.5-.22-.76-.07-.33-.22-.63-.36-.93-.08-.21-.15-.42-.27-.6-.08-.13-.17-.25-.24-.38-.13-.21-.23-.44-.33-.66-.05-.12-.1-.24-.16-.35-.05-.09-.12-.18-.17-.26-.1-.17-.2-.34-.29-.51-.15-.29-.45-.51-.74-.63-.31-.13-.68-.18-1-.08-.25.08-.48.22-.68.4-.31.28-.41.69-.45,1.09-.05.55-.06,1.14.13,1.66.19.52.41,1.04.69,1.52.17.3.4.55.66.77.35.3.69.59,1.14.74.43.15.88.21,1.33.27.62.08,1.18-.71.97-1.28Z"/>
    <path class="cls-4" d="m156.45,214.76s-.09-.08-.13-.13c-.02-.02-.04-.05-.07-.07-.16-.17-.31-.21-.52-.3.09.04.17.07.25.11-.12-.05-.23-.11-.34-.17-.11-.06-.19-.12-.33-.15-.11-.03-.24-.04-.35-.04-.1-.02-.21-.04-.31-.06-.16-.03-.32-.04-.48,0-.19.05-.35.17-.47.32-.22.29-.24.67-.07,1,.06.12.18.25.26.35.04.05.08.1.13.15.21.24.46.44.78.51.22.05.46.09.69.1.28.01.56-.13.8-.27.46-.26.58-.97.17-1.33Z"/>
    <path class="cls-4" d="m182.51,209.2s-.02-.06-.03-.08c-.05-.14-.11-.29-.22-.39-.12-.11-.24-.16-.39-.23.07.03.14.06.21.09-.22-.1-.41-.21-.67-.19-.14,0-.28.03-.42.07-.25.06-.45.2-.64.36.08-.06.16-.13.25-.19-.13.1-.26.18-.4.26-.07.04-.13.06-.2.1-.06.03-.11.08-.16.12-.16.12-.34.22-.52.32,0,0,0,0,0,0-.05.02-.1.03-.15.05-.1.03-.2.05-.31.07-.19.03-.34.24-.36.42-.03.22.07.38.24.5.26.2.54.33.85.45.4.15.87.24,1.29.15.13-.03.26-.07.39-.11.31-.11.6-.23.85-.46.34-.32.52-.85.39-1.3Z"/>
    <path class="cls-4" d="m125.39,158.14c-.02-.07-.05-.14-.08-.21-.06-.15-.14-.3-.29-.38-.14-.08-.33-.12-.49-.06-.06.02-.12.04-.17.06-.14.05-.26.11-.37.22-.06.06-.12.14-.17.21-.03.04-.06.08-.08.12-.06.08-.11.16-.17.23-.03.04-.06.08-.08.12-.11.18-.14.37-.16.57-.03.23-.09.48-.02.7.06.22.32.58.58.58.04,0,.08,0,.12,0,.25,0,.47-.08.64-.26.12-.12.23-.25.34-.37.14-.15.23-.29.28-.5.01-.05.02-.09.03-.14l.06-.24c.05-.21.11-.44.04-.66Z"/>
    <path class="cls-6" d="m168.07,160.34s0,.02,0,.03c0,.07-.07.59-.09.66,0,0,0,.02,0,.03-.02.07-.22.53-.25.6,0,0-.01.02-.02.03-.13.16-.25.33-.38.49,0,0,0,.01-.01.02,0,0-.02.02-.02.02-.06.06-.43.35-.51.4,0,0-.02.01-.03.02-.2.13-.43.2-.66.28-.26.09-.55.11-.82.12-.03,0-.05,0-.08,0-.24-.03-.47-.06-.71-.1-.12-.02-.23-.06-.34-.14-.23-.06-.42-.18-.59-.34-.1-.07-.2-.14-.28-.22-.02-.02-.04-.05-.06-.07-.09-.11-.21-.26-.31-.4-.04-.03-.08-.06-.11-.09-.03-.03-.06-.05-.09-.08-.31-.31-.36-.44-.51-.79-.05-.13-.12-.24-.14-.37-.08-.48-.12-.8,0-1.29.03-.1.1-.25.12-.3-.01.04.08-.21.13-.29.1-.16.4-.52.37-.49.16-.17.35-.31.55-.43.01,0,.03-.02.05-.02.14-.07.4-.18.55-.23.02,0,.05-.02.07-.02.03,0,.06-.01.09-.02.22-.03.44-.07.66-.09.07,0,.13,0,.2,0,.25.02.51.05.76.1.07.01.13.03.2.06.24.09.49.19.72.31.24.12.47.33.66.48.13.11.21.23.32.37.08.11.18.21.24.33.08.18.16.37.23.55,0,0,0,.01,0,.02,0,.01,0,.03.01.04.02.11.04.22.05.33.01.1.03.21.04.31,0,.02,0,.04,0,.06,0,.03,0,.08-.01.14Z"/>
    <path class="cls-6" d="m172.98,154.43c0-.2-.07-.38-.17-.55-.08-.1-.15-.2-.23-.3-.18-.18-.4-.31-.65-.38-.06,0-.13-.02-.19-.03-.34-.05-.57-.11-.91,0-.14.05-.3.12-.44.18-.04.02-.09.04-.13.06-.04.02-.08.04-.12.05-.16.07-.21.1-.4.29-.18.18-.41.51-.46.78-.01.07-.02.14-.03.21-.06.2-.07.4-.03.6,0,.2.07.38.18.55.08.1.16.2.23.3.19.19.41.31.66.38.06.02.12.04.19.06.23.07.46.08.68.03.09,0,.17-.01.25-.04.14-.06.27-.12.41-.17.12-.09.24-.18.36-.28.04-.03.07-.06.11-.09.03-.03.07-.05.1-.08.02-.02.04-.03.06-.05.09-.11.17-.23.26-.34.06-.14.12-.28.18-.42.02-.07.04-.14.06-.2.06-.2.07-.39.03-.59Z"/>
    <path class="cls-6" d="m176.13,183.07c-.32-.5-.77-.85-1.32-1.06.08.03.15.06.23.1-.33-.15-.64-.32-.96-.46l-1.02-.46c-.69-.31-1.39-.62-2.08-.93-.2-.08-.39-.16-.59-.25-.33-.1-.65-.12-.98-.04-.52.07-1.05.28-1.41.68-.74.81-.95,2-.38,2.97.62,1.07,1.48,1.92,2.5,2.61.32.21.7.34,1.06.48.19.07.38.14.58.19.21.06.43.1.64.13.21.03.44.09.65.09.37,0,.78-.11,1.1-.3.03-.02.06-.05.09-.08.03,0,.06,0,.09,0,.33-.01.63-.11.92-.29.51-.3,1-.89,1.13-1.47.14-.63.11-1.34-.25-1.9Z"/>
    <path class="cls-6" d="m181.13,179.68c-.18-.31-.53-.56-.87-.65-.38-.1-.78-.04-1.12.15-.02.01-.04.03-.06.04-.04.03-.09.05-.13.08-.17.09-.3.21-.4.37-.13.14-.21.3-.26.49-.06.19-.07.38-.03.57,0,.19.07.37.17.53.07.1.15.19.22.29.18.18.39.3.63.37.13.02.25.03.38.05.26,0,.5-.07.72-.2.04-.03.09-.05.13-.08.02-.01.04-.03.06-.04.33-.2.57-.49.67-.87.1-.35.06-.79-.13-1.11Z"/>
  </g>
  <g>
    <path class="cls-4" d="m47.62,123.49c-1.52,4.31-4.19,6.85-7.16,10.17-2.47,2.76-2.38,5.13-2.87,8.63-.27,1.94-1.04,2.67-1.72,4.41-1.4,3.59,1.31,9.02,1.77,13.04.43,3.84,1.4,5.5,4.12,8.01,1.58,1.46,3.07,2.9,4.11,4.81,1.23,2.25,1.32,4.06,3.64,5.67,1.77,1.23,3.61,1.87,5.24,3.42,4.07,3.86,5.8,9.66,10.5,12.83.72.49,1.48.91,2.23,1.32,1.67-1.94,3.03-4.16,4.19-6.43,2.41-4.7,5.1-9.91,5.43-15.27.18-2.87-.94-5.55-1.02-8.4-.09-3.07-.32-6.07-.95-9.09-.62-2.96-1.49-5.86-2.41-8.74-.94-2.92-1.8-5.96-3.33-8.64-2.24-3.94-6.66-6.29-9.77-9.69-3.85-4.2-5.96-7.33-10.85-10.36-.31,1.45-.67,2.89-1.16,4.29Z"/>
    <path class="cls-6" d="m47.62,123.49c-1.52,4.31-4.19,6.85-7.16,10.17-1.17,1.31-1.76,2.54-2.11,3.83,1.27,2.05,2.44,4.16,3.47,6.35.95,2.02,1.8,4.18,1.74,6.42-.04,1.71-.6,3.36-.86,5.05-.77,5.09,1.27,10.29,1.88,15.37.47.59.92,1.2,1.3,1.89,1.23,2.25,1.32,4.06,3.64,5.67,1.77,1.23,3.61,1.87,5.24,3.42,4.07,3.86,5.8,9.66,10.5,12.83.72.49,1.48.91,2.23,1.32,1.67-1.94,3.03-4.16,4.19-6.43,2.41-4.7,5.1-9.91,5.43-15.27.18-2.87-.94-5.55-1.02-8.4-.09-3.07-.32-6.07-.95-9.09-.62-2.96-1.49-5.86-2.41-8.74-.94-2.92-1.8-5.96-3.32-8.64-2.24-3.94-6.66-6.29-9.77-9.69-3.85-4.2-5.96-7.33-10.85-10.36-.31,1.45-.67,2.89-1.16,4.29Z"/>
    <path class="cls-7" d="m47.62,123.49c-.4,1.13-.88,2.14-1.43,3.07,6,4.53,11.79,9.38,16.02,15.54,2.06,3.01,3.77,6.6,3.14,10.19-.22,1.24-.72,2.45-.73,3.71-.02,1.71.84,3.28,1.47,4.87,2.34,5.88,1.55,12.91-2.03,18.13-1.17,1.71-2.63,3.24-3.61,5.07-.56,1.04-.96,2.16-1.31,3.29,1.73,2.67,3.45,5.33,6.13,7.13.72.49,1.48.91,2.23,1.32,1.67-1.94,3.03-4.16,4.19-6.43,2.41-4.7,5.1-9.91,5.43-15.27.18-2.87-.94-5.55-1.02-8.4-.09-3.07-.32-6.07-.95-9.09-.62-2.96-1.49-5.86-2.41-8.74-.94-2.92-1.8-5.96-3.32-8.64-2.24-3.94-6.66-6.29-9.77-9.69-3.85-4.2-5.96-7.33-10.85-10.36-.31,1.45-.67,2.89-1.16,4.29Z"/>
    <path class="cls-6" d="m36.05,153.03c.06-.05.13-.09.18-.15.3-.29.5-.63.61-1.02.17-.36.25-.75.23-1.16,0-.42-.09-.81-.28-1.18-.14-.4-.37-.74-.69-1.03-.17-.16-.37-.29-.57-.41-.19,1.5.1,3.21.51,4.94Z"/>
    <path class="cls-3" d="m48.52,161.45c-.38.73-.45,1.53-.25,2.32.14.55.49,1.13.91,1.51.43.39.98.69,1.55.81.36.08.74.11,1.12.11.35,0,.63-.06.92-.17.17.02.34.06.51.06.6-.01,1.16-.17,1.67-.48.23-.19.46-.37.69-.56.4-.43.67-.93.81-1.5.12-.43.13-.85.03-1.27-.03-.45-.17-.86-.42-1.25-.31-.51-.73-.91-1.26-1.2-.51-.27-1.06-.41-1.64-.4-.21-.01-.45.02-.68.08-.2.03-.4.06-.58.13-.08.01-.16.02-.24.04-.15.03-.3.07-.45.11-.24.03-.48.07-.71.12-.82.2-1.59.79-1.98,1.54Z"/>
    <path class="cls-3" d="m43.47,141.49s-.06.05-.1.08c-.12.08-.25.17-.46.39-.24.26-.39.49-.51.75,0,0,0,0,0,.01-.03.05-.07.09-.1.14-.22.42-.33.87-.33,1.34.01.49.14.95.4,1.37.26.42.6.75,1.03.98.02.01.04.03.07.04.01,0,.02,0,.03.01.2.08.48.2.69.26.03,0,.05.02.08.02.01,0,.02,0,.03,0,.18.03.58.07.76.09.01,0,.03,0,.04,0,.13,0,.26-.01.39-.06.27,0,.52-.08.75-.22.48-.21.29-.09.7-.42.13-.11.24-.16.33-.28.01-.01.02-.02.03-.04.14-.18.34-.45.46-.64.02-.03.04-.06.05-.09,0-.01.01-.03.02-.04,0,0,0-.02,0-.02.09-.23.18-.47.27-.7,0,0,0-.01,0-.02.03-.25.06-.5.08-.74,0,0,0-.01,0-.02v-.07s0-.04.01-.06c.08-.3.09-.59.02-.89,0-.21-.06-.4-.17-.58-.1-.3-.27-.56-.52-.77-.16-.12-.33-.24-.49-.35-.36-.19-.74-.28-1.15-.28-.28.04-.57.07-.85.14-.4.01-.58.1-.95.26-.26.07-.48.21-.66.4Z"/>
    <path class="cls-2" d="m53.15,159.43c-.21-.01-.45.02-.68.08-.05,0-.09.02-.13.03.62.49,1.14,1.07,1.39,1.81.42,1.26-.06,2.69-.95,3.68-.4.45-.87.81-1.38,1.13.14.01.28.04.43.04.35,0,.63-.06.92-.17.17.02.34.06.51.06.6-.01,1.16-.17,1.67-.48.23-.19.46-.37.69-.56.4-.43.67-.93.81-1.5.12-.43.13-.85.03-1.27-.03-.45-.17-.86-.42-1.25-.31-.51-.73-.91-1.26-1.2-.51-.27-1.06-.41-1.64-.4Z"/>
    <path class="cls-2" d="m46.37,143.02c.03,1.33-.62,2.58-1.43,3.63-.08.1-.16.19-.24.29.15.02.29.03.38.04.01,0,.03,0,.04,0,.13,0,.26-.01.39-.06.27,0,.52-.08.75-.22.48-.21.29-.09.7-.42.13-.11.24-.16.33-.28.01-.01.02-.02.03-.04.14-.18.34-.45.46-.64.02-.03.04-.06.05-.09,0-.01.01-.03.02-.04,0,0,0-.02,0-.02.09-.23.18-.47.27-.7,0,0,0-.01,0-.02.03-.25.06-.5.08-.74,0,0,0-.01,0-.02v-.07s0-.04.01-.06c.08-.3.09-.59.02-.89,0-.21-.06-.4-.17-.58-.1-.3-.27-.56-.52-.77-.16-.12-.33-.24-.49-.35-.36-.19-.74-.28-1.15-.28-.16.02-.33.05-.49.08.57.58.91,1.43.93,2.25Z"/>
    <path class="cls-1" d="m49.66,162.51s-.09.1-.11.16c-.04.09-.08.19-.1.29,0,0,0,.02,0,.03,0,0,0,.01,0,.02,0,.03,0,.07-.01.1-.02.06-.01.13,0,.19,0,.06.01.1.03.15.03.08.06.15.1.23,0,.02.02.04.03.05.04.05.08.1.12.14.05.03.1.07.14.1.05.02.11.04.16.06.09.02.17.03.26,0,.06,0,.12-.02.17-.05.06-.02.11-.05.16-.09.05-.03.09-.08.12-.13.06-.07.1-.15.11-.24,0-.05.02-.1.04-.15,0,0,0-.01,0-.02.02-.06.02-.13.02-.19,0-.01,0-.03,0-.04,0-.02,0-.03,0-.05,0-.03.01-.07.01-.09,0-.1-.02-.19-.07-.27,0-.04-.02-.07-.04-.09-.01-.01-.02-.03-.03-.04-.04-.04-.07-.09-.11-.13-.06-.06-.13-.1-.21-.13-.05-.03-.1-.04-.16-.04-.08-.02-.17-.01-.25.02-.01,0-.03,0-.04,0,0,0-.01,0-.02,0-.06.03-.12.05-.18.08-.05.04-.1.08-.15.12Z"/>
    <path class="cls-1" d="m42.92,143.99c-.05.09-.07.18-.07.29,0,.08.01.16.03.25,0,.08.03.15.07.22.02.05.06.09.1.13,0,0,0,0,0,.01,0,0,.01.02.02.03.01.02.03.03.04.05.06.06.14.1.22.12.06.02.12.02.19,0,.07,0,.13-.02.18-.06.07-.05.13-.11.18-.18.01-.02.03-.04.04-.06,0,0,.01-.02.02-.03,0,0,0-.01.01-.02.02-.05.04-.09.05-.14.02-.05.02-.1.02-.15,0-.06,0-.11-.01-.17,0-.08-.02-.15-.05-.22-.03-.07-.07-.14-.13-.19-.05-.06-.12-.09-.19-.11-.07-.03-.14-.05-.22-.04-.05,0-.1.01-.15.02-.1.03-.19.08-.26.16-.03.04-.06.08-.09.12Z"/>
    <path class="cls-4" d="m58.92,167.45c-.16.2-.33.39-.52.57-.24.23-.41.5-.6.77-.13.17-.27.34-.37.53-.07.13-.13.27-.2.4-.11.21-.25.41-.38.61-.08.1-.15.2-.21.31-.05.09-.09.19-.13.28-.09.17-.18.34-.28.5-.17.27-.2.63-.15.93.05.32.19.66.44.88.2.17.42.29.67.37.39.11.79,0,1.14-.18.49-.24.98-.53,1.32-.95.34-.42.66-.87.92-1.34.16-.3.26-.61.31-.94.07-.45.14-.88.04-1.32-.09-.43-.27-.84-.45-1.25-.25-.56-1.19-.63-1.56-.16Z"/>
    <path class="cls-4" d="m55.66,147.55c-.01.06-.02.12-.04.18,0,.03-.02.06-.03.09-.06.22-.02.36.01.58-.01-.09-.03-.18-.04-.27.02.12.03.25.03.37,0,.12,0,.22.04.36.04.11.09.22.14.32.04.1.07.2.11.29.06.15.13.29.24.4.14.13.32.2.51.23.36.04.69-.14.87-.45.07-.12.12-.27.16-.39.02-.06.04-.12.06-.18.09-.3.13-.6.03-.91-.07-.21-.16-.42-.27-.62-.13-.24-.39-.4-.63-.53-.45-.25-1.1,0-1.2.53Z"/>
    <path class="cls-4" d="m47.46,184.57c-.25.26-.41.57-.5.92-.02.17-.04.35-.06.52,0,.37.11.71.3,1.03.2.28.43.58.69.81.19.17.41.31.62.45.08.05.16.1.24.14.04.02.08.04.12.06,0,0,.02,0,.02.01.23.14.48.21.74.21.16.02.19.04.31.02.23-.03.48-.05.71-.11.02,0,.04-.01.07-.02h.02c.15-.07.3-.14.45-.2.07-.05.14-.11.2-.16.2-.13.35-.31.46-.53,0,0,0-.01.01-.02,0-.01.01-.03.02-.04.19-.37.25-.78.14-1.18,0-.02-.01-.04-.01-.06-.06-.28-.19-.48-.36-.69-.1-.12-.21-.24-.31-.36-.03-.04-.06-.07-.09-.11-.14-.1-.28-.2-.42-.31-.03-.01-.05-.03-.08-.04-.05-.05-.1-.09-.15-.14-.12-.18-.27-.33-.46-.44-.2-.17-.44-.29-.7-.34-.26-.07-.52-.08-.78-.02-.27.02-.53.1-.76.26l-.43.34Z"/>
    <path class="cls-4" d="m42.93,179.93c-.11.22-.17.44-.17.69,0,.41.22.82.55,1.07,0,0,0,0,0,0,.02.01.04.03.05.04,0,0,0,0,0,0,.07.08.13.16.2.25.15.15.32.25.51.31.12.06.25.09.38.09.2.04.4.03.6-.04.07-.03.13-.05.19-.08.2-.07.37-.18.51-.34,0,0,0,0,0,0,.15-.15.25-.32.31-.51.09-.18.13-.37.12-.58-.02-.13-.04-.27-.06-.4-.08-.27-.22-.51-.43-.71-.29-.26-.56-.4-.93-.52-.02,0-.05-.01-.07-.02-.13-.02-.27-.05-.4-.05-.07,0-.32.04-.39.06,0,0-.01,0-.01,0-.02,0-.04.01-.06.02,0,0,0,0-.02,0-.1.04-.26.11-.36.16,0,0-.02,0-.03.02-.22.13-.38.31-.5.53Z"/>
    <path class="cls-4" d="m31.17,179.74c-.12.5-.01,1.03.28,1.44.25.35.52.65.92.81.24.09.5.21.75.28.29.09.54.06.82.02.37-.05.74-.1,1.1-.2.33-.09.64-.24.93-.42.25-.16.48-.34.62-.62.03-.06.06-.13.09-.2.08-.18.12-.34.09-.53-.03-.2-.12-.33-.24-.49l.1.12s-.06-.08-.09-.11c-.15-.2-.29-.35-.51-.47-.04-.02-.08-.04-.13-.06-.08-.04-.16-.08-.23-.13-.19-.11-.41-.17-.62-.25.13.05.26.1.39.15-.22-.08-.43-.18-.64-.29-.24-.13-.47-.29-.74-.33-.11-.02-.22-.03-.33-.04-.21-.03-.41-.08-.63-.08-.27,0-.4.04-.6.11-.18.07-.36.12-.54.23-.39.24-.68.63-.79,1.07Z"/>
    <path class="cls-4" d="m30,161.43c-.13.15-.21.32-.25.51l-.03.08s0,.02-.01.04c0,0,0,.02,0,.03-.01.13-.03.26-.04.39.02.13.04.26.06.39.05.13.11.25.16.37,0,.01.01.02.02.04.01.02.02.04.03.07.05.09.09.17.14.26.12.2.29.35.49.47.2.11.41.16.64.16.47,0,.89-.27,1.12-.68.05-.09.1-.18.15-.27l.03-.06s.01-.02.02-.04c.03-.06.06-.12.07-.19.06-.12.09-.24.09-.38.02-.07.03-.14.02-.21-.02-.13-.04-.26-.06-.39,0-.01,0-.02-.01-.04,0-.03-.02-.06-.03-.09-.05-.12-.11-.24-.16-.36-.1-.18-.23-.32-.41-.42-.1-.09-.21-.15-.33-.18-.17-.08-.36-.12-.55-.11-.13.02-.25.04-.38.06-.12.05-.24.11-.36.16-.18.1-.32.23-.42.41Z"/>
    <path class="cls-4" d="m58.12,196.58c-.04.19-.04.37.01.56.06.19.16.36.3.5.1.12.21.24.31.36.05.06.11.12.16.19.15.19.37.28.6.36.08.03.15.06.22.1.15.1.31.19.5.24.26.04.52.07.78-.01.12-.05.25-.11.37-.16.11-.09.21-.17.32-.26.18-.2.31-.43.37-.69.06-.26.06-.52-.01-.78-.02-.06-.14-.33-.17-.38,0,0,0,0,0-.01-.07-.12-.17-.24-.28-.34-.11-.09-.23-.17-.35-.25-.01,0-.03-.02-.04-.03-.08-.05-.16-.08-.24-.11-.17-.07-.34-.13-.51-.2-.03,0-.05-.02-.08-.03-.28-.1-.57-.05-.84,0-.1.02-.21.05-.31.07-.11.03-.23.05-.34.08-.37.09-.67.43-.76.79Z"/>
    <path class="cls-4" d="m20,147.06l-.09.24c-.08.21-.2.45-.25.64-.06.23-.07.42-.06.64,0,.17.01.34.03.51,0,.27.05.51.18.74.09.25.23.47.44.65.02.01.03.02.05.04.01,0,.02.02.03.03.12.09.24.18.36.26.26.14.53.2.82.2.04,0,.07,0,.11,0,.58.04,1.09-.31,1.49-.69.25-.24.54-.48.68-.8.03-.08.06-.16.09-.24.02-.04.03-.09.05-.13.07-.19.15-.38.22-.57.02-.19.04-.38.06-.57.01-.41-.15-.89-.39-1.22,0-.01-.02-.03-.03-.04-.13-.24-.32-.43-.55-.57-.26-.19-.3-.24-.69-.34-.39-.1-.76-.04-1.14.04-.11.02-.2.06-.29.12-.1.04-.2.08-.3.13-.32.18-.69.56-.82.9Z"/>
    <path class="cls-4" d="m28.4,139.67c.12-.03.25-.05.37-.05.02,0,.04,0,.06,0,.24.02.42.04.64.16.42.22.64.66.8,1.07.01.03.02.06.03.1,0,.02,0,.03.01.05.02.06.03.13.03.19.04.17.04.35-.01.52-.06.25-.19.47-.37.65-.05.05-.1.09-.16.14-.13.12-.28.21-.46.25-.11.03-.22.05-.34.05-.11,0-.22,0-.33-.04-.17-.03-.32-.11-.45-.22-.15-.09-.27-.21-.36-.37,0,0,0-.01-.01-.02-.05-.08-.07-.12-.12-.23-.09-.16-.13-.33-.13-.52,0-.08.02-.16.03-.24,0-.06,0-.13,0-.19,0,.03,0,.07.01.1,0-.01,0-.02,0-.03,0,0,0,0,0,0-.01-.1-.04-.2-.02-.31,0-.06,0-.11.02-.17,0,0,0-.01,0-.02,0,0,0,0,0-.01,0-.05-.04-.1-.03-.15.02-.14.07-.29.17-.39.16-.15.35-.28.57-.33Z"/>
    <path class="cls-4" d="m34.41,124.21c-.17.19-.35.39-.46.62-.06.09-.1.19-.12.31-.05.1-.09.21-.12.32,0,.02-.01.04-.02.06-.03.09-.05.18-.08.26-.09.39-.09.77.02,1.15.12.4.32.74.62,1.02.29.27.63.45,1.01.55.39.09.77.09,1.15-.02.09-.02.18-.04.27-.06.03,0,.05-.01.08-.02,0,0,.02,0,.03,0,.2-.09.41-.18.61-.27.05-.03.09-.07.14-.1.02-.02.04-.03.06-.05,0,0,.02-.01.02-.02.3-.17.54-.4.71-.69.1-.14.18-.24.25-.38.02-.04.05-.09.07-.13.01-.02.02-.04.03-.07.07-.19.15-.38.22-.57.04-.21.06-.42.07-.63,0-.32-.07-.62-.22-.9-.1-.31-.28-.57-.53-.78-.17-.12-.33-.24-.5-.36-.36-.19-.75-.29-1.17-.28-.11,0-.22,0-.33.04-.22,0-.42.06-.6.17-.12.05-.23.1-.35.15-.05.02-.09.04-.14.06-.3.13-.54.35-.76.59Z"/>
    <path class="cls-4" d="m42.26,116.96c.09-.09.19-.16.32-.19.11-.07.22-.1.35-.1.12-.03.24-.04.36,0,.12,0,.24.03.34.08.18.05.33.14.46.28.08.1.16.19.24.29.05.11.1.23.15.34.11.41.08.84-.12,1.22-.09.17-.22.31-.39.41-.09.04-.18.08-.27.12-.14.04-.28.05-.42.03-.01,0-.02,0-.03,0,0,0,0,0-.01,0,0,0,0,0,0,0-.02,0-.03-.01-.04-.01-.07,0-.15.03-.22.01-.12,0-.24-.03-.34-.08-.18-.05-.33-.14-.46-.28-.08-.1-.16-.19-.24-.29-.05-.11-.1-.23-.15-.34-.02-.12-.04-.24-.05-.36.01-.12.03-.24.04-.36.04-.11.09-.22.13-.33.08-.17.2-.31.36-.41Z"/>
    <path class="cls-4" d="m23.98,126.11c.76,1.25,2.71.07,1.95-1.18-.76-1.25-2.71-.07-1.95,1.18Z"/>
    <path class="cls-4" d="m21.59,167.89c-.06.07-.11.16-.13.26-.02.09-.02.2-.01.3,0,.08-.02.16-.03.24,0,0,0,0,0,.01,0,.02,0,.04,0,.07-.01.07-.02.13-.02.22,0,.05.01.1.02.15,0,0,0,0,0,.01-.04.07-.07.14-.11.2.01-.02.02-.03.04-.05-.06.08-.12.16-.14.26-.03.13-.01.26.04.38.02.05.04.1.08.14.03.05.07.08.11.11.1.07.23.13.36.12.18-.01.36-.04.54-.07.2-.04.38-.11.56-.21-.08.03-.15.07-.23.1.04-.02.09-.02.14-.04.1-.04.21-.08.31-.14.27-.14.47-.43.54-.72.03-.11.05-.3.03-.44-.01-.12-.03-.24-.05-.35,0-.03-.01-.05-.02-.08-.04-.09-.08-.18-.12-.27-.05-.09-.12-.17-.2-.24-.08-.06-.16-.11-.23-.17,0,0-.01,0-.02,0-.09-.05-.22-.09-.29-.12-.11-.04-.24-.04-.34-.05-.02,0-.03,0-.05,0-.08,0-.18.02-.26.04-.05.01-.1.04-.15.06-.05.02-.1.04-.15.07-.09.05-.16.12-.21.21Z"/>
  </g>
  <g>
    <path class="cls-4" d="m137.26,95.9c.83-2.33,3.97-3.43,5.73-4.95,1.73-1.5,2.73-3.35,3.53-5.32-2.53-.49-4.73-1.76-6.14-4-5.48.07-10.34-4.32-11.05-9.82-5.33-2.32-8.56-6.88-7.45-12.14-7.64-4.52-12.23-15.59-6.63-22.18-2.17-4.6,0-9.63,4.48-12.3.05-2.56,1.55-4.74,3.73-6.21-1.64-1.39-3.57-2.38-5.6-3.04-2.55-1.51-5.49-2.34-8.5-2.3-2.77.04-5.4,1.02-8.15,1.18-2.48.14-4.96-.36-7.43-.53-2.52-.16-5.08-.07-7.44.9-2.6,1.07-4.65,3-6.98,4.53-4.17,2.73-9.81,2.41-13.28,6.36-1.89,2.15-2.09,4.99-3.26,7.49-1.26,2.67-3.55,4.74-5.56,6.85-2.06,2.16-3.93,4.45-5.13,7.21-1.16,2.65-1.76,5.54-2.12,8.4-.66,5.17-1.4,10.91.1,15.99.8,2.72,2.73,4.83,3.77,7.44,1.12,2.82,2.34,5.52,3.93,8.11,1.57,2.54,3.35,4.94,5.18,7.3,1.85,2.39,3.67,4.92,5.99,6.89,3.4,2.91,8.29,3.6,12.32,5.7,5.22,2.73,8.23,5.01,14.32,6.13,6.49,1.19,15.67,2.34,21.78-.8,2.72-1.39,5.31-3.06,7.94-4.63,2.61-1.55,5.43-2.96,7.86-4.78,1.19-.9,2.24-1.98,2.91-3.33.65-1.32.69-2.79,1.17-4.15Z"/>
    <path class="cls-6" d="m116.51,103.29c-4.3-1.01-8.17-3.3-11.84-5.75-4.14-2.77-8.14-5.79-11.67-9.31-1.56-1.56-3.07-3.27-3.77-5.36-.54-1.6-.57-3.32-.9-4.98-1.44-7.15-8.31-12.55-8.76-19.83-.48-7.84,6.5-13.82,10.43-20.62,2.39-4.14,3.71-8.82,6.15-12.93,2.79-4.69,7.07-8.45,12.02-10.76-2.34.24-4.61.94-6.96,1.07-2.48.14-4.96-.36-7.43-.53-2.52-.16-5.08-.07-7.44.9-2.6,1.07-4.65,3-6.98,4.53-4.17,2.73-9.81,2.41-13.28,6.36-1.89,2.15-2.09,4.99-3.26,7.49-1.26,2.67-3.55,4.74-5.56,6.85-2.06,2.16-3.93,4.45-5.13,7.21-1.16,2.65-1.76,5.54-2.12,8.4-.66,5.17-1.4,10.91.1,15.99.8,2.72,2.73,4.83,3.77,7.44,1.12,2.82,2.34,5.52,3.93,8.11,1.57,2.54,3.35,4.94,5.18,7.3,1.85,2.39,3.67,4.92,5.99,6.89,3.4,2.91,8.29,3.6,12.32,5.7,5.22,2.73,8.23,5.01,14.32,6.13,6.49,1.19,15.67,2.34,21.78-.8,2.72-1.39,5.31-3.06,7.94-4.63,2.61-1.55,5.44-2.96,7.86-4.78.72-.54,1.37-1.16,1.93-1.85-6.2,1.87-12.39,3.21-18.6,1.76Z"/>
    <path class="cls-7" d="m117.38,112.8c1.12-.57,2.21-1.2,3.3-1.84-7.21.27-14.32-1.77-21.25-3.82-8.63-2.55-17.45-5.2-24.76-10.45-2.92-2.1-5.72-4.85-6.34-8.4-.21-1.23-.16-2.51-.57-3.68-.56-1.59-1.88-2.76-2.99-4.02-4.14-4.67-5.77-11.45-4.21-17.5.51-1.98,1.35-3.89,1.65-5.91.42-2.85-.23-5.77.03-8.64.46-4.95,3.58-9.23,6.89-12.95,7.75-8.69,17.2-15.84,27.64-21-1-.11-2-.23-3-.3-2.52-.16-5.08-.07-7.44.9-2.6,1.07-4.65,3-6.98,4.53-4.17,2.73-9.81,2.41-13.28,6.36-1.89,2.15-2.09,4.99-3.26,7.49-1.26,2.67-3.55,4.74-5.56,6.85-2.06,2.16-3.93,4.45-5.13,7.21-1.16,2.65-1.76,5.54-2.12,8.4-.66,5.17-1.4,10.91.1,15.99.8,2.72,2.73,4.83,3.77,7.44,1.12,2.82,2.34,5.52,3.93,8.11,1.57,2.54,3.35,4.94,5.18,7.3,1.85,2.39,3.67,4.92,5.99,6.89,3.4,2.91,8.29,3.6,12.32,5.7,5.22,2.73,8.23,5.01,14.32,6.13,6.49,1.19,15.67,2.34,21.78-.8Z"/>
    <path class="cls-6" d="m100.47,36.03c.49-.76.85-1.56,1.02-2.24.02-.08.04-.15.05-.23,0-.05,0-.1.01-.14.02-.26.03-.57.01-.82-.04-.68-.29-1.22-.64-1.78-.03-.05-.07-.1-.11-.15-.2-.23-.41-.48-.65-.67-1.87-1.4-4.62-1.81-6.4-.04-1.07,1.07-1.55,2.65-1.43,4.15.17,2.05,1.13,3.88,3.06,4.61,1.99.75,3.9-.87,5.07-2.7Z"/>
    <path class="cls-6" d="m95.92,62.49c-.08.13-.15.25-.23.38.27-.37.43-.79.49-1.26,0-.3.01-.59.02-.89,0-.02,0-.03-.01-.05-.02-.15-.08-.33-.1-.43,0,.03-.03-.16-.07-.31,0-.05,0-.11-.02-.16-.03-.13-.06-.29-.1-.46-.02-.07-.02-.14-.04-.21-.04-.37-.17-.7-.39-1-.23-.52-.57-.95-1.04-1.3-.32-.19-.65-.39-.97-.58-.35-.1-.7-.2-1.05-.3-.55-.1-1.08-.07-1.6.11-.55.08-1.04.3-1.49.64,0,0-.01,0-.02.01-.27.26-.55.52-.82.78-.01.01-.03.03-.04.04-.13.16-.28.46-.34.55-.1.17-.25.37-.33.57-.1.35-.2.71-.3,1.06,0,0,0,.01,0,.02-.1.55-.07,1.09.11,1.62.04.18.08.36.13.54,0,.03.02.05.03.08,0,.01.01.02.02.04v.02c.18.32.35.64.53.96.2.33.79.86.86.93.04.04.08.07.13.11.16.11.4.24.49.3.11.07.33.21.5.3.02.01.05.02.07.03.03.01.06.02.09.03.23.07.78.23,1.01.29.02,0,.03,0,.05.01.03,0,.05,0,.08.01.11,0,.23,0,.34,0h-.26c.17,0,.34.01.52,0,0,0,.01,0,.02,0,.15,0,.31,0,.46,0h-.45c.49.04.97-.03,1.43-.23.3-.16.59-.32.89-.48.01,0,.02-.02.03-.03.55-.42,1.16-1.08,1.38-1.75Z"/>
    <path class="cls-6" d="m107.55,52.42c.19-.16.38-.34.63-.59.05-.05.1-.11.14-.17.18-.26.35-.57.51-.84.02-.03.04-.07.06-.11.19-.38.31-.82.35-1.24.02-.17.01-.36.01-.52,0-.15.02-.35,0-.52-.02-.35-.13-.72-.24-1.04-.22-.57-.57-1.05-1.04-1.43-.48-.38-1.02-.62-1.63-.71-3.62-.54-5.74,4.4-3.69,6.97.3.37.67.64,1.12.82.29.08.58.16.87.25.6.09,1.19.02,1.76-.19.34-.16.58-.29.8-.43.09-.06.18-.12.26-.19.02-.02.05-.04.07-.06Z"/>
    <path class="cls-6" d="m122.8,71.2c1.27-2.97-3.97-6.5-6.54-5.11-.27.15-.55.29-.82.44-.41.28-.73.64-.95,1.07-.2.25-.33.54-.38.86-.17.44-.21.89-.14,1.36.07.3.14.59.21.89.23.6.6,1.11,1.1,1.52.31.29.73.49,1.1.68.11.06.22.1.34.14.51.17,1.02.34,1.56.36.35.01.78.05,1.16,0,.38-.05.75-.15,1.11-.25.12-.03.23-.08.34-.13.59-.26.99-.51,1.41-1.02.2-.25.34-.54.49-.81Z"/>
    <path class="cls-6" d="m128.04,89.98c.14-.3.2-.6.18-.92,0-.03,0-.05,0-.08.08-.28.16-.55.24-.83,0-.29.01-.58.02-.87-.02-.14-.17-.74-.21-.87-.21-.62-.38-.75-.76-1.15-.15-.16-.26-.29-.42-.42-.04-.03-.07-.05-.11-.08-.14-.1-.71-.46-.87-.52-.16-.05-.32-.1-.48-.14-.3-.13-.61-.17-.93-.14-.27,0-.54-.02-.81,0-.11.01-.22.03-.33.05-.4.09-.81.17-1.2.3-.05.02-.11.04-.16.06-.18.07-.33.17-.5.26-.2.11-.32.16-.47.26-.1.07-.19.14-.28.22-.54.39-.94.9-1.21,1.51-.21.44-.3.9-.27,1.37-.05.47.02.93.21,1.37.24.61.61,1.13,1.12,1.54.1.09.21.18.32.25.31.2.63.39.95.57.06.04.12.07.19.1.26.12.52.19.8.27.65.18.49.17,1.36.15.03,0,.05,0,.08,0,.06,0,.13,0,.19-.02.38-.04.75-.15,1.11-.25.06-.02.12-.03.18-.05.02,0,.05-.02.07-.03.14-.05.26-.12.38-.2.14-.04.26-.1.36-.2.56-.38.92-.97,1.24-1.54Z"/>
    <path class="cls-6" d="m116.13,28.51s-.04-.02-.06-.03c-.26-.14-.55-.22-.86-.25-.65-.1-1.16.02-1.78.21-.89.28-1.75,1.05-2.09,1.93-.14.35-.23.73-.32,1.09-.02.1-.04.2-.06.3-.04.33-.07.81-.04,1.07.07.65.39,1.26.74,1.8.16.16.31.33.47.49.26.23.56.37.89.44.2.09.42.12.64.1.32.03.63-.02.93-.14-.52-2.47.09-4.95,1.53-7.02Z"/>
    <path class="cls-6" d="m100.59,81.4s-.08.07-.12.1c-.52.4-.93.45-1.55.59-.21.05-.43.12-.64.14-.54.06-1.05-.02-1.55-.23-.4-.16-.73-.4-.99-.72-.31-.27-.53-.6-.66-1-.16-.37-.22-.76-.18-1.15-.03-.4.05-.78.22-1.15.23-.51.57-.94,1.02-1.27.23-.13.47-.25.7-.38.02,0,.04,0,.05-.02,0,0,.01-.01.02-.02.07-.06.15-.11.23-.15.27-.15.54-.31.82-.44.44-.16.89-.21,1.35-.15.48.07.9.26,1.28.56.38.3.65.68.82,1.13.03.08.04.16.06.24.14.24.24.48.28.76.12.36.14.73.07,1.11,0,.26-.08.52-.21.76-.25.57-.58.89-1.05,1.28Z"/>
    <path class="cls-6" d="m109.72,97.02c.05-.14.08-.29.11-.44,0,0,.01,0,.02.01.02-.1.05-.2.07-.3.01-.05.03-.1.04-.16,0-.32.01-.64.02-.96v-.04s-.02-.07-.03-.1c-.02-.11-.05-.22-.07-.34-.01-.05-.02-.11-.03-.16,0-.03-.01-.07-.02-.1-.03-.17-.07-.34-.12-.5,0-.19-.05-.36-.14-.52-.17-.5-.45-.93-.84-1.27-.33-.41-.75-.72-1.26-.92-.47-.22-.96-.32-1.47-.29-.5-.05-.99.02-1.47.22l-.89.48c-.58.42-1.01.96-1.3,1.62-.09.32-.18.65-.28.97-.1.67-.03,1.33.21,1.97,0,.01,0,.03.01.04.16.3.32.59.48.89.02.03.04.06.05.09.03.05.06.09.09.14.07.1.13.2.2.31.13.2.22.27.42.48.23.24.27.31.47.44.09.06.19.12.28.18.48.39,1.03.63,1.65.72.59.09,1.17.02,1.73-.19.58-.22,1.06-.58,1.45-1.06.31-.36.51-.76.6-1.22Z"/>
    <path class="cls-3" d="m102.79,35.66c.49-.76.85-1.56,1.02-2.24.02-.08.04-.15.05-.23,0-.05,0-.1.01-.14.02-.26.03-.57.01-.82-.04-.68-.29-1.22-.64-1.78-.03-.05-.07-.1-.11-.15-.2-.23-.41-.48-.65-.67-1.87-1.4-4.62-1.81-6.4-.04-1.07,1.07-1.55,2.65-1.43,4.15.17,2.05,1.13,3.88,3.06,4.61,1.99.75,3.9-.87,5.07-2.7Z"/>
    <path class="cls-3" d="m78.85,54.41c-.34.38-.75.65-1.24.82-.62.23-1.26.3-1.92.21-.05,0-.09-.01-.14-.02-.36-.08-.72-.19-1.07-.3-.08-.03-.16-.06-.24-.09-.19-.1-.4-.23-.57-.34-.19-.12-.34-.19-.5-.31-.08-.06-.7-.72-.76-.81-.12-.17-.41-.76-.51-.94-.01-.02-.02-.05-.04-.07,0,0,0,0,0,0-.09-.09-.18-.17-.25-.27-.07-.1-.4-.7-.44-.82,0-.01,0-.02-.01-.04-.05-.12-.2-.78-.22-.9,0,0,0-.02,0-.03-.1-.66,0-.84.14-1.38.05-.32.17-.61.38-.86.08-.14.17-.28.25-.41.12-.13.24-.25.37-.36.12-.11.23-.22.35-.33.02-.01.03-.03.05-.04,0,0,.02-.01.03-.02.27-.15.55-.3.82-.44.02,0,.04-.02.06-.03.32-.11.66-.18.98-.24.07-.01.14-.02.21-.02.28,0,.76-.03,1.12.04.03,0,.06.01.09.02.31.08.67.18.98.28.07.02.13.05.19.08.03.02.06.03.1.05.3.17.61.35.9.55.06.04.11.08.17.13.02.02.05.04.07.07.24.24.5.51.73.77.05.06.1.11.14.17.02.03.04.05.05.08.18.29.33.61.49.91.2.39.28.9.36,1.29.01.07.03.14.03.22.02.38-.01.76-.02,1.13l.02-.97s0,.05,0,.08c.07.67-.03,1.31-.29,1.92-.19.49-.49.9-.9,1.23Z"/>
    <path class="cls-3" d="m98.24,62.13c-.08.13-.15.25-.23.38.27-.37.43-.79.49-1.26,0-.3.01-.59.02-.89,0-.02,0-.03-.01-.05-.03-.15-.08-.33-.1-.43,0,.03-.03-.16-.07-.31,0-.05,0-.11-.02-.16-.03-.13-.06-.29-.1-.46-.02-.07-.02-.14-.04-.21-.04-.37-.17-.7-.39-1-.23-.52-.57-.95-1.04-1.3-.32-.19-.65-.39-.97-.58-.35-.1-.7-.2-1.05-.3-.55-.1-1.08-.07-1.6.11-.55.08-1.04.3-1.49.64,0,0-.01,0-.02.01-.27.26-.55.52-.82.78-.01.01-.03.03-.04.04-.13.16-.28.46-.34.55-.1.17-.25.37-.33.57-.1.35-.2.71-.3,1.06,0,0,0,.01,0,.02-.1.55-.07,1.09.11,1.62.04.18.08.36.13.54,0,.03.02.05.03.08,0,.01.01.02.02.04v.02c.18.32.35.64.53.96.2.33.79.86.86.93.04.04.08.07.13.11.16.11.4.24.49.3.11.07.33.21.5.3.02.01.05.02.07.03.03.01.06.02.09.03.23.07.78.23,1.01.29.02,0,.03,0,.05.01.03,0,.05,0,.08.01.11,0,.23,0,.34,0h-.26c.17,0,.34.01.52,0,0,0,.01,0,.02,0,.15,0,.31,0,.46,0h-.45c.49.04.97-.03,1.43-.23.3-.16.59-.32.89-.48.01,0,.02-.02.03-.03.55-.42,1.16-1.08,1.38-1.75Z"/>
    <path class="cls-3" d="m109.87,52.05c.19-.16.38-.34.63-.59.05-.05.1-.11.14-.17.18-.26.35-.57.51-.84.02-.03.04-.07.06-.11.19-.38.31-.82.35-1.24.02-.17.01-.36.01-.52,0-.15.02-.35,0-.52-.02-.35-.13-.72-.24-1.04-.22-.57-.57-1.05-1.04-1.43-.48-.38-1.02-.62-1.63-.71-3.62-.54-5.74,4.4-3.69,6.97.3.37.67.64,1.12.82.29.08.58.16.87.25.6.09,1.19.02,1.76-.19.34-.16.58-.29.8-.43.09-.06.18-.12.26-.19.02-.02.05-.04.07-.06Z"/>
    <path class="cls-3" d="m125.22,69.21c-.94-.84-1.72-1.79-2.3-2.81-1.42-.91-3.16-1.31-4.34-.67-.27.15-.55.29-.82.44-.41.28-.73.64-.95,1.07-.2.25-.33.54-.38.86-.17.44-.21.89-.14,1.36.07.3.14.59.21.89.23.6.6,1.11,1.1,1.52.31.29.73.49,1.1.68.11.06.22.1.34.14.51.17,1.02.34,1.56.36.35.01.78.05,1.16,0,.38-.05.75-.15,1.11-.25.12-.03.23-.08.34-.13.59-.26.99-.51,1.41-1.02.2-.25.34-.54.49-.81.23-.53.24-1.09.1-1.63Z"/>
    <path class="cls-3" d="m130.36,89.62c.14-.3.2-.6.18-.92,0-.03,0-.05,0-.08.08-.28.16-.55.24-.83,0-.29.01-.58.02-.87-.02-.14-.17-.74-.21-.87-.21-.62-.38-.75-.76-1.15-.15-.16-.26-.29-.42-.42-.04-.03-.07-.05-.11-.08-.14-.1-.71-.46-.87-.52-.16-.05-.32-.1-.48-.14-.3-.13-.61-.17-.93-.14-.27,0-.54-.02-.81,0-.11.01-.22.03-.33.05-.4.09-.81.17-1.2.3-.05.02-.11.04-.16.06-.18.07-.33.17-.5.26-.2.11-.32.16-.47.26-.1.07-.19.14-.28.22-.54.39-.94.9-1.21,1.51-.21.44-.3.9-.27,1.37-.05.47.02.93.21,1.37.24.61.61,1.13,1.12,1.54.1.09.21.18.32.25.31.2.63.39.95.57.06.04.12.07.19.1.26.12.52.19.8.27.65.18.49.17,1.36.15.03,0,.05,0,.08,0,.07,0,.13,0,.19-.02.38-.04.75-.15,1.11-.25.06-.02.12-.03.18-.05.02,0,.05-.02.07-.03.14-.05.26-.12.38-.2.14-.04.26-.1.36-.2.56-.38.92-.97,1.24-1.54Z"/>
    <path class="cls-3" d="m84.31,37.64c.01-.1.02-.2.03-.29,0-.02,0-.05,0-.07,0-.02,0-.03,0-.05,0-.21,0-.42.01-.62-.02-.26-.11-.51-.19-.76-.04-.12-.08-.25-.11-.37,0-.02-.01-.04-.02-.06-.11-.2-.22-.4-.32-.6-.19-.29-.32-.4-.54-.55-.21-.13-.41-.25-.62-.38l-.65-.18c-.23-.02-.45-.03-.68-.01-.34.02-.65.13-.93.31-.32.14-.58.35-.79.63-.14.19-.26.39-.36.6-.17.39-.26.9-.2,1.33.04.24.08.48.17.71.18.47.44.81.83,1.14.1.08.2.16.29.24.14.11.25.18.42.28.19.11.26.17.43.22l.34.1c.34.14.69.2,1.05.16.28-.02.53-.1.75-.25.26-.11.47-.28.64-.51.23-.29.38-.62.44-1Z"/>
    <path class="cls-3" d="m116.62,27.87c-.28.04-.56.12-.87.21-.89.28-1.74,1.05-2.09,1.93-.14.35-.23.73-.32,1.09-.02.1-.04.2-.06.3-.04.33-.07.81-.04,1.07.07.65.39,1.26.74,1.8.16.16.31.33.47.49,0,0,0,0,.01,0-.3-2.48.52-4.93,2.15-6.92Z"/>
    <path class="cls-3" d="m80.86,74.16c.11-.8-.1-1.57-.54-2.23-.31-.46-.84-.88-1.35-1.1-.53-.22-1.14-.31-1.71-.23-.36.05-.73.15-1.07.27-.33.11-.57.27-.8.47-.16.03-.33.06-.49.12-.55.21-1.02.55-1.39,1.01-.15.25-.3.5-.46.75-.23.53-.31,1.08-.25,1.66.03.44.16.83.4,1.19.18.41.45.74.81,1.01.46.37.99.6,1.57.69.57.08,1.12.02,1.66-.18.2-.06.41-.17.6-.3.18-.09.35-.19.5-.32.07-.04.14-.07.21-.11.13-.08.25-.17.38-.25.21-.11.42-.22.61-.35.69-.46,1.21-1.27,1.32-2.1Z"/>
    <path class="cls-3" d="m102.91,81.04s-.08.07-.12.1c-.52.4-.93.45-1.55.59-.21.05-.43.12-.64.14-.54.06-1.05-.02-1.55-.23-.4-.16-.73-.4-.99-.72-.31-.27-.53-.6-.66-1-.16-.37-.22-.76-.18-1.15-.03-.4.05-.78.22-1.15.23-.51.57-.94,1.02-1.27.23-.13.47-.25.7-.38.02,0,.04,0,.05-.02,0,0,.01-.01.02-.02.07-.06.15-.11.23-.15.27-.15.54-.31.82-.44.44-.16.89-.21,1.35-.15.48.07.9.26,1.28.56.38.3.65.68.82,1.13.03.08.04.16.06.24.14.24.24.48.28.76.12.36.14.73.07,1.11,0,.26-.08.51-.21.76-.25.57-.58.89-1.05,1.28Z"/>
    <path class="cls-3" d="m92.25,90.97s.04-.07.06-.1c.09-.11.17-.24.29-.51.14-.32.2-.59.22-.87,0,0,0-.01,0-.02.01-.06.04-.1.05-.16.07-.46.02-.92-.15-1.35-.17-.45-.45-.83-.83-1.13-.38-.3-.81-.49-1.29-.56-.02,0-.05,0-.07-.01-.01,0-.02,0-.03,0-.21-.01-.52-.02-.73-.01-.03,0-.06,0-.08,0-.01,0-.02,0-.03,0-.18.04-.56.13-.74.18-.01,0-.03,0-.04.01-.12.04-.24.1-.34.18-.25.1-.45.25-.62.45-.37.36-.24.18-.5.62-.09.14-.17.23-.22.37,0,.01,0,.03-.01.04-.07.21-.16.53-.21.75,0,.03-.01.07-.02.1,0,.02,0,.03,0,.05,0,0,0,.02,0,.02,0,.25,0,.49-.01.74,0,0,0,.02,0,.02.06.24.12.48.17.72,0,0,0,.01,0,.02l.03.06s0,.04,0,.07c.02.3.11.58.28.83.07.19.19.35.35.48.19.24.44.42.74.54.19.05.38.11.57.16.4.06.78.01,1.16-.13.25-.13.51-.26.74-.41.37-.15.5-.29.79-.56.21-.16.37-.35.48-.6Z"/>
    <path class="cls-3" d="m112.04,96.65c.05-.14.08-.29.11-.44,0,0,.01,0,.02.01.02-.1.05-.2.07-.3.01-.05.03-.1.04-.16,0-.32.01-.64.02-.96v-.04s-.02-.07-.03-.1c-.02-.11-.05-.22-.07-.34-.01-.05-.02-.11-.03-.16,0-.03-.01-.07-.02-.1-.03-.17-.07-.34-.12-.5,0-.19-.05-.36-.14-.52-.17-.5-.45-.93-.84-1.27-.33-.41-.75-.72-1.26-.92-.47-.22-.96-.32-1.47-.29-.5-.05-.99.02-1.47.22l-.89.48c-.58.42-1.01.96-1.3,1.62-.09.32-.18.65-.28.97-.1.67-.03,1.33.21,1.97,0,.01,0,.03.01.04.16.3.32.59.48.89.02.03.04.06.05.09.03.05.06.09.09.14.07.1.13.2.2.31.13.2.22.27.42.48.23.24.27.31.47.44.09.06.19.12.28.18.48.39,1.03.63,1.65.72.59.09,1.17.02,1.73-.19.58-.22,1.06-.58,1.45-1.06.31-.36.51-.76.6-1.22Z"/>
    <path class="cls-2" d="m74.23,52.04c-.92-1.66-1.04-3.72-.41-5.5-.13.03-.27.05-.4.1-.02,0-.04.02-.06.03-.27.15-.55.3-.82.44,0,0-.02.01-.03.02-.02.01-.04.03-.05.04-.12.11-.23.22-.35.33-.13.11-.26.23-.37.36-.08.14-.17.28-.25.41-.2.25-.33.54-.38.86-.15.54-.24.72-.14,1.38,0,0,0,.02,0,.03.02.12.17.78.22.9,0,.01,0,.02.01.04.04.11.37.71.44.82.07.1.16.18.25.27,0,0,0,0,0,0,.01.02.02.05.04.07.1.18.39.77.51.94.06.08.68.74.76.81.16.12.3.19.5.31.17.1.37.24.57.34.08.04.16.07.24.09.35.11.72.23,1.07.3.05.01.09.02.14.02.66.09,1.3.02,1.92-.21.1-.04.19-.09.29-.14-1.54-.54-2.89-1.62-3.68-3.05Z"/>
    <path class="cls-2" d="m77.24,77.59c.2-.06.41-.17.6-.3.04-.02.07-.05.11-.07-.74-.24-1.42-.61-1.89-1.21-.81-1.03-.84-2.52-.36-3.73.22-.55.53-1.05.89-1.51-.14.04-.28.06-.41.1-.33.11-.57.27-.8.47-.16.03-.33.06-.49.12-.55.21-1.02.55-1.39,1.01-.15.25-.3.5-.46.75-.23.53-.31,1.08-.25,1.66.03.44.16.83.4,1.19.18.41.45.74.81,1.01.46.37.99.6,1.57.69.57.08,1.12.02,1.66-.18Z"/>
    <path class="cls-2" d="m89.05,90.53c-.47-1.22-.29-2.6.11-3.85.04-.12.09-.23.13-.35-.14.03-.28.07-.37.09-.01,0-.03,0-.04.01-.12.04-.24.1-.34.18-.25.1-.45.25-.62.45-.37.36-.24.18-.5.62-.09.14-.17.23-.22.37,0,.01,0,.03-.01.04-.07.21-.16.53-.21.75,0,.03-.01.07-.02.1,0,.02,0,.03,0,.05,0,0,0,.02,0,.02,0,.25,0,.49-.01.74,0,0,0,.02,0,.02.06.24.12.48.17.72,0,0,0,.01,0,.02l.03.06s0,.04,0,.07c.02.3.11.58.28.83.07.19.19.35.35.48.19.24.44.42.74.54.19.05.38.11.57.16.4.06.78.01,1.16-.13.14-.08.29-.16.43-.24-.72-.35-1.33-1.01-1.62-1.78Z"/>
    <path class="cls-2" d="m110.78,98.5c-.57-.28-1.13-.59-1.64-.97-1.28-.93-2.35-2.25-2.66-3.8-.2-1-.02-2.09.49-2.96-.04.01-.07.02-.11.03l-.89.48c-.58.42-1.01.96-1.3,1.62-.09.32-.18.65-.28.97-.1.67-.03,1.33.21,1.97,0,.01,0,.03.01.04.16.3.32.59.48.89.02.03.04.06.05.09.03.05.06.09.09.14.07.1.13.2.2.31.13.2.22.27.42.48.23.24.27.31.47.44.09.06.19.12.28.18.48.39,1.03.63,1.65.72.59.09,1.17.02,1.73-.19.29-.11.55-.25.79-.43Z"/>
    <path class="cls-2" d="m128.3,91.58s.05-.02.07-.03c.14-.05.26-.12.38-.2.14-.04.26-.1.36-.2.29-.19.52-.45.73-.72-1.73.16-3.54-.51-4.57-1.9-.97-1.32-1.04-3.2-.31-4.64-.09.03-.19.04-.29.07-.05.02-.11.04-.16.06-.18.07-.33.17-.5.26-.2.11-.32.16-.47.26-.1.07-.19.14-.28.22-.54.39-.94.9-1.21,1.51-.21.44-.3.9-.27,1.37-.05.47.02.93.21,1.37.24.61.61,1.13,1.12,1.54.1.09.21.18.32.25.31.2.63.39.95.57.06.04.12.07.19.1.26.12.52.19.8.27.65.18.49.17,1.36.15.03,0,.05,0,.08,0,.07,0,.13,0,.19-.02.38-.04.75-.15,1.11-.25.06-.02.12-.03.18-.05Z"/>
    <path class="cls-2" d="m121.67,73.05c-.11-.05-.23-.08-.34-.14-1.51-.75-2.82-2.05-3.26-3.68-.33-1.2-.1-2.56.61-3.55-.03.02-.07.02-.1.04-.27.15-.55.29-.82.44-.41.28-.73.64-.95,1.07-.2.25-.33.54-.38.86-.17.44-.21.89-.15,1.36.07.3.14.59.21.89.23.6.6,1.11,1.1,1.52.31.29.73.49,1.1.68.11.06.22.1.34.14.51.17,1.02.34,1.56.36.32.01.71.03,1.06,0Z"/>
    <path class="cls-2" d="m99.83,80.91c-1.04-1.29-1.4-3.2-.62-4.66.09-.18.21-.34.33-.49-.02.01-.04.02-.06.03-.08.05-.16.1-.23.15,0,0-.01.01-.02.02-.02,0-.04,0-.05.02-.23.13-.47.25-.7.38-.45.33-.79.75-1.02,1.27-.18.37-.25.75-.22,1.15-.04.39.02.78.18,1.15.13.39.35.73.66,1,.26.33.59.57.99.72.49.21,1.01.29,1.55.23.06,0,.12-.03.19-.04-.35-.27-.68-.57-.96-.92Z"/>
    <path class="cls-2" d="m95.75,64.44c-1.15-.51-2.16-1.28-2.87-2.33-1.28-1.92-1.17-4.67.19-6.44-.52.09-1,.3-1.43.63,0,0-.01,0-.02.01-.27.26-.55.52-.82.78-.01.01-.03.03-.04.04-.13.16-.28.46-.34.55-.1.17-.25.37-.33.57-.1.35-.2.71-.3,1.06,0,0,0,.01,0,.02-.1.55-.07,1.09.11,1.62.04.18.08.36.13.54,0,.03.02.05.03.08,0,.01.01.02.02.04v.02c.18.32.35.64.53.96.2.33.79.86.86.93.04.04.08.07.13.11.16.11.4.24.49.3.11.07.33.21.5.3.02.01.05.02.07.03.03.01.06.02.09.03.23.07.78.23,1.01.29.02,0,.03,0,.05.01.03,0,.05,0,.08.01.11,0,.23,0,.34,0h-.26c.17,0,.34.01.52,0,0,0,.01,0,.02,0,.15,0,.31,0,.46,0h-.45c.42.03.84-.04,1.24-.18Z"/>
    <path class="cls-2" d="m82.99,39.26c-.35-.11-.7-.24-1.02-.41-.77-.41-1.44-1.08-1.66-1.93-.1-.42-.09-.86-.04-1.29.08-.64.25-1.26.49-1.86-.16.05-.31.12-.45.22-.32.14-.58.35-.79.63-.14.19-.26.39-.36.6-.17.39-.26.9-.2,1.33.04.24.08.48.17.71.18.47.44.81.83,1.14.1.08.2.16.29.24.14.11.25.18.42.28.19.11.26.17.43.22l.34.1c.34.14.69.2,1.05.16.18-.01.35-.07.51-.14Z"/>
    <path class="cls-2" d="m106.45,49.5c-.21-1.61.3-3.22,1.18-4.61-2.95.45-4.48,4.65-2.64,6.96.3.37.67.64,1.12.82.29.08.58.16.87.25.48.07.95.02,1.41-.11-1.04-.77-1.77-2.01-1.94-3.31Z"/>
    <path class="cls-2" d="m100.98,37.67c-1.86-.49-3.44-2.09-3.89-4-.41-1.77.06-3.65,1.09-5.16-.76.14-1.48.48-2.09,1.08-1.07,1.07-1.55,2.65-1.43,4.15.17,2.05,1.13,3.88,3.06,4.61,1.16.44,2.28.06,3.26-.69Z"/>
    <path class="cls-2" d="m114.62,31.9c-.35-.95-.41-2-.2-2.99-.33.32-.6.7-.76,1.11-.14.35-.23.73-.32,1.09-.02.1-.04.2-.06.3-.04.33-.07.81-.04,1.07.07.65.39,1.26.74,1.8.16.16.31.33.47.49,0,0,0,0,.01,0-.12-.98-.06-1.95.15-2.89Z"/>
    <path class="cls-1" d="m76.08,48.02s-.01.01-.02.02c0,0,.02-.02.03-.02,0,0,0,0,0,0Z"/>
    <path class="cls-1" d="m77.94,50.35c-.22.16-.51.19-.76.12-.17-.05-.29-.13-.41-.26-.05-.05-.1-.1-.15-.16-.09-.1-.18-.21-.27-.31-.09-.1-.19-.2-.27-.31-.11-.15-.2-.33-.28-.49-.07-.14-.06-.35-.02-.5.05-.16.14-.3.27-.4.01-.01.03-.03.04-.04.07-.05.15-.07.23-.08h-.08s0,0,.01,0c.02-.01.06,0,.08,0,.06-.01.1-.02.16-.02.19,0,.39.02.53.15.1.09.21.16.31.24.15.13.29.31.43.46.09.1.19.2.28.31.17.19.28.46.23.72-.04.23-.14.44-.33.58Z"/>
    <path class="cls-1" d="m75.95,48.14s.07-.07.11-.1c0,0,0,0,0,0-.04.04-.07.07-.11.11Z"/>
    <path class="cls-1" d="m83.38,36.22c-.05.07-.12.11-.2.14-.06.03-.13.04-.19.05-.11.02-.23,0-.34-.04-.01,0-.03-.01-.04-.02-.05-.03-.11-.06-.16-.1-.06-.05-.12-.11-.17-.17,0,0,0-.01-.01-.02-.06-.07-.08-.14-.1-.22-.02-.1-.03-.12-.02-.24,0,0,0-.01,0-.02.01-.07.03-.14.06-.21.02-.06.07-.13.1-.18.01-.02.03-.04.05-.06.05-.06.12-.11.19-.14.08-.03.15-.04.23-.03.08.01.16.04.22.1.06.05.11.11.14.19.03.03.08.08.09.1.02.02.03.04.04.07.02.03.02.06.03.09,0,0,.01.02.02.03,0-.01,0-.02,0-.03,0,.02.01.04.02.05.02.03.04.06.05.09,0,0,0,0,0,0,0,.01,0,.03.01.04,0,0,0,.02.01.03,0,0,0,0,0,0,.03.05.06.1.06.17,0,.06,0,.12-.02.18-.01.06-.04.12-.08.16Z"/>
    <path class="cls-1" d="m102.05,32.18c.05-.25-.05-.47-.13-.7-.07-.17-.16-.33-.27-.48-.06-.09-.12-.18-.18-.27-.07-.1-.14-.19-.24-.27-.09-.07-.21-.12-.3-.18-.12-.05-.25-.07-.38-.06-.1,0-.19.04-.27.09-.09.04-.17.1-.23.19-.09.11-.14.23-.16.36,0,.08,0,.16,0,.24,0,.15.03.29.09.43.04.1.09.21.13.31.07.17.14.33.24.47.15.2.29.41.54.51.14.06.28.08.43.06.11,0,.22-.04.31-.1.11-.05.19-.12.26-.21.1-.12.16-.26.18-.41Z"/>
    <path class="cls-1" d="m101.75,34.67c.02-.06.02-.06.03-.1,0-.06,0-.13,0-.19,0-.01,0-.03,0-.04-.02-.24-.18-.45-.4-.54-.21-.09-.44-.06-.63.06.03-.02.06-.03.08-.05-.03.01-.06.03-.09.05,0,0-.02,0-.02,0-.02.01-.03.02-.05.03,0,0,0,0-.01,0-.08.06-.14.15-.19.23,0,0,0,0,0-.01-.02.03-.05.06-.07.09-.03.05-.06.1-.09.15-.02.05-.03.11-.05.16,0,.06,0,.11,0,.17,0,.09.03.17.08.24.02.05.05.1.1.14.04.05.08.08.14.11.05.04.1.06.16.07.08.03.16.04.25.03.05,0,.13-.03.17-.04,0,0,.01,0,.02,0,.01,0,.02-.01.04-.02.07-.04.15-.07.22-.12.01,0,.02-.02.03-.02,0,0,0,0,.01-.01.05-.04.09-.09.14-.13.06-.07.1-.16.12-.25Z"/>
    <path class="cls-1" d="m110.71,48.35c.01-.1,0-.22,0-.32-.02-.16-.06-.33-.16-.46-.11-.16-.29-.27-.46-.36-.09-.04-.19-.06-.29-.04-.1.01-.19.05-.28.11-.09.06-.15.14-.19.24-.04.09-.05.18-.04.28,0-.03,0-.06,0-.09,0,.04,0,.08-.01.11,0,.02,0,.04-.01.06v.18s0,.05.01.07c0,0,0-.02,0-.03.01.05.02.1.02.15,0,.02,0,.05,0,.07,0,0,0,.02,0,.02l.04.18s.01.02.02.03c.02.04.03.08.05.12,0,.02,0,.04.02.05,0,.02.02.04.03.06.02.04.04.08.05.12.02.03.03.06.05.09.03.05.07.08.12.1.07.04.16.08.25.06.14-.03.29-.07.41-.16.07-.05.14-.13.19-.2.09-.14.17-.26.2-.43Z"/>
    <path class="cls-1" d="m97.07,59.33c.06-.2.04-.4-.03-.59-.03-.08-.07-.16-.11-.24-.07-.14-.14-.27-.24-.39-.1-.12-.2-.23-.31-.33-.06-.06-.12-.11-.19-.16-.03-.03-.07-.05-.11-.08-.14-.1-.27-.16-.43-.2-.1-.02-.2-.03-.3-.03-.29,0-.61.19-.65.5-.02.17,0,.31.07.46.02.04.03.08.05.12.04.1.1.18.17.26.13.15.24.31.34.48-.03-.06-.07-.13-.1-.19.06.12.13.23.19.34.05.1.09.21.15.29.16.21.36.32.62.38.26.05.56-.08.72-.28.09-.12.13-.2.17-.34Z"/>
    <path class="cls-1" d="m79.45,73.55s.05-.13.05-.19c0-.1.01-.2,0-.3,0,0,0-.02,0-.03,0,0,0-.01,0-.02,0-.03-.01-.06-.02-.1,0-.06-.03-.12-.07-.18-.03-.05-.04-.09-.08-.13-.05-.06-.11-.12-.17-.18-.01-.01-.03-.03-.05-.04-.05-.03-.1-.06-.15-.09-.06-.02-.11-.03-.17-.05-.06,0-.11,0-.17,0-.09,0-.17.03-.24.08-.06.02-.1.06-.14.1-.05.04-.09.08-.11.14-.04.05-.06.1-.07.16-.03.08-.04.17-.03.26.01.05.01.1.01.15,0,0,0,.02,0,.02,0,.07.02.13.05.19,0,.01.01.02.01.04,0,.02,0,.03.01.05,0,.03.01.06.02.08.03.09.08.17.15.23.02.03.04.05.07.07.01.01.03.02.04.03.05.03.1.06.15.09.08.04.16.05.24.05.05,0,.11,0,.16-.02.08-.01.16-.05.22-.1.01,0,.02-.01.03-.02,0,0,.01,0,.02-.01.05-.04.09-.09.14-.13.03-.05.07-.11.1-.16Z"/>
    <path class="cls-1" d="m91.93,88.47c.01-.1,0-.19-.03-.29-.03-.07-.07-.15-.11-.22-.03-.07-.08-.13-.14-.18-.04-.04-.08-.06-.13-.08,0,0,0,0-.01,0,0,0-.02-.01-.03-.02-.02-.01-.04-.02-.06-.03-.08-.03-.16-.05-.24-.04-.06,0-.12.02-.17.06-.06.03-.11.07-.15.12-.05.07-.09.14-.1.23,0,.02,0,.05-.01.07,0,.01,0,.02,0,.03,0,0,0,.01,0,.02,0,.05,0,.1,0,.15,0,.05.01.1.03.15.02.05.05.1.07.15.02.07.07.14.12.19.05.06.11.11.18.13.07.03.14.05.22.04.07,0,.15,0,.22-.03.04-.02.09-.05.13-.07.08-.06.15-.14.19-.24.01-.05.03-.1.04-.14Z"/>
    <path class="cls-1" d="m103.35,79.1c.08-.1.13-.22.15-.35.01-.04.02-.08.03-.12,0-.02,0-.04,0-.06,0-.06.01-.16,0-.23,0-.01,0-.02,0-.03-.03-.15-.06-.31-.11-.46-.08-.22-.24-.38-.4-.54-.15-.15-.35-.23-.56-.24-.09-.02-.18-.01-.26.02-.09.01-.17.05-.24.11-.14.11-.27.28-.28.46,0,.1-.03.19-.01.3.02.12.06.22.1.33.02.05.03.1.05.14.03.08.08.15.13.23.04.1.08.2.15.29.02.03.04.06.06.09.08.12.19.2.32.27.09.06.19.1.31.11.18,0,.37-.07.48-.22,0,0,0-.01.01-.02.02-.02.06-.03.08-.06Z"/>
    <path class="cls-1" d="m110.97,93.4s0-.08,0-.12c0-.01,0-.03,0-.04-.02-.07-.03-.14-.05-.21-.03-.08-.08-.15-.12-.23-.04-.07-.09-.15-.14-.21-.13-.17-.29-.35-.49-.43-.13-.05-.27-.09-.41-.12-.07,0-.13,0-.2,0-.06.02-.13.03-.19.05-.06.03-.12.06-.18.09-.09.06-.16.14-.2.23-.04.05-.07.12-.08.18-.03.06-.04.13-.03.19,0,.16.05.29.13.43v-.02s0,.01,0,.02c0,.01,0,.02.01.04.03.04.06.09.08.13-.02-.04-.04-.07-.06-.1.04.1.09.19.17.26,0,0,0,0,.01.01.05.06.1.12.14.18.02.03.04.07.06.1.05.08.15.15.22.22.01.01.03.03.04.04.08.07.18.12.28.14.16.05.34.05.5-.02.13-.06.24-.14.33-.24.14-.16.17-.38.17-.58Z"/>
    <path class="cls-1" d="m111.47,95.85c.05-.11.06-.23.05-.35,0,0,0-.02,0-.03-.01-.12-.06-.24-.13-.34-.08-.11-.18-.18-.3-.24-.03-.01-.06-.02-.09-.03-.09-.03-.18-.04-.27-.03-.09,0-.18.04-.26.09-.03.01-.06.03-.08.04,0,0,0,0,0,0,0,0,0,0,0,0-.08.06-.18.16-.21.26,0,0,0,.01,0,.02,0,0,0,0,0,0-.02.06-.04.12-.05.18,0,.06,0,.12,0,.18.01.06.03.12.04.18.03.06.06.11.09.17.08.11.18.18.3.24.12.05.24.07.36.05,0,0,.02,0,.03,0,.09,0,.17-.03.25-.08.09-.04.16-.09.21-.17.03-.05.06-.11.1-.16Z"/>
    <path class="cls-1" d="m129.61,87.31h0s-.08.09-.15.15c-.06.04-.12.07-.18.1-.07.03-.14.04-.21.05-.14.02-.31,0-.44-.06-.07-.04-.14-.08-.2-.12-.12-.1-.21-.22-.26-.36-.02-.09-.05-.17-.06-.26,0-.04,0-.09-.01-.13,0-.01,0-.02,0-.03,0-.12,0-.19.01-.26,0-.02-.01-.05,0-.07,0-.07,0-.13.03-.19.01-.07.04-.13.08-.18.04-.09.11-.17.2-.22.06-.03.11-.06.17-.09.06-.01.12-.03.19-.04.06,0,.13,0,.19,0,.09,0,.18.03.26.07.15.07.29.18.38.32,0,.02.02.03.03.05,0,0,0,0,0,.01.09.12.14.26.15.4,0,.01,0,.02,0,.04,0,.03,0,.05.01.08,0,0,0,0,0,0,0,0,0,0,0,0,0,.02,0,.03,0,.05,0,0,0-.02,0-.03.03.1.04.2.02.3-.02.07-.04.15-.06.22-.04.09-.08.15-.13.2,0,0,0,0-.01.01Z"/>
    <path class="cls-1" d="m122.58,68.19c-.13.18-.34.26-.54.3-.2.04-.39.02-.58-.07-.13-.06-.25-.16-.37-.24-.06-.04-.13-.09-.19-.14-.06-.05-.11-.11-.17-.16-.06-.05-.11-.11-.17-.16-.12-.12-.17-.19-.25-.32-.12-.21-.19-.36-.17-.62,0-.09.03-.17.06-.25.07-.17.21-.29.37-.36.13-.05.31-.05.45,0-.03,0-.05-.02-.08-.02.03,0,.06.02.1.03,0,0,.02,0,.03,0h-.03c.16.04.33.06.47.14.1.06.21.11.31.17.17.1.32.21.48.32.13.1.24.22.33.36.07.13.1.27.12.42.02.22-.05.42-.17.59Z"/>
    <path class="cls-5" d="m140.58,87.63c-.18.17-.35.33-.57.45-.26.15-.52.3-.81.38-.2.08-.4.11-.61.09-.21.01-.41-.03-.61-.12-.26-.13-.49-.31-.67-.54-.13-.17-.21-.36-.25-.57-.05-.13-.06-.27-.04-.41-.01-.21.03-.41.12-.61.07-.12.15-.25.22-.37.17-.18.35-.36.56-.49,0-.02.02-.03.03-.05.03-.06.06-.12.11-.17.03-.03.06-.07.1-.1.15-.15.3-.3.48-.42.18-.13.37-.22.57-.32.09-.05.19-.09.29-.12.51-.18,1.06-.11,1.49.24.42.34.62.87.55,1.41-.02.15-.06.3-.11.45-.03.1-.05.2-.1.29-.09.15-.18.3-.27.45-.13.2-.3.36-.47.53Z"/>
    <path class="cls-5" d="m131.6,99.37c-.18.22-.4.38-.67.49-.23.11-.62.13-.87.1-.31-.05-.57-.18-.81-.37-.22-.18-.38-.4-.48-.66-.03-.13-.06-.26-.09-.39-.03-.21,0-.4.06-.59.04-.21.13-.39.27-.55.09-.11.31-.3.32-.31.22-.16.47-.26.74-.29.22-.02.31-.02.43.02.02,0,.03,0,.04,0,.14.02.37.1.43.12.73.43,1.04.99.95,1.68,0,0,0,0,0,0-.04.28-.15.53-.33.76Z"/>
    <path class="cls-6" d="m97.34,47.03c.11-.54-.25-1.15-.75-1.35-.43-.18-.82-.17-1.25-.01-.15.05-.31.11-.46.17-.41.16-.82.33-1.19.58-.28.18-.55.37-.81.57-.13.1-.27.2-.39.3-.24.21-.46.42-.59.73-.08.18-.11.37-.14.56-.08.46.09.9.4,1.23.35.36.74.47,1.23.46.39,0,.76-.14,1.07-.38.13-.1.25-.21.38-.31.24-.19.49-.37.74-.55.25-.18.47-.4.7-.6.13-.11.25-.21.38-.32.13-.11.27-.21.38-.34.18-.23.25-.47.3-.74Z"/>
    <path class="cls-6" d="m120.1,94.92c.04-.36-.02-.75-.25-1.04-.13-.16-.27-.29-.44-.41-.22-.16-.46-.27-.73-.32,0,0,0,0,0,0-.01,0-.03,0-.04-.01-.2-.08-.36-.1-.53-.11-.1,0-.21-.01-.31-.04-.2-.03-.4,0-.59.06-.15.05-.28.14-.38.25-.12.1-.22.23-.28.38-.08.19-.11.39-.09.59.03.2.07.4.14.59.02.05.04.1.06.15.06.19.17.35.32.48.05.06.1.11.16.16.03.02.05.04.08.05.2.13.41.27.64.36.25.1.54.17.81.12.14-.03.32-.07.42-.1.17-.04.32-.11.46-.22.28-.23.53-.56.57-.94Z"/>
    <path class="cls-6" d="m96.2,73.89c.15-.23.31-.45.41-.71.07-.18.17-.36.27-.53.09-.12.17-.25.23-.38.05-.11.08-.24.13-.35.06-.14.12-.26.16-.41.14-.49-.08-.95-.53-1.18-.48-.24-1.29.08-1.72.37-.2.13-.41.38-.58.58-.12.14-.24.28-.34.44-.1.15-.22.31-.3.48-.08.17-.12.37-.16.56-.04.17-.06.34-.08.51,0,.08-.01.16-.02.25-.02.38.04.65.23.98.07.11.15.22.23.33.25.32.8.49,1.14.18.18-.16.39-.28.54-.46.15-.19.26-.42.37-.64Z"/>
    <path class="cls-6" d="m110.45,25.37c-.1.02-.2.05-.3.07.03,0,.07,0,.1-.01.07-.02.13-.04.2-.06Z"/>
    <path class="cls-6" d="m110.15,25.44s0,0,0,0c0,0-.01,0-.02,0,0,0,.01,0,.02,0Z"/>
    <path class="cls-6" d="m112.32,23.7c.08-.11.17-.21.27-.3-.07.06-.14.13-.2.19.2-.19.35-.35.42-.61.02-.08.03-.13.04-.2.01-.11.03-.21,0-.32-.04-.1-.09-.2-.15-.28-.21-.3-.52-.44-.87-.5-.23-.03-.46-.03-.69-.03-.26,0-.51.09-.74.2-.6.27-1.19.62-1.46,1.26-.1.24-.18.5-.23.75-.07.31.03.65.15.94.23.52.75.77,1.3.64.25-.06.47-.1.68-.26.05-.04.1-.08.15-.12.21-.16.39-.25.58-.47.16-.19.3-.4.48-.57.1-.1.2-.2.29-.31Z"/>
    <path class="cls-4" d="m74.12,41.42c-.05.08-.09.15-.14.23.14-.23.3-.45.47-.65.17-.2.07-.49-.15-.59-.27-.13-.54-.23-.83-.32-.1-.03-.21-.07-.32-.08-.25-.03-.47.03-.71.1-.17.04-.33.09-.5.15-.15.05-.3.11-.45.18-.22.1-.43.2-.6.37-.1.1-.19.19-.28.3-.19.23-.36.48-.44.77-.07.24-.07.51,0,.76.09.37.32.71.74.76.09.01.18.02.27.03.35.04.61-.05.9-.21-.01,0-.02.01-.03.02.01,0,.03-.02.04-.02.02,0,.03-.01.05-.02.03-.01.05-.03.08-.04.2-.1.4-.2.57-.36.08-.08.17-.16.25-.25.13-.12.25-.23.39-.33.08-.06.16-.11.23-.17.22-.17.32-.38.46-.61Z"/>
    <path class="cls-4" d="m69.2,72.09c.08-.24.18-.48.29-.71.15-.29.22-.6.29-.91.07-.2.14-.4.16-.61.02-.14.03-.29.05-.43.03-.24.09-.47.15-.7.04-.12.07-.24.09-.36.01-.1.02-.2.03-.3.02-.19.06-.37.1-.56.07-.31-.03-.65-.17-.92-.15-.28-.4-.55-.71-.66-.24-.09-.49-.13-.75-.11-.4.03-.73.27-.99.55-.37.39-.73.82-.91,1.33-.18.5-.32,1.03-.4,1.56-.05.33-.03.65.03.98.09.44.17.86.41,1.24.23.37.54.69.84,1,.42.43,1.32.18,1.5-.37Z"/>
    <path class="cls-4" d="m78.91,89.44c0-.06-.02-.12-.02-.18,0-.03,0-.06,0-.09-.02-.22-.1-.34-.21-.54.04.08.08.16.13.23-.06-.11-.11-.22-.15-.33-.04-.11-.07-.2-.16-.32-.07-.09-.16-.17-.24-.25-.07-.08-.13-.16-.2-.24-.1-.12-.21-.23-.36-.29-.17-.08-.36-.08-.54-.04-.34.08-.59.36-.65.71-.02.13-.02.29-.02.42,0,.06,0,.13,0,.19.01.31.08.61.28.85.14.17.29.34.46.49.2.18.5.24.76.28.5.08,1.02-.38.93-.9Z"/>
    <path class="cls-4" d="m101.84,100.99s.02-.05.03-.08c.05-.14.09-.28.07-.43-.02-.16-.08-.27-.16-.41.03.06.07.13.1.19-.11-.2-.19-.4-.38-.55-.11-.08-.23-.15-.35-.2-.22-.11-.46-.12-.7-.12.1,0,.2,0,.3,0-.15,0-.3-.02-.45-.04-.07-.01-.14-.03-.21-.05-.06-.01-.13,0-.2,0-.2,0-.39-.03-.58-.08,0,0,0,0,0,0-.05-.02-.09-.03-.14-.05-.09-.04-.18-.08-.27-.13-.17-.09-.4-.02-.52.1-.15.14-.17.33-.12.52.07.3.21.58.36.85.21.36.51.71.88.9.12.06.24.11.36.15.3.1.59.19.91.17.45-.03.91-.32,1.08-.74Z"/>
    <path class="cls-4" d="m89.76,28.19c.02-.07.04-.14.07-.2.05-.15.08-.31.01-.46-.06-.14-.17-.29-.33-.34-.06-.02-.11-.04-.17-.06-.14-.04-.27-.07-.41-.06-.08,0-.17.04-.25.06-.04.01-.09.02-.13.04-.09.02-.18.05-.27.07-.04.01-.09.02-.13.04-.19.06-.33.2-.47.34-.16.15-.35.31-.44.51-.09.2-.11.63.09.79.03.02.06.05.09.07.19.15.4.22.64.2.16-.02.32-.05.48-.07.19-.03.35-.08.51-.21.04-.03.07-.06.11-.09l.19-.15c.16-.13.35-.26.43-.47Z"/>
    <path class="cls-6" d="m112.81,77.52c.06-.57-.07-1.1-.36-1.59.04.07.08.14.11.21-.16-.31-.29-.62-.44-.93l-.49-.96c-.33-.65-.67-1.3-1-1.96-.1-.18-.19-.36-.29-.54-.18-.27-.42-.48-.71-.62-.43-.26-.96-.42-1.47-.34-1.04.16-1.92.93-2.08,2-.18,1.18-.05,2.34.3,3.47.11.35.32.68.5,1,.1.17.2.33.32.49.13.17.26.33.4.48.14.15.28.33.44.46.28.22.65.39,1,.44.04,0,.08,0,.11,0,.03.01.05.04.08.05.26.19.54.3.87.33.56.08,1.28-.06,1.74-.42.49-.39.89-.94.96-1.58Z"/>
    <path class="cls-6" d="m118.61,77.99c.05-.35-.06-.74-.26-1.01-.22-.31-.56-.5-.93-.56-.02,0-.05,0-.07-.01-.05,0-.09-.01-.14-.02-.18-.03-.35-.02-.52.03-.18.03-.34.1-.49.21-.16.11-.28.24-.36.41-.11.15-.17.32-.19.5,0,.12,0,.24,0,.35.03.24.11.46.25.66.09.09.17.18.25.27.19.16.41.25.66.29.05,0,.09.01.14.02.02,0,.05,0,.07.01.37.05.73-.03,1.03-.24.29-.21.52-.56.57-.91Z"/>
    <path class="cls-4" d="m127.14,32.63s.02-.03.02-.05c.07-.12.14-.24.22-.36.04-.13.08-.26.11-.39.06-.22.09-.27.11-.44,0-.05.02-.1.03-.15.22-.62.27-1.25.03-1.88-.23-.62-.75-1.21-1.38-1.44-.21-.08-.43-.14-.65-.19-.45-.06-.88-.02-1.3.14-.24.09-.46.22-.66.37-.08.06-.15.12-.22.18-.51.46-.97.88-1.26,1.52-.27.6-.28,1.27-.25,1.91.02.43.26.98.51,1.32.28.39.69.71,1.13.91.01,0,.02.01.03.02.4.17.82.23,1.25.19,0,0,0,0,.01,0,.01,0,.03,0,.04,0,.47-.05.9-.22,1.28-.49.1-.09.19-.18.29-.27.29-.23.5-.52.64-.87Z"/>
    <path class="cls-4" d="m123.73,43.55c.09-.13.17-.27.25-.41,0-.02.02-.03.03-.05,0,0,.01-.02.02-.03.04-.12.07-.25.11-.37.03-.15.02-.31.01-.46,0-.07-.01-.14-.02-.21-.04-.26-.11-.5-.26-.71-.08-.11-.17-.22-.29-.29-.14-.09-.28-.19-.44-.25-.24-.09-.53-.18-.75,0-.02.02-.05.03-.07.04-.23.08-.47.23-.62.44-.04.05-.07.11-.1.17,0,.01-.02.03-.03.04-.17.25-.31.48-.36.79,0,.04-.01.09-.02.13-.03.17-.04.31-.03.49.04.5.39.95.85,1.15.45.2.99.14,1.4-.15.06-.04.11-.09.16-.14.06-.04.11-.09.15-.14.01-.01.02-.03.03-.05Z"/>
    <path class="cls-4" d="m132.42,47.07c.07-.18.1-.36.08-.55,0,.07,0,.14,0,.2,0-.02,0-.04,0-.06,0-.06,0-.11,0-.16,0,0,0,0,0,0,0,0,0-.02,0-.02,0-.15-.01-.3-.08-.46-.06-.16-.15-.3-.27-.42-.03-.05-.08-.1-.13-.13-.21-.15-.42-.33-.7-.34-.1,0-.21,0-.31,0-.16.01-.31.06-.44.15-.1.04-.19.1-.26.19-.13.1-.22.23-.29.39-.02.03-.09.28-.09.31,0,.1,0,.21,0,.31,0,0,0,0,0,.01.02.12.05.23.08.35,0,.02,0,.04.02.06,0,0,0,.02,0,.03l.16.29c.1.15.23.26.38.34.19.11.11.08.32.14.09.02.11.04.17.05.02,0,.03,0,.05,0,.13,0,.25.01.38,0,.15-.01.29-.06.41-.14.14-.06.26-.15.35-.28.05-.09.1-.17.16-.26Z"/>
    <path class="cls-4" d="m133.07,66.51c-.24.27-.53.46-.87.58-.22.05-.44.11-.67.16-.35.05-.69.02-1.02-.11-.35-.07-.67-.23-.95-.47-.11-.07-.23-.15-.34-.23-.56-.43-.86-1.05-1.02-1.7-.14-.58-.15-1.21.02-1.78.18-.63.58-1.12,1.06-1.54.17-.15.44-.2.66-.2.13,0,.24.03.36.07,0,0,0,0,0,0l-.2-.06c.16.04.33.06.5.06.26.02.51.06.75.17.03.01.06.02.09.04.11.04.22.08.33.12.34.1.63.32.91.53.35.25.5.55.74.87.42.57.55,1.28.48,1.97-.04.36-.17.69-.38.98-.1.23-.25.41-.45.56Z"/>
    <path class="cls-4" d="m141.72,64.8s.02-.03.02-.05c.1-.23.13-.46.11-.71,0-.07-.02-.13-.04-.19-.02-.1-.05-.19-.08-.28-.02-.04-.03-.08-.05-.13-.06-.18-.16-.33-.3-.45-.12-.15-.27-.26-.44-.33-.11-.03-.23-.07-.34-.1-.18-.03-.35-.02-.52.03-.12.01-.23.06-.33.13-.17.07-.31.19-.43.34-.06.11-.13.21-.19.32-.1.22-.13.46-.1.7,0,.04.01.09.02.13.02.1.04.19.06.29,0,.07.02.13.05.19.09.24.23.43.43.59.01.01.03.02.04.03.12.08.24.18.37.23.11.03.21.06.32.09.17.03.33.02.48-.03.11-.01.21-.05.3-.12.16-.07.29-.17.39-.31.09-.11.15-.25.22-.37Z"/>
    <path class="cls-4" d="m145.07,76.11s0,0,0,0c.13-.27.18-.55.16-.84.03-.29-.01-.56-.13-.83-.09-.17-.18-.34-.27-.51-.24-.33-.55-.57-.92-.74,0,0,0,0,0,0-.18-.05-.37-.11-.55-.16-.19,0-.38,0-.57-.01-.18.04-.37.09-.55.13-.29.1-.53.26-.72.48-.16.12-.29.27-.37.46-.12.16-.2.33-.23.53-.08.18-.1.37-.08.56-.03.29.01.56.13.83,0,0,0,0,0,0,.1.29.26.53.48.72.19.24.43.41.71.52.18.05.37.11.55.16.38.06.76.01,1.12-.12.47-.21.43-.2.72-.48.23-.19.41-.42.52-.71Z"/>
    <path class="cls-4" d="m143.51,51c.09-.12.15-.25.17-.4.02-.08.05-.16.07-.24,0-.03.02-.06.02-.09.01-.06.02-.11.03-.17,0,0,0-.01,0-.02,0-.14,0-.29,0-.43-.03-.14-.07-.28-.1-.42-.07-.13-.14-.26-.21-.38-.04-.05-.27-.3-.32-.34-.13-.08-.26-.15-.38-.23-.14-.04-.28-.08-.42-.12,0,0-.02,0-.03,0,0,0-.01,0-.02,0,0,0,0,0-.01,0-.06,0-.12,0-.18,0-.16-.02-.32.01-.48.07.1-.02.2-.05.3-.07,0,0,0,0-.01,0-.1.01-.2.04-.29.07,0,0-.02,0-.03,0-.02,0-.04.01-.06.02-.15.05-.29.12-.42.21-.12.1-.23.21-.34.32-.19.24-.31.51-.35.81,0,.05,0,.1,0,.16,0,.2-.04.39-.02.59.03.27.09.41.2.62.14.26.15.27.41.52,0,0,.01.01.02.02.01.01.04.04.05.05.11.07.22.13.33.2l.36.1s.34.01.37,0c0,0,.01,0,.02,0,.13-.02.28-.06.41-.1.02,0,.03,0,.05-.01.08-.02.08-.04.21-.11.14-.05.26-.14.35-.25.07-.04.12-.1.17-.16.04-.06.09-.13.12-.2Z"/>
    <path class="cls-4" d="m125.26,54.06c.09-.23.11-.47.08-.72,0-.04,0-.08-.01-.12,0-.02,0-.05,0-.07-.04-.16-.08-.32-.12-.48-.03-.09-.07-.17-.13-.24-.1-.24-.26-.44-.48-.6,0,0-.01-.01-.02-.02-.01-.01-.03-.03-.04-.04-.03-.03-.05-.06-.09-.08-.14-.08-.28-.17-.42-.25,0,0-.02,0-.02,0-.01,0-.03,0-.04-.01-.03,0-.05-.02-.08-.03-.06-.02-.12-.04-.18-.06-.12-.03-.24-.07-.35-.1-.18-.03-.36-.02-.54.04-.12.01-.24.06-.34.13-.17.08-.32.19-.44.35-.15.2-.33.42-.42.65-.03.08-.05.16-.07.24-.03.08-.06.17-.07.25,0,.02,0,.04,0,.06-.03.2-.06.38-.02.6.04.16.08.32.12.48.02.09.07.17.13.25.05.09.09.18.14.26l.08.12c.12.12.23.25.35.37.2.17.42.28.67.33.15.07.31.09.48.07.24.03.48-.01.71-.11.14-.08.29-.16.43-.23.12-.12.25-.23.37-.35.17-.2.28-.42.33-.67Z"/>
    <path class="cls-4" d="m131.1,25.89c.12-.19.26-.38.29-.62.02-.21,0-.44-.09-.63-.05-.11-.11-.22-.17-.32-.04-.08-.13-.15-.19-.21-.01-.01-.02-.02-.03-.03-.02-.02-.04-.03-.05-.05-.05-.04-.1-.07-.16-.11-.04-.03-.09-.05-.13-.08-.07-.03-.14-.05-.21-.04-.11,0-.25.02-.34.1-.07.06-.15.11-.23.16-.05.03-.09.07-.13.1-.07.06-.17.15-.23.22-.04.04-.07.09-.09.14-.09.12-.14.26-.16.41,0,.04,0,.09,0,.13,0,.16-.04.34-.02.5.04.28.18.54.41.71.15.11.25.14.43.18.05.01.06,0,.15,0,.13.01.26,0,.38-.06.1-.03.18-.07.25-.14.11-.08.19-.17.27-.28.02-.03.05-.07.07-.11Z"/>
    <path class="cls-4" d="m150.59,75.81s.02-.08.02-.12c0-.04.01-.08.01-.12,0-.02,0-.04,0-.06,0-.01,0-.02,0-.03.01-.09,0-.18-.03-.27-.03-.09-.09-.17-.17-.23-.06-.06-.12-.12-.18-.17-.03-.03-.06-.05-.1-.08-.09-.07-.18-.13-.28-.17-.1-.03-.2-.06-.3-.08-.3-.06-.65.04-.89.22-.09.07-.2.19-.3.29-.13.16-.21.35-.24.55-.03.2,0,.39.06.58.07.19.19.36.36.49.16.13.35.21.55.24.02,0,.04,0,.06,0,.24.01.41.02.63-.06.2-.08.39-.21.52-.38.15-.19.21-.36.25-.59Z"/>
    <path class="cls-4" d="m145.82,39.45c.02-.06.03-.12.05-.19.06-.18.13-.35.16-.53.02-.07.02-.15.01-.23.02-.08.02-.15,0-.23,0-.02,0-.03,0-.05,0-.04-.01-.09-.02-.13,0-.02,0-.04,0-.06-.03-.13-.06-.25-.09-.38-.03-.06-.06-.13-.1-.19-.05-.13-.13-.23-.23-.32-.04-.06-.09-.11-.15-.15,0,0-.01,0-.02-.01-.02-.01-.04-.03-.05-.05.02.02.04.05.07.07-.05-.07-.12-.12-.2-.16-.11-.08-.23-.13-.37-.14-.03,0-.06-.01-.1-.02-.12-.01-.26,0-.38,0-.01,0-.02,0-.03,0-.07,0-.13.02-.2.04-.19.03-.37.11-.53.23-.31.22-.44.48-.63.81-.01.02-.02.04-.04.06-.04.13-.08.27-.11.4,0,.15,0,.29,0,.44,0,.05.02.09.03.14.04.16.07.33.12.49,0,.02.01.05.02.07.08.23.18.35.33.51.13.16.29.28.49.36.06.02.13.04.2.06.03,0,.13.04.2.06.01,0,.03,0,.04,0,.21.03.43.01.63-.05.12-.04.21-.12.32-.18.03-.02.07-.03.09-.05.22-.16.39-.37.5-.62Z"/>
  </g>
  <g>
    <path class="cls-3" d="m192.91,81.24c.2-.43.29-.88.26-1.34,0-.04,0-.08,0-.12.11-.4.23-.8.34-1.21,0-.42.02-.84.02-1.27-.02-.21-.24-1.07-.31-1.26-.3-.9-.56-1.08-1.11-1.66-.22-.23-.37-.42-.6-.6-.05-.04-.1-.08-.16-.12-.21-.14-1.04-.66-1.27-.76-.23-.08-.46-.14-.69-.2-.43-.18-.88-.25-1.35-.2-.39,0-.78-.03-1.17,0-.16.02-.32.04-.48.08-.58.13-1.18.25-1.74.43-.08.03-.15.05-.23.08-.26.1-.47.24-.73.38-.28.15-.47.23-.69.38-.14.1-.28.2-.4.32-.78.57-1.37,1.3-1.76,2.19-.3.64-.43,1.3-.39,1.99-.07.68.03,1.35.3,1.99.34.89.89,1.63,1.63,2.23.15.13.3.26.47.37.45.29.91.57,1.38.83.09.05.18.1.27.14.37.18.76.27,1.16.39.94.27.7.24,1.98.22.04,0,.07,0,.11,0,.09,0,.19-.01.28-.02.55-.06,1.09-.22,1.62-.36.09-.02.18-.05.26-.07.04-.01.07-.02.11-.04.2-.07.38-.17.56-.29.2-.05.38-.15.52-.29.82-.55,1.33-1.4,1.8-2.23Z"/>
    <path class="cls-2" d="m189.93,84.09s.07-.02.11-.04c.2-.07.38-.17.56-.29.2-.05.38-.15.52-.29.42-.28.76-.65,1.05-1.05-2.51.23-5.14-.73-6.64-2.76-1.41-1.92-1.5-4.65-.45-6.74-.14.04-.28.06-.42.1-.08.03-.15.05-.23.08-.26.1-.47.24-.73.38-.28.15-.47.23-.69.38-.14.1-.28.2-.4.32-.78.57-1.37,1.3-1.76,2.19-.3.64-.43,1.3-.39,1.99-.07.68.03,1.35.3,1.99.34.89.89,1.63,1.63,2.23.15.13.3.26.47.37.45.29.91.57,1.38.83.09.05.18.1.27.14.37.18.76.27,1.16.39.94.27.7.24,1.98.22.04,0,.07,0,.11,0,.09,0,.19-.01.28-.02.55-.06,1.09-.22,1.62-.36.09-.02.18-.05.26-.07Z"/>
    <path class="cls-1" d="m191.82,77.89h0c-.05.07-.11.13-.22.21-.08.06-.17.11-.27.14-.1.04-.21.06-.31.07-.2.03-.44-.01-.63-.09-.1-.05-.2-.11-.29-.18-.17-.14-.3-.32-.38-.53-.04-.12-.07-.25-.09-.38-.01-.06-.01-.13-.02-.19,0-.02,0-.03,0-.05,0-.17,0-.27.02-.37,0-.03-.02-.07-.01-.1-.01-.09,0-.19.04-.27.01-.1.05-.18.11-.26.07-.13.16-.24.29-.32.08-.04.16-.09.25-.13.09-.02.18-.04.27-.06.09,0,.18,0,.28,0,.13,0,.26.05.38.1.22.11.41.26.55.46.01.02.03.05.04.07,0,0,0,.01.01.02.13.18.2.37.22.59,0,.02,0,.03,0,.05,0,.04.01.08.02.11,0,0,0,0,0,0,0,0,0,0,0,0,0,.02,0,.05.01.07,0-.01,0-.03-.01-.04.04.14.06.29.03.44-.03.11-.06.21-.09.32-.06.14-.11.22-.18.29,0,0-.01.01-.02.02Z"/>
  </g>
  <g>
    <path class="cls-3" d="m41.45,222.87c.17-.36.25-.74.22-1.13,0-.03,0-.06,0-.1.1-.34.19-.68.29-1.02,0-.36.01-.71.02-1.06-.02-.17-.2-.9-.26-1.06-.26-.76-.47-.91-.93-1.4-.18-.19-.31-.36-.51-.51-.04-.03-.09-.07-.13-.1-.17-.12-.87-.56-1.07-.64-.19-.06-.39-.12-.58-.17-.36-.16-.74-.21-1.13-.17-.33,0-.66-.03-.98,0-.14.01-.27.04-.4.07-.49.11-.99.21-1.47.37-.06.02-.13.04-.19.07-.21.09-.4.2-.61.32-.24.13-.39.19-.58.32-.12.08-.23.17-.34.27-.66.48-1.15,1.1-1.48,1.84-.26.54-.36,1.1-.33,1.68-.06.57.03,1.13.26,1.67.29.75.75,1.37,1.37,1.88.12.11.26.22.4.31.38.25.77.48,1.16.7.08.04.15.08.23.12.31.15.64.23.97.32.79.23.59.2,1.66.18.03,0,.06,0,.09,0,.08,0,.16,0,.24-.02.46-.05.91-.19,1.36-.3.07-.02.15-.04.22-.06.03,0,.06-.02.09-.03.17-.06.32-.14.47-.24.17-.05.32-.13.44-.24.69-.46,1.12-1.18,1.51-1.88Z"/>
    <path class="cls-2" d="m38.94,225.27s.06-.02.09-.03c.17-.06.32-.14.47-.25.17-.05.32-.13.44-.24.35-.24.64-.54.89-.88-2.11.19-4.33-.62-5.58-2.32-1.19-1.61-1.26-3.91-.38-5.67-.12.03-.24.05-.35.09-.06.02-.13.04-.19.07-.21.09-.4.2-.61.32-.24.13-.39.19-.58.32-.12.08-.23.17-.34.27-.66.48-1.15,1.1-1.48,1.84-.26.54-.36,1.1-.33,1.68-.06.57.03,1.13.26,1.67.29.75.75,1.37,1.37,1.88.12.11.26.22.4.31.38.25.77.48,1.16.7.08.04.15.08.23.12.31.15.64.23.97.32.79.23.59.2,1.66.18.03,0,.06,0,.09,0,.08,0,.16,0,.24-.02.46-.05.92-.19,1.36-.3.07-.02.15-.04.22-.06Z"/>
    <path class="cls-1" d="m40.53,220.06h0c-.04.06-.09.11-.19.18-.07.05-.14.09-.22.12-.08.03-.17.05-.26.06-.17.02-.37-.01-.53-.08-.09-.04-.17-.09-.25-.15-.15-.12-.25-.27-.32-.44-.03-.11-.06-.21-.08-.32,0-.05-.01-.11-.01-.16,0-.01,0-.03,0-.04,0-.15,0-.23.02-.31,0-.03-.01-.06,0-.09,0-.08,0-.16.03-.23.01-.08.04-.15.1-.22.05-.11.14-.2.24-.27.07-.04.14-.07.21-.11.08-.02.15-.04.23-.05.08,0,.16,0,.23,0,.11,0,.22.04.32.09.18.09.35.21.46.39.01.02.02.04.03.06,0,0,0,.01,0,.02.11.15.17.31.19.49,0,.01,0,.03,0,.04,0,.03.01.06.02.1,0,0,0,0,0,0,0,0,0,0,0,0,0,.02,0,.04.01.06,0-.01,0-.02,0-.04.04.12.05.24.02.37-.03.09-.05.18-.08.27-.05.11-.1.18-.15.25,0,0,0,0-.01.02Z"/>
  </g>
  <g>
    <path class="cls-3" d="m23.68,40.75c.11-.24.16-.49.15-.75,0-.02,0-.04,0-.07.06-.23.13-.45.19-.68,0-.24,0-.47.01-.71-.01-.12-.14-.6-.17-.71-.17-.5-.31-.61-.62-.93-.12-.13-.21-.24-.34-.34-.03-.02-.06-.04-.09-.07-.12-.08-.58-.37-.71-.43-.13-.04-.26-.08-.39-.11-.24-.1-.49-.14-.76-.11-.22,0-.44-.02-.66,0-.09,0-.18.02-.27.04-.33.07-.66.14-.98.24-.04.01-.09.03-.13.05-.14.06-.27.14-.41.21-.16.09-.26.13-.39.21-.08.06-.15.11-.23.18-.44.32-.77.73-.99,1.23-.17.36-.24.73-.22,1.12-.04.38.02.76.17,1.12.19.5.5.92.91,1.25.08.07.17.14.26.21.25.16.51.32.77.47.05.03.1.06.15.08.21.1.43.15.65.22.53.15.4.14,1.11.12.02,0,.04,0,.06,0,.05,0,.11,0,.16-.01.31-.04.61-.13.91-.2.05-.01.1-.03.15-.04.02,0,.04-.01.06-.02.11-.04.22-.09.31-.16.11-.03.21-.08.29-.16.46-.31.75-.79,1.01-1.25Z"/>
    <path class="cls-2" d="m22.01,42.35s.04-.01.06-.02c.11-.04.22-.09.31-.16.11-.03.21-.08.29-.16.24-.16.43-.36.59-.59-1.41.13-2.89-.41-3.73-1.55-.79-1.08-.84-2.61-.25-3.78-.08.02-.16.03-.23.06-.04.01-.09.03-.13.05-.14.06-.27.14-.41.21-.16.09-.26.13-.39.21-.08.06-.15.11-.23.18-.44.32-.77.73-.99,1.23-.17.36-.24.73-.22,1.12-.04.38.02.76.17,1.12.19.5.5.92.91,1.25.08.07.17.14.26.21.25.16.51.32.77.47.05.03.1.06.15.08.21.1.43.15.65.22.53.15.4.14,1.11.12.02,0,.04,0,.06,0,.05,0,.11,0,.16-.01.31-.04.61-.13.91-.2.05-.01.1-.03.15-.04Z"/>
    <path class="cls-1" d="m23.07,38.87h0s-.06.07-.12.12c-.05.03-.1.06-.15.08-.06.02-.12.03-.18.04-.11.02-.25,0-.35-.05-.06-.03-.11-.06-.16-.1-.1-.08-.17-.18-.22-.3-.02-.07-.04-.14-.05-.21,0-.04,0-.07,0-.11,0,0,0-.02,0-.03,0-.1,0-.15.01-.21,0-.02,0-.04,0-.06,0-.05,0-.1.02-.15,0-.05.03-.1.06-.15.04-.07.09-.13.16-.18.05-.02.09-.05.14-.07.05-.01.1-.02.15-.04.05,0,.1,0,.16,0,.07,0,.15.03.21.06.12.06.23.14.31.26,0,.01.02.03.02.04,0,0,0,0,0,.01.07.1.11.21.13.33,0,0,0,.02,0,.03,0,.02,0,.04.01.06,0,0,0,0,0,0,0,0,0,0,0,0,0,.01,0,.03,0,.04,0,0,0-.02,0-.02.02.08.03.16.02.25-.02.06-.03.12-.05.18-.03.08-.06.12-.1.16,0,0,0,0,0,.01Z"/>
  </g>
</svg>