<?xml version="1.0" encoding="UTF-8"?>
<svg id="Calque_1" data-name="Calque 1" xmlns="http://www.w3.org/2000/svg" width="29" height="29" version="1.1" viewBox="0 0 29 29">
  <defs>
    <style>
      .cls-1 {
        fill: #000;
        stroke-width: 0px;
      }
    </style>
  </defs>
  <path class="cls-1" d="M21.5,11l-4.2-4.2c-.5-.5-1.4-.5-2,0-.5.5-.5,1.4,0,2l1.8,1.8h-4.9c-1.9,0-3.5,1.6-3.5,3.5v8c0,.8.6,1.4,1.4,1.4s1.4-.6,1.4-1.4v-8c0-.4.3-.7.7-.7h4.9l-1.8,1.8c-.5.5-.5,1.4,0,2,.6.5,1.4.5,2,0l4.2-4.2c.3-.3.4-.6.4-1s-.1-.7-.4-1Z"/>
  <metadata>
    <sfw xmlns="http://ns.adobe.com/SaveForWeb/1.0/">
      <slices/>
      <sliceSourceBounds x="8.73" y="5.55" width="13.15" height="17.05" bottomLeftOrigin="true"/>
    </sfw>
  </metadata>
</svg>