<svg version="1.1" xmlns="http://www.w3.org/2000/svg" xmlns:xlink="http://www.w3.org/1999/xlink" aria-hidden="true"
	x="0" y="0"
	width="26" height="26"
	viewBox="0 0 24 24" style="enable-background:new 0 0 24 24;" xml:space="preserve">
	<path d="M22.224,24H1.77A1.753,1.753,0,0,1,0,22.268V1.731A1.753,1.753,0,0,1,1.77,0H22.224A1.756,1.756,0,0,1,24,1.731V22.268A1.756,1.756,0,0,1,22.224,24ZM9.353,9V20.451h3.555V14.786c0-1.454.254-2.941,2.134-2.941,1.85,0,1.85,1.755,1.85,3.036v5.571h3.559V14.17a7.2,7.2,0,0,0-.784-3.886,3.764,3.764,0,0,0-3.487-1.571,3.763,3.763,0,0,0-3.368,1.849h-.049V9Zm-5.8,0V20.451H7.118V9ZM5.339,3.3A2.065,2.065,0,1,0,7.4,5.368,2.068,2.068,0,0,0,5.339,3.3Z"/>
</svg>
