<svg version="1.1" xmlns="http://www.w3.org/2000/svg" width="77px" height="77px" viewBox="0 0 77 77"><path d="M31.6,26.7c1.4,0,2.5-1.1,2.5-2.5s-1.1-2.5-2.5-2.5h-4.9c-4.1,0-7.4,3.3-7.4,7.4v19.7
	c0,4.1,3.3,7.4,7.4,7.4h4.9c1.4,0,2.5-1.1,2.5-2.5c0-1.4-1.1-2.5-2.5-2.5h-4.9c-1.4,0-2.5-1.1-2.5-2.5c0,0,0,0,0,0V29.1
	c0-1.4,1.1-2.5,2.5-2.5c0,0,0,0,0,0H31.6z M58.1,40.3c0.7-0.7,0.8-1.9,0.1-2.6c0,0,0-0.1-0.1-0.1L47,27.2c-0.7-0.7-1.9-0.7-2.6,0.1
	c-0.3,0.3-0.5,0.8-0.5,1.3v5.5h-9.9c-1.4,0-2.5,1.1-2.5,2.5c0,0,0,0,0,0v4.9c0,1.4,1.1,2.5,2.5,2.5c0,0,0,0,0,0h9.9v5.5
	c0,1,0.8,1.8,1.9,1.8c0.5,0,0.9-0.2,1.3-0.5L58.1,40.3z"/></svg>