<svg width="77" height="77" viewBox="0 0 77 77" fill="none" xmlns="http://www.w3.org/2000/svg">
<path d="M16 22.25C16 20.4523 17.4364 19 19.2143 19H57.7857C59.5636 19 61 20.4523 61 22.25C61 24.0477 59.5636 25.5 57.7857 25.5H19.2143C17.4364 25.5 16 24.0477 16 22.25ZM16 38.5C16 36.7023 17.4364 35.25 19.2143 35.25H57.7857C59.5636 35.25 61 36.7023 61 38.5C61 40.2977 59.5636 41.75 57.7857 41.75H19.2143C17.4364 41.75 16 40.2977 16 38.5ZM61 54.75C61 56.5477 59.5636 58 57.7857 58H19.2143C17.4364 58 16 56.5477 16 54.75C16 52.9523 17.4364 51.5 19.2143 51.5H57.7857C59.5636 51.5 61 52.9523 61 54.75Z" fill="black"/>
</svg>
