
<svg xmlns="http://www.w3.org/2000/svg" width="77" height="77" version="1.1" viewBox="0 0 77 77"><path class="cls-1" d="M39.3,22l-2.7,2c-.4.3-.7.8-.7,1.4v.7c0,.5.4,1,1,1s.4,0,.5-.2l3.3-2.2c.2-.1.3-.2.5-.2h0c.5,0,.9.4.9.9s0,.5-.3.6l-1.6,1.6c-.5.5-1,.8-1.6,1l-2.1.7c-.5.2-.8.6-.8,1.1s-.1.6-.3.8l-1.4,1.4c-.5.5-.8,1.2-.8,1.9v.3c0,1.3,1.1,2.4,2.4,2.4s1.7-.5,2.1-1.3l.3-.6c.2-.4.6-.6,1-.6s.7.2.9.5l1.3,1.7c.2.2.4.4.7.4.7,0,1.1-.7.8-1.3v-.2c-.4-.6,0-1.2.5-1.4l1.7-.6c.6-.2,1-.8,1-1.4s.7-1.5,1.5-1.5h2.3c.7,0,1.3.6,1.3,1.3s-.6,1.3-1.3,1.3h-1.6c-.6,0-1.1.2-1.5.6l-.4.4c-.2.2-.3.4-.3.6,0,.5.4.9.9.9h.9c.5,0,.9.2,1.3.5l.5.5c.1.1.2.3.2.5s0,.4-.2.5l-.6.6c-.3.3-.5.7-.5,1.1s.2.8.5,1.1l1.5,1.5c.8.8,1.9,1.3,3.1,1.3h.6c.5-1.6.8-3.3.8-5.1,0-8.8-6.9-16-15.7-16.5h0ZM53,46.4c-.3-.2-.7-.3-1-.3s-.9-.2-1.3-.5l-1.1-1.1c-.6-.6-1.4-1-2.3-1s-1.5-.3-2.1-.8l-2.1-1.8c-.9-.8-2.1-1.2-3.3-1.2h-1.7c-1,0-2,.3-2.8.8l-2.2,1.5c-1.4.9-2.3,2.5-2.3,4.2v.3c0,1.3.5,2.6,1.5,3.6l1.3,1.3c.7.7,1.6,1.1,2.5,1.1h1.7c1.1,0,1.9.8,1.9,1.9s0,.4,0,.6c5.7-.5,10.5-3.8,13.1-8.5h0ZM18.2,38.5c0-11.2,9.1-20.3,20.3-20.3s20.3,9.1,20.3,20.3-9.1,20.3-20.3,20.3-20.3-9.1-20.3-20.3ZM33.1,26.2c-.5-.5-1.3-.5-1.8,0l-2.5,2.5c-.5.5-.5,1.3,0,1.8s1.3.5,1.8,0l2.5-2.5c.5-.5.5-1.3,0-1.8Z"/></svg>