<svg version="1.1" xmlns="http://www.w3.org/2000/svg" xmlns:xlink="http://www.w3.org/1999/xlink" aria-hidden="true"
    x="0" y="0"
    width="26" height="26"
    viewBox="0 0 25.75 25.74" style="enable-background:new 0 0 25.75 25.74;" xml:space="preserve">
    <path d="M12.87,0A12.87,12.87,0,0,0,8.18,24.85a12.34,12.34,0,0,1,0-3.69c.24-1,1.51-6.4,1.51-6.4a4.69,4.69,0,0,1-.38-1.91c0-1.79,1-3.13,2.32-3.13a1.61,1.61,0,0,1,1.64,1.6,1.7,1.7,0,0,1,0,.22,25.28,25.28,0,0,1-1.07,4.28,1.87,1.87,0,0,0,1.35,2.27,1.78,1.78,0,0,0,.56.06c2.29,0,4-2.41,4-5.89A5.09,5.09,0,0,0,13.27,7h-.46A5.58,5.58,0,0,0,7,12.34v.27a5,5,0,0,0,1,2.93.41.41,0,0,1,.09.37c-.1.41-.32,1.28-.36,1.46s-.19.28-.43.17c-1.61-.75-2.61-3.1-2.61-5,0-4.06,2.95-7.79,8.5-7.79,4.46,0,7.93,3.18,7.93,7.43,0,4.44-2.8,8-6.68,8a3.43,3.43,0,0,1-3-1.48s-.64,2.46-.8,3.06a14.14,14.14,0,0,1-1.6,3.38A12.87,12.87,0,1,0,16.69.58,12.73,12.73,0,0,0,12.87,0"/>
</svg>
