<?xml version="1.0" encoding="UTF-8"?>
<svg id="Calque_1" xmlns="http://www.w3.org/2000/svg" width="77" height="77" version="1.1" viewBox="0 0 77 77">
  <!-- Generator: Adobe Illustrator 29.8.1, SVG Export Plug-In . SVG Version: 2.1.1 Build 2)  -->
  <path d="M16.61,52.18v-25.31c0-1.14.91-2.05,2.05-2.05s2.05.91,2.05,2.05v24.62c0,1.14.91,2.05,2.05,2.05s2.05-.91,2.05-2.05v-26.68c0-3.02,2.45-5.47,5.47-5.47h24.62c3.02,0,5.47,2.45,5.47,5.47v27.36c0,3.02-2.45,5.47-5.47,5.47H22.08c-3.02,0-5.47-2.45-5.47-5.47ZM30.29,27.56v5.47c0,1.51,1.22,2.74,2.74,2.74h5.47c1.51,0,2.74-1.22,2.74-2.74v-5.47c0-1.51-1.22-2.74-2.74-2.74h-5.47c-1.51,0-2.74,1.22-2.74,2.74ZM32.34,48.08c-1.14,0-2.05.91-2.05,2.05s.91,2.05,2.05,2.05h20.52c1.14,0,2.05-.91,2.05-2.05s-.91-2.05-2.05-2.05h-20.52ZM30.29,41.92c0,1.14.91,2.05,2.05,2.05h20.52c1.14,0,2.05-.91,2.05-2.05s-.91-2.05-2.05-2.05h-20.52c-1.14,0-2.05.91-2.05,2.05ZM47.39,31.66c-1.14,0-2.05.91-2.05,2.05s.91,2.05,2.05,2.05h5.47c1.14,0,2.05-.91,2.05-2.05s-.91-2.05-2.05-2.05h-5.47Z"/>
</svg>