<?xml version="1.0" encoding="UTF-8"?>
<svg id="Calque_1" xmlns="http://www.w3.org/2000/svg" width="77" height="77" version="1.1" viewBox="0 0 77 77">
  <!-- Generator: Adobe Illustrator 29.8.1, SVG Export Plug-In . SVG Version: 2.1.1 Build 2)  -->
  <path d="M37.13,19.29v-2.74c0-1.52,1.23-2.74,2.74-2.74s2.74,1.23,2.74,2.74v2.74h5.49c4.55,0,8.23,3.69,8.23,8.23s-3.69,8.23-8.23,8.23h-1.37v-5.49h1.37c1.52,0,2.74-1.23,2.74-2.74s-1.23-2.74-2.74-2.74h-5.49v16.47h2.74c4.55,0,8.23,3.69,8.23,8.23,0,4.08-2.97,7.47-6.86,8.12v-5.75c.82-.47,1.37-1.36,1.37-2.38,0-1.52-1.23-2.74-2.74-2.74h-2.74v13.72c0,1.52-1.23,2.74-2.74,2.74s-2.74-1.23-2.74-2.74v-2.74h-2.74c-1.52,0-2.74-1.23-2.74-2.74s1.23-2.74,2.74-2.74h2.74v-5.49h-2.74c-4.55,0-8.23-3.69-8.23-8.23,0-4.08,2.97-7.47,6.86-8.12v5.75c-.82.47-1.37,1.36-1.37,2.38,0,1.52,1.23,2.74,2.74,2.74h2.74v-16.47h-6.23c-.95,1.64-2.72,2.74-4.75,2.74h-1.37c-2.27,0-4.12-1.84-4.12-4.12s1.84-4.12,4.12-4.12h12.35Z"/>
</svg>