<svg xmlns="http://www.w3.org/2000/svg" width="77" height="77" version="1.1" viewBox="0 0 77 77"><path d="M57.7,31.3c.3.7,0,1.5-.5,2l-3.5,3.2c0,.7.1,1.3.1,2s0,1.4-.1,2l3.5,3.2c.6.5.8,1.3.5,2-.4,1-.8,1.9-1.3,2.7l-.4.6c-.5.9-1.1,1.7-1.8,2.5-.5.6-1.3.8-2,.5l-4.5-1.4c-1.1.8-2.3,1.5-3.5,2l-1,4.6c-.2.7-.7,1.3-1.5,1.4-1.1.2-2.2.3-3.4.3s-2.3,0-3.4-.3c-.7-.1-1.3-.7-1.5-1.4l-1-4.6c-1.3-.5-2.5-1.2-3.5-2l-4.5,1.4c-.7.2-1.5,0-2-.5-.6-.8-1.2-1.6-1.8-2.5l-.4-.6c-.5-.9-.9-1.8-1.3-2.7-.3-.7,0-1.5.5-2l3.5-3.2c0-.7-.1-1.4-.1-2s0-1.4.1-2l-3.5-3.2c-.6-.5-.8-1.3-.5-2,.4-1,.8-1.9,1.3-2.7l.4-.6c.5-.9,1.1-1.7,1.8-2.5.5-.6,1.3-.8,2-.5l4.5,1.4c1.1-.8,2.3-1.5,3.5-2l1-4.6c.2-.7.7-1.3,1.5-1.4,1.1-.2,2.2-.3,3.4-.3s2.3,0,3.4.3c.7.1,1.3.7,1.5,1.4l1,4.6c1.3.5,2.5,1.2,3.5,2l4.5-1.4c.7-.2,1.5,0,2,.5.6.8,1.2,1.6,1.8,2.5l.4.6c.5.9.9,1.8,1.3,2.7h0ZM38.5,44.9c3.5,0,6.4-2.9,6.4-6.4s-2.9-6.4-6.4-6.4-6.4,2.9-6.4,6.4,2.9,6.4,6.4,6.4Z"/></svg>