<?xml version="1.0" encoding="utf-8"?>
<svg version="1.1"	 xmlns="http://www.w3.org/2000/svg" xmlns:xlink="http://www.w3.org/1999/xlink" width="27px" height="26.2px"
	 viewBox="0 0 27 26.2" xml:space="preserve">

<path d="M15,1c-0.3-0.6-0.8-0.9-1.5-0.9c-0.6,0-1.2,0.4-1.5,0.9L8.8,7.7L1.5,8.8C0.9,8.9,0.4,9.3,0.2,9.9c-0.2,0.6,0,1.2,0.4,1.7
	l5.3,5.2l-1.2,7.4c-0.1,0.6,0.2,1.2,0.7,1.6c0.5,0.4,1.2,0.4,1.7,0.1l6.5-3.5l6.5,3.5c0.5,0.3,1.2,0.2,1.7-0.1
	c0.5-0.4,0.8-1,0.7-1.6l-1.3-7.4l5.3-5.2c0.4-0.4,0.6-1.1,0.4-1.7c-0.2-0.6-0.7-1-1.3-1.1l-7.3-1.1L15,1z"/>
</svg>
