<svg xmlns="http://www.w3.org/2000/svg" xmlns:xlink="http://www.w3.org/1999/xlink" width="39.932" height="25.64" viewBox="0 0 39.932 25.64">
  <path id="Tracé_2538" data-name="Tracé 2538" d="M36.668,7.468l3.264-3.551H32.695a22.612,22.612,0,0,0-25.439,0H0L3.264,7.468a9.977,9.977,0,1,0,13.5,14.691l3.2,3.481,3.2-3.478A9.98,9.98,0,1,0,36.668,7.468M9.988,21.593a6.751,6.751,0,1,1,6.751-6.751,6.75,6.75,0,0,1-6.751,6.751m9.978-6.948c0-4.443-3.23-8.256-7.494-9.885a19.477,19.477,0,0,1,14.986,0C23.2,6.392,19.966,10.2,19.966,14.645m9.976,6.948a6.751,6.751,0,1,1,6.751-6.751,6.75,6.75,0,0,1-6.751,6.751m0-10.293a3.539,3.539,0,1,0,3.539,3.539A3.538,3.538,0,0,0,29.942,11.3M13.526,14.842A3.539,3.539,0,1,1,9.988,11.3a3.538,3.538,0,0,1,3.539,3.539" transform="translate(0 0)" fill="#fff"/>
</svg>