<?xml version="1.0" encoding="utf-8"?>
<svg version="1.1" xmlns="http://www.w3.org/2000/svg" xmlns:xlink="http://www.w3.org/1999/xlink" x="0px" y="0px"
	 viewBox="0 0 77 77" style="enable-background:new 0 0 77 77;" xml:space="preserve">
<style type="text/css">
	.st1{fill:#3EE98D;}
	.st0{fill:#224F5A;}
</style>
<path class="st0" d="M13,0h51c7.2,0,13,5.8,13,13v51c0,7.2-5.8,13-13,13H13C5.8,77,0,71.2,0,64V13
	C0,5.8,5.8,0,13,0z"/>
<path class="st1" d="M39,20.8c3,0,5.9,0.7,8.5,2.1s4.8,3.3,6.5,5.7s2.8,5.1,3.2,8h5.5l-9.2,10.5l-9.2-10.5h6.1
	c-0.6-2.6-2-4.8-4.1-6.5c-2.1-1.7-4.5-2.6-7.3-2.6c-1.9,0-3.6,0.4-5.2,1.3c-1.6,0.8-3,2-4.1,3.4l-4.5-5.1c1.7-2,3.8-3.5,6.2-4.6
	S36.3,20.8,39,20.8z M38,56.2c-2.3,0-4.5-0.4-6.6-1.2c-2.1-0.8-3.9-1.9-5.5-3.3c-1.6-1.4-2.9-3.1-4-5c-1.1-1.9-1.8-4-2.1-6.2h-5.5
	l9.2-10.5c1,1.2,2.6,2.9,4.6,5.3c2,2.3,3.6,4.1,4.6,5.3h-6.1c0.6,2.6,2,4.8,4.1,6.5s4.5,2.6,7.3,2.6c1.9,0,3.6-0.4,5.2-1.3
	c1.6-0.8,3-2,4.1-3.4l4.5,5.1c-1.7,2-3.8,3.5-6.2,4.6S40.7,56.2,38,56.2z"/>
</svg>
