<svg xmlns="http://www.w3.org/2000/svg" xmlns:xlink="http://www.w3.org/1999/xlink" width="40.402" height="28.283" viewBox="0 0 40.402 28.283">
  <path d="M39.558,4.417A5.059,5.059,0,0,0,35.986.845C32.836,0,20.2,0,20.2,0S7.566,0,4.417.845A5.06,5.06,0,0,0,.845,4.417C0,7.566,0,14.142,0,14.142s0,6.575.845,9.725a5.06,5.06,0,0,0,3.572,3.572c3.15.845,15.784.845,15.784.845s12.635,0,15.784-.845a5.059,5.059,0,0,0,3.572-3.572c.845-3.15.845-9.725.845-9.725s0-6.575-.845-9.725M16.157,20.2V8.083l10.5,6.06Z" fill="#fff"/>
</svg>